<svg xmlns="http://www.w3.org/2000/svg" viewBox="0 0 612 792"><defs><clipPath id="clippath"><path class="cls-1" d="M1 0h611v793H1z"/></clipPath><clipPath id="clippath-1"><path class="cls-1" d="M1 0h611v793H1z"/></clipPath><style>.cls-1,.cls-2{fill:none}.cls-2{stroke:#000;stroke-linecap:round;stroke-miterlimit:10}</style></defs><g id="Layer_2"><path class="cls-2" d="M138.86 438.12a193.482 193.482 0 0 1-.32-57.31c1.71-11.88 4.99-24.4 13.97-32.36 10.9-9.67 26.95-10 41.52-9.81 10.29.13 20.57.27 30.86.4 9.2-4.24 19.94-1.14 29.57 2.01 1.33.43 2.72.91 3.64 1.96.85.97 1.16 2.27 1.47 3.52 3.64 14.81 9.82 28.99 18.18 41.75 8.06 12.29 18.57 24.55 18.43 39.25-.07 7.71-4.8 16.43-12.5 16.87-2.78.16-5.49-.79-8.25-1.15-4.21-.54-8.46.3-12.67.84-13.76 1.78-27.7.38-41.5-1.02-10.63-1.08-21.26-2.15-31.89-3.23-3.08-.31-6.17-.63-9.17-1.4-4.14-1.07-8.07-3-12.32-3.52-10.02-1.24-20.2 5.53-29.03 3.19Z"/><path class="cls-2" d="M172.93 437.13c2.79-15.43 3.12-31.3.98-46.83M239.45 445.5c-1.64-7.65.99-15.49 1.51-23.29.37-5.62-.35-11.24-1.08-16.83-.65-5.04-1.31-10.07-1.96-15.11M397.36 443.87c1.21-18.92 2.43-37.85 3.64-56.77.8-12.51 2.73-26.98 13.44-33.5 3.55-2.16 7.69-3.14 11.77-3.93 17.16-3.33 34.84-3.99 52.21-1.94 1.7.2 3.48.46 4.84 1.51 1.27.98 1.97 2.5 2.63 3.96 8.22 18.36 15.79 29.34 22.91 48.15 1.34 3.54 2.7 12.71 6.07 14.73 1.08 7.63-1.68 14.91-4.55 19.53-2.1 3.38-5.44 5.82-8.95 7.7-3.72 2-7.73 3.47-11.86 4.37-5.4 1.17-10.95 1.36-16.47 1.54-1.92.06-3.85.13-5.77.19-4.86.16-9.75.32-14.56-.37-2.82-.4-5.6-1.1-8.44-1.34-4.71-.4-9.42.46-14.12.98-8.43.94-16.97.8-25.36-.42-2.04-.3-4.19-.71-5.74-2.07s-2.18-3.98-1.66-2.33Z"/><path class="cls-2" d="M452.53 449.36c1.88-14.03 1.97-28.31.27-42.36M486.27 449.63c3.17-16.46 1.07-33.89-5.91-49.13M154.8 346.46c-9.71-10-10.88-25.31-11-39.25-.3-33.66 2.27-67.35 7.67-100.58.67-4.14 1.44-8.42 3.8-11.88 2.89-4.25 7.72-6.67 12.34-8.92 4.91-2.39 10.52-4.83 15.64-2.93 2.17.81 4.08 2.36 6.37 2.74 1.81.31 3.65-.16 5.45-.53 10.31-2.12 21.21-1.23 31.04 2.53 2.55.98 5.17 2.17 7.89 1.9 3.81-.38 7.45-3.58 11.04-2.25 1.39.51 2.44 1.63 3.57 2.59 9.98 8.52 24.99 4.85 37.78 1.9 22.02-5.08 44.87-6.54 67.35-4.3 15.41 1.53 30.59 4.78 45.74 8.02 6.84 1.46 13.68 2.93 20.52 4.39 7.66 1.64 15.64 3.43 21.69 8.41 9.47 7.79 11.75 21.13 13.4 33.27 3.14 23.16 6.28 46.69 2.83 69.81-1.79 11.98-4.69 26.13 3.92 34.64"/><path class="cls-2" d="M151.71 205.47a199.601 199.601 0 0 1-25.49-43.44c-1.29-3.03-2.55-6.16-4.76-8.6-1.47-1.63-3.35-2.97-4.3-4.95-1.37-2.89-.31-6.48 1.82-8.87s5.12-3.8 8.1-4.98a86.7 86.7 0 0 1 23.02-5.66c1.97-.21 4.13-.29 5.73.88 1.22.89 1.86 2.35 2.41 3.75a82.95 82.95 0 0 1 5.21 20.67c.36 3.08.57 6.24 1.75 9.1 3.06 7.39 12.09 11.55 13.67 19.39"/><path class="cls-2" d="M159.16 190.54a56.491 56.491 0 0 0-11.81-22.14c-1.01-1.16-2.09-2.32-2.6-3.77-.58-1.63-.36-3.42-.4-5.15-.1-4.07-1.67-7.95-3.21-11.72-2-4.88-4-9.75-6-14.63M415.86 197.99c.54-.13-.4-.98-.14.22 8.59-19.49 17.18-38.97 25.77-58.46.24-.54.5-1.11.99-1.45 1.65-1.13 3.38 1.21 4.48 2.89 3.93 6.04 12.53 6.61 18.4 10.79 5.09 3.62 7.78 9.72 12.21 14.13 1.94 1.93 4.25 3.58 5.64 5.94 1.37 2.34 1.69 5.13 1.74 7.84.41 23.03-16.04 42.48-31.53 59.52"/><path class="cls-2" d="M444.78 212.05c11.06-17.42 18.5-37.13 21.7-57.52M474.75 212.94c6.6.73 12.44-4.18 16.65-9.3 4.21-5.13 8.04-11.05 14.1-13.76 6.14-2.74 13.23-1.57 19.84-.34 8.38 1.55 16.77 3.11 25.15 4.66 9.38 1.74 18.96 3.55 27.22 8.3 1.08.62 2.17 1.3 3.4 1.46 1.18.15 2.37-.19 3.55-.36 5.51-.81 15.87 5.59 17.9 10.78M581.34 398.68c-5.23 13.8-10.47 27.6-15.7 41.4-2.9 7.65-5.8 15.3-9.27 22.71a157.61 157.61 0 0 1-11.03 19.8c-4.57 6.97-9.71 13.56-15.36 19.69-1.53 1.67-3.14 3.32-5.1 4.45-2.08 1.19-4.46 1.73-6.79 2.28a288.662 288.662 0 0 0-64.28 23.57c-2.86 1.45-5.77 3.01-7.85 5.46-5.59 6.57-3.24 16.49-.6 24.7.31.95.65 1.96 1.45 2.57.74.57 1.72.67 2.65.74 14.22 1.15 28.55.94 42.74-.62 1.5-.16 3.06-.36 4.32-1.18.99-.64 1.74-1.62 2.8-2.15 1.82-.91 3.99-.26 5.92.38 9.3 3.09 19.6 5.53 28.72 1.94 12.55-4.95 18.24-19.2 22.51-31.99 5.44-16.32 29.21-89.75 30.34-93.25s4.51-5.63 3.21-9.96c1.81-5.6 6.01-7.35 5.03-15.59-.08-6.64 4.17-12.94 5.51-17.14M258.61 196c-.96 2.69-.98 5.72-.03 8.42.39 1.12.94 2.2 1.04 3.38.27 3.42-3.27 6.99-1.4 9.86 1.22 1.88 4.51 2.93 3.81 5.06 3.61 1.43 8.09 2.75 11.07.26 1.98-1.65 2.52-4.42 2.93-6.97 1.14-6.95 2.28-14 1.83-21.04-.22-.11-.43-.22-19.25 1.04ZM311.4 188.25a17.3 17.3 0 0 1 1.27 8.44c-.17 1.67-.57 3.42.05 4.98.25.63.66 1.19.93 1.82.66 1.57.33 3.35.2 5.05s.06 3.64 1.38 4.71c1.26 1.01 3.11.88 4.53 1.67.6.34 1.1.84 1.72 1.13.97.46 2.12.38 3.17.1 2.57-.7 4.8-2.58 5.9-5.01.58-1.27.86-2.66 1.06-4.05.66-4.6.49-9.31-.51-13.85-.48-2.15-1.12-4.5-.15-6.48M365.78 188.95c-.41 4.15 3.67 7.22 5.34 11.03 1.91 4.34.58 9.36.97 14.08.18 2.16.89 4.52 2.77 5.58 3.02 1.71 6.59-.88 10.03-1.36 1.06-.15 2.15-.09 3.17-.41 2.67-.85 3.84-3.91 4.53-6.62a94.945 94.945 0 0 0 2.71-16.24M359.95 249.11a73.728 73.728 0 0 0 .64 26.12c.15.72.34 1.49.88 1.99.42.39.99.55 1.5.8 2.23 1.09 3.26 3.72 5.27 5.18 2.98 2.16 7.1 1.17 10.62.1 3.92-1.19 7.9-2.41 11.39-4.55 1.42-.87 2.77-1.91 3.65-3.32 1.81-2.91 1.22-6.64.79-10.05-.61-4.8-.76-9.65-.46-14.47.12-1.86.28-3.85-.61-5.49M199.22 261.91c1.58 4.3 2.7 8.77 3.32 13.31.29 2.15.53 4.46 1.94 6.11 1.2 1.41 3.05 2.09 4.86 2.47 5.63 1.18 11.46 0 17.1-1.17 2.05-.43 4.13-.86 5.99-1.81 4.7-2.38 7.35-7.74 7.69-13s-1.3-10.45-3.33-15.31M292.53 324.48c3.38.3 6.78.42 10.17.34 2.15-.05 4.35-.19 6.32-1.04 3.22-1.39 5.5-4.74 5.61-8.25s-1.96-6.99-5.09-8.58c-2.99-1.51-6.53-1.31-9.85-.92-3.99.47-8.37 1.39-10.75 4.63-1 1.37-1.53 3.02-1.97 4.66-.31 1.17-.58 2.39-.41 3.59.44 3.27 3.99 5.38 5.97 5.56ZM294.06 324.8c.63 5.71.2 11.53-1.26 17.09-.5 1.89-1.12 3.79-1.13 5.75 0 1.62.17 3.71-1.32 4.37-1.34.59-2.84-.65-4.29-.43-.59.09-1.12.42-1.66.67-3.12 1.47-6.79.57-10.11-.36-2.71-.76-5.43-1.51-8.14-2.27-1.09-.3-2.4-.56-3.22.21"/><path class="cls-2" d="M311.18 322.49a80.93 80.93 0 0 0 1.73 18.43c.65 3.06 1.64 6.32 4.17 8.15 2.6 1.88 6.09 1.74 9.29 1.53 2.3-.15 4.75-.37 6.56-1.8 2.41-1.9 2.91-5.32 4.6-7.88.98-1.49 2.35-2.67 3.4-4.11a11.6 11.6 0 0 0 2.16-5.77M80.64 271.39c7.77-1 15.63-1.26 23.45-.8.95.06 1.98.16 2.66.81.61.58.81 1.49 1.38 2.11 1.31 1.43 3.64.7 5.48.09 5.64-1.89 11.97-1.63 17.44.72 2.85 1.22 6.03 3.02 8.84 1.7 1.16-.54 2.03-1.54 3.14-2.18 1.93-1.11 4.29-.98 6.51-.83l28.66 2.01M76.18 304.78c17.26-3.24 34.6-6.05 52-8.43 5.32-.73 10.72-1.41 16.06-.82 3.23.36 6.42 1.18 9.68 1.16 6.62-.04 13.02-3.59 19.58-2.71M66.28 355.85c5.82.8 12.72 1.22 16.55-3.23 1.06-1.23 1.77-2.75 2.89-3.92 1.1-1.15 2.55-1.92 3.97-2.65a309.946 309.946 0 0 1 58.86-23.08c1.46-.41 3.05-.8 4.47-.26 1.43.54 2.35 1.89 3.4 3 3.77 3.99 10.24 5.13 15.15 2.67M425.63 293.94c13.79.49 27.58.97 41.37 1.46 1.59.06 3.23.12 4.7.73 2.1.87 3.65 2.74 5.7 3.74 4.68 2.28 10.95-.46 15.18 2.59M423.06 327.69c9.91 1.17 19.92.26 29.9.25s20.25.96 29.11 5.54M417.8 342.13l11.92-.63c1.53-.08 3.09-.16 4.58.22 1.57.4 2.98 1.31 4.56 1.7 3.08.77 6.25-.46 9.3-1.33a40.394 40.394 0 0 1 20.54-.35c2.45.6 5.08 1.43 7.43.51 1.32-.52 3.12-1.41 3.85-.21M295.1 417.86c7.12-1.92 15.3 3.51 16.28 10.82.14 1.06.18 2.2.82 3.05 1.08 1.42 3.21 1.29 4.98 1.1 7.99-.85 16.16 0 23.8 2.5 2.81.92 5.58 2.06 8.51 2.46 4.09.56 8.23-.36 12.35-.14 3.27.17 6.49 1.06 9.77.99 5.4-.11 10.67-3.02 13.65-7.52 1.37-2.07 2.32-4.49 4.24-6.06s5.33-1.72 6.46.48c.99-.65 1.99-1.29 2.92-2.01M509.98 395.92c3.23-7.23 6.48-14.46 9.75-21.67 2.12-4.68 4.75-9.82 9.63-11.45 2.6-.87 5.42-.56 8.15-.42 14.55.76 28.88-3.36 43.39-4.73 3.29-.31 6.81-.43 9.65 1.25 5.25 3.09 5.66 10.4 5.44 16.49-1.67-1.16-4.06-1.15-5.72.01.28 1.31.56 2.63.85 3.94A58.32 58.32 0 0 0 579 398.03"/><path class="cls-2" d="M501.09 388.94c3.76-1.02 7.17 2.46 9.17 5.81.46.77.96 1.61 1.79 1.97.6.25 1.28.21 1.92.16 3.02-.23 6.05-.47 9.07-.7 2.12-.16 4.25-.33 6.31-.86 2.17-.56 4.36-1.53 6.56-1.12 2.85.53 4.77 3.18 7.35 4.51 3.18 1.63 7 1.1 10.52 1.77 1.56.3 3.08.84 4.66.88 1.88.05 3.7-.6 5.51-1.14 9.02-2.67 18.6-2.5 28-2.31 4.57.09 9.39.26 13.25 2.7M523.35 190.12c-2.07 5.78 1.56 11.89 2.52 17.95.53 3.32.23 6.76-.85 9.93-.51 1.5-1.21 3.01-1.13 4.6.14 2.78 2.61 4.89 5.13 6.06s5.34 1.8 7.59 3.45c.7.51 1.35 1.13 2.18 1.37 1.68.49 3.35-.7 4.7-1.81 1.67-1.38 3.35-2.76 5.02-4.14.78-.64 1.59-1.32 2.05-2.22.38-.75.49-1.59.59-2.42.59-4.64 1.18-9.28 1.78-13.92.1-.82.21-1.65.07-2.46-.17-1-.69-1.91-.98-2.88-.88-2.9.3-5.99 1.46-8.8M580.16 203.63c-2 2.07.08 5.67-1.12 8.26-.35.76-.97 1.38-1.33 2.13-.84 1.79-.06 3.9-.35 5.84-.26 1.7-1.33 3.45-.59 5.01.3.62.84 1.09 1.27 1.65.7.91 1.05 2.05 1.79 2.93 1.38 1.66 3.95 2.07 6 1.32s3.6-2.48 4.58-4.39 1.45-4.04 1.92-6.13c.9-4.03 1.8-8.06 2.69-12.09"/></g></svg>