<?xml version="1.0" encoding="UTF-8"?>
<svg id="Layer_1" xmlns="http://www.w3.org/2000/svg" viewBox="0 0 1250.87 1045">
  <defs>
    <style>
      .cls-1 {
        fill: none;
        stroke: #000;
        stroke-linecap: round;
        stroke-miterlimit: 10;
        stroke-width: 2px;
      }
    </style>
  </defs>
  <path class="cls-1" d="M327.05,643.17c2.69,6.84,6.08,13.06,8.8,19.82,3.32,8.24,7.58,15.86,8.73,24.81,1.08,8.45,4.97,15.42,8.93,22.82,2.88,5.38,4.48,12.79,10.65,15.43,2.96,1.27,5.59,2.32,8.87,2.23,3.34-.09,5.51-1.13,8.46-2.64,2.19-1.12,3.5-2.29,5.09-4.2,1.74-2.09,3.62-3.01,5.75-4.59,1.99-1.48,3.1-3.6,4.75-5.39,1.08-1.17,2.34-2.19,3.19-3.57,1.27-2.1,2.01-4.92,2.22-7.38.43-4.98.54-9.38-.91-14.21-1.35-4.49-2.63-9.37-3.05-14.04-.35-3.84-.51-6.63-2.46-10.15-1.82-3.29-3.32-6.6-5.03-9.93-1.94-3.77-5.19-6.54-6.84-10.56-2.03-4.95-3.06-10.42-5.74-15.03-1.33-2.29-2.89-4.44-4.45-6.57-.72-.97-1.67-2.58-2.85-2.87"/>
  <path class="cls-1" d="M264.87,483.1c-1.34,3.29-3.99,6.96-2.55,10.46.53,1.28.98,2.47,1.75,3.65,1.58,2.42,3.72,4.63,5.67,6.75,3.43,3.72,8.29,7.4,13.12,9.17,4.83,1.77,8.59.4,12.43-2.68,3.52-2.83,3.93-6.71,3.55-11.03-.55-6.17-5.79-11.58-9.74-15.9-3.18-3.47-5.65-6.62-10.56-7.26-2.6-.34-3.51.07-5.85,1.02-1.41.57-3.12.72-4.21,1.95-1.72,1.93-1.44,4.37-3.62,3.87Z"/>
  <path class="cls-1" d="M503.13,474.73c-.3-6.12-2.38-9.95,5-11.26,2.4-.43,5.03-.26,7.49-.22,7.8.15,12.9,9.74,15.78,16.09,1.15,2.52,2.36,5.56,2.02,8.39-.33,2.7-3.33,3.47-5.7,4.61-7.6,3.67-16.55,3.81-22.74-2.41-2.22-2.24-4.83-4.86-5.91-7.88-.51-1.43,1.38-.04,4.06-7.32Z"/>
  <path class="cls-1" d="M814.76,574.38c4.26,4.26,8.53,8.53,12.79,12.79"/>
  <path class="cls-1" d="M413.48,757.38c-1.69-6.53-2.84-11.51-2.66-18.06.1-3.68.55-7.32.81-10.98.38-5.54.24-11.25.11-16.8-.31-13.5-2.4-27.32-4.96-40.56-1.73-8.96-3.93-17.38-3.89-26.57.04-8.01.53-16.21-.4-24.18-1.07-9.22-2.98-18.36-4.98-27.42-1.99-9.04-2.65-17.8-3.21-27.03-.46-7.54-1.43-15.12-1.57-22.68-.12-6.38.3-13.01.69-19.38.42-6.83-.26-13.55-.23-20.38.03-5.81.02-11.62,0-17.44-.04-11.59,2.51-23,3.06-34.55.16-3.45.68-6.78.94-10.21.15-2.06-.59-4.1-.47-6.05.02.41.02.83.01,1.24"/>
  <path class="cls-1" d="M243.26,737.98c-3.22-1.94-5.75-3.02-7.99-5.66-.56-.66-1.04-1.62-1.63-2.32-.68-.81-1.5-1.45-2.17-2.23-2.59-3.03-4.18-6.79-5.4-10.52-1.77-5.4-4.21-10.41-5.84-15.88-1.82-6.09-3.49-12.44-5.6-18.42-1.71-4.85-2.89-9.08-3.42-14.22-.78-7.54-1.81-15.23-3-22.71-.66-4.16-.53-9.11-2.04-13.05-1.26-3.27-2.53-5.64-2.62-9.25-.07-2.66.41-5.24.49-7.88.15-4.83-.3-9.39-.82-14.15-.16-1.43-.11-2.89-.09-4.33.03-2.05-.06-2.33-1.21-3.98-2.82-4.05-1.89-9.22-1.87-13.92.01-3.88-.52-7.61-.84-11.47-.17-1.98.02-3.88-.35-5.85-.38-2-1.16-3.81-1.46-5.81-.38-2.47-.67-4.76-1.31-7.2-.48-1.84-1.11-3.61-.91-5.56.35-3.5,1.69-7.93,3.12-11.1,1.73-3.82,1.76-6.79,1.76-10.97,0-5.39-.01-10.91.41-16.27.69-8.74,5.9-16.91,8.19-25.24,1.16-4.21,2.46-8.32,4.16-12.34.6-1.42,1.67-4.13,2.65-5.33.92-1.13,2.43-1.31,3.56-2.22,2-1.6,3.49-3.79,5.59-5.25,2.73-1.89,6.37-1.24,9.49-1.28,5.91-.07,11.37-4.97,16.68-7.29,3.49-1.52,7.31-1.47,10.8-3.07,3.73-1.71,6.79-4.05,10.89-4.99,8.8-2.02,17.56-.69,26.37.35,7.78.92,15.12,1.06,22.91,0,2.53-.34,4.88-1.35,7.4-1.71,2.36-.33,4.79-.14,7.16-.4,4.21-.46,8.32-.55,12.56-.55,4.45,0,8.91.05,13.36.01,4.98-.04,9.95-1.3,14.87-2.01,7.29-1.05,13.49.8,20.34,2.83,2.23.66,10.64,2.61,11.76-.36.26-.05.36.08.31.41"/>
  <path class="cls-1" d="M409.51,438.56c4.73-.48,9.77-1.79,14.53-1.76,2.62.01,5.25,0,7.87,0,5.49,0,10.57-.59,15.97-1.31,3.9-.52,7.32-1.33,11.37-1.33,3.33,0,6.67.09,9.99.01,7.73-.19,15.44-1.83,23.22-1.78,7.93.04,15.82.45,23.73.45,15.01,0,31.41,2.69,45.27,9.46,5.98,2.92,11.23,5.81,16.11,10.52,4.34,4.19,9.39,4.78,10.89,10.59.88,3.42,2.07,6.64,3.05,9.98,1.84,6.22,2.97,12.67,4.86,18.89,1.16,3.81,1.31,7.17,1.38,11.09.07,4.02,1.77,7.89,2.6,11.8,1.24,5.85,1.84,11.87,2.74,17.78.98,6.37.44,12.56.94,18.93.43,5.48,1.94,10.77,2.15,16.28.15,4.01.44,7.95.43,11.96,0,4.41-.06,8.8.31,13.2.5,6.03.71,12.02,1.12,18.05.36,5.34-.58,10.13-.94,15.42-.17,2.46.54,4.68.76,7.11.25,2.61.15,5.35.1,7.97-.11,4.77-.27,9.81-.97,14.54-.76,5.1-2.36,9.92-2.91,15.11-.82,7.68-1.67,15.2-3.3,22.75-1.51,7.01-4.45,12.65-9.03,18.16-4.82,5.8-10.62,10.9-15.94,16.25-4.14,4.17-9.17,6.77-14.19,9.78-2.43,1.46-5.14,3.09-7.88,3.89-3.23.95-6.88.62-10.19,1.38s-6.45,1.41-9.68,2.13c-4.04.9-8.27.62-12.35,1.4-14.13,2.7-28.49,5.37-42.9,5.29-4.07-.02-8.06.68-12.12.89-4.17.21-8.44.16-12.59.54-6.61.61-14.14-.94-20.51.76-4.79,1.28-9.13,1.34-14.11,1.34s-9.72.44-14.65.44c-7.68,0-15.16.62-22.81,1.22-5.04.4-10.07.28-15.1.64-5.3.38-10.58.62-15.86-.16-8.5-1.27-16.32-5.11-24.8-6.55-1.87-.32-3.75-.59-5.62-.89-2.98-.48-5.89-.12-8.86-.47-4.15-.5-8.81-2.2-12.87-3.35-4.48-1.28-8.4-3.3-12.71-4.92-3.55-1.33-7.34-1.57-11.04-2.16-4.29-.69-8.5-.8-12.76-1.44-4.03-.6-7.85-1.87-11.93-2.19-2.35-.19-4.64,1.56-7.03,1.77"/>
  <path class="cls-1" d="M429.79,606.57c3.52,4.86,8.08,9.46,11.39,14.46,1.65,2.48,2.79,4.85,3.16,7.8.42,3.39.12,6.92.75,10.27.81,4.33,2.71,9.23,4.52,13.25.81,1.8,2.12,3.33,2.7,5.25.51,1.69.55,3.5.85,5.24.84,4.96,1.87,9.72,2.99,14.63,1.94,8.54,3.2,17.45,10.68,23.17,3.41,2.61,7.06,2.69,11.12,3.48,6.09,1.19,10.62.5,15.76-3.4,3.94-3,6.8-5.17,8.53-9.95,1.81-5,3.4-9.63,3.4-14.96,0-3.79-.12-7.67-.43-11.44-.3-3.7-1.75-6.89-3.11-10.28-1.53-3.8-2.34-8.52-1.79-12.62.53-3.96,1.95-7.33,1.29-11.55-.63-4.07-3.11-9.33-4.98-12.99-2.03-3.95-5.08-7.4-7.32-11.27-2.97-5.12-7.7-7.63-12.77-10.12"/>
  <path class="cls-1" d="M529.01,596.87c5.99,13.89,8.63,29.03,7.17,44.17-.78,8.14-1.57,16.18-3.21,24.21-1.22,5.97-2.85,11.86-4.19,17.81-1.75,7.72-3.15,15.49-5.07,23.18-1.87,7.51-4.14,14.83-5.28,22.49-.44,2.93-1.72,5.52-2.25,8.4-.36,1.99-.6,3.96-1.07,5.94-.57,2.42-1.75,3.4-2.87,5.06"/>
  <path class="cls-1" d="M288.24,590.26c4.33,10.74,9.96,20.21,11.91,31.77.69,4.12,2.1,7.8,3.54,11.71,1.3,3.52,2,7.2,3.16,10.76,1.25,3.84,3.12,7.46,4.3,11.31,1.61,5.26,2.12,10.82,3.55,16.15,2.21,8.25,2.71,16.7,4.37,25.02,1.12,5.65,3.64,10.72,3.98,16.53.33,5.79,1.3,11.63,1.38,17.42.06,4.45.43,8.77.43,13.23"/>
  <path class="cls-1" d="M188.58,564.24c6.05-1.04,13.23-3,19.59-3.1,3.08-.05,6.21.24,9.27-.18,3.94-.55,7.81-1.92,11.67-2.9,2.42-.61,4.85-.74,7.3-1.11,3.49-.53,6.91-1.74,10.39-2.42,4.07-.8,9.06-2.03,13.22-1.77,4.25.26,8.24,1.37,12.56,1.36,10.81-.04,21.83.74,32.49-1.33,8.79-1.7,18.84-2.51,26.5-7.51,5.42-3.54,10.77-9.12,13.29-15.2,2.69-6.47,1.28-15.11,7.88-19.53,3.93-2.63,8.98-4.36,12.15-8,1.52-1.74,2.07-3.85,3.22-5.79,1.2-2.02,2.95-3.9,4.6-5.56,2.23-2.24,4.06-3.8,7.13-4.22,2.54-.35,4.72-.4,7.25.11s5.03.59,7.54.98c3.17.49,6.07,1.74,9.14,2.57,7.64,2.07,15.02,2.61,22.92,3.1,11.9.74,23.89,2.53,35.65,4.4,9.63,1.53,19.45,3.54,28.09,8.35,5.2,2.9,9.13,6.55,13.45,10.59,5.25,4.9,10.39,9.92,15.54,14.93,4.86,4.72,10.45,9.26,14.42,14.66,3.05,4.15,6.6,5.98,11,8.44,3.1,1.74,6.77,1.21,10.2,1.21,4.29,0,8.38-.79,12.61-.89,4.53-.1,9.1.42,13.6.94,4.57.53,9.18.32,13.77.94,1.55.21,7.63.91,9.03.95"/>
  <path class="cls-1" d="M81.61,455.46c3.25,2.63,4.97,5,7.39,8.23,1.16,1.54,2.42,3.13,3.81,4.47.93.9,1.98,1.63,2.62,2.81.45.84.53,1.56,1.17,2.36,1.44,1.82,2.74,3.56,4.94,4.44,1.56.62,3.32.88,4.75,1.79,1.75,1.11,3.27,3.08,4.75,4.5,3.23,3.11,6.41,6.19,9.86,9.07,3.45,2.88,6.13,3.64,10.47,3.88,4.01.22,8.57-1.16,12.4-2.23,3.66-1.03,6.71-2.92,9.61-5.36,2.57-2.17,5.22-4.17,5.42-7.79.11-1.94-.47-3.7-.67-5.6-.24-2.37-.03-4.42-.66-6.76-1.18-4.37-3.22-7.91-6.01-11.44-3.24-4.11-5.72-8.93-9.66-12.53-3.68-3.37-7.27-7-11.31-9.96-2.61-1.91-5.09-3.87-8.06-5.2-2.19-.98-4.63-2.51-6.93-3.05-3.5-.83-7.67-.36-11.17.29-3.72.68-6.98,3.84-10.34,5.62-5.89,3.12-9.52,8.68-11.73,14.72-.54,1.48-1.32,5.21-1.07,6.89"/>
  <path class="cls-1" d="M78.94,440.83c-8.32,5.25-19.21-1.97-23.4-6.72-2.08-2.36-3.2-5.33-4.63-8.11-2.85-5.56-5.79-11.04-9.29-16.19-1.77-2.61-3.81-4.32-6-6.53-1.81-1.84-3.23-3.56-3.78-6.08-.6-2.73.64-4.46,1.5-7,.76-2.25,1.4-4.68,1.22-7.04-.39-5.01,4.88-5.26,8.8-5.71,6.86-.78,12.86,2.02,18.95,4.69,7.72,3.39,14.51,11.06,18.53,18.41,1.99,3.64,3.91,7.41,5.47,11.25.93,2.29,1.87,4.62,2.18,7.1.29,2.25,0,4.65-.09,6.91-.14,3.39-.54,7.11-2.34,10.11-1.57,2.61-4.53,3.65-7.12,4.91"/>
  <path class="cls-1" d="M30.27,361.86c6.6,1.16,12.54,1.85,18.99-.06,2.46-.73,4.66-1.13,6.62-2.86,4.59-4.05,6.55-11,7.1-16.86.32-3.4-.2-7.03-.52-10.41-.38-3.99-1.93-7.59-2.45-11.53-1.01-7.65-1.23-15.22-4.8-22.21-3.12-6.11-9.36-12.87-16.29-14.29-2.68-.55-5.56,0-8.29-.04-1.49-.02-2.97-.31-3.94,1.11-.92,1.34-1.2,4.28-1.47,5.88-.83,4.88-1.53,9.57-1.52,14.54,0,4.86-1.38,9.25-.74,14.08.53,3.99.63,8.03,1.04,12.03.52,5.07,1.77,10.07,2.26,15.12.38,3.93,1.11,7.45,2.45,11.18.67,1.87,1.73,3.56,2.12,5.53-.04-.36-.19-.63-.53-1.23Z"/>
  <path class="cls-1" d="M28.92,284.71c-1.2-8.56-2.86-16.97-4.15-25.5-.52-3.46-.74-6.99-1.35-10.43-.68-3.85-1.4-7.26-1.49-11.18-.11-4.9-.9-9.69-.91-14.61,0-2.56-.51-5.11,2.05-6.47,1.54-.81,3.26-.74,4.92-1.15,2.38-.58,4.39-1.88,6.75-2.5,1.85-.48,3.66-1.27,5.6-1.45,1.97-.18,4,.33,5.95.1,2.66-.3,5.36-.82,7.67,1.02,1.54,1.23,2.17,3.52,2.98,5.21,1.25,2.61,2.32,5.27,3.12,8.04.95,3.26,3.26,7.37,2.44,10.88-.75,3.23-5.45,1.64-7.92,2.32-4.24,1.17-8.54,3.13-12.41,5.19-1.18.63-3.28.87-4.1,2.03s-.13,2.64.31,3.92c1.36,3.94,3.04,8.14,5.1,11.75,2.22,3.88,2.44,8.22,4.76,12.04,1.3,2.14,2.67,3.36,4.91,4.48,1.77.89,3.57,2.87,5.54,3.28,1.86.38,3.12-1.18,4.54-2.18,2.01-1.41,3.92-3.04,6.02-4.32,4.19-2.54,9.61-3.2,11.71-8.29,1.21-2.94,1.07-6,1.41-9.1.37-3.34,1.2-6.88,1.12-10.22-.14-6.1-.3-12.52.5-18.59.25-1.89.36-3.82.38-5.73.01-1.27-.3-2.63.24-3.8"/>
  <path class="cls-1" d="M60.41,562.38c-2.92,4.2-5.77,6.95-5.5,11.93.08,1.54.58,2.96.62,4.52.09,3.53,1.65,6.31,3.09,9.48,1.19,2.61,2.48,5.29,4.11,7.62,2.36,3.37,6.7,5.35,9.83,7.93,7.92,6.53,14.06,14.9,22.72,20.43,2.81,1.79,6.17,1.78,9.13.31,1.83-.91,3.11-2.61,5.04-3.31,2.25-.81,4.52-1.12,6.72-2.08,7.26-3.15,14.31-6.54,21.29-10.26,2.38-1.27,5.17-2.54,6.61-4.95,2.23-3.72,1.61-5.94-.61-9.49-2.57-4.11-6.01-7.71-9.13-11.42-1.76-2.09-3.51-4.19-5.27-6.28-1.92-2.27-3.33-4.71-5.05-7.11-1.16-1.62-2.1-3.37-3.6-4.73-1.99-1.83-4.61-3.28-6.99-4.53-4.46-2.35-9.26-5.05-14.35-5.5-5.58-.49-11.09,1.18-16.68,1.18-4.04,0-7.92,1.57-11.94,1.56-3.11,0-4.68.62-7.24,2.3-1.32.87-2.92,1.06-4.06,1.92-.14-.13-.28-.27,1.23.48Z"/>
  <path class="cls-1" d="M55.15,569.05c-3.07.64-10.8,3.78-14.29.67-1.47-1.3-1.86-4.01-2.24-5.82-.89-4.23-1.8-8.42-2.79-12.62-.33-1.39-.88-4.23-.34-5.64.65-1.67,2.77-3.07,4.15-3.97,3.63-2.39,7.42-6.82,11.8-7.79,4.49-.99,9.08,3.88,11.69,6.89,2.83,3.26,5.1,6.67,4,11.19-.8,3.26-2.4,5.57-4.99,7.62-.33.26-4.68,3.08-6.98,9.47Z"/>
  <path class="cls-1" d="M35.22,555c-3.21,2.04-6.99,5.39-10.84,5.94-.93.13-2,.14-2.94.19-1.56.07-3.16.11-4.71-.14-3.27-.54-6.08-1.52-8.8-3.45-2.47-1.75-6.43-4.3-6.44-7.75,0-1.67,1.16-2.92,1.73-4.41.65-1.67.29-3.02,1.23-4.64,3.62-6.25,12.28-7.62,18.86-5.83,2.07.56,3.7,1.77,5.58,2.71,1.57.79,2.94,1.29,4.33,2.43.9.75,3.96,3.32,3.7,4.57-.53,0-.96-.34-1.7,10.38Z"/>
  <path class="cls-1" d="M57.13,672.04c1.71,7.58,3.94,15.29,9,21.4,1.95,2.35,3.38,4.8,5.77,6.73,4.69,3.79,9.56,7.55,15.6,8.97,1.54.36,3.08.75,4.63,1.09,1.87.41,3.05.25,4.9.23,2.8-.03,5.81.74,8.51,1.41,2.37.58,4.72.94,7.08,1.61,3.03.87,6.49,2.54,9.63,2.68,5.61.25,13.86-.75,15.67-7.14,1.08-3.83.91-8.25,1.02-12.2.09-3.23.2-6.71-1.06-9.74-.88-2.11-2.97-4.75-5.2-5.19-3.89-.78-7.81-1.23-11.68-2.08-3.77-.83-7.53-.14-11.32-.18-4.85-.06-9.87-.99-14.68-1.6-4.57-.58-9.37-1.56-13.57-3.42s-8.59-3.61-13.08-4.13c-3.75-.43-7.72-.73-11.42-1.51-1.32-.28-.89-1.78.2,3.04Z"/>
  <path class="cls-1" d="M30.73,666.94c-1.33,3.92-3.45,7.6-2.47,11.52.32,1.27,1.02,2.53,1.59,3.7.94,1.93,2.16,3.69,3.06,5.64,1.05,2.28,1.03,4.29,1.39,6.68.26,1.7.94,2.98,2.35,3.97,3.89,2.74,9.27,1.89,13.45.35,5.07-1.86,6.81-6.27,6.51-11.42-.33-5.72-2.62-11.5-5.9-16.16-.98-1.39-1.7-3.07-2.69-4.41-1.36-1.82-3.89-1.84-6-1.88-3.09-.06-5.95.18-8.88,1.04-1.14.34-1.74-.02-2.42.97.21-.37-1.35-.46,0,0Z"/>
  <path class="cls-1" d="M18.14,686.44c-3.38.12-8.37,1.23-11.19-1.03-1.07-.85-2.23-2.17-3.01-3.26-1.52-2.11-2.08-4.52-2.53-7.03-.66-3.69-.7-8.34,1.41-11.59,2.48-3.82,6.38-5.33,9.72-8.12,2.77-2.31,4.88-2.32,7.34.59,2.43,2.88,4.24,6.29,5,10,.85,4.11.15,8.41-.1,12.56-.17,2.88-1.62,4.9-3.6,6.95-.91.95-1.91,1.2-3.25,1.11-.57-.04-1.88-.19.21-.18Z"/>
  <path class="cls-1" d="M7.37,537.59c-.17-5.54-.47-10.02.47-15.26.48-2.71,1.06-5.31,1.85-7.94,1.57-5.23,4.12-9.95,6.78-14.68,2.32-4.12,4.65-8.59,8.32-11.62,1.63-1.35,3.25-2.72,4.88-4.09"/>
  <path class="cls-1" d="M167.87,762.41c-1.74-.38-3.85-.52-5.44-1.36-1.61-.84-.37-.13-1.04-.84-.43-.46-.87-.97-1.28-1.44-.65-.74-1.3-1.31-2.05-1.96-1.3-1.12-2.51-1.87-4.26-2.01-1.54-.13-3.15.32-4.61.76-2.05.62-3.93,1.12-6.09,1.21-2.43.1-4.85.02-7.28.12-2.2.09-4.35.48-6.56.57-5.47.21-10.9,1.31-16.29,2.07-3.07.43-6.11,1.06-9.21,1.32-2.36.2-4.8-.17-7.13.35s-3.87.15-6.11-.29c-2.82-.56-5.63-1.12-8.45-1.68-1.42-.28-2.93-.78-4.37-.74-2.44.07-4.83.3-7.3.24s-4.74-.06-7.21-.57c-3.13-.65-6.04-1.97-9.1-2.86-2.6-.76-5.18-.94-7.81-1.47-1.51-.31-3.13-.79-4.67-.9.05.64.71,1.19,1.11,1.68.81.99,1.57,1.98,2.23,3.08,1.46,2.46,3.04,4.71,4.76,6.99,1.13,1.5,2.21,2.8,3.15,4.46.86,1.5,1.41,3.05,2.12,4.61.76,1.65,2.08,3.26,3.21,4.66,1.89,2.34,3.86,4.61,6.52,6.08,1.24.68,2.6,1.09,3.84,1.75,1.55.82,2.97,1.84,4.54,2.64,3.05,1.56,6.19,3.4,9.53,4.24,4.54,1.15,9.22,1.57,13.8,2.5,4,.82,8.04,1.37,12.12,1.45,3.78.07,7.72-.9,11.47-.4,3.01.4,5.69.74,8.74.74,1.58,0,3.27.12,4.85.29,1.17.12,2.36.64,3.54.45,4.88-.78,10.1-3.49,14.31-5.93,2.13-1.24,4.2-2.93,6.03-4.59.96-.87,1.5-1.69,2.12-2.81.57-1.04,1.33-1.95,1.89-3.01,1.01-1.92,1.85-4.3,2.53-6.37.66-2,.23-4.33,1.09-6.25.62-1.4,2.24-2.04,2.83-3.36.39-.87.07-1.94-.06-3.42Z"/>
  <path class="cls-1" d="M23.66,787.04l.15-.1c-.3.18-.78.54-.91.86-.24.59.64,1.24.94,1.67.36.51.63,1.05.87,1.63.34.83.83,1.56,1.34,2.29.85,1.22,1.74,2.38,2.55,3.63.39.61.88,1.15,1.3,1.73.47.64.83,1.27,1.51,1.73s1.67.58,2.5.62c.5.02,1.02.08,1.51-.03.66-.14,1.29-.43,1.96-.56s1.45-.18,2.05-.5,1.17-.73,1.69-1.13c1.33-1.05,2.18-2.28,2.47-3.94.41-2.31.4-4.68.45-7.02.03-1.5-.11-2.98-.22-4.47-.13-1.79-.07-3.58-.17-5.37-.07-1.34-.17-2.68-.2-4.02-.01-.56.09-1.7-.16-2.17-.69-1.29-3.27-.95-4.35-.74-.98.19-1.92.33-2.91.43-.89.09-1.65.54-2.45.92-.73.35-1.47.7-2.1,1.22-.82.68-1.34,1.54-1.91,2.42-1.11,1.73-2.06,3.86-2.08,5.94-.02,2.11.44,4.39,1.4,6.28.53,1.05,1.12,2.04,1.74,3.04.41.66.82,1.48,1.59,1.78.58.23,2.49.78,2.77-.14-.19-.06-.38-.09-.58-.13"/>
  <path class="cls-1" d="M63.75,852.75c-.97-.03-5.99.72-6.95.65-.57-.04-1.15.03-1.72-.05-1.03-.14-2.06-.32-3.08-.51-2.41-.46-3.99-2.1-5.76-3.68-1.32-1.18-2.39-2.59-3.5-3.96-1.18-1.47-2.4-2.85-3.4-4.46-.82-1.33-1.6-2.65-2.02-4.16-.5-1.83-1.11-3.47-1.95-5.17-1.29-2.64-2.27-5.74-2.72-8.66-.2-1.32-.13-2.67-.24-4-.07-.9-.06-1.79.27-2.64.26-.68.62-1.41.99-2.04.26-.44.65-.79.94-1.21.35-.51.65-.95,1.13-1.35,1.23-1.01,2.62-1.97,3.96-2.83.69-.44,1.37-.89,2.06-1.33s1.42-1.15,2.26-1.35c.61-.14,1.23-.24,1.81-.47.52-.21,1-.51,1.51-.72.54-.23,1.11-.44,1.69-.56.75-.16,1.52-.09,2.28-.2s1.51-.33,2.29-.3c1.39.05,2.58.66,3.72,1.4,3.19,2.08,5.93,4.74,8.69,7.34s5.43,5.44,7.2,8.83c.75,1.43,1.02,3.02,1.36,4.58.46,2.09.8,4.29.73,6.43-.06,1.75.15,3.5.09,5.25-.05,1.59-.46,3.4-.95,4.9-.51,1.59-1.5,2.63-2.7,3.74-1.08,1-1.96,2.13-2.93,3.22-1.02,1.15-2.37,1.96-3.74,2.66"/>
  <path class="cls-1" d="M118.15,893.85c-2.88,1.58-5.91,3.43-8.48,5.52-1.93,1.57-3.34,3.6-5.35,5.07-1.98,1.45-3.73,3.18-5.91,4.36-1.4.76-2.99.91-4.36,1.81-.71.46-1.34,1.03-2.07,1.45-.62.35-1.31.53-1.93.87-.46.25-.96.83-1.5.43-.42-.31-.59-1.39-.77-1.83-.38-.95-1.04-1.77-1.54-2.65-.59-1.04-.91-2.14-1.41-3.21-.6-1.3-1.35-2.56-2.03-3.82-1.75-3.29-3.18-6.57-4.63-10-.84-1.99-1.81-3.81-2.37-5.92-.2-1.03-.5-2.04-.9-3.01-.56-1.12-1.22-2.18-1.97-3.19-1.12-1.73-1.78-3.36-2.09-5.4-.28-1.87-.41-3.73-.77-5.59-.48-2.43-.64-4.95-1.43-7.31-.33-.97-.77-1.9-1.09-2.88-.37-1.14-.51-2.34-.91-3.47-.53-1.48-1.04-2.97-1.61-4.42-.32-.82-.39-1.71-.75-2.52-.21-.46-.45-.71-.55-1.2"/>
  <path class="cls-1" d="M167.07,1044c-3.45-1.79-7.82-3.65-10.47-6.72-2.2-2.54-3.52-5.62-5.43-8.35-2.5-3.58-3.95-7.21-5.08-11.39-.53-1.97-1.18-3.91-1.68-5.89-.56-2.21-.92-4.47-1.56-6.66-.5-1.67-1.06-3.28-1.31-5.02-.16-1.12-.07-2.23-.18-3.35s-.53-2.17-.8-3.25c-.3-1.2-.36-2.32-.4-3.55-.05-1.73-.24-3.47.09-5.18.15-.79.32-1.58.47-2.37"/>
  <path class="cls-1" d="M138.88,992.72c-.67-.71-6.11-5.26-6.72-6.03-1.35-1.71-1.91-3.87-2.55-5.91-1.21-3.87-2.34-7.96-2.56-12.01-.13-2.48-.33-4.9-.02-7.37.25-2.07.73-4.1,1.01-6.17.53-3.98.89-8.07,1.15-12.07.22-3.47.42-6.85,1.1-10.27.45-2.26,1.11-3.71,2.93-5.19,1.96-1.59,4.13-1.58,6.48-1.93,1.26-.19,2.41-.27,3.68-.23,1.52.05,3-.27,4.51-.21,1.33.05,2.64.35,3.97.47,1.06.09,2.39-.02,3.4.38,2.49.99,4.73,3.14,6.12,5.35,1.62,2.58,3.02,5.21,3.43,8.25.25,1.84.57,3.63.88,5.46.33,1.95.24,3.94.6,5.9,1.23,6.62,2.22,13.27.81,19.95-.5,2.39-1.75,4.39-2.92,6.5-.55.98-1.37,1.51-2.19,2.23-.97.86-1.46,1.88-2.29,2.84-1.87,2.13-4.73,3.02-6.9,4.78-1.06.86-2.3,1.34-3.48,2.03-.95.55-1.8,1.13-2.81,1.57-1.35.59-2.72,1.08-4.12,1.48-.73.21-2.01.1-1.56,1.17"/>
  <path class="cls-1" d="M188.36,946.04c.56-.08,1.13-.4,1.68-.56.91-.27,1.79-.5,2.73-.65,4.36-.72,8.84.94,12.14,3.78.96.82,2.12,1.45,3.2,2.12,1.28.79,2.1,1.75,3.11,2.86,3.49,3.81,4.92,8.38,6.8,13.1.44,1.11.92,2.32,1.53,3.36.87,1.49,2.24,2.29,2.8,4,.42,1.27.46,2.63.73,3.93.36,1.74,1.17,3.33,1.38,5.1.32,2.76-.13,5.56-.18,8.32-.04,2.22-.3,3.75-1.4,5.67-.73,1.28-1.2,2.71-1.86,4.03-.54,1.09-1.41,2.01-1.89,3.12-.45,1.03-.77,2.22-1.48,2.7-1.87,1.27-4.86,3.99-7.49,4.2-1.07.08-2.11.01-3.17-.13-1.66-.22-3.41-.96-4.98-1.56s-3.03-1.21-4.48-1.96c-2.28-1.17-3.18-2.97-4.45-5.11-2.1-3.56-4.57-6.76-5.95-10.69-1.58-4.48-4.05-8.58-5.72-13.01-.56-1.47-1.21-2.91-1.5-4.46-.33-1.74-.23-3.51-.39-5.27-.39-4.19.59-8.31,1.06-12.46.17-1.53.52-2.96.52-4.52,0-1.38.17-2.6.44-3.94.17-.85.31-1.64.36-2.49.03-.45,6.2.87,6.46.49"/>
  <path class="cls-1" d="M213.65,999.66c1.49,1.15,3.25,2.23,4.3,3.82.55.84.93,1.77,1.27,2.72.89,2.51,1.36,5.15,2.35,7.64,1.02,2.56,2.33,4.96,3.16,7.6.53,1.69.46,3.31.75,5.02.27,1.61.86,3.15,1.13,4.78.23,1.38.48,2.75.81,4.11.79,3.24,2.8,4.82,5.6,6.37,2.43,1.35,5.54,1.31,8.22,1.87,1.74.36,3.04.47,4.78.27,1.72-.21,3.41.02,5.12-.04,1.52-.05,2.86-.1,4.37.01,1.02.08,1.94-.13,2.93-.32,1.15-.22,2.85.16,3.88-.49-.21-.25-.46-.42-.69-.66"/>
  <path class="cls-1" d="M212.32,788.71c-.15,1.15-.63,2.35-.86,3.53-.21,1.09-.47,2.09-1.13,3-.76,1.05-1.53,1.9-1.81,3.21-.39,1.85-1.18,3.22-2.18,4.81-.96,1.52-1.33,2.8-1.7,4.53-.41,1.93-1.81,3.11-2.52,4.88-.36.91-.58,1.55-1.28,2.26-.44.44-.78.8-1.13,1.3-1.68,2.43-3.61,4.72-5.47,7.01-1.03,1.26-2.53,2.08-3.67,3.25-1.08,1.1-1.86,2.5-2.81,3.71-.76.96-1.29,1.95-1.9,3.01-.83,1.46-2.1,2.58-2.95,4.01-.87,1.46-1.83,2.9-2.54,4.45-.62,1.35-1.54,2.49-2.12,3.85-1.09,2.56-2.36,5.11-3.75,7.52s-2.17,4.67-4.18,6.53c-.74.69-1.62,1.22-2.38,1.88-1.21,1.07-2.15,2.49-3.47,3.42-1.09.77-2.38,1.16-3.27,2.21-.39.46-.69,1.03-1,1.55-.5.85-1.1,1.7-1.52,2.59-.45.96-.53,1.98-.8,2.99-.92,3.43-3.04,6.36-4.43,9.59-.69,1.59-1.58,3.09-2.41,4.61-.74,1.36-1.34,2.72-2.23,4-1.16,1.66-2.1,2.93-2.48,4.95-.24,1.3-.6,2.62-.55,3.96.06,1.8.56,4.05,1.42,5.65.9,1.68,2.63,3.08,3.81,4.54,3.21,3.96,6.88,8.21,11.38,10.73,3.89,2.18,8.12,4.68,12.59,5.42,1.32.22,2.64.11,3.96.19,1.24.08,2.48.26,3.72.33,1.31.07,2.61.18,3.92.25,3.55.2,6.74-.74,9.87-1.6,1.51-.04,3.56.36,4.73-.88.52-.55.83-1.16,1.42-1.64,1.51-1.21,3.15-2.3,4.7-3.49,1.91-1.47,3.57-3.14,5.39-4.71,3.09-2.66,6.41-4.94,9.78-7.24,1.73-1.18,3.29-2.56,4.99-3.76,1.78-1.26,3.95-2.04,5.88-3.07,1.05-.56,2.03-1.36,2.66-2.38,1.19-1.92,2.38-3.94,3.4-5.96,1.15-2.28,1.68-4.91,2.17-7.4.62-3.1,1.71-5.98,3.1-8.8.89-1.81,1.57-3.6,2.74-5.26,1.54-2.19,2.71-4.64,3.62-7.16.8-2.19,1.71-4.23,2.81-6.29.95-1.77,1.42-3.8,2.14-5.68,1.67-4.32,2.82-9.23,1.55-13.82-.53-1.93-.79-3.89-1-5.88s-.81-3.88-1.58-5.74c-.74-1.78-.92-3.72-1.86-5.4-.71-1.27-1.48-2.5-2.3-3.7-1.05-1.55-2.38-2.01-4.01-2.81-1.39-.69-2.22-1.78-3.44-2.68-1.13-.84-1.52-1.54-1.63-2.97-.09-1.19-.25-2.08-.71-3.19s-.9-1.88-1.86-2.6c-1.48-1.12-3.08-1.24-4.76-1.81-1.43-.48-2.61-1.19-4.13-1.48-1.76-.33-2.96-.96-4.56-1.68-1.28-.57-2.63-.92-3.94-1.4s-2.71-1.3-3.97-1.98c-1.12-.61-2.21-1.27-3.3-1.92-1.3-.78-2.35-1.84-3.68-2.58-.91-.5-1.64-1.15-2.47-1.77"/>
  <path class="cls-1" d="M427.7,884.76c-1.46-3.64-3.64-7.85-3.59-11.97.02-1.99.38-3.94.44-5.92.12-4.28-1.4-8.58-1.55-12.87-.26-7.4-1.53-14.54-2.29-21.88-.39-3.75-.99-7.47-1.4-11.22-.29-2.72-.47-5.48-1.22-8.12-1.63-5.74-1.6-11.51-2.25-17.41-.6-5.45-.18-10.82-.42-16.26-.09-2.09.29-4.32-.16-6.37-.38-1.73-1.19-3.26-1.25-5.06-.08-2.62-.22-5.69-.92-8.24-.22-.79-.75-1.55-.89-2.35-.07-.42.15-.78.01-1.25"/>
  <path class="cls-1" d="M693.28,871.6c-2.73,3.8-4.97,8.17-9.35,10.1-1.21.53-2.39,1.11-3.62,1.61-2.7,1.1-4.96,2.86-7.69,3.87-3.65,1.35-7.3,2.84-11.04,3.89-1.97.55-3.78.75-5.81.83-2.69.1-5.67.73-8.33.42-4.34-.51-7.51-3.85-11.09-6.04-4.06-2.48-8.28-4.56-12.1-7.43-3.33-2.5-5.57-5.85-7.95-9.22-1.19-1.69-2.18-3.42-3.74-4.82-1.36-1.23-2.92-2.24-4.3-3.45-4.06-3.54-7.92-7.41-11.67-11.28-4.44-4.57-9.88-7.81-14.64-12.01-2.7-2.38-5.7-4.55-8.13-7.2-2.72-2.95-5.38-6.31-7.6-9.65-3.91-5.87-8.41-11.99-10.55-18.78-.79-2.49-.78-3.97-.28-6.47.39-1.95.51-4.27,1.26-6.1,1.51-3.7,4.49-5.95,8.17-7.22,2.15-.74,4.4-1.3,6.6-1.89,2.58-.7,5.35-.46,8.04-.55,6.13-.2,12.21-.33,18.28-1.26,2.8-.43,5.61-1.03,8.33-1.77,3.66-1,7.12-1.32,10.91-1.44,4.44-.14,8.77-.44,13.22-.14,2.03.14,3.96.53,5.95.9,2.14.4,4.3.22,6.43.6,1.65.29,3.46.54,4.99,1.22,1.33.59,2.5,1.36,3.88,1.85,3.29,1.18,6.67,2.53,9.61,4.44,3.7,2.41,6.68,4.83,9.33,8.37,1.14,1.52,2.23,3.07,3.36,4.6,1.31,1.77,2.95,3.3,3.98,5.26,1.7,3.24,3.05,6.83,4.62,10.16.92,1.97,1.38,4.11,2.31,6.09,1.02,2.18,2.15,4.29,3.01,6.54,3.28,8.54,5.49,17.53,6.72,26.58.71,5.18.68,10.48-.33,15.59-.19.94-.3,1.95-.57,2.88"/>
  <path class="cls-1" d="M782.11,751.86c-2.92,5.54-5.92,11.1-8.98,16.56-1.13,2.01-3.16,4.98-5.06,6.35-2.55,1.83-6.35,2.21-9.27,3.27-1.79.64-3.34,1.28-5.25,1.12-2.16-.17-4.36-.83-6.48-1.25-9.86-1.96-20.25-3.14-29.63-6.84-8.91-3.51-18-5.97-26.02-11.37-5.05-3.39-10.1-6.2-15.55-8.93-5.94-2.98-11.38-6.83-17.33-9.81-4.77-2.39-9.02-5.08-13.42-8.07-2.85-1.94-5.24-3.42-8.62-4.22-2.37-.57-4.26-1.78-6.23-3.07s-3.84-1.38-3.8-4.02c.02-1.55.49-3.04.76-4.56.58-3.2-.93-6.14-.89-9.34.03-2.68.65-5.39,1.15-8,.57-2.93,1.77-5.19,3.48-7.64,1.28-1.82,2.56-3.73,3.87-5.52,1.59-2.17,3.76-3.27,6.14-4.39,6.84-3.22,13.74-3.88,21.22-3.57,4.2.17,8.67-.14,12.81.62,4.88.89,9.74,1.97,14.61,2.92,6.33,1.24,12.39,3.17,18.53,5.11,5.64,1.78,11.4,2.76,17.06,4.4,4.78,1.38,9.29,3.37,13.94,5.1,4.32,1.61,8.73,2.92,12.74,5.23,3.61,2.08,7,4.55,10.59,6.68,1.92,1.14,3.71,2.27,5.5,3.59,1.27.94,2.83,1.56,3.99,2.65.99.94,1.04,1.85,1.68,2.98.52.91,1.24,1.62,1.73,2.56,1.09,2.09,1.93,4.33,2.29,6.65.39,2.54.62,4.68.34,7.2-.21,1.93-.13,4.2.34,6.08.71,2.8,1.5,5.33,2.66,7.82.77,1.64,1.4,3.12,1.08,3.71Z"/>
  <path class="cls-1" d="M783.95,664.33c-4.48,1.76-9.93,4.67-15.03,4.78-1.58.03-3.15-.02-4.73-.11-4.59-.26-8.8-1.11-13.13-2.64-8.24-2.9-17.14-4.05-25.7-5.74-3.56-.7-7.03-1.74-10.57-2.45-3.18-.63-6.47-.52-9.63-1.19-3.66-.77-7.25-2.56-10.81-3.77-5.25-1.79-10.31-4.17-15.68-5.61-6.18-1.65-12.04-3.72-18.32-4.97-1.31-.26-2.72-.4-4-.77-1.52-.44-2.76-1.61-4.26-2.22-2.28-.93-3.87-1.96-2.6-4.46,1.42-2.8,3.1-5.41,3.94-8.49,1.01-3.71.63-7.71,2.43-11.25,1.06-2.09,4.14-4.62,6.27-5.7,9.33-4.72,20.2-.35,29.82.71,5.68.63,10.92,1.83,16.51,3.04,7.64,1.65,15.35,3.03,23.02,4.56,3.09.61,6.17,1.3,9.27,1.87,2.69.49,5.39.38,8.08.94,2.15.45,4.33.79,6.48,1.27,2.6.58,4.87,1.88,7.22,3.05,2.54,1.27,5.06,2.53,7.21,4.44,2.05,1.83,3.37,4.31,5.35,6.23.95.92,2.13,1.6,3.01,2.6s1.56,2.47,2.19,3.66c1.24,2.38,2.37,4.43,3.21,6.98.72,2.2,1.75,3.96,1.71,6.3-.03,1.58-.55,3.06-.39,4.6.11,1.03,1.13,5.48-.85,4.34Z"/>
  <path class="cls-1" d="M787.85,568.01c-1.4,3.17-3.06,9.93-7.07,11.81-1.6.75-3.75,1.29-5.47,1.66-2.93.63-6.2.33-9.16.15-4.01-.24-8-.34-11.99-.86-8.69-1.13-17.31-3.2-25.9-4.92-8-1.6-15.95-2.65-23.78-4.97-7.22-2.14-14.66-4.55-22.11-5.66-7.04-1.05-14.09-1.36-21.17-1.85-2.11-.15-4.46-.7-6.55-.41-1.55.22-2.76.41-4.33.3-1.69-.12-2.62.45-4.11.94-.08-.17-.06-.34.05-.51"/>
  <path class="cls-1" d="M659.8,572.09c-2.55-3.05-5.41-5.96-7.19-9.54-.59-1.18-1.1-2.39-1.65-3.59-.93-2.04-.8-3.71-.64-5.88.36-5.03,3.01-8.59,6.46-12.06,2.25-2.26,5.41-3.97,8.09-5.71,3.04-1.96,6.6-3.31,10.06-4.3,3.72-1.06,7.52-1.68,11.29-2.55,5.23-1.21,10.68-1.22,15.97-2.14,5.06-.88,10.08-.91,15.19-1.18,4.65-.25,9.34-.73,13.99-.74,4.05-.01,8.03.66,11.98,1.45,4.36.88,8.48,1.39,12.38,3.63,5.43,3.12,10.59,6.72,15.69,10.32,4.17,2.94,8.63,5.5,10.8,10.29,1.86,4.11,2.27,8.7,4.9,12.3.79,1.08,1.6,1.78,1.52,3.23-.06,1.15-.66,2.26-.6,3.42.1.25.07.23-.08-.06"/>
  <path class="cls-1" d="M813.43,483.94c.02.16,1.37,6.43-.13,7.98-.5.52-2.51,1.19-3.02,1.47-1.89,1.04-3.57,2.26-5.69,2.8-3.43.87-6.1.51-9.49-.03-7.65-1.22-15.28-2.57-22.99-3.52-8.08-.99-16.12-2.94-24.1-4.55-10.54-2.13-21.31-2.19-32.02-1.56-2.21.13-4.34.33-6.55.26-2.27-.07-4.6-.53-6.85-.46-4.08.14-7.64,1.01-11.26,2.86-7.71,3.93-16.12,4.12-24.46,2.45-6.15-1.23-12.37-1.19-18.55-2.08-1.32-.19-3.04-.31-3.87-1.42-1.37-1.82-.8-4.1-.4-6.1.45-2.26.64-3.57-.12-5.77-.73-2.12-1.5-4.35-1.56-6.62-.06-2.53.04-4.95.54-7.43.26-1.31.31-2.91.91-4.11.81-1.61,2.62-2.84,4-3.89,2.44-1.87,4.87-4.14,7.6-5.56,3.6-1.87,7.29-3.03,10.12-6.12,2.34-2.56,4.69-4.61,7.37-6.81,3.74-3.06,7.56-4.9,12.04-6.57s8.25-3.69,12.75-4.93c4.41-1.22,9.41-2.5,14-2.39,3.93.09,7.53-1,11.46-1.04,5.3-.06,10.53-.34,15.8-.92,5.55-.61,11.37.32,16.92.77,3.57.29,7.12,1.26,10.63,1.94,2.85.55,5.17,1.67,7.82,2.81,4.66,2.02,8.43,5.32,13.11,7.21,4.21,1.7,8.01,5.23,11.36,8.28,2.91,2.65,6.28,4.58,8.59,7.86,2.27,3.22,3.39,7.15,4.11,11.01.47,2.55,1.05,5.64.97,8.2-.07,2.13.1,3.7.77,5.69.59,1.73.59,3.44.22,5.22-.21,1.01-.5,2.1-.46,3.07.04.92.5,1.89.3,2.89.18.08.28,0,.11-.91Z"/>
  <path class="cls-1" d="M670.47,917.09c.97.74,2.07,1.46,3,2.25.41.35.7.79,1.01,1.23.55.78.93,1.65,1.42,2.47.47.79,1.05,1.48,1.59,2.22.69.95,1.19,2.13,1.68,3.2.43.93.9,1.84,1.33,2.77.44.96.72,1.98,1.23,2.9.59,1.08,1.05,2.25,1.73,3.27.62.93,1.39,1.63,2.34,2.21s1.74,1.31,2.7,1.77c.53.26.99.28,1.57.29.49,0,.95.1,1.43.13.77.05,1.55-.08,2.33-.06,1.11.02,2.26.03,3.27-.51.67-.36,1.21-.73,1.95-.94.86-.24,1.38-.6,1.84-1.38.22-.37.37-.77.62-1.13.2-.28.42-.54.6-.84.42-.7.5-1.53.57-2.33.06-.74-.02-1.5.09-2.24.11-.78.42-1.54.58-2.31.23-1.08.36-2.18.53-3.27.19-1.22.5-2.41.59-3.64.13-1.73.03-3.56-.6-5.18-.18-.47-.41-.92-.6-1.39-.23-.56-.38-1.15-.62-1.7-.44-1.02-1.1-1.82-1.76-2.7-1.34-1.8-3.15-3.29-4.98-4.57-.45-.31-.89-.64-1.4-.84s-1.11-.29-1.65-.45-1.09-.4-1.66-.45c-.77-.07-1.66.06-2.42.21-1.01.2-1.93.55-2.84,1.04-.52.28-1.05.5-1.58.76-.62.31-1.18.72-1.76,1.09-.95.61-1.8,1.34-2.71,2.01-1.06.78-2.3,1.22-3.42,1.89-.83.51-1.38,1.19-1.57,2.14-.16.79-.4,1.55-.52,2.36-.07.47-.14.92-.23,1.38-.13.65-.08,1.26-.07,1.92,0,.83-.08,1.65-.33,2.45-.22.67-.25,1.33-.41,2.01-.1.43-.24.85-.32,1.28-.09.47-.14.99-.35,1.42.02-.07.03-.14.04-.21"/>
  <path class="cls-1" d="M641.43,976.57c-.47-.05-1.62.04-1.93-.53-.09-.17-.1-.43-.15-.62-.13-.51-.22-.94-.16-1.47.14-1.23.42-2.44.76-3.63.23-.83.56-1.62.75-2.46.22-.96.33-1.91.43-2.89.19-1.8.71-3.5,1.17-5.24.33-1.24.77-2.54,1.72-3.45,1.06-1.02,2.25-1.1,3.65-1.07.74.01,1.47-.02,2.21-.04.91-.03,1.86.18,2.73.45s1.64.71,2.4,1.21c.97.64,1.94,1.31,2.77,2.13s1.44,1.8,2.12,2.74,1.43,1.84,2.03,2.83c.68,1.12,1.25,2.36,1.88,3.51.67,1.22,1.31,2.5,1.87,3.78,1.37,3.08,3.73,7.97.55,10.73-.75.65-1.61.7-2.55.8s-1.87.3-2.82.36c-1.11.08-2.21-.07-3.29-.3-1.22-.26-2.44-.35-3.68-.49-1.04-.11-2.01-.5-3.03-.71-.75-.15-1.58-.19-2.28-.52-.6-.29-1.07-.81-1.42-1.36-.42-.65-.88-1.24-1.31-1.87-.81-1.2-.93-2.87-1.22-4.26-.25-1.2-.73-2.36-1.07-3.53-.18-.6-.33-1-.69-1.5-.19-.27-.34-.51-.36-.84-.02-.26-.04-.68-.34-.77"/>
  <path class="cls-1" d="M593.72,1008.05c2.18.64,3.92,1.22,5.73,2.59,1.11.84,2.16,1.76,3.21,2.67,1.23,1.07,2.34,2.27,3.69,3.2,1.04.72,2.07,1.43,3.1,2.16,2.03,1.44,4.07,2.67,6.57,3.1,2.18.38,4.4,0,6.6.13,2.42.14,4.55.22,6.83-.73,2.13-.89,3.13-2.44,3.93-4.54,1.04-2.73,1.61-5.64,2.69-8.34.99-2.5,2.08-4.99,3.13-7.46,1.11-2.61,2.26-5.2,3.57-7.71.96-1.82,1.66-3.67,2.73-5.42.97-1.59,1.17-3.5,1.72-5.23.35-1.11.92-2.32,1.53-3.32.19-.3.38-.51.53-.84.13-.28.22-.68.44-.88"/>
  <path class="cls-1" d="M928.75,877.32c-.44-5.17-.77-9.61,1.22-14.44,1.01-2.46,2.83-4.25,4.15-6.52,2.33-4,2.98-8.32,4.41-12.6,1.62-4.83,5.04-8.56,6.82-13.33.78-2.09,1.17-4.05,1.64-6.21.46-2.09,1.34-4.04,1.84-6.11.84-3.47,1-7.03.56-10.58-.44-3.58-3.32-7.62-5.62-10.35-1.02-1.21-2.54-2.13-3.43-3.46-.6-.9-.89-2.06-1.35-3.02s-1.84-2.63-1.51-3.73"/>
  <path class="cls-1" d="M882.55,727.05c.5,4.49,2.14,10.93.42,15.57-.53,1.42-1.04,2.59-1.39,4.11-.97,4.17-1.8,8.45-1.99,12.72-.31,6.89-1.22,13.65-2.5,20.41-.76,4.01-.32,8.19-.87,12.27-.28,2.08-.53,3.36.69,5.02s2.32,3.37,3.84,4.65c3.21,2.71,6.52,5.26,10.15,7.42,2.19,1.31,4.34,2.84,6.63,3.96,2.6,1.27,5.63,1.74,8.45,2.3,2.64.53,4.08.74,6.72.15,2.21-.5,4.42-.6,6.56-1.45,3.12-1.23,6.36-2.14,9.32-3.71,2.62-1.39,4-3.38,5.07-6.11s1.89-6.04,2.46-9.02c.95-4.9,2.01-9.78,2.05-14.77.03-3.49-1.55-7.24-3.19-10.26-.95-1.74-2.25-3.27-3.25-4.98-1.09-1.87-1.96-3.83-3.05-5.69-2.13-3.64-4.77-7.27-7.41-10.57-2.68-3.34-6.29-5.61-9.35-8.5-1.9-1.8-3.28-3.89-5.39-5.49-1.83-1.38-3.67-2.29-5.82-3.07-1.34-.48-2.32-1.38-3.58-1.98-1.36-.65-2.61-.74-4.02-1.15-2.39-.69-4.55-1.18-7-.28-.51.19-3.1,1.69-3.54-1.54Z"/>
  <path class="cls-1" d="M808.33,729.83c-.73,6.8-1.98,13.61-1.72,20.47.17,4.45,1.67,8.54,2.54,12.86.85,4.22,1.84,8.39,4.74,11.68,3.34,3.78,6.78,7.45,10.28,11.06,2.28,2.35,5.16,4.13,7.7,6.22,2.8,2.31,4.92,3.35,8.52,2.3,3.33-.97,6.18-2.24,8.81-4.53,2.8-2.44,5.8-5.15,7.97-8.18,1.7-2.38,2.65-5.28,3.35-8.1.85-3.43.28-6.76.12-10.22-.16-3.33-1.36-6.17-3.15-8.95-1.96-3.05-3.08-6.87-5.6-9.51-1.51-1.58-3.44-2.59-5.03-4.05-1.1-1-2.05-2.19-3.09-3.26-2.33-2.38-4.61-4.8-6.69-7.38-2.67-3.32-7.84-4.5-11.92-4.41-2.14.05-4.26.46-6.38.74-1.73.22-3.83.35-5.41,1.15s-2.4,1.83-4.42,1.71c.06-.5.4-.77-.62.41Z"/>
  <path class="cls-1" d="M805.82,669.36c7.3-.93,14.26-1.01,21.4.89,5.86,1.56,11.73,3.19,17.61,4.67,6.99,1.76,13.93,3.49,21.08,4.52,4.08.59,8.18.91,12.26,1.45,3.79.5,7.49,1.52,11.27,2.06,3.33.47,6.61.49,9.95.3,3.06-.18,6.13,0,9.19-.14,3.45-.17,7.48-1.06,9.97-3.65,2.68-2.8,4.3-6.23,3.97-10.11-.09-1.08-.1-2.22-.35-3.28-.23-.96-.69-1.81-.82-2.8-.09-.65-.04-1.29-.05-1.94-.03-1.58-.53-2.74-1.12-4.17-.86-2.08-.6-4.32-1.66-6.37-1.04-2.01-2.57-3.68-3.54-5.76-.62-1.32-1.16-2.51-2.06-3.67-.97-1.26-2.08-2.35-2.84-3.77-.64-1.19-1.05-2.18-2.03-3.16-1.63-1.65-3.66-3.03-5.58-4.32-4.89-3.28-10.58-5.2-16.42-5.98-6.3-.83-12.47-2.09-18.71-3.33-5.77-1.15-11.5-2.48-17.41-2.22-3.18.14-6.19-.54-9.34.3-1.41.38-2.73,1.01-4.15,1.35-1.89.46-3.75.55-5.59,1.23-3.06,1.13-6.84,1.42-9.41,3.5-1.28,1.04-2.67,2.01-3.82,3.19-1.8,1.84-4.03,3.12-5.91,4.86-1.53,1.42-2.48,4.12-3.29,6-.77,1.79-1.13,3.6-1.5,5.5-.73,3.68-1.24,7.7-.99,11.46.16,2.4,1.5,4.79,1.13,7.22-.11.76-.32,1.52-.47,2.27-.26,1.26.06,1.91.44,3.03-.7.08-1.42-.95-1.22.86Z"/>
  <path class="cls-1" d="M854.78,467.81c.75,2.48.58,7.46,2.96,8.91,1.05.64,2.15,1.06,3.34,1.39,1.37.38,2.75.44,4.14.68,2.14.37,4.25.93,6.39,1.31,4.39.77,8.89.02,13.33.39,3.06.26,6.07.08,9.13.03,3.74-.06,7.32.47,11.01,1.04,11.05,1.7,22.35,2.01,33.51,2.55,4.45.22,8.88.27,13.32.56,4.51.3,9.07.6,13.59.71,3.13.07,6.06.22,9.17.63,2.89.38,5.92.48,8.84.68,1.88.13,4.08.11,5.96-.04,2.33-.19,4.3-.78,6.21-2.17,1.92-1.4,3.59-4.08,4.3-6.33.77-2.41,1.67-5.15,1.64-7.68-.03-3.54-.64-7.02-1.53-10.44-1.04-4.01-1.81-8.13-3.63-11.86-.65-1.33-1.19-2.77-1.98-4.02-.99-1.55-2.42-2.82-3.74-4.08-3.34-3.2-6.81-6.22-10.63-8.84-5.37-3.68-10.47-7.93-16.64-10.2-3.56-1.31-7.25-1.99-10.95-2.72s-7.17-1.68-10.75-2.87c-3.25-1.08-6.83-1.53-10.19-2.16-3.69-.69-7.37-.32-11.09-.46-3.47-.13-6.68-1.21-10.2-1.05-3.34.16-6.7.6-10.05.17-1.59-.2-3.2-.54-4.72-1.03-.99-.32-1.96-.82-3.01-.89s-1.91.41-2.89.71c-1.09.34-2.14.3-3.27.44-2.6.32-4.72.87-7.04,2.17s-4.95,1.9-7.28,3.26c-1.97,1.15-3.91,2.34-5.99,3.28-2.31,1.04-4,2.71-5.87,4.39-2.44,2.2-3.76,4.62-5.27,7.48-.59,1.12-1.59,1.89-2.18,2.99-.51.96-.79,2.18-.97,3.25-.38,2.32.29,4.29,1.58,6.11,1.47,2.09,1.57,5.15,2.05,7.59.49,2.5-.15,4.76-.07,7.25.05,1.6.03,3.13-.04,4.73-.06,1.27-.06,2.05-.44,3.26"/>
  <path class="cls-1" d="M950.69,677.86c5.41,2.79,10.67,4.95,16.55,6.5,4.59,1.21,9.31,2.5,14.06,2.86,3.25.24,6.33.74,9.53,1.38,4.03.8,8.09,1.33,12.1,2.15,2.52.51,5,1.04,7.55,1.33,3.09.35,5.98.24,9.06.2,2.66-.03,5.34.48,8,.3,1.37-.09,2.69-.43,4.07-.49,2-.09,3.99.18,5.98.34,5.96.48,12.18.76,18.12,0,4.81-.61,10.53-1.62,14.34-4.94,3.67-3.2,5.13-7.92,4.46-12.64-.54-3.76-1.16-7.33-2.88-10.73-1.45-2.88-1.84-6.01-3.15-8.92-1.45-3.21-3.24-6.38-4.94-9.46-.96-1.74-1.85-3.54-3.03-5.15s-2.72-2.96-4.14-4.43c-2.1-2.19-3.72-4.82-6.12-6.72-3.11-2.46-6.44-4.51-10.03-6.19-2.89-1.36-5.58-2.19-8.71-2.79-3.62-.7-7.25-1.69-10.94-1.93-2.82-.18-5.65-.32-8.47-.4-3.92-.12-7.64-1.19-11.52-1.61-2.75-.3-5.41-.85-8.14-1.28-2.47-.38-4.9-.31-7.37-.54-3.11-.28-6,.06-9.09.51-2.31.34-5.11,1.01-7.15,2.14-2.12,1.17-3.32,3.16-5.04,4.75-1.39,1.29-2.82,2.47-4.07,3.9-3.03,3.48-7.23,7.36-8.19,12.03-.54,2.61-1.49,5.05-2.01,7.64-.43,2.16-.15,4.17-.28,6.33-.14,2.28-.02,4.17.24,6.46.22,1.97-.49,3.98-.42,6,.07,2.05.72,3.99.34,6.03-.29,1.54,1.07,5.83,1.3,7.36"/>
  <path class="cls-1" d="M1071.29,658.3c6.06-1.12,12.19-2.6,18.38-2.59,2.06,0,4.32.45,6.35-.14,1.37-.4,2.6-1.25,3.88-1.83,2.64-1.2,5.01-2.12,7.28-3.96,1.1-.89,1.98-1.75,2.74-2.93.7-1.08,1.8-2.38,2.3-3.57.34-.83.31-1.8.56-2.65.27-.92.81-1.63,1.25-2.47.65-1.23,1.69-2.4,1.99-3.73.4-1.8.64-3.48-.01-5.27-1.52-4.16-5.5-6.64-7.84-10.23-1.13-1.73-2.2-3.86-3-5.79-.87-2.11-.99-4.42-1.75-6.56-1.4-4.01-3.56-7.77-5.31-11.64-2.66-5.88-4.84-11.97-8.26-17.49-1.93-3.11-4.5-5.54-6.61-8.48-1.62-2.25-2.35-5.09-4.43-6.99-2.02-1.84-3.85-3.38-5.11-5.86-.76-1.5-1.09-2.23-2.68-2.77-2.47-.84-4.36-2.74-6.64-3.98-2.82-1.53-5.79-3.17-8.86-4.08-1.87-.55-3.35-1.62-5.13-2.3-1.28-.48-2.62-.22-3.87-.57-.42-.12-.55-.17-.44-.33"/>
  <path class="cls-1" d="M1241.65,466.15c-1.01.79-2.1,1.5-3.2,2.17-2.11,1.27-3.86,2.75-5.72,4.34s-3.97,2.44-6.12,3.32c-2.74,1.12-5.6,2.37-8.56,2.72-4.75.56-8.87-1.04-13.34-2.17-2.25-.57-4.65-.41-6.94-.11-2.86.37-5.72.71-8.6.97-3.37.31-6.72.77-10.11.62-3.04-.13-6.01-.43-9.06-.25-3.28.2-6.56.09-9.84.41-3.61.35-7.19.13-10.8.46-3.58.32-7.13.91-10.71,1.31-3.02.34-6.08-.08-9.11-.07-3.28.01-6.51.5-9.79.43-2.41-.05-4.82-.24-7.23-.09-1.9.11-3.42.6-5.24,1.03-5.91,1.39-12.14,1.1-18.12,2.21-2.45.46-4.97.84-7.46,1.08-2.94.29-5.92-.18-8.88.04-5,.39-9.86-.39-14.88-.26-1.81.05-3.54.12-5.34-.01-1.98-.15-3.6.18-5.54.48s-4.27.03-6.13.6c-1.27.39-2.2,1.49-3.6,1.39-2.14-.15-1.79-2.58-2.37-4.12-.7-1.86-1.9-3.46-2.6-5.3-1.01-2.67-1.63-5.45-2.11-8.24-.61-3.55-1.39-7.1-2.17-10.62-.54-2.43-.37-4.77-.59-7.25-.21-2.37.04-4.61.41-6.96.52-3.22.54-6.41,1.44-9.58,1.19-4.19,1.26-8.72,1.98-13.02.27-1.59.59-3.2.94-4.77.48-2.17,1.76-3.7,2.9-5.54,1.76-2.84,2.53-6.94,5.5-8.79,1.73-1.08,3.58-2.23,5.55-2.78,2.29-.64,4.68-.54,7-.98,2.28-.43,3.92-1.02,5.89-2.21s4.35-1.75,6.52-2.61c4.56-1.82,9.84-2.31,14.74-2.6,2.13-.13,4.14.2,6.28-.13,2.49-.39,4.81-1.4,7.31-1.71,5.96-.74,11.61-.14,17.56.14s11.42,2.29,17.25,2.87c2.07.21,4.09-.13,6.13-.38,3.09-.38,5.91-.55,8.9-1.5,2.83-.89,5.61-1.63,8.52-2.24,3.07-.65,5.56-2.16,8.53-3.03,4.44-1.3,9.1-2.23,13.64-3.11,4.41-.85,8.82-2.05,13.32-2.34,3.64-.23,7.6.32,11.21.73,5.36.62,11.76.73,16.47,3.65.94.58,1.78,1.36,2.73,1.9,1.3.74,2.78,1.13,4.1,1.88,3.4,1.93,7.1,3.1,10.52,4.96.92.5,1.76,1.09,2.51,1.83.95.93,2.62,2.21,2.99,3.53.19.68-.05,1.49-.03,2.19.02,1.01.26,1.95.56,2.91.75,2.4,2.16,4.28,3.25,6.53,1.25,2.59,2.65,5.58,3.28,8.41.47,2.1.35,4.43.27,6.57-.11,2.92,1.13,5.14,1.8,7.91.52,2.14,1.03,4.22,1.61,6.34s.55,3.97.58,6.14c.04,2.55.64,6.29-.87,8.53-.42.63-6.85,11.49-7.19,12.19"/>
  <path class="cls-1" d="M1226.79,393.47c-2.71,1.74-5.13,3.68-8.28,4.4-.92.21-1.81.49-2.72.72-1.53.39-3.09.57-4.62.96-2.93.74-6.17-.13-9.17,0-2.54.12-4.92.12-7.43.61-3.7.72-7.68.96-11.44,1.14-1.81.08-3.63.55-5.44.44-2-.12-4.06-.21-6.05-.41-2.64-.27-5.29-1-7.88-1.53-3.36-.68-6.75-1.07-10.11-1.74-2.97-.6-6.04-.53-8.1-2.93-1.66-1.94-2.86-4.18-3.92-6.49-2.01-4.38-4.08-8.68-6.32-12.96-1.9-3.63-3.53-7.19-4.44-11.2-.8-3.52-1.61-7-2.57-10.48-.89-3.23-1.11-6.58-1.9-9.83-1.21-4.98-3.42-9.79-5.2-14.59-2.57-6.93-4.07-14.22-6.89-21.04-1.03-2.49-2.29-4.83-3.84-7.03s-2.75-4.35-4.17-6.58c-1.28-2.02-3.04-3.64-4.08-5.83s-1.61-4.6-2.91-6.79c-1.62-2.75-3.06-5.57-4.32-8.51-.42-.99-.83-1.97-1.29-2.94-.81-1.71-1.9-2.69-2.98-4.17-1.59-2.19-2.12-5.15-3.2-7.6-1.03-2.35-2.45-4.22-3.83-6.36-1.67-2.59-2.31-5.37-3.31-8.24-1.1-3.16-3.19-5.74-4.79-8.62-1.29-2.32-1.76-4.87-2.81-7.28s-2.04-4.68-2.09-7.25c-.09-4.87,2.04-8.73,4.76-12.6,1.22-1.73,2.84-3.17,3.86-5.04.88-1.61.97-3.27,1.57-4.94.45-1.26,1.36-2.53,2-3.72.99-1.84,2.15-2.54,3.7-3.82,2.33-1.94,4.84-2.32,7.62-3.17,1.42-.43,3.05-.03,4.51-.12,2.08-.13,3.84-.86,5.82-1.48,3.47-1.09,9.37-.89,12.57.88,1.7.94,3.07,2.4,4.99,2.89,1.15.3,2.19.63,3.31,1.04,3,1.09,6.15,2.09,8.96,3.6,4.77,2.57,8.26,6.47,12.32,9.92,3.12,2.64,6.46,5.75,10.3,7.29,2.59,1.04,5.06,1.93,7.39,3.51,2.91,1.97,5.22,4.66,8.09,6.69,1.86,1.31,3.6,2.62,5.29,4.13,1.2,1.08,2.55,1.92,3.04,3.5,1.28,4.08,1.97,8.19,2.16,12.45.17,3.73.68,6.17,2.95,9.23,2.93,3.95,4.25,8.48,6.26,12.91,1.29,2.83,2.9,5.53,4.04,8.43,1.34,3.42,2.37,6.94,3.47,10.44,1.24,3.94,2.21,8.01,2.8,12.1.57,3.97.97,7.85,2.13,11.73,1.29,4.31,3.29,8.2,5.02,12.33,1.65,3.97,2.8,8.19,4.22,12.25,1.32,3.78,2.82,7.5,4.16,11.28,1.24,3.51,2.95,6.61,3.95,10.22.81,2.95,2.18,5.89,2.71,8.9.46,2.62.89,5.06,1.59,7.65.97,3.6,2.52,7.33,2.71,11.07.09,1.73.48,3.15.82,4.84.14.71.21,1.35-.03,2.05-.36,1.05-1.71,1.64-2.97,5.7Z"/>
  <path class="cls-1" d="M1074.28,212.43c-3.81-1.94-8.95-4.15-12.68-6.85-1.24-.9-2.37-2.04-3.59-2.98-2.06-1.59-4.29-2.81-6.53-4.12-3.3-1.94-6.55-4.33-9.64-6.6-3.14-2.31-5.25-5.52-7.46-8.65-3.06-4.34-6.93-7.36-11.5-9.97-4.04-2.3-7.32-5.27-10.95-8.12-2.26-1.78-4.62-3.45-6.93-5.17-2.64-1.96-4.55-4.01-6.84-6.32-2.4-2.43-5.13-4.45-7.88-6.47-3.25-2.39-6.02-5.08-8.7-8.09-3.36-3.77-6.27-8.05-9.91-11.56-2.43-2.34-4.01-4.33-5.77-7.24-3.07-5.1-6.9-9.86-9.65-15.11-3.16-6.02-5.94-12.46-9.76-18.09-2.91-4.28-6.02-8.47-8.03-13.26-2.14-5.09-4.5-10.1-6.61-15.19-.78-1.87-1.22-3.85-1.94-5.74-.56-1.47-1.7-2.79-2.21-4.22-.7-1.97,1.27-3.54,2.43-4.85.72-.81,1.41-1.72,2-2.62.8-1.2,1.23-2.97,2.26-3.97,1.09-1.06,2.57-1.01,4-1.21,1.94-.27,2.73-1.03,4.29-1.99.95-.59,1.87-.53,2.93-.8.89-.23,1.59-.72,2.43-1.05,2.65-1.03,4.52-2.42,6.83-4.11,1.72-1.25,3.66-2.43,5.76-2.84,1.48-.28,3.29.07,4.63-.72.89-.52,1.3-1.51,2.35-1.74s3.11.52,4.11.81c2.15.62,4.26,1.71,6.38,2.48,4.03,1.47,7.66,3.63,11.69,5.08,3.38,1.22,7.16,2.51,10.29,4.27,3.73,2.1,6.59,5.01,9.29,8.28,1.19,1.44,2.55,2.81,3.61,4.36,1.27,1.86,1.76,3.98,2.74,5.97,1.09,2.23.92,3.06.56,5.49-.29,1.96-.88,4.46-.42,6.4.71,2.98,2.55,5.33,5.19,6.83,3.93,2.23,6.8,4.48,9.22,8.33,2.07,3.28,4.94,5.97,7.03,9.22,1.32,2.05,1.51,4.29,2.28,6.53.59,1.71,1.82,3.18,2.81,4.66,3.27,4.89,6.68,9.71,9.79,14.71,3.08,4.94,5.9,10.11,7.23,15.77.44,1.86,1.45,2.89,2.74,4.24,2.1,2.2,3.91,4.53,5.47,7.14,6.22,10.49,16.69,18.37,26.11,25.83,5.04,3.99,10.94,6.45,15.53,11,1.96,1.94,1.9,1.49,3.22,3.91-.13-.09,1.52,2.7,1.39,2.61"/>
  <path class="cls-1" d="M1098.67,187.52c.23-5.71-.32-10.64,2.83-15.37,1.43-2.15,2.36-4.22,3.1-6.69.75-2.52,1.64-4.82,2.77-7.17.88-1.85,1.19-3.89,1.96-5.78,1.29-3.16,2.64-6.54,4.44-9.44,2.53-4.09,3.16-9.34,3.87-14.04.4-2.66.79-5.58.76-8.27-.02-1.79-.42-3.53-.14-5.31.22-1.44.64-2.86.91-4.29.49-2.55.1-4.79-.65-7.23-1.12-3.69-.88-8.24-2.9-11.57-.93-1.53-2.67-2.56-3.37-4.22-.72-1.7-.15-3.42.06-5.16.46-3.91-.66-6.64-2.21-10.12-1.86-4.18-3.05-8.55-5.06-12.7-1.82-3.76-2.86-7.73-4.46-11.57-1.69-4.07-3.06-8.85-6.08-12.17-1.16-1.27-2.62-2.16-3.77-3.42-.98-1.08-1.31-1.83-2.75-2.27-1.12-.34-2.27-.42-3.38-.85-1.59-.61-2.49-1.72-3.89-2.63-2.55-1.66-5.78-1.47-8.61-2.37-.93-.29-1.93-.45-2.84-.75-1.47-.48-2.03-1.78-3.3-2.6s-2.83-1.08-3.85-2.12c-.95-.97-1.16-2.37-1.52-3.64-.61-2.12-.79-3.68-.31-5.82.84-3.8,4.92-5.26,7.67-7.53,5-4.14,9.85,2.04,14.4,3.62,1.26.44,2.64.51,3.93.88,1.59.45,3.1,1.11,4.71,1.49,2.04.47,4.15.45,6.17.95s4.09,1.33,6.19,1.79c2.16.47,4.4.64,6.43,1.59,1.61.75,2.85,1.85,4.21,2.97,1.78,1.47,4.02,2.24,5.83,3.69,2.1,1.69,3.62,4.01,5,6.3,1.17,1.94,2.72,3.48,4.15,5.23,1.93,2.35,3.21,4.72,4.32,7.53,1.84,4.66,3.34,9.8,5.74,14.2,1.14,2.09,2.75,4,4.25,5.86,1.01,1.25,2.03,2.45,2.91,3.8,1.28,1.97,1.96,4.26,3.2,6.26,2.58,4.18,7,6.88,9.08,11.41,1.12,2.44,1.78,5.13,2.8,7.62,1.14,2.77,2.33,5.48,3.02,8.41.93,3.92,1.32,8.08,1.99,12.06.82,4.86,1.61,9.71,2.8,14.5.97,3.87,2.57,7.54,3.58,11.4s1.39,7.48,2.71,11.13c2.31,6.36,4.41,12.52,5.36,19.25.63,4.52,2.24,8.83,2.9,13.33.38,2.62.25,5.34.26,7.97,0,2.24.62,4.78-.22,6.93-.61,1.57-1.63,2.64-2.03,4.33-.6,2.56-1.38,5.07-2.16,7.58-.61,1.98-.88,4.05-1.56,6-1.1,3.14-2.19,5.9-2.84,9.18-.26,1.31-.41,2.77-.84,4.02-.55-.7-.75-1.96-.03-2.59"/>
</svg>