<?xml version="1.0" encoding="UTF-8"?>
<svg id="Layer_1" xmlns="http://www.w3.org/2000/svg" viewBox="0 0 1017.32 1868.15">
  <defs>
    <style>
      .cls-1, .cls-2 {
        fill: none;
        stroke: #000;
        stroke-linecap: round;
        stroke-miterlimit: 10;
      }

      .cls-2 {
        stroke-width: 2px;
      }
    </style>
  </defs>
  <path class="cls-2" d="M355.73,697c-3.98,12.73-8.41,23.12-17.16,32.95-3.88,4.36-7.99,9.15-12.66,12.71-3.75,2.86-8.08,3.88-12.74,4.06-2.16.08-4.43-.3-6.56.2-2.29.54-4.03,2.18-6.15,3.09-5.43,2.35-10.38.28-16.07.51-4.8.2-8.64,2.45-13.38,2.38-4.38-.07-8.32-.13-12.6-1.16-3.31-.8-5.73-2.86-8.72-4.22-2.04-.93-2.88-.32-4.97,0-2.16.32-3.68.04-5.72-.63-4.16-1.38-7.97-2.97-12.35-3.47-4.05-.46-8.24-.99-12.17-2.04-5.1-1.37-11.33-2.12-15.36-5.87-2.85-2.65-3.53-6.45-7.23-8.03-4.64-1.98-9.75-1.23-14.58-2.58-4.14-1.16-7.17-4.14-10.19-7.04-3.29-3.16-6.81-5.96-9.65-9.56-6-7.61-10.58-14.92-9.65-25.1.4-4.36,3.02-8.05,3.63-12.3.66-4.54-1.1-8.54.4-13.13,1.33-4.04,2.97-7.85,3.59-12.04.65-4.45,1.62-8.91,2.8-13.27.97-3.6,1.86-7.08,3.08-10.63,1.39-3.99,2.34-8.83,4.82-12.28,5.05-7.02,11.01-11.79,19.84-12.04,5.15-.15,9.58.25,14.72-.68,5.67-1.02,10.09,1.11,15.4,2.94,11.58,4,22.68,10.61,32.21,18.26,10.96,8.8,23.63,14.4,34.66,23.02,5.27,4.11,11.29,6.74,16.87,10.36,6.53,4.24,11.49,9.68,17.39,14.66,12.58,10.61,30.13,17.08,39.33,31.12-.62-.07-1.35-.23-.83-.17Z"/>
  <path class="cls-2" d="M221.18,645.5c-.73,3.46-2.56,7.92-1.85,11.49.61,3.07.18,1.21,1.59,3.11,1.13,1.53,2.67,2.73,3.9,4.15,1.99,2.29,3.66,4.07,6.22,5.78,4.38,2.93,8.96,5.6,14.31,6.02,5.89.47,11.03,3.25,16.82,4.24,6.29,1.07,11.89-.2,17.65-2.85,4.21-1.94,9.35-4.96,6.1-10.15-4.57-7.28-10.03-10.74-17.58-13.32-3.32-1.14-6.3-2.97-8.93-5.36-2.26-2.05-9.26-2.62-11.97-4.14-4.3-2.41-10.74-4.27-15.55-5.49-3.21-.81-5.78.34-8.63,1.51-3.82,1.58-1.76,3.41-2.09,5.01Z"/>
  <path class="cls-2" d="M150.31,700.43c-4.72,2.66-7.72,5.15-12.84,5.36-1.58.06-3.11-.14-4.71,0-2.65.23-5.22.16-7.88.25-7.98.28-17.53,2.08-25.23-.25-6.76-2.04-13.39-4.43-19.25-8.38-4.84-3.26-10.47-6.41-13.65-11.5s-3.34-10.52-4.3-16.53c-1.01-6.35-1.89-12.56-3.4-18.81-2.87-11.95-13.43-24.69-23.23-31.72-5.81-4.17-8.47-7.25-10.12-14.15-2.16-9.03-.65-16.94,2.23-25.65,3.85-11.67,6.42-23.66,10.44-35.24,1.18-3.4,1.78-7.15,4.64-9.52,2.67-2.21,7.52-2.6,10.97-2.13,7.82,1.07,14.45,7.62,20.34,12.25,3.28,2.58,6.62,5,10.12,7.26,4.72,3.05,8.68,7.09,13.36,10.12,4,2.59,8.02,4.38,11.74,7.5,3.65,3.06,7.12,6.22,10.74,9.33s7.54,5.96,11.4,8.71c4.1,2.92,7.6,6.68,11.96,9.24,5.89,3.46,11.97,6.66,17.25,11.02,1.8,1.49,13.28,11.52,15.65,11.89.39.14-8.52-6.87-8.96-7.02"/>
  <path class="cls-2" d="M153.01,656.18c.66.06-11.8-.19-14.54-1.42-.87-.39-1.09-.56-1.67-1.41-1.53-2.25-.48-5.66-.42-8.23.08-3.25-.68-6.31-.94-9.52-.13-1.57.63-4.14-.18-5.49-2.41-3.99-13.97,1.02-16.77,2.36-4.57,2.2-10.56,5.99-15.81,3.87-3.63-1.46-6.35-4.11-10.18-5.39-5.01-1.69-10.95-2.94-15.59-5.49-1.8-.98-5.5-3.45-6.61-5.35-1.48-2.54-.11-5.46.35-8.13.68-3.93-.08-7.66-.36-11.53-.31-4.1-.58-7.64-2.43-11.5-2.56-5.32-6.67-11.11-13.15-10.59-2.72.22-4.51.86-7.09-.31-2.32-1.05-4.23-2.69-6.41-3.99-2.41-1.44-8.96-2.93-9.9-5.79.85-.15.5.28.74.75"/>
  <path class="cls-2" d="M325.79,748.6c.12,7.24-1.65,13.45-1.28,20.43.2,3.79.46,7.61.42,11.39-.09,10.49.45,20.95-.72,31.43-1.04,9.21-3.53,18.3-2.36,27.63.99,7.91,1.23,15.54,2.94,23.34,2.25,10.23,11.61,12.66,18.69,19.01,6.31,5.65,14.41,10.82,18.02,18.77,3.2,7.04,3.77,14.75,7.15,21.76.84,1.75,1.57,3.52,1.7,5.48.09,1.33-.44,4.09.05,4.01"/>
  <path class="cls-2" d="M355.05,697.75c3.11,1.77,11.58,6.3,15.33,9.05,4.25,1.31,6.78.12,10.99-1.33,7.68-2.64,15.96-4.11,23.61-7.08,7.54-2.93,15.63-3.87,23.56-5.64,4.77-1.07,9.35-2.32,14.13-3.09,2.5-.4,5.7-1.21,7.89.65,5.13,4.36.73,13.46,1.63,19.13.65,4.1,1.16,8.53,1.24,12.83.06,3.46-.1,6.37-.93,9.74-.88,3.56,1.48,7.17.27,10.65-.16.47-.15.44.03-.1"/>
  <path class="cls-2" d="M448.33,687.5c7.35-.71,19.63,1.63,26.53.24,2.83-.57,5.55,0,8.37.54,7.5,1.44,14.97,2.81,22.49,4.19,20.09,3.7,40.06,10.29,59.47,16.5,18.4,5.88,37.92,10.74,55.44,19.02,4.55,2.15,9.51,5.14,14.53,6s9.65-.05,14.71,1.39c9.46,2.7,18.71,9.42,25.66,16.19,7.4,7.2,17.26,9.62,26.74,12.91,5.47,1.9,10.66,4.13,15.99,6.31,6.24,2.56,12.57,3.74,19.05,5.28,5.43,1.3,12.11,2.31,16.73,5.61,4.37,3.13,8.55,5.68,13.41,8.13,7.18,3.62,13.31,8.43,20.96,11.09,3.39,1.18,8.81,1.9,11.06,4.92.99,1.33,1.59,6.3,3.37,5.9"/>
  <path class="cls-2" d="M702.08,765.14c2.62.61,4.87,2.43,7.52,3.34,3.27,1.12,5.19,2.83,7.97,4.76,4.35,3.02,8.82,6.41,13.42,9.03,5.61,3.19,11.7,5.18,16.79,9.26,6.89,5.53,13.93,10.01,22.25,13.16,7.55,2.87,15.4,7.3,21.51,12.57,12.58,10.84,28.95,17.33,45.01,25.04,2.21,9.21,6.49,19.59,7.65,29.16.5,4.16-.66,8.72-.75,12.9-.22,10.04-1.68,20.36-3.47,30.24-1.61,8.87-3.61,17.65-5.71,26.39-3.03,12.62-3.08,25.18-9.33,36.89-4.27,7.99-10.67,14.01-15.93,21.17-2.5,3.41-4.45,7.38-7.23,10.56s-6.13,5.72-8.55,9.36c-11.96,18.05-27.44,34.23-49.96,37.33-14.97,2.06-30.45-1.6-45.44-2.09-5.81-.19-11.37-2.09-17.08-2.67-6.09-.62-11.36,0-15.92-4.62-10.19-10.32-23.9-9.79-37.28-12.59-15.96-3.34-32.38-6.36-47.8-11.7-17.51-6.06-35.4-12.15-53.38-16.47-17.36-4.17-32.92-15.45-49.69-21.49-7.5-2.7-14.53-5.99-22.29-7.88s-14.98-5.52-22.13-9.17c-5.15-2.62-10.71-4.41-15.97-6.82-4.54-2.08-9.08-3.86-13.84-5.51-9.2-3.19-20.57-5.39-28.05-11.89-3.45-3-7.75-4.83-11.07-7.82-4.57-4.1-7.21-11.18-10.38-16.38-4.79-7.84-8.67-15.69-11.79-24.4-1.19-3.33-2.01-6.8-2.42-10.3-.24-2.04.32-5.26-.4-6.66"/>
  <path class="cls-2" d="M340.68,879.42c.48-9.99.76-18.83,3.21-28.29,1.19-4.61,2.45-8.95,4.02-13.48,3.17-9.16,6.59-17.96,11.16-26.52,4.37-8.17,9.77-15.89,13.14-24.58,3.8-9.8,5.98-20.43,10.97-29.71,4.76-8.86,11.82-16.12,17.86-24.07,4.66-6.14,7.21-13.76,11.36-20.22,2.49-3.88,3.23-8.15,6.18-11.6,1.7-1.99,3.7-6.23,6.07-7.13l.53.66"/>
  <path class="cls-2" d="M645.68,900.62c7.95,5.22,16.31,9.53,24.59,14.18,3,1.68,5.85,3.58,8.79,5.36,3.15,1.9,6.57,3.16,9.91,4.67,4.64,2.1,8.92,4.76,13.6,6.77,3.87,1.66,7.83,3.04,11.68,4.73,2.83,1.25,5.77,2.1,8.48,3.66,3.82,2.21,7.5,5.28,10.81,8.19,2.39,2.1,4.14,4.94,6.76,6.75,2.98,2.05,6.35,3.83,9.7,5.18,2.47.99,8.48,2.4,7.97,5.79-.41,2.7-3.29,4.76-4.56,7.1-3.32,6.1-5.87,12.82-6.03,19.82-.08,3.8,4.39,5.23,7.41,6.3,1.87.66,4,1.11,5.71,2.13,1.34.8,2.05,1.54,3.73,1.32,2.45-.31,5.14-2.36,7.1-3.79,2.67-1.95,4.21-4.79,6.62-6.99,1.87-1.71,4.98-1.95,6.53-3.91.86-1.09,1.6-3.28.95-4.61-.73-1.5-2.85-2.87-4.16-3.8-1.71-1.22-3.16-2.29-5.06-3.2-2.2-1.05-4.9-1.89-3.05-4.43,2.11-2.91,7.98-1.67,11.1-1.65,1.79.01,6.92.14,7.39-1.94.17-.73-.15-2.41-.22-3.21-.12-1.44-.7-2.74-1.45-3.97-1.23-2-3.04-3.27-3.81-5.39-.66-1.81-2.1-2.96-3.99-3.73-3.42-1.39-6.22-.46-9.64.32-5.43,1.24-10.79,2.19-16.14,3.76-2.61.77-5.48,1.81-8.21,1.84.39.19.82.22,1.23.07"/>
  <path class="cls-2" d="M673.88,816.45c2.48,1.57,5.11,2.81,7.89,3.74,2.3.57,4.57,1.24,6.81,1.99,4.2,1.44,8.25,3.26,12.45,4.7s8.12,2.58,12.02,4.27c4.11,1.79,7.9,4.05,12.17,5.47,7.15,2.37,14.07,5.36,21.14,7.96,2.75,1.01,5.51,2.07,8.19,3.24,3.35,1.46,6.3,3.57,9.51,5.28,1.36.72,2.55,1.32,3.55,2.53,1.09,1.32,1.5,2.19,3.07,3.11,3.2,1.88,7.23,3.03,10.84,3.73,4.98.97,11.26,2.39,12.55,8.02.68,2.97,2.43,4.32,3.96,6.79.37.59.68,1.6,1.38,1.71.59.09,2.52-1.04,3.05-1.3,1.15-.57,2.21-1.28,3.19-2.11,1.9-1.62,3.7-3.55,4.69-5.86,1.26-2.93.75-4.26-.87-6.87-1.72-2.77-3.23-5.25-6.02-7.04-1.76-1.13-3.73-2.53-5.25-3.95.31-.28.77-1,1.09-1.2,1.68-1.05,4.36-1.1,6.24-1.68,2.27-.7,4.33-1.5,6.7-1.67.73-.05,2.69.15,3.06-.77.68-1.67-9.06-7.74-10.2-8.49-2.1-1.39-4.65-2.83-6.97-3.81-3.13-1.31-4.64.33-7.05,2.23-3.74,2.95-7.34,5.63-10.67,9.04-1.32,1.35-2.24,2.9-3.46,4.31-1.05,1.22-2.44,1.85-3.75,2.76-1.68,1.18-2.96,2.4-4.3,3.8-.2-.01-.24-.13-.13-.35"/>
  <path class="cls-2" d="M704.41,827.38c1.98-7.16,3.48-14.34,5.35-21.49.51-1.93,1.02-3.64,1.99-5.38,1.16-2.09,1.24-3.33,1.04-5.66-.16-1.88-.33-3.51.41-5.27.29-.69.99-1.38.66-1.89"/>
  <path class="cls-2" d="M667.51,914.52c2.43-4.42,4.99-11.09,8.81-14.91,1.05-1.05,2.32-1.84,3.4-2.87,2-1.9,4.04-4.35,5.18-6.85.5-1.08.84-2.18,1.55-3.14.54-.73,1.38-1.26,1.88-2.02.55-.85.91-1.89,1.13-2.88-.15-.14-.33-.22-.53-.24"/>
  <path class="cls-2" d="M459.49,980.11c-8.59,12.88-24.38,32.15-32.08,45.61-10.19,17.82-23.35,33.37-34.43,50.56-9.64,14.97-22.06,27.95-31.69,42.97-7.74,12.06-17.83,22.08-25.03,34.58-6.27,10.88-14.51,22.22-14.75,35.27-.14,7.68,3.97,15.99,8.85,21.81,1.47,1.75,2.79,3.61,4.26,5.4,4.01,4.89,9.24,7.66,14.72,10.78-8.51-4.56-8.39-4.87-8.26-5.17-2.44,1.47-3.63,4.52-4.9,6.86-2.6,4.79-4.78,9.42-7.75,14.06-2.33,3.65-3.96,6.94-5.42,11.04-1.61,4.53-1.83,8.99-3.85,13.37-5.18,11.24-8.04,23.72-11.79,35.45-3.54,11.08-8.55,21.86-10.83,33.31-2.21,11.06-3.88,22-7.7,32.72-2.88,8.1-4.71,16.46-7.95,24.45-2.96,7.3-6.86,14.06-10.26,21.12-3.23,6.72-6.15,13.98-7.99,21.21-1.13,4.43-1.86,8.74-3.4,13.09-5.08,14.26-7.77,29.49-10.92,44.26-1.55,7.26-2.28,14.62-3.85,21.9-1.74,8.04-3.37,16.11-4.73,24.23-1.52,9.09-4.41,17.87-6.3,26.88-1.4,6.68-2.9,12.8-5.17,19.27-5.13,14.65-7.57,29.67-10.82,44.83-2.17,10.14-5.1,19.34-8.97,28.96-3.59,8.94-6.06,18.28-9.72,27.19-2.84,6.92-5.38,13.91-7.82,20.99-3.16,9.2-4.88,18.83-7.7,28.14-3.62,11.94-4.64,24.22-7.74,36.25-1.3,5.04-3.14,9.95-4.4,14.98-1.81,7.21-.41,14.52-.34,21.82.04,3.95-.33,7.95-.09,11.9.31,5.24,1.51,9.3,5.64,12.81,4.6,3.91,9.51,7.69,14.19,11.56,4.6,3.79,11.83,4.89,17.48,6.19,2.64.61,6.25,1.65,8.97.68,1.7-.6,3.02-2.25,4.37-3.36,5.43-4.48,11.55-7.94,17.69-10.37-4.82-10.74-9.79-21.82-13.4-33.08-1.71-5.33-1.37-10.51-2.43-15.87-1.23-6.19-3.3-12.63-3.42-19.02-.08-4.43.43-8.92-.43-13.29-1.22-6.16-3.98-11.85-5.16-18.05-.55-2.89-1.28-6.43-1.14-9.35"/>
  <path class="cls-2" d="M201.85,1748.49c.69-4.92.88-9.85.57-14.79-.52-.93-.94-1.9-1.24-2.92-.45-1.7-.72-3.87-.95-5.63-.42-3.26-.39-6.53-1.4-9.71-1.55-4.86-3.6-7.31-2.62-12.43.5-2.62-.22-4.4-1.42-6.74-2.37-4.64-4.65-9.54-5.87-14.65-.31-.19-.5-.06-.58.38"/>
  <path class="cls-2" d="M240.38,1833.75c9.76-.71,19.4-1.68,29.14-2.19,7.11-.37,14.03,1.32,21.15,1.32,6.58,0,12.77.66,19.34.14,2.74-.22,5.57-.86,8.13-1.88,4.09-1.63,8.46-3.07,12.43-4.99,6.73-3.26,13.06-8.57,16.87-15.04,1.64-2.78,2.63-5.15,4.69-7.63,2.67-3.22,4.97-7.28,6.75-11l.34.53"/>
  <path class="cls-2" d="M702.82,1057.12c-2.64,6.81-5.01,14.86-8.23,21.65-1.31,2.76-3.21,5.23-4.59,7.97-2.59,5.14-4.79,10.21-6.67,15.65-2.14,6.21-6.08,11.37-8.59,17.44-1.65,3.98-3.94,7-6.23,10.64-3.3,5.27-5.21,11.3-8.14,16.78-2.34,4.38-5.11,8.29-8.32,12.07-4.68,5.52-8.67,11.75-13.02,17.55-2.35,3.14-4.5,6.32-6.4,9.76-1.55,2.81-2.53,6.03-4.55,8.54-1.42,1.77-2.95,2.93-4.07,4.91-2,3.52-2.93,7.56-4.61,11.22-2.84,6.21-5.91,12.62-9.28,18.57-3.66,6.46-6.18,13.58-9.89,19.94-2.68,4.59-6.44,8.6-9.24,13.18-3.52,5.75-6.46,11.78-10.25,17.37-4.39,6.47-6.86,13.61-9.91,20.72-2.53,5.9-5.8,11.55-8.4,17.45-4.76,10.79-8.48,22.22-12.36,33.38-2.45,7.06-5.48,13.88-7.87,20.88-1.26,3.69-3.1,7.58-3.48,11.4-.37,3.68,1.29,7.18,1.33,10.85,0,.42-.88.46-.83,1.2.02.39.52.97.65,1.38.45,1.43,1.31,2.99,1.9,4.4,2.45,5.84,6.31,9.31,12.3,11.48,3.27,1.18,6.4,2.96,9.54,4.45,3.61,1.71,6.58,1.88,10.43,2.01,6.21.21,14.88,2.58,19.44,6.84,3.39,3.16,6.17,8.14,7.25,12.66.62,2.59.15,5.43,1.39,7.81.94,1.81,2.62,3.61,3.86,5.23,2.84,3.73,2.15,7.78,3.3,12.17.79,2.99,2.46,5.61,2.71,8.73.24,3.16-.62,7.12-2.19,9.91-1.01,1.8-2.68,2.72-4.04,4.23-1.95,2.19-2.51,4.44-3.64,7.04-1.67,3.85-4.08,8.35-8.03,10.27-4.63,2.25-10.55,2.28-15.39,4.35-4.59,1.97-7.09,6.6-11.76,8.3-4.31,1.56-8.89,1.99-13.25,3.72-3.48,1.38-7.22,2.47-10.34,4.58-3.89,2.63-7.51,4.24-12.18,5.29-6.04,1.36-11.11-.29-17.04-1.14-4.38-.63-8.67-.18-13.07-.5-3.84-.28-6.82.73-10.54,1.39-7.01,1.24-13.55,2.62-20.61,3.07-2.4.15-4.65,1.42-6.79,2.3-.93.38-1.91.79-2.79,1.29-.75.43-3.61,1.51-4.01,2.02-1.77,2.26.77,7.63,2.24,9.9,2.99,4.62,7.58,7.89,9.22,13.29.94,3.08,1.52,5.39,4.06,7.71,4.11,3.75,9.24,3.82,14.37,5.08,6.15,1.52,12.18,4.09,18.15,6.19,7.71,2.71,15.7,4.36,23.68,6.14,5.25,1.17,9.04,3.61,13.9,5.6,2.32.95,4.8,1.14,7.2,1.86,3.72,1.12,7.28,3.06,11.16,3.56,2.85.37,5.38-.69,8.12-.01,4.17,1.03,8.85,2.89,10.93,6.87,2.42,4.65,2.43,9.39.76,14.16-2.02,5.79-2.89,12.87-5.64,18.3-1.25,2.47-3.11,3.82-5.18,5.55-1.49,1.24-2.98,3.38-4.7,4.33-3.39,1.86-7.27-.08-10.63,1.75-2.83,1.53-6.07,3.04-8.63,5.03-2.63,2.04-5.29,5.55-8.78,6.1-.86.14-2.03-.28-2.97-.2-3.33.29-7.65,1.98-10.77,3.07-2.38.83-4.35,2-6.9,2.26-2.97.3-4.9.4-7.69,1.58-10.07,4.26-21.87,2.87-32.59,4.65-4.72.78-9.41,2.27-14.21,1.4-2.06-.37-4.03-1.28-6.15-1.3-2.51-.02-5.14.97-7.6,1.42-3.4.61-6.94.51-10.3,1.28-2.83.65-5.31,1.34-8.21,1.56-4.32.34-8.41-1.35-12.78-1.14-2.38.11-7.46.4-9.33,1.54.59.38,1.48.81,2.18.88"/>
  <path class="cls-2" d="M354.6,1804.67c5.99,1.03,11.67-.48,17.55-1.94,3.96-.98,7.18-1.24,11.24-1.27,10.06-.07,20.29-1.61,30.32-2.16,6.61-.36,12.15-2.57,18.41-4.44,3.47-1.04,7.04-1.32,10.52-2.32,3.3-.95,6.48-2.22,9.8-3.06,5.66-1.42,10.96-3.8,16.5-5.66,3.46-1.16,6.71-1.88,10.08-3.35,4.56-1.98,7.76-3.67,10.6-8.05,1.98-3.05,2.98-6.1,4.16-9.51,1.51-4.37,4.11-7.38,6.51-11.23,2.49-3.99,4.1-7.74,7.52-11.02,2.73-2.61,5.94-5.06,6.25-9.21.64-8.52-9.39-10.77-15.48-12.88-11.17-3.88-22.11-6.22-33.71-8.55-4.47-.9-8.69-1.6-12.74-3.87-4.18-2.34-7.57-4.63-12.23-5.72-3.98-.92-7.13-3.36-10.9-4.8-2.8-1.07-4.55-1.74-7.01-3.67-2.84-2.23-4.92-3.84-8.08-5.29-1.23-.57-1.89-1.03-2.88-1.95-1.45-1.34-3.54-3.1-4.26-4.94"/>
  <path class="cls-2" d="M1,1867.15c2.67-2.07,5.33-4.14,8-6.21,1.79-1.35,3.2-2.99,4.23-4.92,1.21-.9,2.09-1.2,3.56-1.82,3.02-1.27,5.76-2.94,8.73-4.24,2.06-.9,3.5-1.27,5.26-2.84,3.09-2.77,6.02-5.64,8.7-8.81,5.4-6.38,13.47-9.73,20.76-13.42,6.74-3.41,12.73-6.82,20.13-8.61,2.87-.7,4.87-2.27,7.56-3.27,2.96-1.1,6.38-1.55,9.42-2.51,6.64-2.09,13.08-4.53,19.34-7.6,13.21-6.48,19.33-19.87,25.93-32.11,3.14-5.83,5.25-11.93,5.79-18.54.2-2.43-.6-5.93,1.16-8.02,2.06-2.46,5.01-.66,7.53-.35,7.32.9,14.7-.12,22.02.55,7.94.72,15.97.41,23.88,1.31,5.44.62,10.83,1.71,16.22,2.51,6.01.9,12.39,1.22,18.46,1.22,8.12,0,15.74,1.14,23.77,2.09,8.78,1.04,19.18,2.67,27.78.17,6.17-1.79,11.78-4.93,16.89-8.75,4.16-3.11,6.48-7.41,10.07-10.98,4.4-4.38,9.76-9.19,12.68-14.67,1.48-2.77,3.19-5.87,4.19-8.84,1.51-4.46-.08-4.94-1.91-8.46-1.86-3.58.16-7.36,1.15-10.81,1.15-4.01.3-6.84-2.13-10.17-2.02-2.78-4.8-4.24-7.03-6.76-2.93-3.31-2.7-6.88-3.99-10.82-1.11-3.4-3.53-6.44-5.04-9.7-1.85-3.99-4.13-8.13-5.54-12.3-1.19-3.51-.98-7.21-1.82-10.77-.66-2.8-2.33-5.32-3-8.1-.74-3.11.07-6.09.15-9.25.07-2.83-.71-7.1.27-9.74.83-2.24,2.74-4.24,3.89-6.4,1.58-2.96,3.13-5.58,4.97-8.37,1.37-2.08,3.98-5.62,4.02-8.14.03-2.03-1.25-3.72-1.24-5.86.03-4.85,2.16-9.43,3.74-13.93,1.47-4.19,2.05-8.5,3.74-12.64,1.19-2.91,2.57-5.6,3.64-8.62,1.77-5.03,6.83-6.72,11.91-7.57,5.96-1,12.52.06,18.34-1.78,3.99-1.26,8.69-4.74,11.18-7.98,1.87-2.44,3.66-4.68,5.45-7.22,2-2.84,4.66-5.47,7.09-7.98s3.09-3.93,4.5-6.92c2.91-6.19,5.04-12.7,7.24-19.21.84-2.49,1.69-4.39,3.36-6.44.77-.95,2.3-2.22,2.5-3.37-5.01-2.68-12.9-3.22-15.98-8.23-2.71-4.4-6.03-9.32-8.01-14.08-1.5-3.6,1.15-4.64,1.88-8,.57-2.63.29-5.58.81-8.33.64-3.3.56-6.77.94-10.1.48-4.18,2.51-6.36,4.76-9.74.97-1.45,1.77-4.71,4.03-4.22"/>
  <path class="cls-2" d="M385.77,1409.88c7.7-9.52,16.86-18.77,23.62-29.06,2.22-3.38,4.04-7.07,6.54-10.27,2.9-3.72,5.79-7.08,7.92-11.34,3.15-6.3,7.24-11.64,11.47-17.3,4.56-6.12,8.8-12.28,12.96-18.68,2.07-3.19,4.26-6.32,6.21-9.59,2.67-4.49,3.99-9.81,5.69-14.71,3.31-9.52,6.02-19.14,8.76-28.81.65-2.31.8-4.67,1.69-6.93,1.44-3.63,3.67-6.62,4.93-10.37,1.53-4.53,3.32-8.98,4.43-13.64.91-3.83.48-7.58,1.18-11.37.81-4.38,3.16-8.4,5.06-12.35,2.56-5.35,4.8-10.77,6.72-16.38,2.02-5.9,4.07-11.79,6.12-17.68,1.91-5.5,3.29-11.55,6.33-16.57,1.74-2.87,4.18-5.14,5.94-8,3.5-5.69,6.49-11.67,9.87-17.43,7.18-12.23,13.08-24.9,20.96-36.73,3.98-5.97,5.97-11.85,11.45-16.87,2.08-1.91,4.39-2.99,7.04-3.86,2.89-.95,5.84-.46,8.69-1.4,2.2-.72,4.18-1.85,6.51-2.13,2.46-.3,4.67-.26,7.14-.88,4.62-1.15,8.14-3.5,11.92-6.31,8.65-6.45,16.19-13.94,20.97-23.62,1.53-3.1,2.44-6.3,4.68-9.05,1.1-1.35,4.98-3.08,4.08-4.9"/>
  <path class="cls-2" d="M315.99,1391.34c3.55-12.77,7.36-25.4,11.02-38.11,2.15-7.44,4.36-15.15,7.81-22.13,4.47-9.06,8.24-17.77,11.55-27.32,1.44-4.14,3.28-8.34,4.1-12.65.79-4.13,1.02-8.45,1.5-12.62,1.24-10.75,5.14-22.12,8.69-32.28,6.29-17.99,16.66-33.7,28.05-48.85,2.84-3.78,5.01-7.82,6.98-12.09.78-1.7,2.28-9.66,2.72-9.73"/>
  <path class="cls-2" d="M335.35,1301.06c2.84-10.92,5.94-21.66,9.89-32.23,1.17-3.13,3.48-5.27,5.44-7.87,1.77-2.36,3.03-4.55,5.67-6,2.27-1.25,2.4-1.43,3.32-4.03"/>
  <path class="cls-2" d="M377.96,1201.85c1.78-6.62,2.97-19.21,9.89-23.57,1.47-.92,3.29-1.21,4.74-2.13,3.29-2.08,5.61-6.45,8.23-9.33,6.08-6.67,11.77-14.22,15.79-22.3,2.58-5.18,5.38-7.86,9.79-11.49,4.01-3.31,7.46-7.31,10.55-11.49,6.85-9.27,10.05-20.21,13.66-31.03,1.81-5.41,1.37-10.74,2.58-16.27,1.03-4.71,2.91-9.85,5.36-13.98,3.95-6.68,7.25-13.79,10.97-20.63,3.52-6.47,7.65-12.76,10.01-19.75,1.39-4.11,2.84-8.21,4.26-12.31.9-2.59,7.25-16.57,8.71-18.96"/>
  <path class="cls-2" d="M313.47,1705.37c7.73,5.59,16.36,11.1,23.41,17.54,6.02,5.5,11.59,10.31,18.53,14.66,7.47,4.69,15.6,6.99,23.51,10.61,6.63,3.03,13.64,3.58,20.33,5.85"/>
  <path class="cls-2" d="M332.65,1537.57c8.37,1.79,14.31,4.91,21.9,8.51,6.32,3,13.19,4.9,19.79,7.21,10.06,3.52,20.34,5.54,30.69,7.98,9.95,2.34,19.91,4.43,29.89,6.56,5.55,1.18,11.41,2.24,16.76,4.12,5.04,1.77,10.62,2.59,15.82,3.55,2.09.39,4.3.1,6.3.37,2.48.33,4.74,1.01,7.22.6"/>
  <path class="cls-2" d="M376.87,1399.23c6.24,4.86,12.28,9.76,19.22,13.56,4.56,2.5,9.36,4.57,14.05,6.8,8.49,4.03,16.67,8.56,25.64,11.46,7.42,2.4,15.05,3.79,22.58,5.72,6.63,1.7,13.02,3.93,19.71,5.45,10.9,2.47,21.39,5.72,32.41,7.5,4.58.74,8.7,2.49,13.39,2.25-.33-.41-.75-.71-1.24-.9"/>
  <path class="cls-2" d="M453.12,1257.53c8.34,1.11,17.39,1.5,25.4,4.39,3.77,1.36,7.47,2.96,11.5,3.29,3.8.31,7.23.17,10.92,1.33,2.34.74,4.57,1.36,7.01,1.69,10.16,1.38,31.15,8.9,41.22,5.69,12.59-4.02,20.54-4.87,32.16-11.12,4.02-2.16,5.32-9.14,9.75-10,3.56-.69,6.91-1.95,10.3-3.17,5.18-1.87,8.22-1.3,13.69-1.51,5.29-.2,9.19-2.62,13.91-4.55,5.25-2.14,9.6-4.69,14.41-7.61,10.15-6.15,22.97-9.9,30.05-19.86,6.81-9.58,13.55-19.33,13.78-31.65.07-3.94.45-7.97.31-11.91-.14-3.91-1.52-7.54-2.61-11.26-1.98-6.76-4.31-12.84-7.92-18.84-1.76-2.92-4.53-6.01-5.95-8.98-.66-1.4,3.58-5.38,2.52-6.57,2.38-2.91,6.52,4.9,10.33,4.78,4.61-.15,8.85-2.33,12.9-4.22,8.7-4.06,16.59-6.94,22.14-15.2,5.93-8.83,7.35-18.82,7.33-29.23-.01-5.58-1.53-11.19-.53-16.77.48-2.67.23-4.18.13-6.76-.43.72.07.66.27,1.15"/>
  <path class="cls-2" d="M578.08,712.32c5.68-6.05,12.15-11.95,16.2-19.28,2.18-3.94,4.07-8.07,6.33-11.96,2-3.43,4.73-5.89,7.42-8.76,4.22-4.48,7.42-8.93,10.57-14.11,2.42-3.98,6.38-6.75,8.28-11,2.76-6.2-.29-12.73.83-19.25.74-4.28,2.71-8.53,4.13-12.63,3.36-9.7,5.81-20.72,10.93-29.64,5.75-10.03,10.83-20.61,13.47-31.95,2.06-8.83,5.28-16.26,10.19-23.95,2.46-3.86,5.01-7.71,7.14-11.77,2.11-4.03,4.07-7.41,7.72-10.19,3.3-2.52,6.22-3.98,8.86-7.39,3.26-4.22,6.64-7.96,8.93-12.83,4.89-10.41,8.93-21.05,16.97-29.57,4.19-4.44,10.04-9.08,16.28-10.01,2.92-.44,5.75-.08,8.7-.75,2.6-.59,3.41-.63,2.88-3.59"/>
  <path class="cls-2" d="M782.37,422.96c-.94-3.48-1.67-10.62-5.54-13.01-1.76-1.09-4.12-1.52-6.06-2.19-2.11-.73-9.6-4.56-11.23-2.83-1.12,1.19-.86,5.98-.9,7.57-.08,2.81-.65,5.12-1.59,7.8-2.32,6.6-4.25,13.64-7.91,19.61-1.29,2.1-3.06,3.68-4.39,5.72-1.41,2.16-2.04,4.7-2.86,7.12-1.89,5.52-5.76,8.11-10.4,11.43-3.54,2.53-5.65,5.71-9.86,7.54-1.84.8-3.7.79-5,2.26-.82.93-2,3.52-2.01,4.71,5.28,2.6,11.25,3.72,16.6,6.25,3.88,1.84,7.35,3.73,10.96,6.02,4.15,2.63,3.54,5.59,2.63,10.07-.75,3.69-.83,7.46-1.45,11.16-.89,5.34-2.76,9.9-4.85,14.84-2.36,5.57-5.36,10.35-7.33,16.11s-6.38,11.06-9.92,16.22c-3.63,5.29-6.19,11.11-11.04,15.18-2.39,2.01-4.4,4.35-6.72,6.44-2.75,2.48-6.49,4.64-8.29,8-2.58,4.83-2.55,10.46-4.31,15.54-2.16,6.22-3.6,12.51-6.31,18.51-1.12,2.48-1.59,5.06-3.27,7.26-1.93,2.53-4.32,4.82-6.37,7.26-4.26,5.07-9.45,10-14.87,13.81-3.51,2.47-7.32,4.9-10.07,8.26-2.96,3.63-5.8,7.4-8.95,10.88-8.3,9.15-11.9,19.98-17.33,30.73-1.28,2.53-2.39,5.25-3.68,7.74-.57,1.11-1.49,1.64-2.1,2.67-.87,1.48-.94,3.48-1.69,5.03-.67,1.4-2.28,2.72-3.11,4.2-.91,1.61-1.36,3.3-2.57,4.41-.01-.54.13-1.05.41-1.53"/>
  <path class="cls-2" d="M661.01,740.54c2.53-6.87,3.87-11.34,7.62-16.98,1.38-2.08,2.07-4.43,2.87-6.77,1.46-4.22,2.47-8.42,2.77-12.87.56-8.25,5.9-14.72,12.01-20.12,3.33-2.95,6.66-5.8,10.11-8.59s6.36-6.74,10.2-9.35c7.79-5.31,13.26-12.25,19.84-18.82,6.32-6.31,10.03-16.02,13.87-23.97,3.24-6.7,5.84-13.67,8.68-20.54,2.95-7.14,6.1-14.54,8.2-21.98,1.47-5.21,8.98-8.5,11.18-13.47,2.93-6.61.24-14.3,4.19-20.34,3.86-5.9,5.96-12.73,8.2-19.35,2.36-6.98,6.15-13.04,9.02-19.76,2.63-6.17,4.66-12.61,7.3-18.8,2.41-5.66,4.75-11.44,6.33-17.4,1.38-5.2,3.08-10.25,3.62-15.62.49-4.83.63-9.78.88-14.64.28-5.44,0-10.22,1.36-15.57,1.52-5.97,1.43-12.02,1.06-18.13-.38-6.3-5.33-9.6-6.1-15.85-.3-2.42-.62-7.33-2.08-9.39-1.75-2.48.56-3.83-.65-6.72-.95-2.29-1.51-4.74-2.46-7.02-.81-1.96-2.31-3.25-3.22-5.08-1.3-2.62-.58-4.49.09-7.22,2.53-10.37,4.77-20.74,6.52-31.27.78-4.7.97-9.7,2.59-14.21,2.22-6.19,7.41-11.25,8.98-17.67,2.23-9.15,4.13-19.3,9.52-27.28,4.67-6.92,3.84-14.29,3.15-22.35-.27-3.08-.56-5.58-2.63-8.05-2.1-2.51-4.44-3.75-5.9-6.77-2.23-4.6-6.68-7.33-11.65-8.38-2.25-.48-4.85-.25-5.86-2.82l-.22.72"/>
  <path class="cls-2" d="M733.31,450.06c4.01-11.52,7.83-22.9,10.82-34.72,2.38-9.39,3.48-19.14,6.56-28.34,2.34-7.01,5.16-13.41,6.77-20.64,1.16-5.21,2.16-10.46,3.35-15.67.98-4.29,2.7-8.99,2.78-13.42.05-2.86-1.41-5.44-1.81-8.21-.25-1.74.22-2.96.58-4.6.42-1.91.52-3.89,1.42-5.72.73-1.49,1.85-2.57,1.4-4.36l-.51.22"/>
  <path class="cls-2" d="M762.2,339.44c5.67-6.97,12.33-13.75,17.11-21.4,3.37-5.38,5.8-12.09,7.81-18.09,2.05-6.13.6-12.78,1.05-19.14.59-8.31,2.52-16.07,4.67-24.05,1.54-5.73,3.02-10.97,3.89-16.84.94-6.33,3.06-13.04,1.99-19.43-1.26-7.5,3.52-15.23,7.17-21.53,3.26-5.63,6.39-11.16,9.16-17.06,3.28-6.98,6.28-14.4,10.28-20.99,3.82-6.29,8.28-12.06,11.65-18.63,4.01-7.84,8.42-15.46,12.95-23.03,7.23-12.12,12.18-25.41,19.37-37.55,3.72-6.28,9.14-11.31,11.65-18.33,2.57-7.22,5.08-14.37,7.89-21.49,1.23-3.11,2.17-6.13,4.24-8.8s4.52-5.15,6.65-7.84c3.01-3.79,4.79-7.06,6.26-11.62.97-3,.52-4.29,3.22-6.05,2.4-1.56,5.07-2.27,7.77-3.12,2.31-.73,4.6-1.88,6.98-2.28,3.32-.55,6.68-.2,10.01-.82,6.88-1.29,12.93,1.62,18.93,4.95,3.27,1.81,6.66,2.89,9.8,4.94,2.85,1.86,5.42,4.08,7.66,6.66,2.98,3.43,7.44,7.13,9.54,11.16.77,1.47.54,2.54.82,4.08.37,2.01,1.28,3.72,1.55,5.77,1.19,9.15-2.05,19.39-6.4,27.34-4.06,7.4-11.77,11.23-17.28,17.17-3.49,3.76-6.96,7.89-6.27,13.15.38,2.92.17,5.47.11,8.38-.1,4.9,1.08,9.83,1.65,14.67.64,5.43,1.16,10.16-.06,15.52-1.42,6.22-.99,12.21-1.23,18.55-.21,5.55-1.36,10.94-1.45,16.53-.11,6.85-1.82,13.46-1.75,20.34.05,5.4-.27,10.3-.68,15.69-.43,5.79,1.9,11.23.78,17.02-1.25,6.43-4.28,12.41-5.22,18.97-.7,4.9-.34,9.97-.55,14.91-.26,5.97-.36,11.65-1.2,17.6-.86,6.11-.39,11.99-.8,18.11-.69,10.29-3.91,20.29-5.97,30.31-2.2,10.67,4.9,21.15,2.7,31.71-1.22,5.85-3.79,10.91-2.85,16.99.48,3.08.41,5.81.33,8.92-.09,3.83.45,7.67.14,11.49-.47,5.74-2.75,10.83-3.88,16.4-1.52,7.45-2.55,14.86-4.6,22.21s-4.68,14.72-5.64,22.21c-.73,5.69-1.21,11.41-2.01,17.09-2.34,16.71-1.92,34.02-3.18,50.87-.33,4.4-3.08,8.34-3.55,12.67-.47,4.37-2.19,8.48-2.69,12.85-.55,4.81-1.11,9.52-1.37,14.36-.18,3.44.29,7.12-.44,10.51-2.03,9.4-6.05,18.33-9.32,27.35-1.21,3.32-3.42,6.03-4.86,9.24-1.61,3.58-2.59,7.43-3.91,11.12-1.79,4.99-3.72,10.54-5.99,15.35-3.17,6.73-6.8,13.07-9.68,19.96-2.14,5.12-5.45,9.59-7.36,14.86-1.55,4.29-2.85,8.68-4.45,12.96-2.14,5.69-6.32,10.23-9.03,15.65-1.24,2.47-2.19,4.86-3.9,7.04-1.9,2.43-4.12,4.44-5.82,7.03-2.32,3.53-4.13,6.92-6.01,10.67-2.11,4.2-4.37,8.85-7.08,12.7-2.59,3.68-5.12,6.82-7.03,10.96-2.35,5.11-4.47,10.34-7.42,15.14-2.45,3.98-3.88,8.5-5.8,12.78-2.18,4.84-5.56,9.16-7.6,14.05-2,4.82-2.8,9.84-4.12,14.84-1.19,4.55-3.01,9.1-4,13.67-.5,2.32-.35,4.54-1.41,6.75-2.15-1.42-1.41-4.33-.55-6.31"/>
  <path class="cls-2" d="M721.25,658.67c16.02,5.54,31.18,12.15,46.09,20.21,5.16,2.79,10.62,4.49,16.14,6.41,3.28,1.14,6.58,2.56,9.95,3.37,2.89.69,5.9.68,8.81,1.24,5.36,1.03,10.63,1.39,16.02,2.19,4.81.72,9.38,2.38,14.14,3.33,9.32,1.86,18.63,5.32,28.07,6.27,4.36.44,8.83.15,13.12.88,3.87.66,8.59,1.55,12.52.96,4.05-.61,7.83-3.39,11.57-4.89,3.17-1.27,6.85-2.12,9.46-4.52,1.97-1.82,2.4-3.74,2.93-6.23.58-2.71,2.6-5.51,1.88-8.3-1.56-6.04-8.56-11.34-13.44-14.71s-9.98-5.28-14.75-8.47c-1.25-.84-5.86-3.18-6.07-4.34"/>
  <path class="cls-2" d="M886.89,636.83c5.37-3.5,9.79-6.53,15.76-8.48,2.85-.93,5.88-1.55,8.68-2.6,3.4-1.28,6.65-3.15,9.76-4.98,7.97-4.7,13.49-12.95,14.38-22.34,1.04-10.88-2.51-20.99-12.67-26.08-3.83-1.92-10.68-4.12-10.42-9.23-.81-.14-1.61-.53-.76-10.41,3.84-2.01,8.46-5.41,12.85-5.83,1.45-.14,2.89.17,4.35-.05,1.94-.29,3.52-1.09,4.96-2.38,2.2-1.98,5.38-5.93,6.13-8.8,1.08-4.14-1.72-9.68-2.55-13.79-1.02-5.14.24-9.37.02-14.42-.13-2.91-1.83-4.74-3.49-7.04-2.12-2.93-5.41-3.46-8.24-5.51-1.54-1.11-7.8-5.1-7.73-7.01"/>
  <path class="cls-2" d="M921.72,476.89c2.97-3.1,8.19-9.75,12.69-12.1,1.25-.65,2.67-1.09,3.95-1.67,2.79-1.25,5.43-2.25,8.48-2.67,5.53-.76,10.12-2.48,14.18-6.62,4.47-4.55,7.93-10.1,9.43-16.32.84-3.48.11-6.22.2-9.63.05-1.98.94-3.67.71-5.73s-1.25-4.09-1.99-6.06c-3.59-9.55-9.94-18.03-18.02-24.37-4.16-3.26-9.63-5.39-12.12-10.41-1.15-2.3-2.56-4.18-.26-5.68,1.8-1.17,4.46-1.47,6.48-2.08,2.97-.9,5.96-1.9,8.78-3.22,4.77-2.24,9.25-5.35,13.07-9.01,4.5-4.31,6.44-12.16,6.52-18.28.09-7.43-6.15-15.18-11.62-19.71-2.73-2.26-6.21-3.75-9.51-4.95-3.01-1.1-6.84-1.66-9.32-3.74-2.41-2.03-2.14-4.46-1.38-7.22,1-3.65,4.24-4.65,7.53-5.61,4.56-1.32,9.6-2.9,13.63-5.45,2.17-1.38,4.1-3.33,5.65-5.41,2.22-2.98,4.58-5.85,6.7-8.93,3.65-5.3,4.49-11,3.57-17.44-1.06-7.45-5.8-11.87-11.51-15.99-4.46-3.21-8.77-6.74-13.75-9.15-2.92-1.41-5.04-2.24-3.14-15.02,4.97-3.64,10.2-6.85,15.69-9.63,1.13-.12,2.18-.45,3.17-1,1.54-.82,2.7-2.13,3.87-3.39,1.98-2.13,3.81-4.42,5.13-7.04,3.81-7.6,2.38-15.14-.83-22.58-2.39-5.54-4.61-10.6-8.97-14.93-2.69-2.67-6.18-3.76-8.89-6.23-2.88-2.63-4.91-4.99-.65-7.08,2.29-1.13,4.73-1.25,6.45-3.34,1.84-2.23,2.51-5.05,3.7-7.61,2.45-5.31,4.97-10.59,3.55-16.68-.92-3.94-1.79-8.12-4.63-11.14-2.11-2.24-4.86-3.8-7.48-5.35s-5.41-2.96-8.15-3.94"/>
  <path class="cls-2" d="M794.77,362.6c11.44,1.29,22.87,2.72,34.31,3.99,4.12.46,8.26.65,12.4.73,3.82.08,7.62-.34,11.43-.18,7.62.31,15.41.35,22.96-.78,7.81-1.17,15.75-1.34,23.57-2.46,3.4-.49,6.85-.68,10.22-1.37,2.56-.53,5.08-1.23,7.64-1.76,3.51-.73,6.92-1.8,10.29-3.06s7.04-2.05,10.08-3.71"/>
  <path class="cls-2" d="M785.39,479.87c5.81.51,11.73.61,17.41,2.04,3.69.93,7.26,2.36,10.85,3.6,7.84,2.72,15.65,5.56,23.68,7.68,8.21,2.16,16.54,3.95,24.82,5.83,8.99,2.04,18.11,3.09,27.24,4.17s19.25,2.06,28.88,2.16c1.77.02,4.19,1.06,5.87.14.09-.13.04-.22-.15-.25"/>
  <path class="cls-2" d="M912.22,526.37c-2.75-3.92-5.25-7.17-8.54-10.51-1.59-1.62-2.38-3.79-3.79-5.54-2.4-2.97-5.79-5.35-8.57-7.97-6.54-6.15-15.32-9.92-23.71-12.79-3.19-1.1-6.41-2.14-9.59-3.3-2.57-.94-4.84-2.51-7.34-3.62-2.38-1.05-4.95-1.78-7.41-2.63-1.82-.63-3.78-1-5.56-1.65"/>
  <path class="cls-2" d="M819.48,277.8c6.67-.22,13.23-.79,19.82.45,4.59.86,9.14,2.13,13.61,3.45,5.64,1.67,11.45,3.07,17.21,4.28,2.96.62,5.59.85,8.55.13,2.21-.53,4.38-1.19,6.63-1.51,3.36-.46,6.78-.27,10.15-.66,3.16-.36,6.27-1.04,9.42-1.47,8.57-1.17,17.36-1.75,26-2.26,2.37-.14,4.63-.65,6.97-.97,1.04-.15,3.03.03,3.65-.95"/>
  <path class="cls-2" d="M807.08,201.74c5.02.99,10.35,1.63,15.23,3.24,2.32.77,4.51,1.86,6.69,2.94,4.86,2.42,9.77,5.35,15.05,6.75,3.21.85,6.52.84,9.81,1.09,3.58.27,7.02,1.16,10.51,1.98,2.91.68,5.82,1.37,8.76,1.88,2.98.51,5.79.42,8.79.33,7.28-.21,14.59-.04,21.88-.17,5.61-.1,11.39-.55,16.94-1.32,4.9-.68,9.8.08,14.7-.62,4.59-.65,9.23-1.17,13.51-2.94-.32-.05-.65-.06-.98-.02"/>
  <path class="cls-2" d="M826.65,165.31c10.02.94,19.72,2.44,29.27,5.71,6.66,2.28,13.42,4.79,20.26,6.5,5.89,1.47,11.69,2.11,17.7,2.8,2.56.3,5.66,1.21,8.21.44,2.26-.68,3.98-1.44,6.49-1.56s4.93.23,7.37-.1c2.04-.28,4.01-.65,6.07-.8,4.55-.33,9.35-.85,13.9-.57,2.98.18,5.92-.06,8.87.34,1.46.2,2.9-.54,4.37-.23.11-.12.17-.27.19-.44"/>
  <path class="cls-2" d="M862.96,99.78c11.96,7.25,24.38,13.87,38.73,12.06,8.26-1.04,16.47-1.27,24.75-.29,2.94.35,5.83.86,8.79.56,2.4-.24,4.88.28,7.23-.25,2.49-.56,5.67-1.2,8.17-.55.12-.12.18-.27.2-.44"/>
  <path class="cls-1" d="M905.14,37.91c.22-.66,5.39-4.88,5.57-5.55.52-1.07,1.42-1.57,1.99-2.56"/>
  <path class="cls-2" d="M1001.43,1178.09c-18.11-5.58-38.56-14.17-58.02-14.24-9.1-.03-16.29-1.61-24.93-4.59-6.99-2.41-12.79-4.72-18.9-8.98-6.32-4.41-11.55-10.04-17.97-14.25-12.37-8.11-26.28-14.09-37.27-24.18-9.41-8.63-18.68-15.89-29.35-22.83-10.36-6.73-17.33-16-26.23-24.12-2.83-2.58-7.25-4.79-9.28-8.1-1.4-2.28-1.52-3.67-3.36-5.73-1.94-2.19-3.07-5.25-4.96-7.15"/>
  <path class="cls-2" d="M836.6,842.26c27.7-16.38,57.47-26.15,87.31-37.63,15.46-5.94,31.52-11.22,47.46-15.62,9.47-2.62,19.99-4.57,28.65-8.54,4.41-2.02,8.74-6.32,13.39-7.14"/>
  <path class="cls-2" d="M1013.78,1081.62c-7.02-.67-13.96-3-20.77-4.84-5.86-1.58-10.53-5.05-16.02-7.46-12.02-5.27-24.48-9.46-36.74-14.12-2.54-.96-4.83-2.31-7.3-3.4-1.64-.73-3.64-.95-5.06-2.11-2.88-2.36-3.78-5.28-3.62-8.82.14-3.06-.6-5.99-.77-9.03s.73-5.95,1.92-8.8c1.85-4.4,1.03-9.21,1.56-13.88.25-2.21.56-4.65,1.68-6.6,1.05-1.82,2.74-3.29,3.98-4.98,2.76-3.76,3.84-8.52,5.71-12.75,1.21-2.75,2.73-5.26,4.15-7.9,1.54-2.87,2.52-5.96,3.23-9.13,1.17-5.27,2.84-10.41,3.86-15.71,1.14-5.92,2.12-11.42,7.45-15.12,2.37-1.65,5.38-1.57,8.16-1.72,3.88-.21,7.25-1.82,11.08-2.38,3.06-.45,6.09-.4,9.1-1.21,2.45-.65,4.68-1.59,7.2-1.98,4.17-.65,8.42-2.36,12.31-3.95,2-.82,4.93-1.4,6.35-3.15.65-.81,1.83-2.22,2.17-3.18"/>
  <path class="cls-2" d="M1010.53,1154.72c-3.67.05-7.13.25-10.74-.39-2.46-.43-4.21-1.07-6.49-2.07-2-.88-4.07-1.57-6.07-2.47-4.17-1.88-8.2-3.77-12.6-5.1s-8.84-2.49-13.22-4c-2.41-.83-4.8-1.65-7.15-2.64-1.93-.81-3.75-1.75-5.9-1.61-2.68.18-5.07,1.06-7.81.78-2.09-.21-4.15-.72-6.25-.78-2.11-.06-4.2.45-6.31.28-2.68-.22-5.09-1.27-7.62-2.07-4.69-1.47-9.13-2.84-13.55-5.02-5.22-2.57-9.85-5.91-14.74-9.03-4.4-2.8-9.45-4.17-14.04-6.59-5.57-2.94-11-5.5-16.97-7.54-4.88-1.67-9.06-3.2-12.41-7.31-3.8-4.66-7.26-8.97-11.99-12.77-8.59-6.9-16.47-14.31-24.05-22.3-3.08-3.25-5.78-7.04-8.38-10.69-2.19-3.08-4.55-5.61-7.17-8.29-2.39-2.44-4.53-5.08-6.75-7.67-1.16-1.35-1.95-2.88-3.04-4.27-1.1-1.41-2.41-2.09-3.24-3.72"/>
  <path class="cls-2" d="M1007.74,1131.33c-5.06-.4-10.02-1.29-14.89-2.67-2.7-.93-5.41-1.83-8.13-2.68-3.49-1.08-7-2.07-10.56-2.91-8.74-2.06-17.05-4.42-25.22-8.2-5.39-2.49-10.53-4.98-15.42-8.39-3.31-2.3-6.22-5.39-9.74-7.34-2.46-1.36-5.04-2.61-7.69-3.56-3.49-1.24-7.07-1.21-10.67-1.9-5.52-1.05-10.94-3.45-16.1-5.58-5.63-2.33-10.31-6.14-15.33-9.51-5.04-3.38-10.9-5.24-15.88-8.63-4.39-2.99-8.72-5.5-13.62-7.64-3.1-1.35-6.77-2.5-9.33-4.76-1.58-1.39-2.28-3.17-3.4-4.89-.91-1.39-2.04-2.61-3.19-3.8-3.6-3.74-7.35-7.45-11.22-10.9-5.78-5.14-13.01-8.08-17.61-14.59-.87-1.23-1.89-2.57-2.56-3.92-.36-.73-.55-1.61-1.5-1.72"/>
  <path class="cls-2" d="M1013.11,1099.26c-5.03-1.61-9.95-3.51-14.76-5.7-2.1-1.09-4.22-2.15-6.35-3.18-2.11-.97-4.27-1.75-6.46-2.51-4.14-1.43-8.14-2.13-12.43-2.93-4.74-.88-9.32-2.31-14.15-2.66-6.44-.46-12.39-2.38-18.35-4.77-2.34-.94-4.74-1.88-7.19-2.52-2.39-.63-5-.69-7.31-1.64-4.11-1.7-7.63-6.6-10.22-9.99-6.71-8.79-14.93-16.68-23.98-23.04-4.89-3.44-9.87-6.69-15.44-8.93-4.1-1.65-8.27-3.32-12.45-4.75-6.02-2.06-11.79-4.18-17.52-6.98-2.57-1.25-5.1-2.78-7.82-3.7-2.02-.68-3.99-.62-6.03-1.12-2.37-.58-4.25-2.09-6.36-3.21-1.38-.73-2.8-1.37-4.21-2.04-2.81-1.32-5.36-3-8.04-4.55-1.19-.69-5.57-2.08-6.06-3.61"/>
  <path class="cls-2" d="M841.03,921.09c3.94-1.18,7.07-2.32,10.43-4.57,2.24-1.5,4.31-2.34,6.94-2.78,4.37-.73,8.67-1.5,13-2.42,10.32-2.19,21.11.16,31.5-.03,5.13-.1,9.62-.87,14.48-2.42,2.22-.71,4.51-1.21,6.71-1.98,1.75-.62,3.4-1.46,5.19-1.97,7.89-2.24,15.7-3.33,23.82-4.18,3.63-.38,7.11-.88,10.78-.68,3.11.17,6.17.46,9.26.8,4.59.5,9.02,1.71,13.66,1.96,5.85.32,11.48-.61,17.29-1.15,1.91-.18,3.51-1.01,5.35-1.39.8-.16,2.35.02,2.51-1.1"/>
  <path class="cls-2" d="M845.14,895.25c4.13-1.1,8.1-2.28,12-4.02,3.19-1.42,6.26-3.11,9.44-4.56,5.44-2.49,11.42-3.78,17.33-4.58,4.27-.58,8.39-1.43,12.52-2.73,4.07-1.29,7.77-2.87,12.06-3.38,3.76-.44,7.58.47,11.37.42,2.33-.03,4.66-.54,6.85-1.3,3.18-1.11,6.58-1.28,9.85-2.03,1.75-.4,3.41-1.15,5.16-1.57,2.66-.64,5.43-.89,8.14-1.26,3.59-.5,7.23-1.41,10.85-1.53,3.48-.12,6.97-.29,10.45-.36,7.59-.13,15.11,1.62,22.67.62,4.43-.58,8.41-2.41,12.85-2.98,1.3-.17,7.56.4,7.95-.71"/>
  <path class="cls-2" d="M846.98,863.76l-.53-.64c3.73-2.23,8.82-2.72,12.97-3.87,6.13-1.71,12.33-2.99,18.47-4.62,8.07-2.14,16.42-3.59,24.34-6.26,2.38-.8,4.77-1.55,7.03-2.66,2.19-1.08,4.19-2.49,6.39-3.57,3.7-1.82,7.76-2.58,11.52-4.25,6.06-2.69,12.58-3.17,19.14-3.68,3.31-.26,6.27.15,9.51.7,3.3.56,6.76.33,10.1.5s6.72.89,10.05.57,6.53-.97,9.8-1.31c3.63-.38,6.9-1.07,10.41-2.01,2.39-.64,4.61-1.63,6.97-2.34,4.31-1.28,9.46-2.35,13.85-.88-.26-.08-.52-.16-.77-.26"/>
  <path class="cls-2" d="M347.65,1796.18c7.55.44,14.98.55,22.53.68,5.08.09,10.12.7,15.18.04,5.2-.68,10.28-1.09,15.52-1.41,6.79-.41,13.5-1.78,20.21-2.8,12.99-1.96,25.9-4.5,38.37-8.7,5.71-1.92,11.14-4.18,16.36-7.18,2.11-1.21,6.77-2.65,7.35-5.47-8.15,3.36-16.27,6.56-24.87,8.77-13.48,3.47-27.93,4.93-41.83,5.24-5.67.13-11.32-.01-16.98-.1-5.3-.08-10.59.33-15.89.15-7.69-.26-15.75-.43-23.32-1.83,2.37-.56,4.87-.1,6.2,1.91,1.69,2.54,3.58,3.69,6.75,4.34,8.65,1.76,18.57,1.09,27.26-.09,4.05-.55,8.06-1.31,12.07-2.05,6.52-1.2,13.13-1.93,19.64-3.18,8.7-1.67,17.42-3.6,25.98-5.88,6.99-1.86,13.95-3.81,20.36-7.24,2.05-1.1,4.06-2.25,6.09-3.38.9-.5,2.2-.95,2.9-1.67-.85,0-2.92.28-3.06.26-5.61.72-11.26,3.05-16.72,4.52-12.06,3.25-24,5.23-36.48,5.61-8.24.26-16.58.51-24.83.6-5.73.06-11.47-.45-17.19-.28-4.6.14-10.08,1.02-14.58-.34-1.87-.56-3.94-1.56-5.69-2.38,1.95-.95,5.82.06,7.91.07,3.74.03,7.47-.1,11.2-.31,7.26-.41,14.51-1.05,21.78-1.27,10.05-.31,19.98.02,29.95-1.53,7.02-1.09,14.03-2.04,21.07-2.96,4.98-.65,9.95-1.34,14.79-2.76,1.65-.48,10.01-2.14,10.24-4.98-2.81.39-5.82,1.65-8.48,2.48-10.8,3.36-21.91,6.04-33.15,7.45-10.94,1.37-22.05,1.55-33.05,1.69-7.03.09-14.2.3-21.17-.86-1.07-.18-14.14-2.45-11.95-5.48.26-.36.75-.44,1.14-.59,1.8-.28,3.62-.38,5.44-.29,4.61-.08,9.21.06,13.81.42,9.01.37,18.01.79,27.04.53,8.95-.26,17.92-1.54,26.79-2.72,10.88-1.45,22.37-2.09,32.45-6.75,1.84-.85,4.69-1.79,5.88-3.58-1.62.18-3.19.61-4.69,1.3-7.38,2.36-14.87,4.27-22.49,5.74-5.83.82-11.67,1.64-17.5,2.46-9.29.61-18.56.51-27.83-.31-8.44-.51-16.98-1.02-25.37-2.13-2.07-.27-4.74-.39-6.69-1.33.27-.6.72-1.58,1.23-2.01,1.1-.91,3.62-.36,4.84-.31,7.58.29,15.16.76,22.74.95,17.18.43,34.3,0,51.37-2.11,5.53-.69,11.01-1.61,16.43-2.87,2.12-.5,4.84-.8,6.6-2.16-5.32-2.46-12.25.46-17.11,1.57-20.11,4.57-40.9,6.09-61.12,1.41-6.47-1.5-12.82-3.57-19.15-5.58-2.5-.79-5.03-1.49-7.34-2.75,1.19-.23,2.43.03,3.62-.11,4.18-.52,8.45-.11,12.64.1,11.73.6,23.5,1.6,35.24,1.73,10.65.12,21.2-1.03,31.84-1.35,4.79-.14,9.85.63,14.61.2,2.36-.21,4.69-1.1,7-1.58,3.3-.68,6.29-1.32,9.39-2.68,2.24-.98,4.63-2.14,7.12-2.21-3.73,2.88-8.47,4.44-12.32,7.25-3.28,2.4-6.21,5.16-8.87,8.24-1.36,1.57-3.8,3.9-4.12,6.12,3.01.05,7.89-5.95,9.56-7.72,2.22-2.35,4.21-4.85,6.29-7.32,1.11-1.32,3.43-4.54,5.73-4.46.33,1.07-.02,2.01-1.08,2.81-2.17,2.87-4.44,5.64-6.83,8.33-3.68,4.28-9.66,9.2-11.83,14.6,1.47-3.47,4.28-6.04,6.69-8.85,3.37-3.94,6.57-7.97,9.05-12.55,1.59-2.94,2.97-5.82,4.77-8.63,1.24-1.94,2.79-5.12,5.11-5.99-2.21,2.16-5.65,3.09-8.46,4.19-4.54,1.77-9.16,3.21-13.99,3.84,3.99-1.83,9.1-1.78,13.33-2.91,1.48-.39,9.3-1.98,8.88-4.82-3.89-1.73-9.05-.21-13.18.11-3.6.35-7.22.49-10.84.42-2.21.44-4.24.15-6.07-.87,6.02-1.84,12.28-2.38,18.55-2.47,2.77-.04,5.54.05,8.31-.09,1.12-.06,2.35-.03,3.21-.8-2.54-.38-5.27.6-7.88.43-5.43-.34-10.75-2.2-16.17-2.82-9.22-1.05-18.45-.39-27.68.15-7.03.41-13.58-.09-20.55-.97-12.15-1.54-24.4-.79-36.42-3.28-2.02-.42-4.22-1.36-6.25-.96-1,.2-1.97.79-3.03.98-.66.12-1.57.08-2.1.43,17.02,7.55,35.94,7.57,54.21,8.89,12.51.9,25.05,1.81,37.52,3.22.32.04,7.88.27,8.28,1.69-4.06,4.06-12.93,4.13-18.1,4.51-14.4,1.06-29.17-.89-43.48-2.37-8.64-.9-17.19-2.53-25.85-3.18-3.22-.24-8.28-1.26-11.41,0,1.93,1.5,4.64,1.77,6.96,2.06,8.42,1.06,16.86,2.02,25.26,3.19,15.55,2.15,31.06,4.68,46.51,7.44,5.24.93,10.77,1.6,15.9,3.12-2.62.95-5.55,1.32-8.28,1.89-11.51,2.38-22.72,3.09-34.46,2.27-11.05-.77-21.85-2.4-32.04-6.93-3.34-1.48-6.91-2.96-9.86-5.14,3.41-.18,7.13.68,10.55.96,13.72,1.13,27.44.73,41.16-.12,10.98-.68,21.78-1.5,32.24-5.11,4.79-1.65,9.98-3.13,14.16-6.07-.93-1.11-2.21-1.44-3.86-.98-4.23-.16-8.45-.4-12.67-.71-6.82-.64-13.62-1.5-20.39-2.58-8.55-1.21-17.11-2.42-25.66-3.61-10.07-1.67-20.12-3.96-29.52-8.05-2.39-1.04-6.29-2.39-8.35-4.16,3.18.98,6.44,1.56,9.72,2.11,14.96,2.5,29.96,4.74,44.92,7.24,11.12,1.86,22.25,2.94,33.48,3.81,3.64.28,7.29.49,10.92.82,1.2.11,2.41.16,3.53.6-2.37-.47-4.78-.74-7.18-1.02-16.95-2-33.87-4.24-50.41-8.56-12.31-3.21-24.79-7.22-36.07-13.22-1.6-.85-4.17-1.83-5.39-3.25,2.64-.94,6.8.94,9.41,1.68,8.71,2.46,17.46,4.79,26.18,7.23,13.79,3.85,27.59,7.75,41.54,10.97,5.37,1.24,10.79,2.51,16.29,3.05,1.08.11,2.89.48,3.8-.18-.59-.57-1.34-.89-2.11-1.14-4.32-1.39-9.33-1.36-13.81-2.06-23.08-3.6-46.27-10.79-66.5-22.51-3.83-2.22-8.75-4.62-11.92-7.89-.93-.96-3.04-2.72-3.5-3.86,1.26-.29,3.82.94,4.67,1.29,5,2.04,9.74,4.68,14.57,7.09,12.92,6.45,26.44,11.63,39.74,17.23,6.63,2.79,13.08,5,20.23,5.93,2.51.33,4.61.78,7.01,1.49-3.82-1.45-8.27-1.79-12.23-2.82-13.43-3.51-27.14-7.95-39.09-15.15-6.77-4.07-13.11-8.72-20.12-12.38-2.72-1.42-5.47-3.36-8.44-4.24-.29-.09-.28-.09.02.01"/>
  <path class="cls-2" d="M402.61,1662.55c5.28,1.12,10.12,1.57,15.47,1.5,2.88-.04,5.71.25,8.55.62,5.83.75,11.28,1.68,17.2,1.53,9.67-.25,19.33-.75,28.82-2.76,5.02-1.06,9.66-3.5,14.75-4.18,3.85-.51,7.69-.54,11.56-.78,3.35-.21,6.59-.02,9.91-.59s6.16-1.13,9.22-2.06c2.94-.9,6-1.36,8.98-2.11,3.1-.78,6.08-1.92,9.18-2.67,5.95-1.43,11.42-4.23,17.28-5.9,2.76-.78,5.32-1.6,7.9-2.91,2.4-1.21,3.98-2.82,5.94-4.58,1.75-1.57,3.21-3.15,4.79-4.89.56-.62,3.11-2.94,2.94-3.81-1.5.57-2.75,2.06-4.02,3.01-3.01,2.26-6.19,4.23-9.52,5.97-9.64,5.04-20.39,7.54-30.85,10.22-9.43,2.42-18.79,4.8-28.48,6.02-6.42.8-12.71.91-19.14,1.44s-13.42.67-20.08,1.36c-7.36.76-14.72,2.34-22.16,2.23-5.34-.08-10.95-1.72-16.07-3.15-3.03-.85-7.85-3.5-11.07-2.39,1.94.64,5.58-.57,7.4-.84,9.17-1.33,18.27-1.67,27.53-1.14,16.79.95,35.5,4.55,51.43-2.79-1.5-.69-3.1-.65-4.78.13l-6.59.93c-11.81,1.62-23.55,2.3-35.47,2.03-10.97-.25-21.81-.81-32.67-2.17,2.76.33,5.49.27,8.27.16,6.62-.26,13.17-.27,19.79.16,4.14.23,8.27.54,12.4.93,4.71.59,9.43.75,14.17.49,1.77-.49,4.73-1.13,5.55-2.99-5.22-1.06-10.55-1.22-15.85-1.6-10.2-.73-20.51-.98-30.68-2.04-4.27-.44-8.45-.81-12.39-2.57.5-1.75,12.5-.13,12.73-.11,4.9.34,9.8.76,14.7,1.03,3.3.18,8.09.82,11.26-.96.1-1.67-5.6-1.85-6.81-2.04-8.67-1.33-17.38-1.76-26.11-2.36-4.28-.29-8.46-1.1-12.72-1.56-2.65-.28-5.48-.9-8.15-.62.91.58,2.04.26,3.04.25,3.52-.03,7,.38,10.5.86,14.21,1.95,28.04,4,42.42,2.88,3.71-.29,7.42-.6,11.13-.91.7-.06,6.32.03,7.33-1.29-4.88-1.88-10.39-2.3-15.5-3.27-6.63-1.26-13.22-2.49-19.94-3.21-6.2-.67-12.48-.63-18.64-1.66-2.82-.47-5.59-1.22-8.41-1.67-1.24-.2-6.69-.17-7.3-1.66,1.43-.73,4.2.04,5.63.23,9.68,1.28,19.23,3.38,28.91,4.63,7.18.92,14.32.6,21.54.85,2.88.1,8.32,1.17,11.09-.37-2.07-.56-4.27-.67-6.39-1-5.45-.85-10.85-2.13-16.25-3.28-8.37-1.78-17.15-3.12-25.21-6.04.54.02.91-.15,1.47-.23,3.02-.43,6.01-.06,9.03.32,2.76.4,5.52.8,8.27,1.2,5.95,1.08,11.92,1.97,17.93,2.67,1.53-.04,4.19.27,5.17-1.25-4.7-3.38-13.76-3.31-19.03-3.92-6.47-.58-12.92-1.33-19.34-2.27-1.96-.06-3.8-.51-5.51-1.33,4.19-.2,8.46.34,12.65.35,4.65,0,9.3.2,13.94.43,4.11.21,8.33.61,12.38-.24-1.61-1.75-8.12-1.72-9.45-1.84-8.6-.79-17.39-1.13-25.89-2.78-4.15-.8-8.03-1.9-12.01-3.32-1.03-.37-2.26-.58-3.06-1.37.88-1.48,4.64-.82,5.98-.75,9.18.46,18.24,2.42,27.37,3.33,11.06,1.1,22.1,1.63,33.2,1.47-3.35-.74-6.63-2.18-9.96-3.04-8.87-2.29-17.94-3.9-26.94-5.59-5.47-1.02-10.95-2.02-16.29-3.6-1.17-.34-5.68-1.12-6.14-2.78.52-.63,1.35-.62,2.14-.61,2.03.03,4.25.76,6.23,1.13,7.06,1.3,14.12,2.62,21.19,3.93,9.33,1.72,18.72,2.36,28.12,3.54,3.28.41,6.57.86,9.88.99,1.09.04,3.07.32,3.87-.37-4.98-1.61-10.05-2.84-15.02-4.52-10.68-3.61-21.51-6.39-32.3-9.59-4.39-1.3-9.31-2.58-13.42-4.68-1.78-.91-3.36-1.97-5.2-2.75.94-.59,4.16.24,4.67.33,5.91,1.13,11.72,2.72,17.61,3.97,9.97,2.11,20.52,4.96,30.78,3.86-.82-1.42-5.62-1.67-7.14-1.98-5.26-1.07-10.48-2.28-15.7-3.53-10.59-2.54-21.43-4.12-31.97-6.8-.84-.21-2.42-.39-3.16-.94-.42-.31-.51-.67-.83-1-.42-.43-.94-.75-1.38-1.2,1.77-.47,7.87,1.17,8.13,1.22,8.71,1.8,17.32,4.08,25.99,6.03,10.25,2.3,20.68,3.61,30.76,6.66-13.73-3.76-27.37-8-41.18-11.47-4.45-1.12-9.49-1.42-13.69-3.42,1.02-.76,3.07-.59,4.29-.52,3.93.23,7.9.95,11.77,1.59,13.38,2.22,26.3,6.53,39.78,8.21,7,.87,13.63,2.05,20.45,3.74,3.93.98,7.97,1.85,11.7,3.48-5.41.23-11.81-1.58-16.94-2.89-9.43-2.4-18.51-6.05-27.7-9.19-5.23-1.78-10.01-3.02-15.54-3.06-2.76-.02-5.63.07-8.37-.37,12.14-.6,24.37.13,36.3,2.57,14.32,2.92,28.13,7.75,41.74,13.02,7.36,2.85,14.55,6.14,22.1,8.5,5.1,1.6,10.41,1.53,15.43,3.62,1.98.82,12.81,4.35,7.9,8.08-3.48,2.65-8.94,1.42-12.76.68-10.36-1.98-20.29-5.61-30.33-8.77-16.79-5.29-33.73-9.63-50.97-13.13.64-.24,1.41-.25,2.14-.26,3.77-.06,7.56.36,11.3.86,19.82,2.65,38.89,9.44,58.63,12.33,3.7.54,7.39.76,11.12,1.07,1.36.11,4.21.04,5.25,1.17.89.96.37,1.68.16,2.85-2.37.38-4.94.17-7.32.17-11.7,0-23.78-.99-35.24-3.06-11.33-2.05-22.64-4.61-33.53-8.38-4.67-1.61-9.2-4.27-13.92-5.77,6.42,4.15,15,5.34,22.2,6.96,20.47,4.61,40.98,8.97,61.38,13.88-10.98-1.81-22.66.04-33.66.05-21.35.02-43.39-1.93-62.49-12.1.73-2.74,2.96-3.03,6.69-.87,9.13,1.13,18.25,2.31,27.37,3.55,14.28,1.95,28.56,3.89,42.85,5.82,5.81.52,11.58,1.34,17.3,2.45-29.78.26-59.92,3.12-89.37-2.49,2.49-1.3,5.23-1.36,8.21-.17,7.54.32,15.08.75,22.61,1.3,20.13,1.34,40.28,3.12,60.47,2.94-14.59-.79-29.35,1.64-43.91,2.55-10.84.88-21.69,1.13-32.57.74-6.41.49-12.59-.26-18.54-2.24,31.76-.19,63.54.26,95.3-.03-15.18.67-30.29,3.32-45.37,5.11-17.38,2.07-34.65,3.35-52.14,3.59,14.2,1.2,28.64-.7,42.83-1.63,12.29-.77,24.57-1.65,36.85-2.63,6.04.35,11.87-.37,17.49-2.17-14.94,1.17-29.44,4.23-44.27,6.43-18.3,2.72-36.47,4.95-55.01,4.79,11.15.95,22.4.26,33.55-.08,20.01-.62,40.35-.06,60.2-2.81-11.47-.54-24.01,2.56-35.04,4.43-18.32,3.1-36.6,6.04-55.08,8.01,3.82.75,7.69.72,11.62-.09,9.68-.41,19.34-1,28.99-1.79,11.61-.74,23.2-1.83,34.75-3.26,7.29,2.1,12.06.69,14.3-4.24-13.87.77-27.27,4.28-40.91,6.83-15.49,2.9-31.01,5.63-46.66,7.5,13.13.36,26.2-1.32,39.25-2.62,10.8-1.09,21.61-2.13,32.42-3.12,8.19,2.85,12.18,1.99,11.95-2.57-14.5,1.67-28.55,5.3-42.84,8.28-7.08,1.44-14.17,2.89-21.25,4.33-5.26,1.94-10.57,2.61-15.93,2.01,11.52-1.73,23.14-2.98,34.7-4.44,13.52-1.7,27.34-2.64,40.69-5.33-9.89.25-19.48,3.27-29.03,5.59-13.68,3.31-27.35,6.53-41.22,8.98,13.69-1.48,27.18-3.07,40.68-5.92,8.83-1.8,17.54-4.02,26.15-6.66,2.42-.09,4.06-1.06,4.91-2.91-2.79.47-5.27,2.19-6.97,4.42,3.48.07,8.53-2.95,11.2-4.44,3.58-1.99,7.06-4.05,9.95-7,3.44-3.52,7.02-7.19,10.05-11.08-6.86,4.29-14.56,8.9-20.21,14.68,4.48-2.55,9.18-5.29,12.9-8.9,2.49-2.42,5.11-4.97,6.33-8.27-1.99-1.06-9.22,3.02-9.72,3.24-6.48,2.83-12.93,5.73-19.44,8.48,4.67-2.08,9.53-3.88,14.06-6.26,2.21-1.16,8.78-3.6,8.32-6.6-9.03.56-17.26,5.02-26.45,4.14,1.84-4.33,8.53-5.03,11.71-8.45-4.09-.62-8.25-.57-12.37-.97-6.11-.6-12.09-1.85-17.97-3.61-3.01-.9-5.89-1.95-8.74-3.29-1.2-.56-2.23-1.17-3.57-1.33-1.6-.18-3.22-.04-4.84-.24-3.35-.4-6.93-.93-10.29-1.04.49.19.99.39,1.48.58-2.08.8-4.49.11-6.66.31.77-.01,1.54-.16,2.31-.14"/>
  <path class="cls-2" d="M463.61,1572.97c-1.44-5.16-3.66-9.92-6.68-14.26-1.47-2.49-3.05-4.9-4.75-7.23.21-.9,1.21-.81,1.91-.72-2.23,7.46,3.26,15.53,9.15,19.79-8.23-2.4-11.66-11.62-17.51-16.9.78,2.03,9.43,12.56,6.43,14.66-4.01-.74-3.14-4.02-3.33-7.41-.25-4.42-1.5-8.9-1.1-13.33.21-2.38,1.64-3.34,2.84-5.25,2.05-3.28,1.32-7.4,3.3-10.61,1.26-2.04,4.04-1.26,5.52-3.06-1.51,1.98-2.92,4.04-4.39,6.05-1.35,1.82-2.66,3.68-3.92,5.56-1.32,1.21-1.83,2.61-1.53,4.19,2.47-.67,3.52-2.82,4.68-4.93,2.04-3.71,2.97-7.95,5.56-11.35.47-.62,4.67-4.62,5.02-2.24"/>
  <path class="cls-2" d="M460.14,1529.47c1.66,1.34,3.47,1.81,5.45,1.42,2.52.02,4.96-.5,7.31-1.56,5.2-1.34,10.42-2.41,15.73-3.24,3.72-.58,7.61-1.1,11.21-2.2,1.67-.51,3.88-.97,5.1-2.29-2.03-.96-5.05-.11-7.21.1-8.49.83-17.01,1.33-25.54,1.17-5.77-.11-11.51-.72-17.28-.72-1.9,0-4.05.06-5.73-.97,2.21-3.29,10.39-1.56,13.03-1.5,9.05.22,18.47.51,27.5-.21,3.18-.25,8.41-.4,11.31-2.36-10.86-.8-21.78-.39-32.65-.93-5.75-.29-11.48-.74-17.22-1.15-.77-.06-4.89-.78-6.13.16,3.09,2.07,7.73,2.08,11.32,2.33,8.88.62,17.79,1.53,26.68,1.97,9.33.46,18.68.12,28.02.17,4.71.02,9.45-.06,14.15.28,1.37.1,3.27.06,4.59.64-2.8,1.22-6.19,1.54-9.15,2.09-3.47.64-7.82.72-11.14,1.98,3.56,1.49,9.19.71,12.77.48,5.12-.33,10.18-1.03,15.19-2.11,2.55.11,4.5-.76,5.84-2.59-2.26-.76-4.38-.9-6.79-.94-8.42-.14-16.81.66-25.25.37-8.86-.3-17.6-1.24-26.08-3.92-4.87-1.54-9.52-3.02-12.87-7.01,2.19-1.33,4.18-1.35,6.78-1.41,7.97-.18,16.02.76,23.97,1.18,11.94.63,23.92,1.35,35.76,3.1-8.51-.65-17.02-1.1-25.54-1.48-12.45-.57-25.26-.37-37.61-2.34-1.1-.17-12.04-1.18-7-3.82,2.72-1.43,6.49-1.34,9.44-1.49,9.2-.45,18.9,1.35,28,2.44,13.89,1.65,27.86,3.46,41.83,4.23l11.5.38c3.14.86,5.25.11,6.33-2.25-2.95-2.05-6.6-2.32-10.17-2.36-6.59-.07-13.21.6-19.78.95-14.18.76-28.79,1.61-42.94.25-3.38-.39-6.76-.77-10.14-1.16-1.79-.65-3.59-.82-5.39-.49.32.96,1.65,1.27,2.55,1.38,1.52.03,3.03-.09,4.53-.37,3.11-.4,6.24-.63,9.38-.68,15.72-.69,31.49-.15,47.22-.21,6.88.08,13.75-.09,20.62-.52,2.74.59,4.99.03,6.73-1.66-2.72-.58-5.45-.19-8.21,0-9.88.65-19.71,1.29-29.63,1.02-12.6-.34-25.25-1.29-37.75-3.02-7.07-.98-13.75-2.65-20.68-4.04,1.91,1.17,4.41,1.27,6.2,2.53-1.08.68-1.77,1.31-1.98,2.61,1.08.81,2.53-.37,3.54-.73,8.01-2.91,17.91-3.08,26.14-3.62,15.58-1.02,31.18-.53,46.78-.29,7.86.19,15.73.22,23.59.09,2.86.57,5.37.05,7.52-1.55-2.7-2.12-6.77-1.53-9.98-1.35-13.07.76-25.81,3.02-38.98,3.24-7.43-.08-14.86-.17-22.29-.25-8.04-.21-15.79-1.74-23.24-4.58-1.63-.73-4.11-1.5-5.22-2.98.45-.63,1.41-.59,2-1-.65-.36-1.39-.49-2.07-.76.21-1.51,4.64-1.06,4.78-1.06,12.1-.29,24.73.41,36.77.9,15.24.61,30.48,1.94,45.75,1.92,6.5,0,13.52.54,19.76-1.44-.85-2.93-12.49-1.13-14.03-1.05-20.6.98-40.89,1.03-61.46-1.03-12.78-1.28-25.68-2.75-38.2-5.67-1.82-.42-5.12-.71-6.88-1.73,3.04-.16,7.03.77,9.83,1.07,9.92,1.06,19.85,1.92,29.8,2.69,23.49,1.84,46.97,1.37,70.5,1.93-16.96.95-33.92,1.73-50.86-.22-11.75-1.07-23.13-3.66-34.16-7.76-3.58-.76-6.36-2.53-8.33-5.32,4.57-.61,9.1.09,13.68.47,9.85.83,19.67,1.73,29.49,2.9,10.82,1.29,21.62,2.67,32.45,3.91,6.16.71,12.33,1.37,18.51,1.99,2.67-1.11,4.1-.92,4.27.58-16.87-.39-33.67-1.05-50.46-2.77-14.11-1.45-29.19-2.45-42.28-8.34,3.12-.5,6.46.03,9.63.04,8.11.03,16.2-.09,24.3.49,10.35.73,20.69,1.94,30.98,3.25,6.4.81,14.01,1.56,20.56,3.02-14.09-.87-28.09-2.05-42.08-3.96-9.29-1.03-18.46-2.7-27.53-5.01-4.28-.56-8.08-2.11-11.4-4.64.59-1.08,2.19-.73,3.22-.75,5.93-.16,11.89.43,17.78,1.02,21.5,2.14,42.77,6.25,64.3,8-.15-.71-5.25-.84-5.88-.89-11.37-.97-22.77-1.31-34.13-2.45-10.92-1.1-21.89-2.44-32.44-5.53-2.95-.38-5.63-1.38-8.05-3.01-1.91-.26-2.72-1.21-2.44-2.86,11.12-2.38,23.48-.57,34.61.4,16.3,1.42,32.83,2.82,48.98,5.52-13.09-.68-26.04-1.62-38.96-3.95-7.63-1.14-15.12-2.91-22.47-5.31-4.03-.46-7.3-2.11-9.81-4.95,2.64-.78,5.32-.72,8.04.18,6.6.98,13.17,2.08,19.72,3.31,9.64,1.77,19.28,3.56,28.91,5.36,4.35.22,8.45,1.21,12.32,3-12.62-.74-25.53-2.59-37.83-5.42-11.07-2.54-23.11-4.81-32.72-11.08,2-.78,4.02-.58,6.05.59,4.6,1.33,9.22,2.55,13.87,3.67,15.59,3.69,31.36,6.66,46.97,10.31-1.93,1.97-4.62,1.53-8.09-1.34-7.18-1.18-14.32-2.58-21.41-4.21-8.05-1.61-16.01-3.62-23.87-6.03-5.28-.69-9.73-2.8-13.35-6.34,3.81-.88,7.63-.76,11.48.36,5.82.85,11.62,1.81,17.4,2.87,12.54,2.22,25.06,4.58,37.69,6.21-3.43-.88-6.93-1.38-10.5-1.5-7.61-.79-15.15-2.03-22.61-3.72-7.45-1.3-14.76-3.17-21.92-5.6-3.78.26-6.31-.94-7.57-3.6,22.62,1.87,44.78,7.89,67.26,10.74-12.08-2.62-24.35-4.31-36.52-6.48-6.46-1.06-12.86-2.36-19.22-3.9-3.63-.19-6.56-1.56-8.78-4.09,1.44-1.1,3.1-1.39,4.99-.87,4.93.16,9.85.48,14.77.94,12.84,1.25,25.78,5.22,38.69,4.8.04-2.2-1.62-2.85-4.99-1.93-7.16-.82-14.33-1.57-21.51-2.25-7.75-.71-15.42-1.9-23.01-3.58-3.26.05-5.82-1.07-7.67-3.36,3.56-1.07,7.21-1.18,10.93-.33,7.84.86,15.64,1.93,23.42,3.2,6.2,1.06,12.44,1.84,18.71,2.35,1.8.79,3.22.61,4.25-.53-10.76-1.37-21.64-1.36-32.42-2.7-6.22-.59-12.36-1.66-18.41-3.21-3.24.17-5.5-.96-6.76-3.39,8.33-1.62,17.27.36,25.6,1.45,5.21.64,10.41,1.39,15.59,2.22,2.08,1.07,4.12,1.32,6.11.74-7.16-1.51-14.44-2.68-21.53-4.47-4.43-1.12-13.31-2.07-15.55-6.32,7.25-.21,14.35,1.71,21.63,1.59-2.77-1.44-7.67-1.54-10.41-2.05-4.68-.87-9.31-1.77-13.67-3.73.72-1.89,5.71-1.49,6.93-1.51,2.24-.03,4.51.1,6.74-.09-2.8-.31-5.59-.68-8.35-1.23-1.38-.27-5.66-.63-6.02-2.43,3.93-.58,7.93-.07,11.81-.97-.99-1.92-8.75-1.77-7.99-4.85.44-1.79,3.79-.75,3.86-3.33.03-1.1-1.44-2.3-1.25-3.21.27-1.33,2.79-.55,3-1.81-.26-.05-.56-.33-.81-.38-.02-.21.03-.41.15-.58"/>
  <path class="cls-2" d="M542.17,1518.04c6.14-.95,13.82-1.1,19.3-4.68,2.39-1.56,3.56-3.91,6.28-4.9,2.69-.98,10.37-.83,11.08-4.9-1.22-.49-2.77.61-3.76,1.14-2.71,1.44-5.35,2.66-8.31,3.54-7.06,2.11-14.39,2.97-21.54,4.66,2.73-.5,5.38-1.39,8.08-2.01,6.67-1.51,13.76-1.77,20.07-4.57,3.81-1.69,7.27-4.16,11.02-6,2.81-1.38,5.23-1.94,8.3-2.21-1.02-.4-1.17-.9-2.4-.83-1.59.1-3.36.93-4.87,1.37-2.09.61-4.06,1.08-5.78,2.43,3.45,3.9,17.79-1.3,15.74-7.22-1.01-2.9-9.71-3.77-9.2-1.41,2.43.52,9.08.28,9.15-3.25.05-3.02-7.12-6.62-9.04-3.81,1.67,1.85,4.34,3.32,6.92,3.39,2.33.06,5.86-1.48,5.65-4.42-.21-2.91-2.75-6.36-5.46-7.33l-3.11-.68c-2.03-.32-3.11.44-3.25,2.27,2.8,3.02,7.48,6.66,11.98,6.35,2.89-.2,6.36-1.03,4.85-4.61-1.31-3.1-5.14-6.17-7.97-7.68l-4.55-2.05c-2.49-.85-4.71-.48-6.65,1.11-.08,1.72.69,2.87,2.33,3.45,2.24,1.8,4.74,3.13,7.52,4,.94.33,12.33,3.56,11.6-1.94l-1.95-3.32c-2.7-2.56-5.81-4.47-9.32-5.72-4.71-1.6-9.35-2.25-14.29-1.64,1.41,3.37,5.73,4.29,8.88,5.66,2.13,1.13,4.38,1.93,6.75,2.4,2.32,1.07,4.71,1.21,7.16.41.5-1.98-.17-3.44-1.99-4.38-2.14-2.34-4.68-4.19-7.61-5.54-4.58-2.36-9.25-4.2-14.41-4.66,1.67,2.98,5.49,3.92,8.48,5.2,2.16,1.07,4.4,1.88,6.74,2.45,2.58,1.11,5.28,1.48,8.09,1.11,1.07-1.74.62-3.03-1.35-3.88-2.25-2.33-4.84-4.25-7.76-5.74-5.08-3.14-10.34-5.99-15.65-8.74,2.73,2.25,5.92,3.9,8.98,5.63,2.23,1.43,4.59,2.6,7.07,3.52,2.66,1.54,5.54,2.27,8.64,2.17,1.68-2.89.85-5.42-2.49-7.6-2.35-2.82-5.04-5.23-8.08-7.23-2.46-2.02-5.18-3.59-8.18-4.71-1.83-1.66-3.61-1.99-5.36-1,2.71,2.66,5.72,4.95,9.03,6.86,3.26,2.56,6.92,4.1,10.97,4.63,1.37-1.61,1.19-3.08-.56-4.39-1.66-2.85-3.86-5.26-6.6-7.22-3.99-3.58-8.11-7.05-12.52-10.09.1,2.1,6.99,6.97,7.61,7.44,1.46,1.05,2.92,2.1,4.39,3.15,1.63,1.83,2.98,1.97,4.07.41-2.46-5.24-6.87-8.95-11.31-12.54-.75-.85-1.65-1.45-2.69-1.79-.69.45-1.33.95-1.94,1.5-2.04,1.21-9.85,1.61-10.13-1.95.87-1.02,4.15-.82,4.96-.81,3.64.06,7.18.59,10.67,1.65,3.49,1.06,7.06,2.46,9.78,5,2.51,2.35,2.63,5.55,2.79,8.72.32,6.36,1.88,11.5,4.27,17.35,1.46,3.59,2.63,7.32,4.18,10.87.67,1.53,1.44,4.39,3.12,5.04,2.9-1.71.02-6.53-.87-8.32-2.89-5.85-6.46-12.11-11.52-16.31-1.51.36-2.08,3.45-3.17,4.4-2.2,1.42-4.58,1.89-7.14,1.42-4.64.17-9.21-.47-13.7-1.93-3.43-.92-6.86-1.85-10.29-2.77-4.48-1.72-9.1-2.56-13.87-2.5-3.06.7-5.78,1.87-6.93,4.94,1.13,1.66,2.79,2.36,4.99,2.12,5.68.06,11.35-.07,17.02-.39,10.59-.04,21.56.73,31.47,4.76-.81,1.2-2.08,1.43-3.82.69-5.02-.18-10.01-.61-14.99-1.3-14.37-1.76-28.91-5.83-43.44-5.39.43,2.19,2.59,2.92,4.49,3.93,8.27,4.39,17.92,6.24,26.91,8.44,7.53,1.84,15.04,3.74,22.62,5.34,1.68.35,4.92.55,6.7,1.2-14.33-1.32-28.06-6.89-42.52-6.68,1.92,2.32,4.37,3.81,7.35,4.46,4.97,2.28,10.14,3.98,15.52,5.1,6.69,1.46,13.48,2.34,20.27,3.18-3.93.07-8.75-1.15-12.35-1.86-8.86-1.76-17.74-3.48-26.31-6.33,5.16-1.62,10.65-.55,16-.34,3.08.43,6.13.29,9.14-.44,3.57.3,6.22-1.2,7.95-4.49-.37-3.97-2.01-7.25-4.93-9.86-3.32-4.39-7.12-8.32-11.42-11.81-6.98-6.1-14.62-11.33-20.97-18.1,1.25-1.03,2.57-1,3.96.08,3.07.95,6.09,2.06,9.05,3.32,5.36,1.96,10.59,3.95,16.34,4.27-1.26-2.65-10.15-5.63-11.59-6.2-6.86-2.73-13.83-4.98-21.11-6.32.33,1.46,1.35,2.4,3.04,2.82"/>
  <path class="cls-2" d="M935.88,334.02c-1.73-.27-3.42-.66-5.08-1.17-.74.12-1.06-.06-.97-.54,1.06-.22,2.11-.47,3.1-.94.52-.25,2.18-.98,2.12-1.74-.03-.44-.55-.59-.93-.7-1.06-.32-3.04-.2-3.85-1.1.64-.81,1.9-.96,2.71-1.58.36-.27,1.04-.93,1-1.46-.07-.86-3.51-.24-4.31-.69.3-.57,1.74-.69,2.26-1.04.64-.43,1.16-.96,1.55-1.62s.64-1.11,1.34-1.46c.62-.31,1.32-.46,1.98-.64,1.25-.33,2.81-1.75,4.15-1.04-.04.17.04.15.05.27.65-.16.56-1.17-.17-1.19.28.51,1.18.99,1.62,1.3,1.6,1.1,3.51,1.7,5.3,2.41,2.46.98,4.92,1.92,7.39,2.87,2.66,1.02,4.98,2.81,7.17,4.61,1.9,1.56,3.76,2.97,4.89,5.22.32.65.66,1.36.81,2.07s-.01,1.47.08,2.21c.12.93.52,1.8.67,2.72.16.98.1,1.99.24,2.98.22,1.57.7,3.24.22,4.81-.67,2.21-1.76,4.25-2.5,6.42-.35,1.02-.69,2-1.24,2.92-.63,1.05-1.53,1.63-2.46,2.39-1.01.82-1.86,1.75-3.07,2.3-1.62.73-3.25,1.15-4.82,2.02-1.34.74-2.76,1.12-4.21,1.59s-2.54.96-3.78,1.77c-.78.51-1.48.9-2.42,1.07-.86.16-1.77.13-2.62.34-.57.14-2.47,1.33-3.03.96-.31-.21-.1-.7-.08-1.05.05-.75.12-1.4.3-2.14.51-2.09,1.38-4.15,1.76-6.26.31-1.66.14-3.45.18-5.14s.47-3.19.75-4.8c.34-1.95.11-3.98.09-5.94s-.02-4.09-.28-6.1c-.13-.95-.37-1.87-.57-2.8-.2-.96-.16-1.86-.09-2.83.11-1.56.11-2.96-.03-4.5-.09-.91-.21-1.79-.32-2.69-.13-1.14.03-2.07-.43-3.17-.68-1.62.26-3.49.89-5.04-.62.81-.97,1.87-1.25,2.83-.37,1.29-.89,4.21.57,5.17.44.29,1,.28,1.5.27.99-.01,1.86-.02,2.85.14,2.2.35,4.32.93,6.45,1.6,1.57.5,3.06,1.05,4.48,1.88,1.2.7,2.62,1.31,3.69,2.21,1.01.85,1.96,1.79,2.86,2.75,1.32,1.4,2.47,2.58,3.07,4.47,1.25,3.95.89,7.91-.95,11.63-1.14,2.31-2.82,4.44-4.46,6.42-2.23,2.7-4.76,4.66-8.3,5.25-2.2.37-4.46.63-6.68.81-.69.06-3.18.54-3.62-.33-.19-.38.32-1.33.43-1.64.19-.52.39-1.06.65-1.54.7-1.3,1.89-1.91,3.23-2.38,2.3-.82,4.65-1.47,7.06-1.92s4.86-.9,6.99-2.2c1.19-.73,3.35-2.31,2.79-4.03-.33-1.03-1.56-1.07-2.44-.97-1.97.22-3.75,1.13-5.29,2.35-2.76,2.18-4.56,5.21-6.85,7.81-.92,1.04-2.6,2.03-3.6.35-.69-1.15-.23-2.86.46-3.88.64-.94,1.58-1.5,2.57-2.03,1.6-.87,3.34-1.58,4.98-2.37,1.24-.59,12.46-5.84,9.22-7.93-2.01-1.29-4.12-.3-5.72,1.16-1.39,1.27-2.57,2.76-3.96,4.03s-2.65,2.43-4.54,2.53c-1.17.07-4.08-.25-3-2.08.55-.93,1.84-1.38,2.77-1.82,1.34-.63,2.7-1.23,4.05-1.84,1.04-.47,2.09-.94,3.12-1.43,1.15-.54,2.42-1.06,3.23-2.1.88-1.13,1.06-2.49-.27-3.32-2.54-1.58-5.18,1.72-6.95,3.08-1.12.86-2.45,2.02-3.93,2.18-.64.07-1.69.12-1.66-.78.05-1.55,2.12-2.77,3.23-3.54s2.22-1.35,3.51-1.76c1.1-.35,2.27-.59,3.2-1.33,1.52-1.22-.08-2.44-1.5-2.76-3.11-.7-4.61,1.93-7.09,3.13-1.28.62-.87-1.19-.63-1.9.49-1.41,2.09-1.78,2.77-2.99-.4-.79-2.13-.38-2.83-.3-.63.06-1.26.14-1.89.25-.3.18-.56.18-.77,0,1.64-.77,3.6-1.51,5.43-1.42,2.91.14,4.7,2.25,6.86,3.9,2.45,1.87,6.26,3.69,5.79,7.3-.21,1.59-.36,3.22-.63,4.79-.57,3.21-2.29,5.47-4.27,7.94-1.41,1.76-2.58,3.73-4.13,5.38-.32.34-2.07,2.03-1.61,2.49,1.1-.56,1.91-1.72,2.7-2.64,1.85-2.16,3.65-4.37,5.08-6.84,1.34-2.32,2.26-4.91,2.64-7.57.29-1.99.47-4.08-.16-6.03-1.04-3.23-3.99-5.84-6.74-7.67-1.11-.74-2.24-1.45-3.49-1.94s-2.66-.64-4.03-.87c-1.53-.25-3.42-.93-3.68-2.7-.23-1.56.57-2.15,2.07-2.35.59-.08,1.76-.24,2.29.21.3.26.48.69.16,1-.54.53-2.29.34-3.02.44-2.16.32-5.02,1.22-6.03,3.31.56.62,1.39.48,1.99,1,.3.26.63.9.35,1.26-.02-.04-.04-.08-4.48,3.97Z"/>
  <path class="cls-2" d="M924.08,310.06c2.11-1.11,4.15-2.19,6.01-3.71.93-.76,1.77-1.62,2.74-2.32,1.68-1.2,3.55-1.97,5.42-2.81,1.89-.86,3.67-1.55,5.71-2,1.7-.38,3.35-.97,4.97-1.59s2.95-1.57,4.44-2.33c1.62-.83,3.33-1.38,5.04-1.97,1.66-.58,3.19-1.45,4.81-2.1,1.58-.64,3.01-1.5,3.88-3.03.78-1.37.87-4.45-1.47-4.04-1.11.19-2.12.83-3.09,1.36-1.66.91-3.27,1.95-5.04,2.64-2.82,1.11-5.91,1.6-8.81,2.47-2.32.69-4.68,1.31-7.09,1.56-1.92.19-3.85-.2-5.75.12-1.58.26-3.05.98-4.5,1.63-.63.28-1.6.95-2.32.77,1.59-1,3.47-1.58,5.21-2.27,2.92-1.16,5.81-2.46,8.81-3.39,2.41-.74,4.87-1.3,7.27-2.05,3.39-1.05,6.89-2.23,10-3.96,1.08-.6,2-1.33,2.79-2.27.25-.29.96-.98.7-1.36-1.47-.06-2.82.37-4.21.81-4.3,1.37-8.3,3.42-12.72,4.45-2.32.54-4.63.78-7.02.73-1.15-.03-2.37-.1-3.43-.61.25-.34.84-.62,1.17-.81.88-.53,1.73-1.08,2.6-1.63,2.77-1.75,6-2.04,9.2-2.39,2.12-.23,4.25-.35,6.37-.61,2.36-.29,4.75-.86,7.07-1.39,2.1-.49,4.19-.98,6.12-1.98.73-.38,1.63-.74,2.21-1.33-.88-.08-2.73.7-3.34.87-3.04.84-6.17,1.68-9.32,1.95-3.17.27-6.71.62-9.84.02-.72-.14-2.1-.24-2.49-.97.18-.59,1.77-1.03,2.05-1.13,2.74-1.05,5.66-1.72,8.55-2.16,4.1-.62,9.38-.26,12.55-3.4-.24-.81-1.68-.36-2.27-.3-2.71.3-5.34,1.06-8.03,1.49-2.84.46-5.79.91-8.68.68-1.01-.08-3.06-.29-3.78-1.3,1.16-.86,2.69-1.25,4.07-1.63,2.36-.66,4.73-1.11,7.18-1.36,2.83-.28,5.67-.23,8.49-.48.42-.04,3.09-.09,2.99-.65-3.89-.51-7.95.4-11.86.4-1.86.1-3.71-.06-5.53-.49l-1.78-.75c-.48-.34-1.28-1.01-1-1.66.26-.59,1.13-.69,1.7-.81,1.97-.42,3.98-.76,5.99-.96,2.26-.23,4.54-.19,6.8-.27,1.23-.04,2.94.08,4.03-.71.1-.69-2.06-1.09-2.15-1.11-2.33-.49-4.72-.4-7.08-.33-2.82.08-5.81.31-8.6-.15-.87-.14-2.29-.21-2.94-.87.62-.4,1.51-.35,2.22-.44,2.12-.26,4.25-.52,6.39-.6s4.38-.04,6.58.05c1.67.07,3.37.26,5.05.1-.58-.17-1.19-.17-1.79-.22-2.29-.22-4.58-.41-6.87-.69-.91-.11-8.54-.85-7.38-3.01.23-.43.83-.61,1.27-.7,1.1-.24,2.3-.25,3.42-.28,2.01-.06,4.02.06,6.03-.03.4-.02,1.72.09,1.89-.5-.9-.79-2.26-.92-3.4-1.1-1.76-.26-3.96-.51-5.74-.17-2.85.56-4.71,2.08-5.48,4.94-.38,1.4-.62,2.84-.81,4.28-.2,1.53-.13,3.06-.32,4.58-.14,1.17-.46,2.18-1.02,3.22-.27.5-.62.98-.77,1.54,1.11-1.58,1.18-3.73,1.28-5.58s.22-3.68.49-5.54c.22-1.53.4-3.01.28-4.56s-.55-2.9-.71-4.37c-.12-1.14-.11-2.3-.1-3.44,0-1.53.19-2.74.83-4.13.27-.58.3-.67.87-1.07.8-.56,1-.13,1.56.63,1.97,2.61,4.55,4.66,7.09,6.67,1.79,1.42,3.59,2.84,5.44,4.18.69.54,1.43,1.02,2.21,1.43.29.26.62.4.97.42-2.41-1.89-5.24-3.22-7.93-4.62-1.75-.91-3.49-1.81-5.23-2.74-.82-.44-1.63-.9-2.51-1.21-.5,1.09,2.45,2.91,3.02,3.23,1.58.88,3.33,1.35,5.02,1.96,2.16.78,4.35,1.75,6.26,3.02,3.57,2.39,7.33,5.84,8.89,9.97.56,1.49.81,3.04.9,4.63.13,2.31.16,4.85-.31,7.12-.34,1.65-.87,3.2-1.79,4.62-.86,1.34-1.97,2.37-3.14,3.43-.88.8-1.79,1.63-2.43,2.64-.19.31-.69,1.02-.59,1.38,1.16-.96,1.78-2.58,2.35-3.91,1.07-2.5,1.97-5.11,2.54-7.76.44-2.02.28-3.99.46-6.02.05-.64.15-1.27.3-1.89.13-.17.18-.34.13-.53-.68.66-1.22,1.75-1.62,2.54-.81,1.61-1.45,3.12-1.46,4.95.66.26.91.1,1.41-.47.53-.6.95-1.63.95-2.44,0-2.29-2.16-3.09-4.04-3.5-3.32-.71-6.89-.87-10.28-1-3.15-.13-6.33.21-9.4.93-1.7.39-3.35.96-5.01,1.49-1.05.34-1.82.84-2.77,1.34-.88.47-1.75.22-2.7.07-.46-.07-1.31-.28-1.52.31.33.07.81-.36,1.08-.52,1.02-.61,2.07-1.22,3.15-1.72,3.21-1.49,6.7-2,10-3.23,2.39-.9,4.8-2,6.8-3.62.71-.58,1.39-1.21,1.88-1.99.24-.37.78-1.15.77-1.6,0-1.12-2.34-1.14-3.15-1.29-2.42-.47-4.69-1.17-7.18-.93-1.52.15-3.05.72-4.51,1.17-1.29.39-2.59.73-3.88,1.1-1.41.4-2.94.97-4.42,1.02.41-.63,2.26-.96,2.9-1.16,3.59-1.13,7.44-.7,11.06-1.63,2.14-.55,4.36-1.37,5.93-2.97,1.03-1.05.73-1.48-.09-2.56-2.27-2.98-6.44-5.06-10.2-4.96-1.99.06-4.09.38-5.94-.57-.39-.2-.64-.5-1.01-.48.33-.2.51-.52.79-.7.34-.06.68-.07,1.03-.02.7.06,1.4.18,2.08.35,2.3.49,4.51,1.25,6.75,1.94,1.27.39,2.51.75,3.84.83.96.06,1.81.05,2.74.34,1.97.63,3.56,1.7,5.29,2.84"/>
  <path class="cls-2" d="M914.53,467.69c4.4-2.78,8.74-6.33,13.83-7.71,2.93-.79,5.93-1.35,8.92-1.87,4.07-.71,8.6-.4,12.37-2.39,1.76-.93,3.57-2,5.22-3.1,1.52-1.01,2.59-2.38,3.83-3.68,1.46-1.54,3.29-2.81,3.05-5.2-.87-.46-4.37,1.53-4.95,1.76-3.3,1.31-6.74,2.55-10.22,3.3-6.76,1.47-13.78,1.2-20.59,2.54-2.96.59-.59.83-3.54.55,8.6-2.81,12.48-4.06,21.32-5.9,4.27-.89,7.96-2.54,11.91-4.36,2.56-1.18,4.95-2.32,7.28-3.9-.24.92-.85,1.69-1.46,2.4-2.85,3.27-6.94,5.54-10.7,7.55-3.53,1.82-7.12,3.48-10.8,4.98-2.2.96-4.41,1.88-6.64,2.78-1.97.65-4.03.98-6.1,1,.51-.96,2.61-1.59,3.58-2.03,5.54-2.52,11.46-4.26,17.14-6.42,4.04-1.54,7.67-3.11,10.6-6.39,1.24-1.39,3.34-3.21,3.16-5.19-5.2.14-10.22,2.67-15.14,4.2-3.14,1.08-6.35,1.9-9.63,2.45-1.24.5-2.45.59-3.63.26,5.75-1.34,11.37-3.05,17.01-4.83,1.05-.33,15.84-4.53,13.83-6.87-4.02-.33-8.32,1.57-12.17,2.61-3.67,1.01-7.35,1.94-11.05,2.8-2.41.89-4.86,1.23-7.35,1,4.65-2.21,9.93-3.33,14.84-4.78,4.02-.99,7.91-2.35,11.67-4.07,1.57-.46,2.33-1.38,2.28-2.76-2.04-.62-4.29.53-6.23,1.14-3.16.99-6.23,1.9-9.56,2.1.77-2.85,21.25-6.5,19.21-10.03-2.24-.26-4.68.74-6.72,1.52-.8.3-5.03,1.62-4.85,2.47,4.04-.08,11.39-1.1,12.17,4.67.44,3.19-2.45,7.62-3.69,10.21-.35.73-4.2,6.77-1.72,7.64.83-.47,1.34-1.21,1.51-2.23.97-1.96,1.77-3.98,2.42-6.06.04-1.13.08-2.25.12-3.38-.7-2.42-2.21-4.12-4.55-5.12-3.53-1.67-9.08-1.18-12.73-.38-2.32.38-4.42,1.27-6.31,2.66-1.14.97-2.38,1.77-3.72,2.42-2.56,1.37-5.45,2-8.33,2.24-1.61.13-3.29.03-4.88.34-.56.11-.91.52-1.26.63-.71.22-1.56.15-2.26-.16.52-1.02,2.54-1.48,3.56-1.92,1.15-.5,3.61-1.07,4.51-2.12.54-.63.33-1.23.26-1.98-.13-1.33-.06-2.6.2-3.9.32-1.63.77-3.23,1.81-4.54,1.84-2.33,4.82-2.6,7.6-2.69s5.34.02,7.96.59c1.77.38,4.41.53,5.49,2.07-2.56,2.5-6.55,3.8-9.7,5.2-5.03,2.24-10.09,4.41-15.03,6.85,3.7-.19,7.49-2.26,10.74-3.9,2.93-1.36,5.67-3.05,8.22-5.06,2.75-1.25,4.61-3.21,5.58-5.86-4.17-.41-7.96,1.63-12.09,2.24-5.12.76-10.26.74-12.61,4.41,3.18-.73,6.11-1.3,9.05-2.69,4.43-2.08,8.62-4.6,12.34-7.79-.83-1.17-7.24,1.97-6.96,1.85-3.86,1.63-7.61,3.49-11.46,5.15.84-1.6,3.94-3.43,5.07-4.42,2.33-2.04,4.61-4.1,6.13-6.83.64-1.15,1.51-2.88-.28-3.42-.98-.3-2.82.23-3.47,1.05-.2.26-.97,1.94-.65,2.28.46.49,1.37-.7,1.51-1.1-1.21.37-3.38,5.07-3.46,5.23l-2.04,4.35c-1.44,2.12-1.74,4.31-.91,6.58,1.71.84,3.48.95,5.32.33,1.93-.37,3.63-1.21,5.1-2.52,1.99-1.94,4.68-5.34,4.56-8.23-.11-2.73-2.58-3.77-4.96-4.04-3.02-.33-6.31.4-8.02,2.98.13.94.64,1.3,1.53,1.1,1.34.24,2.64-.01,3.88-.75l2.61-1.55c1.3-.84,1.84-1.98,1.62-3.41-1.02-.95-2.23-1.24-3.64-.9-1.95.18-3.76.77-5.43,1.79-1.63,1.32-2.71,3.01-2.92,5.14-.12,1.17.01,1.3-1.33,1.46-1.89.23-4.05-.08-5.89-.53.39-.95,1.92-1.09,2.8-1.43,1.22-.47,2.39-1.02,3.64-1.41,3.92-1.23,8.87-1.89,11.59-5.34,1.22-1.55,2.01-3.65.46-5.36-1.13-1.25-2.74-.83-4.3-.6-.57.08-4.45.93-4.53.69,1.89-.4,3.67-.99,5.44-1.76,1.18-.52,3.01-1.08,3.84-2.15-1.68.2-3.18.93-4.71,1.61-2.4,1.07-4.75,1.96-7.22,2.83-.87.3,2.89-1.8,2-1.55,1.96-1.03-.48.85,1.54-.06,2.12-.96,5.26-2.16,6.68-4.2-.25-.57-.78-.68-1.59-.33-1.45.05-2.89-.02-4.33-.2-2.05-.2-5.38-.24-6.19-2.41,2.55-1.98,5.47-1.86,8.5-2.58.61-.14,1.39-.38,1.46-1.14-1.42-.86-3.82-.3-5.4-.42-.72-.06-1.66-.28-2.4-.14.96-.8,2.28-1.2,3.46-1.47,1.32-.31,2.97-.87,4.3-.9-1.07.8.96,1.56,1.49,1.8,1.61.74,3.07,1.53,4.38,2.74,2.81,2.58,5.39,5.31,8,8.07,1.48,1.57,3.32,2.81,4.73,4.46,1.69,1.99,2,4.59,3.04,6.94.8,1.83,2.1,3.52,2.69,5.42.44,1.41.71,3.69.16,5.13-.39-.88-.53-1.88-.85-2.79-1.21-3.5-3.89-6.43-6.57-8.86-3.48-3.15-7.34-5.91-11.08-8.75.12.09-4.22-3.74-5.47-3.91,2.51,2.35,5.02,4.62,7.33,7.17,3.12,3.44,5.79,7.64,9.33,10.66-1.53-2.94-3.23-5.86-5.26-8.49-.98-1.2-1.96-2.39-2.94-3.59-1.31-.67-2.03-1.62-2.16-2.84,1.77,1.29,3.61,2.68,5,4.39l2.27,3.17c1.31,2,1.97,4.18,1.97,6.53-1.49.4-2.37-.46-2.62-2.58-1.11-2.3-2.22-4.61-3.32-6.92-1.97-4.13-4.4-7.64-7.18-11.24,2.09.65,4.33,1.42,6.18,2.6,2.52,1.6,4.66,3.69,6.94,5.59-.2-.79-2.67-2.11-2.93-2.28-1.85-1.25-3.65-2.48-5.2-4.1,1.67-.22,4.86,1.57,5.99,2.25,2.27,1.38,4.57,2.97,6.02,5.23l-.43.24"/>
  <path class="cls-2" d="M953.63,218.7c2.05-.77,3.95-1.82,5.7-3.15,1.12-.83,2.25-1.64,3.41-2.4,1.75-1.18,3.56-2.23,5.4-3.26,1.61-.9,3.39-1.79,4.74-3.08.71-.68,1.06-1.47,1.44-2.38.35-.83.74-1.65.97-2.53.29-1.12.24-2.24.18-3.38-.11-2.45,0-4.5.48-6.88-1.41,2.16-2.9,4.31-4.43,6.39-2.17,2.95-4.37,6.24-7.26,8.53-1.47,1.16-3.23,1.96-5.02,2.5-.34.1-3.29,1.14-3.68.56.25-.53.42-.81.9-1.27,2.91-2.85,6.67-4.82,9.75-7.48,1.4-1.09,2.6-2.37,3.6-3.83.59-.96,1.16-1.93,1.71-2.91,1.1-1.73,2.78-3.02,3.79-4.78-4.87,1.85-8.86,5.78-12.83,8.98-1.77,1.42-3.44,2.76-5.67,3.33-1.31.34-2.97.87-4.32.44.01-.65,1.43-1.53,1.93-1.96,1.93-1.67,4.46-2.79,6.61-4.11,3.1-1.9,6.45-3.9,8.95-6.57.72-.77,1.48-1.44,2.29-2.11.5-.42,1.63-1.04,1.27-1.81-3.29-.67-7.04,1.83-9.65,3.42s-5.19,3.22-8.1,4.05c-.6.17-2.72.67-3.4-.14-.81-.96.65-2.39,1.27-2.93.68-.6,2.2-1.91,1.95-2.97-1.27-.24-2.57.72-3.79.49-.24-.88,1.27-1.56,1.83-1.83,2.27-1.09,4.82-1.65,7.29-2.08,3.46-.59,7.9-1.3,10.26-4.25.46-.57.78-1.14.27-1.82-.41-.55-1.75-1.15-2.35-1.35-1.74-.58-3.53.55-5.1,1.19-2.24.99-4.54,1.84-6.89,2.53-.71.26-1.43.32-2.15.19-.64-.14-1.21-.16-1.02-.94.09-.4.33-.93.59-1.25.69-.87,2.06-1.2,3.03-1.46,2.56-.7,5.27-.98,7.76-1.95.71-.28,4.13-1.98,2.06-3.12-1.02-.56-2.89.23-3.96.42-1.69.3-3.4.42-5.11.36-1.16.47-1.8.31-1.93-.47,1.3-.62,2.61-1.25,3.91-1.87s2.54-1.08,3.44-2.15c-1.71-.89-4.02.01-5.79.44-.6.15-3.54,1.22-3.79.83,1.57-1.44,4.09-2.25,4.97-4.32.35-.83.39-1.25-.33-1.83-.43-.27-.89-.47-1.39-.58-.81-.17-1.44-.58-1.89-1.23.29-.85.98-1.47,1.27-2.28"/>
  <path class="cls-2" d="M955.07,150.68c2.54-1.08,4.84-2.52,6.91-4.32,1.39-.9,2.54-2.05,3.44-3.45.3-.56.82-1.36.74-2.02-.82.08-1.59.44-2.39.63-1.23.29-2.29.37-3.52.07.13-.7.56-.92,1.16-1.32,1.03-.69,2.14-1.21,3.09-2.02s1.43-1.85,1.9-3.04c-4.45,1.55-9.05,3.38-13.08,5.8-.95.57-2.3,2-3.5,2.04.31-2.06,3.04-3.34,4.56-4.23,2.15-1.25,4.39-2.35,6.55-3.59,1.62-.92,3.15-1.97,4.76-2.92,1.1-.64,2.16-1.35,3.06-2.26.37-.38,1.11-1.06.94-1.67-.33-1.1-2.41-.67-3.21-.59-2.02.32-3.97.9-5.83,1.75-1.09.72-2.27,1.16-3.53,1.32,1.42-2.39,3.98-3.44,6.41-4.69.88-.45,4.69-1.93,3.66-3.66-1.75.17-3.45.98-5.1,1.56-1.1.43-2.23.8-3.38,1.09-.67.53-1.29.58-1.87.16,1.6-1.19,3.24-2.31,4.85-3.51.57-.42,4.46-2.64,4.23-3.57-1.68.46-3.21,1.12-4.96,1.45-1.03.2-5.2,1.29-5.63.1,1.28-1.15,2.81-1.85,4.26-2.74.74-.45,2.11-1.09,2.18-2.08-.7-.4-1.65.21-2.39.13-.62-.06-.87-.5-1.48-.57-.62-.04-1.16.2-1.62.72-1.37,1.04-2.72,2.12-4.03,3.23-1.35,1.12-2.75,2.18-4.19,3.19-.4.38-.85.64-1.37.76-.15-.63.44-1.16.86-1.53,1.37-1.2,2.97-2.25,4.47-3.27,1.64-1.12,3.31-2.21,4.86-3.46.55-.45,1.52-1,1.67-1.75-.9-1.03-2.8-.41-3.95-.76.99-.79,2.74-.7,3.51-1.79-.72-.52-1.66-.1-2.46-.31"/>
  <path class="cls-2" d="M540.79,1376.66l36.1-20.28s26.85-26.78,29.25-30.24.15-2.89,3.02-10.32c1.14-2.94-.87-6.59.69-10.39,1.56-3.79,4.82-10.69,4.18-15.12-.64-4.43-23.04-27.33-23.04-27.33"/>
</svg>