<svg xmlns="http://www.w3.org/2000/svg" viewBox="0 0 612 792"><defs><clipPath id="clippath"><path class="cls-1" d="M1-45.8h608.64V793H1z"/></clipPath><clipPath id="clippath-1"><path class="cls-1" d="M1-45.8h608.64V793H1z"/></clipPath><style>.cls-1,.cls-2{fill:none}.cls-2{stroke:#000;stroke-linecap:round;stroke-miterlimit:10}</style></defs><g id="Layer_2"><path class="cls-2" d="M1.31 245.89c2.54-2.35 6.49.83 7.87 4.01s2.81 7.26 6.25 7.6c1.49.15 2.92-.52 4.26-1.18 10-4.92 19.73-10.41 29.11-16.43 1.83-1.17 3.76-2.52 4.45-4.58 1.62-4.9-4.66-8.99-5.17-14.12-.42-4.23 3.14-7.71 6.55-10.25 9.52-7.12 20.32-12.53 31.72-15.9.92-.27 1.89-.53 2.82-.31 3.03.71 2.85 4.97 3.69 7.97.93 3.36 4.18 5.94 7.66 6.09 16.1-13.58 33.08-26.83 52.96-33.78 19.88-6.95 43.38-6.68 60.54 5.52 5.51 3.91 10.17 8.88 14.79 13.81 8.35 8.92 16.7 17.84 25.05 26.75"/><path class="cls-2" d="M261.51 220.88c-1.57-.03-3.14-.21-4.67-.56-.63-.14-1.26-.31-1.9-.32-1.08 0-2.11.44-3.17.67-1.95.41-3.96.06-5.95.15s-4.18.82-5.04 2.61c-1.32 2.74 1.17 5.73 1.63 8.74.45 2.92-1.06 6.07.13 8.78.88 1.99 3.05 3.15 5.2 3.42s4.33-.2 6.45-.67c1.46-.32 2.92-.65 4.38-.97.97-.22 1.98-.45 2.73-1.09.61-.51.99-1.24 1.28-1.98 1.45-3.66.92-7.77.36-11.67-.32-2.26-.64-4.52-1.43-7.1ZM286.35 212.37c-1.17-.45-2.53.31-3.17 1.39s-.74 2.38-.83 3.63c-.34 4.88-.68 9.77-1.01 14.65-.05.73-.1 1.47.14 2.16s.84 1.3 1.56 1.32c.96.03 1.72-.94 2.68-.95.43 0 .83.19 1.23.35a14.45 14.45 0 0 0 8.39.89c1.43-.28 2.87-.81 3.86-1.88.9-.97 1.34-2.28 1.63-3.57.81-3.57.66-7.28.51-10.94-.07-1.59-.17-3.27-1.1-4.56-1.19-1.63-3.37-2.14-5.37-2.37-2.98-.34-6.01-.3-8.53-.15ZM330.6 210.97c-1.33 1.4-1.38 3.55-1.36 5.48l.18 16.01c0 .57.05 1.21.49 1.57.28.22.65.28 1 .32 4.73.56 9.52.58 14.26.04 3.63-.41 7.68-1.45 9.46-4.64.93-1.67 1.07-3.65 1.11-5.56.07-3.38-.09-6.76-.49-10.12-.2-1.72-1.78-2.91-3.3-3.73-6.77-3.68-15.81-3.97-21.77.92-.16.13-.34-.22-.18-.35s.4-.07.61.08ZM257.04 261.82c-.91-1.98-.54-4.39.63-6.23s3.05-3.13 5.07-3.95c3.11-1.26 6.63-1.47 9.86-.58 4.89 1.34 8.76 4.97 12.43 8.47 1.2 1.15 2.44 2.34 3.06 3.88 1.12 2.78-.03 5.99-1.77 8.44a19.369 19.369 0 0 1-10.24 7.32c-3.87 1.14-8.46.87-11.39-1.89-2.37-2.24-3.22-5.61-3.95-8.78-.88-3.82-1.76-7.64-3.69-6.68Z"/><path class="cls-2" d="M211.07 790.45c.1-45.22.56-90.45 1.37-135.66.33-18.38.75-36.97 5.46-54.74 1.82-6.86 4.27-13.54 5.92-20.44 3.81-15.9 3.29-32.48 2.75-48.82-.46-13.8-.91-27.6-1.37-41.39-.18-5.36-.35-10.78.65-16.04 1.33-6.98 4.66-13.38 7.05-20.07 4.94-13.84 5.8-28.74 7.05-43.39 3.33-39.01 9.75-77.76 19.19-115.76 2.39-9.61 6.4-20.69 15.94-23.33M332.93 794.31a4663.92 4663.92 0 0 1-.61-271c.18-6.86.38-13.73.58-20.59.18-6.36.37-12.72.41-19.09.04-7.04-.09-14.08-.19-21.12-1.04-74.26 1.78-148.57 8.22-222.33.01-1.75.18-3.5.51-5.22M1.01 330.86c17.38-19.65 34.75-39.3 52.13-58.94 4.94-5.59 9.96-11.24 16.19-15.34 7-4.6 15.3-7.07 21.97-12.13 3.92-2.97 7.15-6.74 10.35-10.48l14.88-17.4c5.6-6.55 11.35-13.22 18.82-17.53 11.37-6.56 25.19-6.8 38.31-6.49 20.49.49 41.87 2.18 59.42 12.78 6.77 4.1 12.79 9.45 17.65 15.7"/><path class="cls-2" d="M240.67 228.8a192.16 192.16 0 0 0-37.61 47.68c-1.85 3.31-4.33 7.14-8.12 7.14-1.65 0-3.19-.78-4.65-1.56a145.98 145.98 0 0 1-28.05-19.69c-1.16-1.04-2.42-2.15-3.96-2.33-1.4-.17-2.76.46-4 1.13-6.69 3.61-12.53 9.22-15.18 16.34-4.13 11.06.85 24.76 11.11 30.58 1.89 1.07 3.93 1.9 5.69 3.18 5.38 3.88 7.17 11.98 3.93 17.76-2.08 3.71-5.72 6.21-9.14 8.72-14.56 10.67-27.28 23.64-39.48 36.95-7.61 8.3-15.72 17.18-26.63 19.97-2.68.69-5.6.96-8.17-.06-2-.8-3.62-2.3-5.19-3.77-5.75-5.39-11.5-10.78-17.25-16.18-2.54-2.38-5.72-4.94-9.1-4.1-1.98.5-3.47 2.08-4.81 3.62-3.4 3.92-6.55 8.06-9.43 12.38-2.07 3.1-4.07 6.58-3.82 10.3.37 5.55 5.42 9.41 9.76 12.9 9.72 7.81 17.97 17.44 24.3 28.21v-1.11M109.13 457.79a7.275 7.275 0 0 1 3.61-2.69c.02-.21.03-.43.05-.64-.37 0-.73-.01-3.66 3.33Z"/><path class="cls-2" d="m58.78 435.51-6.53 7.46c-.55.62-1.09 1.25-1.72 1.79-.54.46-1.14.85-1.67 1.32-2.15 1.86-3.15 4.68-4.29 7.29-4.18 9.53-11.21 17.46-18.13 25.23-1.36 1.52-3.16 3.2-5.14 2.71-1.23-.3-2.09-1.37-2.9-2.34-3.79-4.6-8.32-8.59-13.35-11.79-.72-.46-1.55-.92-2.39-.74-1.51.33-1.84 2.43-1.27 3.87s1.68 2.69 1.87 4.23c.23 1.85-.92 3.6-1.02 5.46-.11 1.99.98 3.81 1.81 5.62 2.04 4.45 2.65 9.54 1.72 14.34-.48 2.46-1.35 4.95-.84 7.4.78 3.72 4.41 6.02 7.64 8.03s6.71 4.73 8.16 9.53c-2.93 8.87-5.86 17.73-8.79 26.6-1.46 4.42-2.93 8.89-3.35 13.52-.33 3.57-.03 7.16-.05 10.75-.07 10.11-2.8 20.19-7.83 28.96M357.18 219.34c10.84 6.46 26.02 3.53 35.56 11.79 2.94 2.55 5.1 6 8.4 8.06 6.34 3.97 14.91 1.52 20.88-2.99s10.38-10.78 16.1-15.6 13.75-8.16 20.65-5.26c6.31 2.65 9.61 9.56 11.55 16.11-8.69 2.07-12.35 12.26-18.99 18.23-6.02 5.41-14.82 7.51-19.64 14-1.21 1.62-2.13 3.62-1.82 5.61.26 1.66 1.32 3.06 2.35 4.38 6.86 8.82 13.71 17.64 20.57 26.47 1.46 1.88 2.99 3.81 5.11 4.87 1.6.8 3.42 1.04 5.06 1.76 7.18 3.18 8 13.86 14.77 17.84.89.52 1.9.91 2.92.84 1.28-.1 2.39-.9 3.42-1.67 11.9-8.92 23.79-17.84 35.69-26.76 2.32-1.74 4.76-3.54 7.63-4.03 5.12-.89 10.15 2.79 12.54 7.4 2.38 4.62 2.72 9.98 3 15.17-8.58 2.4-16.12 8.32-20.5 16.08a45.897 45.897 0 0 0-14.66 9.57c-.76.74-1.53 1.56-1.77 2.6-.56 2.46 1.97 4.41 4.12 5.73 17.29 10.66 30.81 26.31 45.16 40.69 2.93 2.94 5.96 5.87 9.61 7.83 2.7 1.45 5.68 2.33 8.44 3.66 5.2 2.51 9.49 6.53 13.85 10.31 7.39 6.41 15.23 12.3 23.44 17.61M280.5 230.73c1.94 1.51 4.88 1.03 6.84-.45s3.17-3.73 4.26-5.92c3.42-6.86 6.4-13.93 9.9-20.75 2.41-4.7 5.05-9.27 7.69-13.83.69-1.2 1.39-2.39 2.08-3.59.87-1.5 1.74-3 2.72-4.43 6.63-9.66 17.74-15.17 25.96-23.52 2.76-2.8 5.18-5.9 7.91-8.73 9.29-9.63 22.12-15.76 35.45-16.92a53.257 53.257 0 0 1 1.5-23.31c6.42.11 12.85.22 19.27.34 1.6.03 3.39.14 4.48 1.31.6.65.88 1.53 1.14 2.38 1.74 5.72 3.49 11.43 5.23 17.15.34 1.13.87 2.43 2.02 2.69.7.16 1.42-.14 2.09-.43 17.76-7.68 37.51-9.06 56.82-10.34 4.02-.27 8.04-.53 12.06-.8 7.73-.51 15.69-1.08 22.8-4.06 5.7-3.4 12.77.66 18.3 4.34 12.3 8.18 25.49 15.03 39.26 20.39.81.32 1.72.63 2.53.32 1.2-.46 1.53-1.98 1.68-3.27l2.04-17.53c.42-3.62 1.33-7.9 4.72-9.23 6.1-2.39 11.4 7.51 17.83 6.24M736.68 67.06c1.2 4.7-.88 10.06-4.94 12.71"/><path class="cls-2" d="M596.14 118.29c5.21 5.07 14.32 6.31 16.96 13.08M325.81 197.66c3.62.63 7.35.59 10.95-.11 1.48.75 1.13 3.06.02 4.29s-2.72 1.99-3.6 3.39c-1.11 1.76-.66 4.34.99 5.61s4.25 1.07 5.68-.44c-.3-4.69-.45-9.9 2.58-13.5 2.55-3.02 6.67-4.07 10.48-5.1 6.73-1.83 13.53-4.21 18.79-8.79 1.85-1.61 3.48-3.47 5.5-4.86 3.54-2.43 7.93-3.19 12.05-4.42 9.54-2.85 18-8.45 27.11-12.49s19.72-6.47 28.94-2.69c4.6 1.89 8.49 5.18 12.98 7.32 8.85 4.21 19.43 3.67 28.14 8.16 5.36 2.76 9.64 7.25 14.79 10.4 3.53 2.16 7.42 3.65 11.21 5.32 18.66 8.21 35.02 20.76 51.18 33.19 13 10 26 20 38.99 29.99 4.08 3.13 8.4 6.63 9.72 11.6M612.71 61.15c-16.16-6.91-34.35-6.67-51.92-6.32-10.64.21-21.28.43-31.92.64-49.74 1-99.47 2-149.21 2.99-3.97.08-8.01.17-11.8 1.36-4.27 1.34-8.01 4.02-12.26 5.42-7.81 2.58-16.31.61-24.54.7-19.25.23-37.08 12.36-47.57 28.51s-14.42 35.8-14.89 55.05c-.35 14.04 1.04 28.12 4.1 41.82 1.5 6.69 5.47 14.81 12.28 14.1.21 1.75.43 3.49-2.78 8.16-3.53 1.42-7.7-.47-10.07-3.44s-3.35-6.79-4.21-10.49c-2.89-12.41-5.21-24.95-6.82-37.58-3.08-24.08-3.59-48.5-1.53-72.69 3.06-1.81 4.33-5.5 5.58-8.83 13.84-36.73 55.36-60.77 94.1-54.47 7.14 1.16 14.49 3.21 21.46 1.29s12.87-9.98 9.44-16.34c8.61.24 17.23.49 25.84.73 1.53.04 3.14.11 4.41.95 5.12 3.37.59 15.16 6.71 15.61 1.3.1 2.53-.56 3.72-1.1 12.32-5.57 26.52.45 40.04.67 3.91.06 8.6-.93 9.97-4.58 1.27-3.37-.81-7.91 1.83-10.35 1.45-1.35 3.67-1.3 5.65-1.18 6.16.39 3.72-2.7 9.88-2.31 2.25.14 13.38 3.94 14.71 5.76 1.45 1.99.7 4.76 1.06 7.2.65 4.4 5.13 7.46 9.56 7.86s3.99-1.52 8.02-3.41c1.47-.69 6.46.78 8.03 1.2 2.33.61 4.75 1.42 6.72 2.79 1.33.92 3 1.15 4.61 1.35 12.11 1.51 24.22 3.02 36.33 4.52-1.14-6.66-.81-13.57.94-20.1 9.25 2.11 17.86 6.99 24.41 13.86M-.61 232.04c11.93 1.99 23.94-3.82 33.12-11.7s16.33-17.82 24.88-26.38c22.39-22.42 52.97-34.28 82.59-45.52 11-4.18 22.67-8.42 34.25-6.37 10.63 1.88 19.6 8.81 27.72 15.92a322.555 322.555 0 0 1 56.26 64.29"/><path class="cls-2" d="M-.41 185.12c3.6.05 8.39 1.22 8.39 4.82 0 1.55-1.02 2.91-1.45 4.4-1.87 6.49 7.42 11.69 6.87 18.42-.08 1.03-.4 2.12.02 3.06 1.12 2.53 4.95.78 6.87-1.21 7.15-7.4 14.31-14.79 21.46-22.19 2.57-2.65 5.25-5.53 5.9-9.17.68-3.87-1.11-7.73-3.16-11.09-2.77-4.54-6.1-8.75-8.48-13.51s-3.79-10.29-2.36-15.42 6.3-9.51 11.6-9.04c6.17.55 10.04 6.75 12.7 12.34s5.84 11.95 11.85 13.46c4.81 1.22 9.71-1.19 14.09-3.52 23.09-12.28 46.17-24.56 69.26-36.84 3.21-1.71 6.57-3.46 10.21-3.52 3.27-.06 6.39 1.26 9.4 2.56 4.99 2.15 10.03 4.33 14.42 7.55 3.18 2.33 5.95 5.16 8.7 7.97 5.7 5.82 11.39 11.64 17.09 17.46 4.59 4.69 9.2 9.4 13.22 14.59 3.72 4.81 6.91 10 10.1 15.18 7.75 12.61 15.5 25.21 23.25 37.82"/><path class="cls-2" d="M.72 81.92C29.06 62.53 68.71 70.55 99.3 54.96c3.81-1.94 7.47-4.25 11.54-5.57 2.76-.89 5.66-1.31 8.53-1.73 7.46-1.07 14.93-2.15 22.39-3.22 7.93-1.14 16.12-2.27 23.86-.19 13.83 3.72 22.91 16.59 30.49 28.74a898.232 898.232 0 0 1 60.51 114.49c2.37 5.39 4.69 10.82 6.34 16.48a73.424 73.424 0 0 1 2.83 24.62l-3.48 1.23M282.07 223.35c-6.76-.36-11.03-7.21-14.1-13.24-1.34-2.62-2.67-5.24-4.01-7.86-.67-1.32-1.35-2.65-1.66-4.1-.3-1.39-.25-2.84-.38-4.26-.38-4.02-2.23-7.72-3.85-11.41-6.14-13.92-9.48-28.89-12.78-43.74-1.39-6.26-2.78-12.53-4.18-18.79-1.05-4.72-2.1-9.45-2.67-14.25-.86-7.3-.61-14.68-.35-22.02l1.14-32.41c.18-5.1.39-10.33 2.35-15.04 3.87-9.27 13.57-14.54 22.8-18.48 35.07-14.98 73.8-21.28 111.8-18.21 3.82.31 7.71.71 11.45-.14 3.52-.8 6.72-2.66 10.23-3.5 7.4-1.77 15.02 1.21 22.6 1.9 1.05.09 5.2-1.57 10.35-1.48 6.26.11 11.34-3.45 24.86 2.04C470.23.01 551.75.01 568.35-1.68c12.51-2.97 20.6-.27 27.79-.48s12.24-.48 13.5-.82M267.06 287.46c15.43 2.37 31.03 3.66 46.64 3.87 6.59.09 13.54.07 19.24 3.38M257.58 312.98c9.69 1.98 19.54 3.22 29.42 3.7 2.66.13 5.38.2 7.93-.58 2.06-.63 3.94-1.79 6.03-2.32 3.31-.85 6.79-.07 10.11.72 7.05 1.66 14.1 3.32 21.14 4.98M247.75 372.1c13.13.44 26.26.87 39.39 1.31 15 .5 30.22 1.03 44.52 5.6M237.1 425.41c21.26.99 43.12-7.78 63.41-1.35 3.5 1.11 6.88 2.66 10.47 3.43 4.24.91 8.72.72 12.8 2.22M232.36 475.04c4.22-.48 8.54-.12 12.62 1.06 1.91.55 3.81 1.29 5.8 1.36 2.65.1 5.18-1 7.72-1.79 15.04-4.71 31.22.99 46.98.63 4.44-.1 9.21-.61 13 1.71M230.42 540.92c8.38-.62 16.83-1.25 24.91-3.54 5.26-1.49 10.57-3.7 15.99-3 3.78.48 7.26 2.36 11.03 2.89 3.4.49 6.85-.14 10.28-.32 10.17-.55 20.11 2.71 29.77 5.93M223.97 606.98c14.47-4.22 30.52 7.94 44.47 2.23 2.63-1.08 4.99-2.74 7.6-3.86 7.98-3.41 17.12-1.36 25.54.74 5.89 1.47 11.78 2.94 17.68 4.41M220.1 675.12c32.83.22 65.65.99 98.45 2.28M216.42 753.32c13.23-3.38 27.02 1.49 40.67 2 23.04.85 47.04-10.66 68.4-1.98"/></g></svg>