<?xml version="1.0" encoding="UTF-8"?>
<svg xmlns="http://www.w3.org/2000/svg" xmlns:xlink="http://www.w3.org/1999/xlink" viewBox="0 0 608.64 838.8">
  <defs>
    <style>
      .cls-1, .cls-2 {
        fill: none;
      }

      .cls-2 {
        stroke: #000;
        stroke-linecap: round;
        stroke-miterlimit: 10;
      }

      .cls-3 {
        clip-path: url(#clippath-1);
      }

      .cls-4 {
        clip-path: url(#clippath);
      }
    </style>
    <clipPath id="clippath">
      <rect class="cls-1" x="0" y="0" width="608.64" height="838.8"/>
    </clipPath>
    <clipPath id="clippath-1">
      <rect class="cls-1" x="0" y="0" width="608.64" height="838.8"/>
    </clipPath>
  </defs>
  <g id="Layer_2">
    <path class="cls-2" d="M275.3,197.17c2.99-2.72,5.21-5.38,7.73-8.43,1.12-1.35,2.37-2.62,3.28-4.11,1.55-2.53,2.55-5.33,4.19-7.84,1.77-2.71,3.68-5.37,5.49-8.07.94-1.4,1.54-2.89,2.84-4,.56-.48,1.18-.78,1.64-1.38,1.11-1.46,1.07-3.92.99-5.64-.14-3.06-.14-5.93.16-8.98.16-1.66.45-3.31.2-4.92-.12-.79-.51-2.1-.82-3.91,0,0,3.87.29,4.79.88.25.16.26.34.54.45.46.18,1.13.03,1.59-.02,1.2-.14,2.15-.67,3.38-.69,1.13-.02,2.16,0,3.14-.65.84-.56,1.11-.84,2.07-.57,1.43.41,2.8.79,4.27,1.06,1.68.31,3.5.08,5.18-.09,1.01-.1,1.98-.43,2.98-.55.86-.1,1.71-.07,2.57-.2.73-.11,1.46-.29,2.19-.39,1.21-.17,2.34.29,3.49.62.97.28,2,.35,3,.43,1.24.1,2.42-.2,3.65-.23.78-.02,1.62-.02,2.38.17.7.18,1.33.55,2.04.69,1.66.34,3.41-.07,5.05.27.63.13,1.37.58,2.04.44.91-.19,1.96-.96,2.6-1.59.57-.56.76-.44,1.51-.71.94-.34.92-1.02,1.26-1.88.42-1.07.47-1.47.01-2.49-.43-.95-.46-2.14-.38-3.17.16-2.01.7-3.95.86-5.94.07-.86-.17-1.24-.62-1.92-.34-.53-.29-1.14-.94-1.4-.49-.2-1.15-.14-1.67-.25-.77-.16-1.51-.41-2.28-.55-2.05-.39-3.84-.61-5.75-1.49-1.65-.76-3.22-.38-4.93-.08-2.05.37-4,.78-6.1.8s-4.17-.1-6.21.07c-.88.08-1.67.3-2.5.56-1.16.36-2.42.48-3.62.67-2.22.34-4.44.6-6.63,1.1-1.3.3-2.6.53-3.94.62-.93.06-1.83.03-2.74.26-2.47.61-5.58,2.12-8.04.96s-6.08-1.5-8.6-.22c-.59.3-1.13.91-1.48,1.46-.39.61-.33,1.19-.51,1.86-.31,1.18-.52,2.1-.14,3.31.42,1.34,1.1,2.73,1.71,4,.27.56.45,1.12.66,1.7.23.65.65,1.01,1.16,1.45.63.54,1.57,1.04,2.4,1.27.47.13.7-.08,1.12-.26"/>
    <path class="cls-2" d="M296.35,78.22c-.97.72-1.68,1.62-2.13,2.7,1.2.61,1.77,2.86,1.87,4.06s.63,2.13.77,3.27.18,2.02.86,3c.39.56.63,1.46,1.31,1.72s1.49.04,2.15-.07c1.14-.19,2.29-.32,3.43-.48,1.77-.24,3.38-.81,5.11-1.17,1.03-.22,2.08-.4,3.11-.6.89-.17,1.79-.11,2.67-.24,1.45-.22,2.88-1.07,4.28-1.52,1.19-.38,2.3-.14,3.54-.01.62.06,1.27.08,1.89.19.79.14,1.53.53,2.36.48.69-.04,1.34-.35,2.02-.46.81-.12,1.62-.2,2.43-.29,1.33-.14,2.7-.23,4.04-.39s2.57.08,3.91.11,2.74-.27,4.11-.28c.63,0,1.24-.13,1.87-.07.94.09,1.85.35,2.79.43,1.69.14,3.6-.21,5.24.26.61.18,1.09.61,1.68.83s1.19.24,1.8.3,1.18.11,1.77.24c.28.06.83.28,1.12.17.36-.13.6-.81.8-1.1.38-.56.74-1.13,1.11-1.7.41-.63.43-1.17.64-1.89.33-1.12.79-2.12.89-3.29.13-1.45.21-2.24-.73-3.38-.74-.9-1.29-1.91-2.19-2.68-.82-.7-1.99-.86-2.86-1.51-.52-.39-.7-.57-1.4-.65-.81-.09-1.63-.17-2.45-.24-1.86-.16-3.66.16-5.51.23-1.5.05-2.89.12-4.23-.39-.51-.19-.86-.48-1.41-.54-.7-.08-1.6-.04-2.21.34-1,.63-1.4,1.19-2.68,1.16-1.15-.03-2.22-.39-3.36-.47-3.21-.21-6.76.4-9.87,1.17-2.46.61-4.89,1-7.42,1.28-2.21.24-4.37.95-6.58.98-2.1.03-4.2.5-6.3.38-1.73-.1-3.46.06-5.18-.12-.72-.07-1.54-.25-2.26-.06-.28.07-.36.21-.68.18-.25-.03-.4-.19-.66-.17.08.14.21.19.51.29Z"/>
    <path class="cls-2" d="M287.22,183.77c1.79-.05,3.23-.15,4.91.19.59.12,1.23.2,1.83.2,1.35,0,2.61-.14,3.97,0,1.07.11,2.02.21,3.08.05.74-.11,1.44-.35,2.17-.47.55-.09.91,0,1.33-.38.44-.41.91-1.09,1.29-1.57.8-1.02,1.24-2.25,1.7-3.44.54-1.38.77-2.75.91-4.21s.42-2.92.57-4.39c.09-.9.05-1.97.3-2.84.36-1.25,1.27-1.41,2.41-1.43.79,0,1.57-.13,2.32.2.67.29,1.2.84,1.85,1.18,1.21.62,2.84.98,4.16,1.31.79.2,1.54.59,2.19,1.11s.72,1.5,1.05,2.27c.56,1.28.91,2.39,1.12,3.77s.75,2.67,1.07,4.01c.38,1.55.48,3.4,1.47,4.72.44.58,1.25.93,1.95.91.74-.02,1.39-.21,2.15-.17.88.05,1.75.03,2.63.13,1.3.14,2.61.3,3.92.4.63.05,1.65.19,2.08-.27.54-.57.73-1.49.76-2.24.05-1.27-.15-2.63-.28-3.89-.18-1.74-.28-3.29-.05-5.04.13-.96.21-2.41,1.11-2.99.79-.51,2.17-.04,2.96.3,1.06.46,2.28,1.03,3.22,1.71.59.43,1.42.74,1.88,1.31.63.8,1.08,2.15,1.45,3.09.82,2.06,1.34,4.2,2.14,6.27.27.7.18,1.41.89,1.8,1.12.62,2.7.39,3.93.3.57-.04,1.14-.13,1.71-.2.37-.04,1.35,0,1.68-.2.65-.39.26-1.42.14-2.01-.39-1.93-1.8-3.81-.83-5.81.48-.99,2.26-.44,3.23-.35"/>
    <path class="cls-2" d="M332.91,11.18c-.87-.78-2.03-2.25-3.22-2.43-.31-.05-.67,0-.98-.02-.72-.05-1.4-.17-2.12-.11-1.31.12-1.96.94-2.23,2.18-.66,3.03,2.52,3.36,4.67,3.74,1.34.24,3.82,1.08,4.43-.81.33-1.03-.19-2.25-.54-2.56Z"/>
    <path class="cls-2" d="M327.83,2.38c-.18,1.81-.56,3.85-.18,5.69.05.24.18.8.18-5.69Z"/>
    <path class="cls-2" d="M329.07,15.18c-.58,2.21-1.01,4.59-2.38,6.49-.87,1.21-1.87,2.48-2.98,3.47-1.02.91-2.23,1.56-3.16,2.58-1.27,1.4-2.49,2.66-3.9,3.91-2.82,2.49-5.41,5.31-8.07,7.97-1.31,1.31-2.48,2.74-3.88,3.96-1.21,1.05-2.44,2.06-3.56,3.2-1.62,1.65-3.05,3.37-4.07,5.46-.87,1.78-1.17,3.98-1.22,5.95-.07,2.6.51,5.32,1.11,7.82.25,1.02.21,1.91.33,2.94.1.89.56,1.15,1,1.88s.78,1.73.92,2.6.13,1.21.59,1.93c.52.82.58,2.02,1.29,2.74.18-.08.2-.21.19-.4"/>
    <path class="cls-2" d="M359.14,75.19c1.52-1.65,2.69-3.13,3.9-4.94.37-.56.78-1.1.96-1.76.38-1.44.63-3.16.46-4.65-.18-1.64-.65-3.39-1.03-5-.18-.76-.66-1.33-1.07-1.98s-.69-1.39-1.07-2.07c-.65-1.14-1.55-2.28-2.6-3.08-.37-.28-.75-.41-1.06-.79-.35-.43-.56-.77-.98-1.16-.76-.71-1.43-1.42-2.08-2.23-.71-.9-1.68-1.61-2.29-2.56-.64-1-.75-2.17-1.32-3.17-.26-.46-.68-.82-.91-1.3-.25-.54-.34-.92-.83-1.34-.45-.39-1.02-.51-1.5-.84-.44-.29-.8-.7-1.26-.99-.92-.58-1.33-1.3-1.81-2.2-.56-1.07-1.38-2.18-2.23-3.05-.45-.47-1.17-.69-1.6-1.12-.35-.36-.59-.8-.96-1.19-.82-.85-1.49-1.91-2.03-2.95s-.74-2.28-1.43-3.13c-1.26-1.56-2.66-3.28-3.23-5.25-.08-.3-.05-.63-.22-.9-.21-.33-.62-.56-.87-.87-.34-.42-.45-1.08-.81-1.43.03.1.08.19.15.27"/>
    <path class="cls-2" d="M358.99,90.82c-.6,2.23-1.29,4.31-1.44,6.6-.05.8-.15,1.59-.23,2.38-.16,1.58-.31,3.12-.59,4.68-.45,2.52-.58,5.17-.57,7.72s.01,4.91-.19,7.41c-.04.51-.25,2.07.08,2.46.01-.24.04-.48.06-.73"/>
    <path class="cls-2" d="M300.85,93.66c-.26,2.14-.45,3.7-.28,5.74.08,1.03.19,2.03.16,3.06-.05,1.87.13,3.73.08,5.59-.04,1.61-.37,3.18-.34,4.8.02,1.16.05,2.32.01,3.48-.08,2.56.56,5.15.33,7.68"/>
    <path class="cls-2" d="M355.66,141.49c-.06,1.26-.17,2.51-.28,3.76-.05.58.08,1.12.11,1.7.09,1.75-.03,3.47-.2,5.22-.09.92-.2,1.82-.19,2.74,0,.8-.2,1.59-.21,2.38s-.05,1.78.33,2.49c.43.8.82,1.65,1.13,2.51.57,1.6,1.6,2.96,2.42,4.44.95,1.73,1.16,3.8,2.12,5.53.45.81,1.01,1.57,1.42,2.4.39.78.51,1.64.93,2.38s1.06,1.39,1.59,2.04c.35.44.79.79,1.09,1.28.26.43.49.89.72,1.34.62,1.17,1.55,2.13,2.35,3.18,1.03,1.36,2.03,2.74,3,4.14.87,1.25,1.78,2.48,2.69,3.7.67.89,1.33,1.78,1.99,2.67.25.34.45.59.64.95.16.3.36.5.66.66.78.4,1.76.46,2.6.65s1.77.34,2.64.53c.93.2,1.87.39,2.8.6,1.02.23,1.93.72,2.91,1.08.38.14.75.33,1.13.46.6.2,1.32.18,1.95.24,2.09.2,4.21.76,6.24,1.3,3.44.92,6.84,2.11,10.4,2.51,2.74.31,5.45.91,8.2,1.11.51.04,1.09.06,1.59-.05.59-.13,1.12-.43,1.73-.52,1.07-.15,2.21.17,3.25.39,1.42.29,2.77.62,4.21.76"/>
    <path class="cls-2" d="M295.79,239.67l1.36-1.83"/>
    <path class="cls-2" d="M275.73,197.08c2.42.42,4.79,1.12,7.23,1.41,1.62.19,3.27.24,4.89.39s3.11-.07,4.64-.34c1.71-.3,3.3.13,4.98.38,3.79.57,7.56,1.05,11.37,1.45,1.86.19,3.81.4,5.66.17,2.13-.26,4.31-.72,6.46-.69,2.32.03,4.44.6,6.68,1.11,1.98.45,4.04.67,6.07.75s3.97.4,5.93.29c2.1-.12,4.15-.74,6.24-1.01s4.13-.27,6.16-.67c.78-.16,1.62-.33,2.36-.64s1.46-.68,2.29-.87c1.28-.29,2.52-.42,3.83-.3,1.15.1,2.27.35,3.41.45,1.59.15,2.81-.86,4.25-1.31s3.06-1.09,4.63-1.27c1.34-.15,2.71-.02,4.04.11"/>
    <path class="cls-2" d="M464.27,304.72c-2.07-.17-4.14-.27-6.22-.32.08.81-.43,2.17-.53,3.14-.11,1.14-.49,2.36.42,3.3,1.94,2.01,6,1.81,8.57,2.07,1.3.13,2.79.56,4.02.06s1.03-1.5,1.16-2.72c.24-2.29-.4-4.09-2.78-4.57-1.03-.21-2.17-.22-3.22-.31-.48-.04-1.83-.18-2.2-.45-.73-.55-.32-1.48-.25-2.33.16-1.95.11-3.96.14-5.92s-.14-3.81,0-5.7c.27-3.41.68-6.81,1.02-10.21.65-6.54,1.05-13.08,1.7-19.63.37-3.69.92-7.43.91-11.14,0-1.39.41-2.79.31-4.17-.05-.74-.27-1.36-.24-2.12.03-.88.07-4.95.78-5.32"/>
    <path class="cls-2" d="M440.47,261.05c4.92.28,9.8.74,14.7,1.21,2.22.21,4.26.93,6.49,1.14,2.6.25,5.41.23,7.9,1.02,2.71.86,5.44,1.37,8.2,2,3.05.7,5.82,1.56,8.69,2.83,1.25.55,2.49,1.32,3.82,1.67,1.08.28,2.08.41,3.13.83,1.82.73,3.46,1.7,5.32,2.29.49.16,3.53.58,3.21.97"/>
    <path class="cls-2" d="M380.32,433.55c1.58-7.62,2.59-15.35,3.82-23.02.34-2.12.9-4.2,1.33-6.3.52-2.56.71-5.12,1.49-7.62,1.22-3.95,2.24-7.93,2.7-12.06.49-4.44,1.41-8.84,1.81-13.29.21-2.4.82-4.68,1.18-7.05.38-2.5.51-5.05.76-7.57.65-6.59,1.17-13.08,1.45-19.69.3-7.24.51-14.44.41-21.7-.04-2.9-.34-5.79-.33-8.68,0-2.41.14-4.87-.05-7.27-.21-2.6-1.02-5.11-1.16-7.73-.12-2.41.02-4.85.06-7.26.07-4.58.25-9.33-.04-13.9-.22-3.47-.64-7.04-1.09-10.47-.57-4.38-.43-8.87-1.11-13.25-.63-4.07-1.24-8.21-1.72-12.3s-1.01-8.54-2.23-12.55c-.69-2.24-1.01-4.67-2.04-6.78-1.13-2.32-3.41-3.54-4.91-5.54-1.14-1.52-1.91-3.22-2.8-4.89-.65-1.23-.93-1.49-2.3-1.78-.78-.16-1.79.1-2.4-.51-.51-.51-.58-1.75-.68-2.41-.2-1.35-.23-1.95-1.34-2.74"/>
    <path class="cls-2" d="M19.56,232.51c2.96-.42,6.46-1.41,9.49-.77.71.15,1.53.22,2.25.25,1.16.04,2.23-.26,3.32-.42,1.86-.28,3.82-.15,5.69-.36,3.11-.34,5.79-1.35,8.68-2.41,2.74-1,5.3-2.16,8.22-2.57,1.63-.23,3.3-.19,4.9-.58,1.8-.44,3.03-1.55,4.61-2.45,4.07-2.3,8.77-3.47,13.34-4.38,2.1-.42,4.22-.53,6.31-.91,2.48-.46,4.91-1.32,7.46-1.4,1.72-.06,3.4.37,5.13.23,1.22-.1,2.39-.4,3.57-.69,1.54-.38,3.1-.5,4.64-.86,1.77-.41,3.42-1.18,5.23-1.44,1.43-.2,2.86-.2,4.28-.49s2.64-.78,3.97-1.11c2.95-.73,5.98-.64,8.96-1.14,1.98-.33,3.87-1.07,5.87-1.42,1.15-.2,2.29-.54,3.45-.66,1.51-.15,3.02.05,4.53-.05,2.48-.16,4.93-.46,7.37-.91,3.22-.59,6.49-.73,9.71-1.31,1.63-.29,3.26-.57,4.92-.63s3.19.03,4.76-.34c3.48-.83,6.89-1.44,10.49-1.35,4.65.11,9.49-.05,14.03-1.15,1.76-.43,3.45-.99,5.24-1.36.93-.19,1.76-.58,2.66-.82,1.1-.29,2.27-.35,3.38-.63,2.28-.56,4.26-1.15,6.62-1.38,2.87-.28,5.83.05,8.67-.37,1.86-.27,3.68-1.37,5.59-1.11,2.24.31,4.54.49,6.76.85,1.35.22,2.55-.16,3.92.05,1.71.26,3.01.69,4.74.27.98-.24,1.58-.77,2.61-.82.91-.05,1.79-.08,2.69-.19,1.05-.13,2.22-.27,3.28-.21,1.47.08,3.35,1.24,4.65.67.66-.29,1.34-.74,2.05-1.01.84-.32,1.45-.52,2.36-.59,1.46-.12,2.96-.29,4.41-.18s2.78.12,4.25-.08c.69-.09,1.22,0,1.95.19.79.21,1.49.7,2.28.81s1.26-.35,2.01-.63"/>
    <path class="cls-2" d="M103.8,219.31c-2.48-.93-4.62-1.99-7.15-.96-.77.31-2.19,1.15-2.53,1.94-1.3,3.04,4.64,3.63,6.34,3.9,1.31.21,2.44-.28,3.7-.48.74-.11,1.85-.5,1.96-1.4.1-.82-1.21-1.4-1.73-2.06-.48-.61-.7-1.16-1.51-1.44-.12.08-.19.19.93.5Z"/>
    <path class="cls-2" d="M36.43,316.1c.26-3.58.81-7.04.15-10.57-.29-1.56-.51-3.15-.88-4.69-.42-1.73-1-3.28-1.71-4.9-.91-2.09-1.26-4.41-1.88-6.6-.59-2.07-1.08-4.05-1.39-6.18-.25-1.76-.91-3.54-.71-5.33.15-1.34.9-2.47,1.13-3.76.28-1.5.13-3.29.26-4.84.55-6.67,7.01-11.84,11.64-15.93,3.57-3.14,7.62-5.77,11.09-9,1.54-1.44,2.73-2.73,4.51-3.86.67-.42,1.34-.84,1.93-1.37.66-.6,1.09-1.43,1.77-1.99,1.26-1.02,3.48-1.49,5-1.2,1.09.2,2.13.23,3.24.19,2.14-.09,4.28.35,6.4.19,2.49-.18,4.12-.8,6.09-2.18.89-.62,1.95-1.31,2.73-2.05,1.05-1,1.53-2.4,2.69-3.33,1.67-1.33,3.22-2.81,4.83-4.23s4.07-.93,6.14-.83c1.95.1,3.71.42,5.65.71,1.66.25,2.99.32,4.56.96s2.92,0,3.64,1.86c.8,2.09,1.91,3.91,3.29,5.69,2.35,3.03,5.52,5.33,8.18,8.07,3.43,3.52,6.52,6.73,11.19,8.62,2.66,1.08,5.25,2.08,8.08,2.58,1.77.31,3.54.39,5.3.8,1.91.45,3.85.84,5.79,1.15,2.5.39,4.45,1.04,6.78,1.97s4.34,1.2,6.85.91c2.76-.32,5.28-1.68,7.8-2.77,3.71-1.6,7.61-2.72,11.44-4s7.55-2.24,11.16-3.78c1.73-.74,3.47-1.48,5.22-2.16,2.32-.91,4.5-2.35,6.86-3.09,4.29-1.34,8.58-3.06,12.6-5.03s8.5-3.42,12.23-5.89c4.77-3.16,9.67-5.84,15.16-7.53,1.38-.43,2.77-.61,4.16-.96s2.54-1.12,3.78-1.79c2.15-1.16,4.33-2.09,6.56-3.04s4.7-1.3,6.79-2.6c1.91-1.2,3.22-3.14,4.16-5.16.59-1.27-.23-3.01.99-3.96.72-.56,1.83-.4,1.99-1.64.03-.24-.16-.6-.17-.86-.03-.75.26-1.76.44-2.5.19-.79.56-1.56,1-2.24.08-.14.08-.13-.02.03"/>
    <path class="cls-2" d="M270.14,215.15c3.17,1.3,6.3,2.87,9.71,3.37,1.42.21,2.84.39,4.25.6,2.59.38,5.15.67,7.65,1.44,4.25,1.32,8.47,2.53,12.64,4.08s8.82,2.08,13.18,3.1c2.58.61,4.97,1.14,7.64,1.25,3.21.13,6.49.89,9.68.71,2.77-.16,5.48-.24,8.25-.28,2.27-.03,4.38-.93,6.58-1.36,4.05-.78,8.01-1.37,12.11-.75,1.77.27,3.45.87,5.23,1.11,2.01.27,3.93.69,5.91,1.07,2.2.42,4.29.71,6.4,1.51s3.74.87,5.82.31c1.59-.43,3.07-.93,4.73-1.12.19,0,.17.02-.06.05"/>
    <path class="cls-2" d="M28.09,342.05c3.27,1.11,6.52,2.33,9.93,2.89,1.55.26,3.1.45,4.65.7,4.1.67,8.3.94,12.45,1.09,2.44.09,4.7.25,7.07.83,2.19.53,4.41.53,6.63.89,3.67.59,7.12,2.26,10.62,3.39,1.96.63,3.96,1.09,6,1.36s3.79-.59,5.81-.39c3.43.33,7.03,1.62,10.49,1.39.95-.06,1.83-.35,2.79-.36s1.86,0,2.8-.12c2.49-.31,4.76-.36,7.27-.31,3.75.07,7.67.53,11.15,1.99,2.03.85,3.41,1.69,5.65,1.76,2.02.06,4.03.4,6.04.45,4.3.11,8.64.73,12.91,1.35,3.42.49,6.88.77,10.27,1.38,1.11.2,2.37.28,3.51.27s2.26-.27,3.4-.24c1.21.03,2.4.38,3.61.53,4.43.56,8.8,1.4,13.25,1.64,2.06.11,4.16-.22,6.2.12,1.73.29,3.22.13,4.95.12,2.96-.02,5.53,1.22,8.32,1.96,3.15.84,6.2-1.47,9.02-2.64,2.16-.89,3.34-1.88,3.26-4.21-.09-2.51-.42-5.06-.66-7.58-.22-2.32-.74-4.55-1.07-6.84-.15-1.03-.12-2.57-.53-3.53s-1.39-1.6-2.24-2.1c-2.21-1.31-4.33-2.64-6.75-3.5-2.13-.76-4.25-1.42-6.43-2.05-1.5-.43-3.01-1.03-4.56-1.23-1.78-.23-3.56-.31-5.33-.65-2.75-.54-5.35-1.44-8.16-1.73-2.56-.26-5.29-.22-7.84.05-2.23.23-4.14-.25-6.3-.67-2.81-.54-5.65-.79-8.45-1.38-2.08-.44-4.01-.87-5.99-1.67s-3.89-.72-5.97-.97c-1.32-.16-2.6-.58-3.93-.39-1.05.15-2.06.41-3.13.51-2.63.25-5.12-.35-7.62-1.16-1.48-.48-2.98-.87-4.48-1.3-1.27-.37-2.76-1.2-4.07-1.28-.5-.03-.92.08-1.43.09-1.5.01-3.12-.53-4.64-.64-1.27-.09-2.44-.34-3.69-.68-2.67-.73-5.27-.96-8.01-.52-1.55.25-3.05.59-4.64.57-2.55-.03-5.08-.49-7.63-.65-3.6-.23-7.15-.65-10.73-1.2-4.3-.67-8.58-1.24-12.8-2.42-1.94-.55-3.98-.76-6-.76-2.26,0-4.44-.33-6.69-.35-4.05-.04-8.17-.55-12.21-.05-1.97.24-3.94.51-5.91.81-.99.15-2.02.36-2.78,1.1-1.27,1.23-2.5,2.9-3.59,4.32-1.85,2.42-2.41,5.83-3.4,8.65-.68,1.95-1.67,3.73-2.29,5.7-.54,1.73.24,3.48,1.09,4.98.64,1.13,1.98,2.14.78,2.67Z"/>
    <path class="cls-2" d="M195.33,331.6c-1.27-3.14-2.28-6.08-2.87-9.37-.32-1.76-.96-3.74-1.03-5.5-.07-1.92.31-3.95.36-5.89.06-2.26.61-4.45.69-6.68.06-1.51-.56-2.95-.77-4.44-.2-1.41-.39-2.85-.55-4.26-.17-1.5-.56-4.16-1.74-5.2-2.05-1.81-4.99-1.35-7.49-1.35-3.67,0-7.51.56-11.13-.16-2.92-.58-5.03-3.11-7.83-3.83-1.29-.33-2.51-.26-3.83-.32-2.01-.09-4-.53-6.01-.57-4.42-.1-8.68-.94-13.12-.88-1.82.02-3.62-.33-5.43-.4-1.6-.07-3.25-.04-4.84-.28-2.98-.46-6.08-.97-9.1-.77s-6.05.38-8.95-.16c-.68-.13-1.34-.29-1.98-.55-.85-.33-1.64-1.07-2.52-1.31-1.34-.37-2.75.14-3.99.53-1.05.33-2.27.32-3.37.33s-2.3-.1-3.45-.12c-1.38-.03-2.69-.12-4-.61-.67-.25-1.31-.62-2.01-.8-1.2-.3-2.51-.32-3.73-.54-.97-.17-1.8-.6-2.72-.92-1.1-.38-2.29-.58-3.44-.65-1.55-.1-3.33,0-4.82-.4-.61-.16-1.17-.46-1.78-.62-1.84-.48-4.39-.26-6.25.07-4.38.78-8.75.58-13.16.44-5.47-.18-11.03-.31-16.51.23-2.49.25-4.71.8-6.98,1.73.53.16.81-.49,1.37-.36-.56.4-1.54.73-2.25.87"/>
    <path class="cls-2" d="M128.01,245.32c-3.04,2-6.43,4.14-9.17,6.59-1.29,1.15-1.72,3.02-2.8,4.34-1.77,2.16-4.34,3.54-6.88,4.54-3.87,1.52-7.71,3.52-11.22,5.76-1.12.72-1.76,1.65-2.75,2.48-.84.71-1.87,1.18-2.71,1.9-1.61,1.37-3.19,2.74-4.74,4.17-.65.6-2.93,2.62-4.01,1.94"/>
    <path class="cls-2" d="M145.91,252.73c-1.67,3.53-3.85,7.1-4.94,10.87-.45,1.56-.82,3.11-1.34,4.65s-1.31,2.8-1.84,4.25c-.46,1.26-.84,2.5-1.38,3.73-.65,1.47-.82,3.1-1.56,4.53-.3.59-.67,1.15-1.01,1.72.06-.11.12-.21.19-.32"/>
    <path class="cls-2" d="M167.54,256.78c.62,1.37,2.8,4.89,2.74,6.89-.02.62-.19.87.04,1.51.41,1.13,1.1,1.74,1.18,2.99s-.15,2.42-.16,3.65c-.01,1.33.02,2.67,0,4-.06,2.85.81,4.93,2.2,7.38.94,1.65,1.47,3.36,2.15,5.09.12.13.21.1.28-.07"/>
    <path class="cls-2" d="M192.07,316.07c6.84.95,13.57,1.55,20.46,1.75,1.98.06,3.93-.23,5.91-.25,2.69-.03,5.34.37,8.02.51,2.5.13,4.95-.41,7.45-.42,2.22-.01,4.49,0,6.72.1,6.02.27,11.9,1.42,17.91,1.82,4.38.29,8.64,1.12,13,1.58,4.63.48,9.26.96,13.88,1.52,8.15.98,16.69,1.1,24.9.6,3.5-.21,7.08-.42,10.59-.43,4.21-.01,8.27.9,12.37,1.77,9,1.92,18.14,3.34,27.19,5,5.03.92,9.88,2.39,14.87,3.38,3.18.64,6.38.96,9.59,1.38,1.88.25,3.57.59,5.39,1.03.95.23,2.53.3,3.32.97"/>
    <path class="cls-2" d="M171.82,276.35c4.49-.41,9.91-.19,14.21-2.14,1.81-.82,3.52-1.91,5.15-3.04,2.97-2.06,6.12-3.58,9.28-5.28,1.82-.98,3.38-2.31,5.16-3.35s3.77-1.7,5.63-2.44c3.31-1.32,6.99-1.84,10.5-2.42,3.14-.52,6.27-.37,9.35.46,1.4.38,2.71.97,4.12,1.32,1.63.4,3.15.58,4.64,1.42,2.41,1.35,4.51,2.58,6,4.97,1.28,2.06,2.06,4.43,2.66,6.76.55,2.11.96,3.95,1.19,6.1.2,1.81,1.13,3.33,1.53,5.06.91,3.89.97,7.82,2.63,11.48,1.53,3.37,7.19,4.23,10.41,3.71,2.77-.44,5.87-1.77,8.34-3.08,2.75-1.46,4.13-4.35,5.85-6.8,1.91-2.7,2.98-5.4,3.79-8.56.6-2.32,1.69-5.03,3.13-7,1.55-2.13,4.06-.77,6.23-.47,3.35.46,6.64.73,9.89,1.64,1.49.42,2.88,1.09,4.38,1.48s3.16.47,4.73.74c3.25.56,6.77.2,9.84,1.62,3.74,1.72,7.45,3.65,10.1,6.86s1.2,5.71.86,9.39c-.32,3.37-.33,6.64,1.61,9.5.45.67.1.88.13,1.69.02.45-.15.08.78,1.69.65,1.14,2.43.96,3.35.92,2.25-.08,4.68.6,6.84.11,2.48-.57,5.18-.9,7.7-1.21,1.7-.21,3.42.37,5.09-.3.89-.36,1.86-.76,2.74-1.15,2.17-.96,4.14-2.92,5.02-5.07,1.07-2.61,1.71-5.62,2.2-8.39.56-3.15,1.41-5.68,3.02-8.45,1.37-2.35,2.6-4.38,4.89-5.95s4.29-.76,6.76-.81,4.93-.13,7.34.21c1.35.19,2.88.52,4.21.49"/>
    <path class="cls-2" d="M190.7,291.81c2.62-1.97,5.01-3.7,7.28-5.97.79-.78,1.58-1.51,2.5-2.13,1.83-1.23,3.6-1.23,5.69-1.6,3.23-.56,6.55-1.05,9.84-1.17,2.03-.07,3.94.23,5.93-.37,1.41-.42,3.06-1.29,4.57-1.14,2.26.23,5.36,2.74,7.05,4.09,2.3,1.82,4.62,3.85,6.28,6.29,1.29,1.89,3.03,3.78,4.04,5.83.84,1.69,1.56,3.39,2.5,5.05.99,1.76,2.54,3.02,3.87,4.5.6.67,1.08,1.5,1.78,2.09,1.24,1.03,2.51.9,4.01,1.2,3.98.81,8.02,1.66,12.09,1.82,5.08.2,9.17-.28,12.15-4.72,1.25-1.86,2.54-3.69,3.65-5.65,1.02-1.78,1.67-3.37,2.99-4.98,1.41-1.72.65-5.19,2.78-5.95,2.58-.92,9,.71,11.63,1.51,2.05.62,3.59.66,5.68,1.15,1.68.4,3.3.87,4.97,1.33,1.17.32,2.34,3.76,2.15,3.66.1,2.34,2.78,4.21,3.46,6.43.31.99.26,2.05.6,3.05.48,1.41,1.39,2.45,2.19,3.66.59.89.92,1.92,1.49,2.79,1.73,2.64,5.58,3.7,8.49,4.16,2.57.41,4.97,1.14,7.52,1.69,2.31.5,4.69.05,7.03.35,2.15.28,4.15.15,6.29.28,2.39.14,3.99.15,6.25-.5s4.21-.36,5.87-2.07c1.53-1.57,2.74-3.49,3.83-5.37s2.16-3.52,2.74-5.56.84-4.12,1.63-6.03c1.25-3.02,3.38-6.13,6.78-6.73,3.63-.64,6.83.93,10.24,1.78,1.53.38,3.15,1.08,4.36,2.12l-.27.11"/>
    <path class="cls-2" d="M378.79,472.09c2.28-.64,9.08-3.15,12.81-3.1.82.01,2.24.54,2.98.65,2.38.35,4.77.67,7.17.93,6.26.67,12.56,1.01,18.77,2.05,11.8,1.97,23.6,4.47,35.47,6.01,9.62,1.25,19.39,1.75,28.85,3.82,4.34.95,9.08,2.84,12.03,6.19,2.3,2.62,4.21,5.52,6.61,8.07,2,2.12,3.53,3.66,4.96,6.25,1.24,2.26,1.82,4.39,2.49,6.87,1.27,4.76,1.45,10.18,1.93,15.08.24,2.49.11,5.25-.27,7.71s-1.34,4.49-1.23,6.94c.12,3.01.07,6.32-1.13,9.15-1.7,4.01-5.17,3.66-9.15,3.11-5.55-.77-10.97-2.25-16.52-3.04-5.96-.85-11.87-1.79-17.85-2.38-4.6-.46-8.94-.92-13.48-1.88-4.94-1.06-9.85-.89-14.83-1.66-11.44-1.77-23-3.96-34.57-4.61-7.3-.41-14.57.17-21.85-.28-2.12-.13-3.85-.51-3.84-2.98,0-1.8.62-3.94,1.21-5.62.95-2.71,1.15-5.11.9-7.99-.29-3.34-.74-6.64-.63-10,.13-3.76.48-7.43.4-11.2-.11-5.52.61-10.68,1.6-16.07.28-1.51-.36-2.04-.81-3.44-.34-1.06-.36-2.37-.46-3.51-.19-2.11.53-5.25-1.57-5.04Z"/>
    <path class="cls-2" d="M380.6,433.89c-.42,2.25-.71,4.51-1.45,6.67-.3.88-.61,1.81-.7,2.73-.18,1.72-.21,3.42-.46,5.13-.3,2.08-.45,3.99.06,6.03s.71,4.26,1.31,6.33c.5,1.72.88,3.25,1.17,5.02.19,1.16.31,2.32.49,3.46.07.44,0,.91.14,1.35.11.37.33.63.36,1.02"/>
    <path class="cls-2" d="M497.54,489.29c3.38-3.94,6.72-7.88,9.04-12.57.71-1.44,1.65-2.74,2.36-4.17,1.04-2.11,1.76-4.79,2.29-7.09.64-2.75,1.12-5.58,1.67-8.35s.55-5.61,1.17-8.39c.53-2.37.77-4.73,1.15-7.13s1.09-4.68,1.23-7.09c.12-2.15.07-4.34-.08-6.49-.17-2.43-1.07-4.66-1.29-7.06-.29-3.23-2.06-5.84-3.19-8.8-.54-1.41-.84-2.77-.92-4.29-.12-2.28.4-4.45-.13-6.72-.46-1.95-.87-3.84-1.13-5.83-.15-1.17-.18-2.37-.48-3.52-.26-1.01-.67-1.96-.91-2.97-.3-1.26-.49-2.91-1.13-4.04s-1.78-1.94-2.46-3.07c-1.56-2.57-2.39-5.45-3.92-8.03-.95-1.6-1.8-3.18-3.16-4.47s-2.97-2.18-4.48-3.22c-.96-.66-1.72-1.45-2.76-1.97-.67-.34-1.15-.72-1.7-1.23-1.29-1.19-2.35-2.06-3.26-3.6-.53-.89-1.16-1.78-1.6-2.72-.48-1.03-.59-2.3-.91-3.4-.29-.99-.72-1.82-.74-2.87-.03-1.61.04-3.18-.25-4.77-.46-2.51-.69-5-1.38-7.46-.33-1.15-.47-2.25-1.15-3.28-.28-.42-.75-.79-.94-1.26s-.11-1.11-.14-1.6c-.12-1.62.38-2.98-.83-4.24-.94-.97-1.91-1.74-2.72-2.82-.66-.89-1.52-.82-2.26-1.03-4.77-2.37-9.86-4.96-15.18-2.53-1.26.57-2.09,1.34-2.7,2.6-.74,1.52-1.57,3.14-2.15,4.72-.77,2.11-1.07,4.31-1.52,6.5-.41,1.98-1.02,3.9-1.38,5.89-.44,2.45-.67,4.93-1.3,7.35-.46,1.76-1.02,4.66-2.62,5.78-1.17.82-3.23.39-4.59.44-1.89.06-3.72.28-5.62.23-2.19-.06-4.51-.3-6.69-.19s-4.12.87-5.93,1.9-3.87,2.38-6.07,1.98c-2.03-.36-4.05-.52-6.13-.54-.65,0-1.34-.1-1.98-.04-.92.09-1.75.58-2.68.68-1.01.11-1.86.32-2.85.57-.89.23-1.8.17-2.68.45-1.24.39-2.33,1.11-3.49,1.66-1.3.62-3.38,1.38-4,2.81-.12.06-.11.06.01-.02"/>
    <path class="cls-2" d="M509.97,395.19c1.13-2.16,2.26-4.15,3.65-6.1.67-.94,1.08-1.79,1.42-2.89.84-2.69,1.54-5.4,2.53-8.05,1.05-2.8,1.42-5.77,2.14-8.66s1.16-5.57,1.43-8.39c.47-4.82.85-9.43,2.76-13.93,1.24-2.92,1.55-6.06,1.99-9.19s.77-6.45,1.06-9.74,1.17-6.21,1.65-9.34,1.41-5.67,2.55-8.51c.79-1.97,1.39-3.52,2.79-5.15,1.19-1.39,2.3-3.1,3.89-4.04,1.15-.68,2.37-1.08,3.65-1.45,1.4-.39,2.35-.23,3.74-.1,2.34.23,4.46-.82,6.78-.24,1.69.42,3.12,1.34,4.73,1.94,1.17.43,2.33.84,3.48,1.37l.07-.21"/>
    <path class="cls-2" d="M560.48,348.7c-2.05-2.59-3.55-4.92-6.45-6.38-1.09-.55-2.21-.88-3.4-1.09-2.32-.42-4.65-.85-6.93-1.42-2.49-.62-5.01-.67-7.54-.96-2.91-.33-5.73-.78-8.6-1.36-2.05-.42-4.44-.77-6.41-1.45-2.8-.98-4.65-3.9-5.59-6.59-1.34-3.83-2.01-7.46-1.71-11.54.37-4.97,1.07-9.74,2.11-14.61.88-4.15,1.18-8.29,1.81-12.47.31-2,.91-3.91,1.16-5.94.3-2.44.47-4.88.5-7.33.02-1.78-.6-3.22-.2-4.94.38-1.6-.04-2.94,0-4.57.05-2.09,2.55-5.04,4.12-6.43,1.66-1.47,5.04-1.09,7.22-1.41,1.96-.29,2.73-1.97,4.72-1.66,2.18.35,4.9,1.81,7.05,1.65,1.6-.12,2.08-1.82,3.53-1.31,1.55.54,3.35.78,4.83,1.47.74.34,1.37.81,2.12,1.12.71.3,1.49.58,2.17.95,1.25.68,2.8.98,3.95,1.82.66.48,1.04,1.03,1.75,1.24"/>
    <path class="cls-2" d="M545.89,258.88c1.3-3.28,4.24-7.27,5.98-10.34.54-.95,1.27-1.94,1.6-3,.29-.92.44-1.79.9-2.63,0,.15-1.78,1.02-8.48,15.97Z"/>
    <path class="cls-2" d="M516.98,279.58c4.67,2.52,9.18,4.27,13.93,6.56,1.88.91,3.76,1.98,5.7,2.73,1.71.66,3.63.67,5.36,1.27,1.09.37,1.84,1.22,2.86,1.73.75.37,1.54.62,2.24,1.11s1.51,1.2,2.1,1.87c.46.52.95,1.46,1.56,1.83,1.37.83,2.89.59,3.99,2.05.34.45.51,1.04.85,1.48.24.31.6.3.75.82"/>
    <path class="cls-2" d="M563.69,518.21c-1.01-1.99-2.63-4.43-2.9-6.75-.09-.76-.1-1.48-.24-2.24-.27-1.47-.8-3-.88-4.5-.1-1.94.21-4.07.38-6.01.16-1.83-.13-3.53-.13-5.34,0-2.96,1.44-5.7,1.63-8.64.12-1.94-.26-3.75-.34-5.68-.15-3.78.7-7.55.93-11.31s.02-7.44-.1-11.16c-.1-2.96-.49-5.97-.47-8.92.02-2.64.51-5.26.6-7.89.21-6.88.53-13.81.55-20.68,0-3.84-.74-7.69-.58-11.53.08-2.02.5-3.96.42-5.99s-.54-4.11-.81-6.17c-.42-3.23-.36-6.51-.59-9.75-.3-4.24-.66-8.43-.7-12.69-.04-4.75.74-9.46.23-14.17-.37-3.37.02-6.6.07-9.97.11-8.17,1.35-18.84.82-27.01-.3-4.61-.76-6.81-.76-11.4,0-3.84-.13-7.68-.2-11.51-.07-4.05.41-8.18.34-12.24-.07-4.39-.53-8.45-.16-12.8.3-3.48-.14-6.65-.36-10.04-.24-3.81-.47-7.62-.94-11.41-.31-2.48-.87-5.79-2.44-7.82-.57-.74-2.87-2.22-2.48-2.96"/>
    <path class="cls-2" d="M231.98,823.5c-.46-3.69-1.71-9.25-1.2-13.29.11-.86.32-1.43.3-2.3-.05-1.47-.75-2.94-.84-4.44-.07-1.09.02-2.2-.06-3.29-.4-5.54-1.2-11.09-.89-16.68.91-16.34-3.71-32.3-3.6-48.59.05-6.92.04-13.82.06-20.73.03-8.81-.32-17.76,0-26.55.16-4.15.73-8.17.48-12.34-.21-3.43-.47-6.83-.5-10.27-.03-3.17-.62-6.27-.64-9.44-.02-4.53.88-8.99.86-13.51-.03-7,.41-13.96.36-20.96s-.17-13.62.27-20.34c.56-8.61.34-17.24.85-25.87.3-5.16.02-10.33.09-15.5.06-4.86-1.34-9.57-1.25-14.38.08-4.51,1.1-8.97.97-13.48-.13-4.79-.24-9.57-.3-14.37-.09-7.54-1.66-15.08-.67-22.54,1.04-7.84-1.29-15.79-1.02-23.68.26-7.73,0-15.09-.71-22.79-.39-4.32-1.85-8.5-1.79-12.88.05-3.45.35-6.99.55-10.43s.87-6.88.92-10.38c.05-2.84-.3-5.64-.48-8.47s.35-5.44-.1-8.21c-.27-1.67-.8-3.11-1.29-4.71-.58-1.9-.53-3.87-1.03-5.84-.14-.18-.28-.14-.41.11"/>
    <path class="cls-2" d="M360.34,756.34c.42-8.2,1.55-16.5,1.5-24.73-.04-5.59.04-11.09.46-16.67.62-8.34.12-16.64.95-24.98.4-4.07,1.11-8.14,1.74-12.18.78-4.97,1.08-10.22,2.47-15.06,2.26-7.88,4.66-15.63,6.14-23.7.89-4.81,2.13-9.56,2.8-14.42s.7-10.2,1.32-15.27c.9-7.32,1.91-14.62,2.84-21.93.47-3.73.26-7.59,1-11.3.32-1.59.15-3.86.68-5.3-.11-.22-.28-.38-.52-.46"/>
    <path class="cls-2" d="M279.61,823.91c-5.21-.86-10.59.14-15.88-.11-4.43-.21-8.74-.85-13.17-.83-4.65.02-9.19,1.19-13.84.49-3.16-.48-6.33-1.05-9.3-2.22-3.8-1.49-7.77-2.45-11.55-4.03-4.02-1.68-7.28-3.72-10.8-6.29-2.6-1.9-5.38-4.61-8.43-5.68-3.48-1.22-7.02-1.49-10.39-3.2s-5.85-3.98-9.2-5.45-7.34-2.47-10.96-3.74c-2.13-.75-4.48-1.21-6.27-2.66s-3.21-3.26-4.88-4.78c-3.67-3.35-8.51-5.4-13.03-7.39-10.34-4.55-19.03-12-28.15-18.61-3.33-2.41-6.37-5.15-9.7-7.55-2.04-1.47-4.29-2.86-6.18-4.53-2.14-1.89-4.29-3.64-6.64-5.28-2.53-1.77-5.37-3-7.43-5.37-3.94-4.55-7.18-9.21-11.73-13.22-1.79-1.58-3.5-3.08-5.44-4.49-1.72-1.25-3.8-2.36-5.06-4.1-3.09-4.27-5.4-9.29-8.86-13.3-2.86-3.31-5.78-6.23-7.02-10.65-.72-2.57-1.11-4.92-2.45-7.35-1.62-2.94-3.57-5.67-5.51-8.4-2.9-4.09-5.16-8.1-7.12-12.65-.95-2.2-2.29-4.19-3.2-6.4-.99-2.41-1.5-4.98-2.43-7.39-.87-2.24-1.11-4.18-2.1-6.37-1.9-4.21-1.95-8.62-3.04-12.98-1.5-6.01-2.21-11.69-2.73-17.85-.86-10.39.25-20.89-.31-31.29-.37-6.94.03-13.75.36-20.68.22-4.57.7-9.29.59-13.86-.1-3.87-.49-7.75-.59-11.63-.1-3.63.12-7.26.02-10.92s-.45-7.44-.54-11.17c-.14-6.45-.48-12.75-1.25-19.15-.64-5.32-.28-10.72-1-16.02s-1.82-10.41-1.85-15.67c-.08-12.55-1.27-25.49.41-37.99.7-5.21.46-10.41.95-15.64.32-3.49,1.49-7.14,1.35-10.65-.1-2.64.02-5.16,0-7.76-.03-1.98-.39-4.02.09-5.93"/>
    <path class="cls-2" d="M30.43,662.91c1.09-5.11,1.92-10.19,2.81-15.28.39-2.21.8-4.42.75-6.68-.15-6.59-2.18-13.26-1.01-19.82.25-1.43.63-2.69.69-4.14.09-2.3-.19-4.46-.38-6.74-.15-1.74-.64-3.37-.61-5.14.03-1.68.2-3.3.32-4.97.15-2.03-.03-4.08-.13-6.11-.11-2.2,0-4.39-.1-6.58-.1-2.49-.65-4.86-1.04-7.3s-.13-4.82-.61-7.25c-.8-3.99-.58-7.96-1.01-11.98-.3-2.85-.71-5.51-.54-8.4.15-2.61-.39-5.13-.61-7.72-.28-3.36-.14-6.62-.07-9.98.03-1.35.16-2.65-.05-3.99-.26-1.62-.89-3.15-1.15-4.78-.44-2.7-.18-5.53-.23-8.26-.06-3.37-.14-6.62.03-9.99.28-5.63,0-11.27-.16-16.91-.2-6.55-1.14-13.03-1.33-19.58-.08-2.59.05-5.16-.08-7.74-.12-2.29-.43-4.53-.64-6.82-.25-2.8,0-5.63-.09-8.44-.14-3.76-.16-7.6-.63-11.33-.28-2.24-.49-4.46-.82-6.69-.27-1.82-.08-3.7-.39-5.5-.17-.97-.61-1.82-.85-2.77-.31-1.18-.17-2.33-.2-3.52-.04-1.71-.29-3.35-.21-5.07.12-2.82-.39-5.71-.48-8.59-.1-3.28-.68-6.44-.55-9.73.11-2.7-1.63-8.65,1.64-10.36.87-.46,2.15-.38,3.12-.46,1.51-.13,3.21.3,4.69.66,1,.25,1.72.52,2.74.21,1.64-.5,2.76-1.73,4.55-1.85,2.09-.13,4.33.33,6.42.44,2.32.13,4.08.46,6.22,1.24,1.21.44,2.79.18,3.92.75s2.66,2.9,3.15,4.13.23,2.9.08,4.21c-.18,1.56-.2,3.11-.27,4.68-.22,4.69.69,9.21,1.17,13.85.2,1.91.25,3.88.51,5.78.22,1.62.92,3.15,1.3,4.73.46,1.96,1.1,3.36,3.18,3.64,1.14.15,2.23.44,3.34.76,2.02.58,3.92.49,5.97.72,1.35.15,2.65.46,4,.62,1.61.19,3.29.07,4.93-.15,3.01-.4,5.87.52,8.84.43.96-.03,2.25-.17,2.84-1.03.81-1.17,0-3.95-.21-5.27-.59-3.51-.74-7.04-.83-10.59-.05-2.26-.54-4.45-.59-6.71-.03-1.32.13-2.55.24-3.88.18-2.1-.17-4.06-.13-6.13.03-1.32.27-2.82.65-4.09.27-.93.6-2.76,1.31-3.48.49-.49,1.36-.65,2.01-.88"/>
    <path class="cls-2" d="M220.76,388.51c-1.82-.86-2.71-1.54-4.46-1.55-.82,0-1.6,0-2.42-.07-1.58-.13-3.04.06-4.6.29-2.28.34-4.25,1.48-6.46,1.94-1.68.35-3.97-.47-5.66-.78-4.1-.74-8.25-1.86-12.37-2.32-3.57-.4-7.07-.72-10.67-.81-1.63-.04-3.26-.66-4.83-.46-1.48.19-2.77.82-4.16,1.28-1.56.52-2.61.59-3.55,2.08-1.44,2.28-2.55,4.84-2.06,7.54s1.16,5.22,1.65,7.83c.54,2.92-.18,6.14.56,8.96.68,2.57.4,5.08.25,7.74-.1,1.77-.02,3.28-.38,5.05-.14.72-.32,1.9-.98,2.33-.55.36-1.79.47-2.42.72-1.1.43-2.03,1.01-3.22,1.11-2.5.21-4.47-1.45-6.81-1.88-.98-.18-1.77-.36-2.69-.79-.57-.27-1.27-.78-1.88-.63-.54.13-1.3,1.02-1.82,1.28-.9.45-2,.7-2.98,1-.86.27-1.9.38-2.68-.2-1.05-.78-.9-2.68-1.12-3.95-.42-2.41-.81-4.58-.74-7.06.11-3.78.77-7.49.56-11.27-.2-3.58-.07-7.14-.22-10.71-.11-2.48.31-4.92-.36-7.32-.23-.81-.25-1.8-.93-2.35-1.04-.84-2.62-.32-3.77-.15-1.63.24-3.04.76-4.65.52-1.82-.27-3.38-.51-5.22-.15s-3.31.06-5.18-.22-3.61.13-5.46.45c-2.99.52-6.25.29-9.26.03-2-.17-3.67.37-5.06,1.8.1-.2.2-.4.29-.6"/>
    <path class="cls-2" d="M25.3,463.61c2.97-.05,5.29-.18,8.09.28.53.09,1.05.22,1.58.28,1.57.18,3.2.09,4.77.09,2.17,0,4.26-.12,6.41-.25,3.29-.2,6.75-.21,10.04-.02,4.86.28,9.81.06,14.63.75,7.21,1.03,13.72,4.9,20.9,6.08,8.02,1.32,16,2.46,24.09,3.22,3.93.37,7.7.76,11.58,1.49,3.55.67,7.34.99,10.97.56,2.6-.31,4.6-.37,7.07.64,2.12.87,4.14,1.98,6.24,2.91,4.86,2.15,10.95,2.28,16.15,1.89,1.82-.14,3.57.25,5.38.34,1.58.09,3.06-.37,4.63-.38,3.94-.03,7.83,1.38,11.78,1.55,2.22.09,4.44.04,6.66.17,2.35.14,4.57.97,6.84,1.5,2.02.47,3.99.24,6.03.48,2.37.29,4.68.84,7.04,1.12,3.34.4,6.66.58,9.85,1.26-.13-.05-.25-.1-.37-.17"/>
    <path class="cls-2" d="M32.65,344.6c-.71,3.55.18,7.46.59,11.06.47,4.08.82,8.27,1.75,12.28.41,1.8.57,3.71.84,5.53s.94,3.58,1.39,5.4c.25,1.03.45,2.08.52,3.12.04.55-.09,1.05,0,1.57"/>
    <path class="cls-2" d="M197.29,363.66c.33,2.63.76,5.26,1.05,7.89.16,1.44.53,2.72.77,4.14.38,2.34.15,4.79.41,7.14.15,1.32.5,2.59.62,3.89.05.5.23,2.07.22,2.07"/>
    <path class="cls-2" d="M15.04,383.67c-.02-4.25-.18-8.47-.4-12.71-.19-3.51-.81-6.97-.89-10.5-.13-6.16-.24-12.34-.47-18.5-.16-4.33.08-8.65.11-12.98.03-4.74-.1-9.48-.12-14.22-.02-4.31.1-8.64.15-12.95.03-2.37.24-4.71.13-7.08-.12-2.51-.28-5-.22-7.52.15-7.42.09-14.79-.36-22.2-.29-4.8-.75-9.63-.45-14.44.1-1.53.13-3.08.49-4.59.09-.37.31-.75.38-1.12s-.02-.73.05-1.13"/>
    <path class="cls-2" d="M13.39,244.24c.97-3.83,1.6-7.18,4.69-9.66.6-.49,1.21-.94,1.72-1.52.45-.53.61-.94-6.4,11.18Z"/>
    <path class="cls-2" d="M555.31,242.53c-2.57-1.16-4.37-2.04-6.98-2.44-.98-.15-1.96-.41-2.91-.69-3.51-1.04-6.89-2.48-10.36-3.65-1.98-.67-4.07-1.26-5.96-2.14-1.45-.68-3.02-1.01-4.4-1.76-1.73-.95-3.38-1.62-5.35-1.9s-3.84.3-5.82-.08c-2.48-.48-4.83-1.47-7.17-2.41-2.66-1.07-5.25-2.18-7.95-3.15-6-2.17-12.2-4.54-18.43-5.97-2.62-.6-4.92-.74-7.34-2-1.37-.72-2.6-1.41-4.12-1.73-1.7-.36-3.4-.62-5.09-1.06-2.67-.69-5.41-1.3-8.14-1.66-3.51-.46-6.79-1.88-10.3-2.34-4.6-.61-9.04-1.7-13.51-2.8-1.09-.27-2.17-.49-3.29-.65-.66-.1-1.57-.04-2.06-.6"/>
    <path class="cls-2" d="M380.99,432.19c-13.86,1.86-27.18.14-41.08-1.43-9.06-1.03-18.36-2.25-27.09-4.95-4.37-1.36-8.81-2.93-13.38-3.45-5.79-.66-11.61-1.03-17.37-1.92-4.87-.75-9.6-.99-14.52-1.21-4.06-.18-8.14-.92-12.2-1.34-5.3-.55-10.13.67-15.29,1.72-2.21.45-4.85,1.26-7.13.99-1.49-.17-2.76-.95-4.22-1.26-.86-.18-5.38-.67-5.4-.09"/>
    <path class="cls-2" d="M385.3,402.14c-4.07-.46-8.34-.71-12.35-1.7-2.2-.55-4.32-1.33-6.54-1.79-4.67-.98-9.37-2.01-14.09-2.68-6.16-.86-11.98-3.05-18.21-3.55-2.55-.2-5.2-.58-7.74-.38-3.45.28-6.34.55-9.87.32-3.72-.24-7.1.32-10.76.51-4.48.23-8.81-.05-13.28-.34-9.92-.66-19.67-2.58-29.55-3.62-3.85-.4-7.6-.22-11.43-.49s-6.89-.46-10.68-.09-7.63.33-11.36.88c-2.31.34-5.63-.34-7.62,1.15"/>
    <path class="cls-2" d="M374.24,639.01c-3.6-1.07-7.35-2.46-11.11-2.94-1.37-.17-2.67-.17-4.03-.54-2.63-.71-5.04-1.67-7.75-2.14-2.5-.43-4.9-.49-7.41-.61-3.29-.17-6.51-.88-9.83-.91-6.84-.06-13.69.88-20.52,1.01-7.65.15-15.29,1.4-22.94.86-4.06-.29-8.06.27-12.11.03-3.75-.23-7.34-.92-11.12-.81-7.77.23-15.76-.19-23.41,1.52-4.59,1.02-8.95,1.65-13.66,1.1-1.31-.15-3.2-.28-4.42.32"/>
    <path class="cls-2" d="M227.38,694.36c5.59-1.09,11.08-2.06,16.74-2.57,2.53-.23,5.09.36,7.62.66,5.62.68,11.15,2.24,16.81,2.45,6.64.25,13.29-1.24,19.96-1.15,3.18.05,5.61-.25,8.61-1.3s4.53-1.31,7.6-.82c7.22,1.15,14.41.44,21.7.95,5.43.38,10.82.21,16.23-.21,4.49-.35,9.1-.74,13.61-.49,2.04.12,4.33.08,6.25.91"/>
    <path class="cls-2" d="M370.34,652.37c-8.52,1.97-17.14,3.54-25.48,6.15-4.8,1.5-9.4,3.78-14,5.86-3.44,1.55-6.9,3.28-10.22,5-1.31.68-2.8,1.14-3.53,2.42"/>
    <path class="cls-2" d="M268.32,671.44c-4.89-1.84-9.77-3.83-14.74-5.47-2.71-.9-5.53-1.18-8.34-1.64-3.51-.57-6.76-1.47-9.9-3.19-2.03-1.11-3.95-2.37-5.98-3.34-1.12-.54-3.06-1.21-3.85-2.07"/>
    <path class="cls-2" d="M267.06,696.1c.39-3.04,1.58-8.1,1.51-11.64-.02-.99-.68-1.86-.69-2.79,0-1.33.97-2.86,1.31-4.11.49-1.81,1.01-4.26.82-6.13-.14-1.38-.25-1.49.71-2.6s2.3-2.04,3.64-2.7c3.58-1.77,8.95-2.01,12.87-1.89,2.65.08,5.04.29,7.65-.24s5.13-.94,7.67-1.27c3.88-.5,8.11-.72,11.24,1.84,1.43,1.17,2.13,1.68,2.59,3.47s1.15,3.4,1.77,5.09c.43,1.17.79,2.37,1.36,3.51.69,1.39,1.96,2.23,2.75,3.51s1.08,2.67,1.62,4.02c.76,1.91,2.44,3.06,3.52,4.77.74,1.19,1.29,2.45,2.14,3.57"/>
    <path class="cls-2" d="M74.94,725.71c.94-7.65,1.15-18.1,7.58-23.62,1.42-1.22,3.12-1.61,4.97-1.57,1.37.03,2.56.2,3.96.1s2.77.07,4.06.38c1.12.27,2.85.78,3.59,1.78.77,1.05.72,3.67.72,5,0,2.4-1.98,4.29-2.28,6.71-.23,1.85-.18,3.73-.41,5.58-.25,2.09-1.03,4.04-1.66,6.04-1.12,3.58-2.48,7.1-3.68,10.66-.41,1.2-.9,2.44-1.1,3.7-.12.75-.07,1.79-.42,2.42-.06-.17,0-.32-15.32-17.19Z"/>
    <path class="cls-2" d="M124.71,768.06c.2-10.25.87-20.35,1.93-30.53.34-3.33.47-6.57,1.35-9.81s1.63-6.52,2.6-9.77c.73-2.45,1.12-5.33,3.79-6.14,2.23-.68,4.87-.26,7.07.35,1.74.48,3.28,2.19,4.5,3.46,1.66,1.73,2.24,3.95,2.48,6.25.61,5.85,1.61,11.44.63,17.33-.96,5.74-.27,11.67-1,17.47-.38,3.05-1.19,6.04-1.57,9.11-.29,2.33-.46,4.59-.87,6.9-.27,1.51-.24,3.07-.37,4.59-.07.77.22,2.01-.21,2.67l-.02-.37"/>
    <path class="cls-2" d="M172.54,795.17c.5-4.92,1.58-10,1.44-14.97-.06-2.22.26-4.27.65-6.44,1.15-6.41,1.96-12.87,3.2-19.27,1.1-5.68,1.28-11.6,1.32-17.37.03-4.45.74-9.29,2.67-13.36.54-1.15,1.31-3.43,2.35-4.13.63-.42,1.69-.31,2.39-.46,1.45-.32,2.58-.25,4.11-.14,2.15.16,4.14.64,6.3.47,1.75-.13,3.65.21,5.37.51,3.03.53,4.4,2.7,4.89,5.61.33,1.94.23,3.9.28,5.85.03,1.4.11,2.81.16,4.21.05,1.53-.31,3.53.26,5.01.49,1.27,1.63,2.31,2.03,3.7.2.68.22,1.47.2,2.17-.06,2.12-.24,4.3-.35,6.42-.35,6.33-.34,12.62-.42,18.97-.12,9.09,1.1,18.15,1.04,27.23-.01,1.87.33,3.7.29,5.58-.04,1.52-.3,3.02-.35,4.53-.07,2.16.4,4.4.26,6.54-.28-.12-.27-.38-.26-.72"/>
    <path class="cls-2" d="M278.05,823.94c-.54-4.42-.74-9-1.61-13.38-.71-3.55-.65-7.14-1.01-10.73-.24-2.45-.63-4.94-.67-7.4-.05-3.24-.03-6.49-.04-9.73,0-1.34.06-2.68.02-4.02-.03-1.22-.23-2.45-.07-3.66s.47-2.47.56-3.73c.12-1.88-.11-3.79-.08-5.68.05-3.72.17-7.41.04-11.12s.35-7.65.09-11.52c-.17-2.57.21-5.11.2-7.68,0-1.7-.01-3.37.08-5.07.07-1.35.31-2.86,1.28-3.9.67-.71,1.79-1.19,2.63-1.7,1.7-1.04,3.66-2.25,5.55-2.88,2.09-.7,4.48-1.09,6.65-1.47,2.77-.49,5.61-.92,8.41-1.16,1.42-.12,2.76-.54,4.17-.76,1.72-.26,3.41-.82,5.11-1.21,1.57-.36,3.23-.51,4.83-.5,1.14,0,2.02-.07,2.99.5,1.45.86,1.97,2.68,2.15,4.31.49,4.26.08,8.54.5,12.79.52,5.17.87,10.37,1.46,15.54.3,2.62.81,5.23,1.11,7.85s.02,5.29,0,8.03c-.01,2.38-.05,4.78.06,7.16.13,2.77.01,5.55.22,8.31s.34,5.67.42,8.47c.03,1.26,0,2.52,0,3.79,0,1.11.29,2.51-.05,3.58-.4,1.26-1.29,1.71-1.18,3.12.15,1.91.5,3.78.71,5.68.42,3.73.88,7.45,1.23,11.19.12,1.32.86,3.88.13,5.07"/>
    <path class="cls-2" d="M275.12,763.37c-2.2-1.43-4.61-3.29-7.1-4.28-1.15-.46-2.13-.85-3.16-1.58-2.12-1.51-4.34-2.35-5.58-4.77-.71-1.4-1.11-2.87-1.66-4.34-.68-1.82-1.62-3.54-2.18-5.4-.96-3.2-.63-6.56-1.29-9.81-.7-3.48-1.26-6.97-1.87-10.47-.35-2.02-1.18-3.88-1.57-5.89-.24-1.24-.34-2.74-1.16-3.74-1.4-1.71-3.51-1.92-5.57-2.06-1.28-.09-2.45-.6-3.71-.78-1.06-.15-2.15-.12-3.22-.14s-2.17-.25-3.25-.39c-1.25-.16-2.36-.13-3.61,0-.87.08-1.76.23-2.62-.05-.37-.12-1.2-.41-1.4-.61"/>
    <path class="cls-2" d="M322.95,759.9c2.26-1.6,4.61-3.08,6.82-4.68,1.61-1.17,1.36-2.56,1.19-4.41-.52-5.51-.56-10.97-.34-16.5.08-2.05.52-4.06.52-6.12s.12-4.13.57-6.18c.31-1.42.98-2.79,1.58-4.11.44-.97.96-2.11,1.82-2.78.71-.55,1.2-1.13,1.85-1.74s1.44-.81,2.18-1.28c.86-.55,1.49-1.38,2.43-1.84s1.93-.65,2.84-1.06c1.85-.83,4.05-.87,6.06-1.29,1.42-.3,2.9-.68,4.35-.7,1.37-.02,2.73.06,4.09.08,1.08.02,2.17-.02,3.24-.12.13-.01.12-.01-.03,0"/>
    <path class="cls-2" d="M278.22,823.88c-.09,0,4.01-.35,4.45.66.08.18.05.63.03.83-.12,1.03-.17,2.04-.17,3.11,0,1.71-.14,3.17.63,4.68.51,1,1.05,1.64,2.16,2,1.2.38,2.61.36,3.85.46,1.43.12,2.62.69,4,1.03,2.5.61,7.63.99,9.25-1.63.64-1.04.23-2.46.36-3.68.17-1.56.12-3.72,1.16-4.98.9-1.08,2.23-1.63,3.46-2.22,2.03-.99,4.08-1.43,6.28-1.92,1.99-.45,4.42-.46,6.47-.33,2.26.15,4.48.16,6.76.02,1.64-.1,3.11-.55,4.68-1.01s2.3-.41,3.46.51c1.3,1.02,2.37.25,3.65-.37,2.03-.99,4.17-1.67,6.34-2.28,1.87-.52,3.75-.67,5.64-.99,1.16-.2,2.32-.43,3.43-.79s2.4-.49,3.34-1.16c.87-.61,1.37-1.65,2.14-2.37.96-.9,2.3-1.05,3.56-1.39,5.12-1.37,10.38-2.28,15.46-3.78,1.24-.37,2.46-.82,3.67-1.28,1.83-.7,3.74-1.26,5.54-2.03,3.24-1.39,6.4-2.86,9.55-4.44,2.46-1.23,5.01-2.31,7.42-3.64,2.12-1.17,3.82-2.89,5.86-4.15,4.81-2.97,10.14-5.59,15.51-7.41,2.83-.96,5.53-2.47,8.27-3.68,3.18-1.4,6.24-2.92,9.32-4.51,1.6-.82,3.2-1.9,4.65-2.95,1.34-.97,2.43-2.24,3.82-3.15,2.23-1.47,4.44-2.93,6.65-4.44,1.66-1.13,3.5-2.18,5.26-3.14,3.36-1.83,6.02-4.44,9.1-6.67,2.87-2.08,5.44-4.38,8.13-6.66,1.28-1.08,2.25-2.49,3.56-3.52,1.17-.93,2.24-1.91,3.36-2.91,2.02-1.78,3.79-3.92,5.96-5.51,1.86-1.37,3.25-3.19,4.89-4.8.68-.67,1.75-1.06,1.96-2.06,0,.09,0,.18,0,.28"/>
    <path class="cls-2" d="M322.63,772.85c1.65.16,3.24.92,4.51-.12.77-.63.8-1.15.8-2.13-.01-1.76.22-3.54.66-5.24.36-1.41.46-2.98.93-4.35.43-1.25,1.28-2,2.57-2.19,1.4-.22,2.75-.17,4.16-.24,1.86-.1,3.68-.47,5.53-.6,2.74-.2,5.58-.37,8.32-.16,2.02.16,4.11.31,6.1-.1,1.46-.3,2.89-.95,4.38-1.09,1.39-.13,2.74.59,4.09.87,3.8.77,7.87-.38,11.7-.38,1.69,0,3.13-.04,4.62.82,2.42,1.4,2.44,4.97,2.44,7.41,0,2.66-.3,5.2-.51,7.83-.09,1.16.09,2.35.02,3.52-.09,1.36-.28,2.47.12,3.81.23.78.44,1.79,1.15,2.29,1.37.97,4.06.48,5.63.48,2.07,0,4.13,0,6.2,0,1.06,0,2.07-.13,3.12-.18.67-.03,1.36.1,2.02-.02.84-.15,1.65-.18,1.78-1.1.28-2.02.08-4.22.19-6.25.11-2.25.12-4.3.76-6.47.51-1.73,1.42-3.95,2.52-5.39.51-.67,1.09-1.17,1.5-1.92.33-.61.57-1.26.9-1.87.81-1.47,1.58-2.68,3.27-3.03,2.29-.47,4.65-.25,6.96-.49,2.94-.31,5.87-.72,8.82-.91,3.53-.23,6.96-1.15,10.52-.84,1.2.1,2.37.28,3.57.3.97.01,2.01,0,2.94.31s1.64.78,2.64.86,2.06.02,3.05,0c.73-.02,1.89-.45,2.57-.03.46.29.53.9.72,1.34.98,2.3.65,4.85,1.08,7.26.25,1.39.7,2.88.04,4.18"/>
    <path class="cls-2" d="M563.75,517.68c-.58,1.21-.92,2.58-1.2,3.86-.6,2.76-.98,5.41-1.22,8.23-.35,4.15-.58,8.29-.81,12.45-.12,2.21.36,4.36.45,6.57.04.93.21,1.85.24,2.77s-.28,1.78-.35,2.69c-.13,1.46.17,2.98.26,4.45.11,1.87.09,3.78,0,5.64-.22,4.51-.6,9.13-.28,13.63.39,5.39-.17,11.11-.83,16.45-.38,3.11-.68,6.2-1.3,9.28-.55,2.73-1.34,5.36-1.61,8.15-.51,5.3-.64,10.83-2.08,15.97-.77,2.77-.93,5.68-1.58,8.49-.69,2.99-1.42,5.96-1.95,8.99s-1.72,6.29-2.6,9.38c-.7,2.47-1.81,4.85-2.95,7.14-3.07,6.17-5.9,12.43-8.96,18.6-2.28,4.6-4.66,9.33-6.45,14.14-1.18,3.15-1.96,6.19-5.04,7.78-1.95,1.01-2.19,2.49-2.41,4.47-.29,2.58-1.4,4.85-2.96,6.89-1.66,2.16-3.71,3.94-5.54,5.95-2.25,2.48-3.95,5.48-6.84,7.22s-5.09,3.82-7.74,4.84c.26-5.2.02-10.49.49-15.68.22-2.48.76-4.7,1.66-7,1.01-2.57,1.41-5.61,1.97-8.33.61-2.92,1.13-6.12,1.23-9.09.29-8.44.1-16.94,1.78-25.26.79-3.88.54-7.63.78-11.54.27-4.37,1.22-8.71,1.58-13.08.35-4.21.5-8.43.73-12.64.18-3.38.79-6.7.84-10.09.02-1.5.08-3,.09-4.5,0-1.63-.42-3.22-.18-4.85.36-2.48.64-4.93.84-7.43.23-2.84.83-5.65.61-8.52-.15-1.93-.54-3.54-.11-5.48.23-1.02.63-2.02.71-3.08.05-.68-.11-1.28.29-1.91"/>
    <path class="cls-2" d="M510.83,622.84c2.36-3.16,5.04-6.17,6.9-9.65.83-1.55,1.89-2.92,3.21-4.07,1.47-1.28,3.26-2.08,5.07-2.69,2.09-.69,3.33-.8,5.53-.48s4.45.73,6.57,1.45c1.96.66,3.64,1.32,5.71,1.59,1.77.23,3.75.49,5.46,1.02,1.57.49,3.09,1.12,4.7,1.56,1.02.28,1.92.77,2.88,1.25"/>
    <path class="cls-2" d="M506.38,669.32c3.77.16,7.22.55,10.87,1.08,1.45.21,2.41.12,3.87-.15,1.17-.21,2.37-.8,3.53-.89,1.03-.08,1.76.39,2.66.81,2.3,1.07,4.91,2.11,7.34,2.86,1.08.33,2.29.33,3.4.54.77.15,2,.51,2.62.35"/>
    <path class="cls-2" d="M525.99,606.58c-.2-6.09-1.71-13.43,1.6-18.98,1.35-2.26,2.76-4.67,3.69-7.16.44-1.18.44-2.42.78-3.61.37-1.29,1.06-2.46,1.67-3.66,1.93-3.83,2.63-8.66,6.4-11.25.85-.58,2.08-.61,3.1-.9,1.12-.31,2.32-.64,3.49-.72,2.56-.16,5.06,0,7.56.54s4.88,1.09,7.31,1.54c.08-.1.05-.18-.11-.23"/>
    <path class="cls-2" d="M379.13,538.32c-.6,1.17-1.26,2.3-1.97,3.41-.68-.21-2.12.96-2.58,1.49-.64.74-.81,1.62-1.06,2.49-.85,2.95.11,6.51.45,9.55.27,2.44.41,4.95.41,7.38,0,1.27.16,2.56.29,3.84.11,1.09-.03,2.79.52,3.76,1.63-.34,2.93-1.47,4.66-.94,3.07.94,6.45,1.42,9.68,1.75,4.88.51,9.77.09,14.48-1.44,1.48-.48,2.32.02,3.69.61,1.29.55,2.71.77,3.96,1.33,1.08.49,1.96,1.31,3.13,1.59,2.87.68,5.84.28,8.73.68,2.01.27,4,.17,6.01.4s4.16.53,6.29.38c2.5-.18,5.05-.06,7.56-.15,3.23-.11,6.49-.2,9.73-.18,4.1.04,8.33.97,12.39,1.52,2.6.35,5.19.81,7.81.95s5.48-.16,8.23-.09c4.08.1,8.32.97,12.27,1.89,3.35.78,6.57,1.63,9.96,2.18,1.41.23,2.49,1.16,3.8,1.66,1.04.4,2.21.37,3.32.46s2.48-.79,3.08-1.82c.46-.79.32-2.15.23-2.99-.19-1.72-.51-3.41-.82-5.11-.58-3.15-.94-6.16-1.21-9.35-.22-2.64.39-5.13.33-7.74-.04-1.73.29-3.06-1.57-3.68-.85-.28-2.37-.72-3.35-.5l.24.06"/>
  </g>
</svg>