<?xml version="1.0" encoding="UTF-8"?>
<svg xmlns="http://www.w3.org/2000/svg" xmlns:xlink="http://www.w3.org/1999/xlink" version="1.1" viewBox="0 0 800 800">
  <defs>
    <style>
      .cls-1 {
        fill: none;
      }

      .cls-2 {
        fill: none;
      }

      .cls-3 {
        clip-path: url(#clippath);
      }
    </style>
    <clipPath id="clippath">
      <rect class="cls-1" x="249.45" y="23" width="317.5" height="718"/>
    </clipPath>
  </defs>
  <!-- Generator: Adobe Illustrator 28.6.0, SVG Export Plug-In . SVG Version: 1.2.0 Build 709)  -->
  <g>
    <g id="Layer_1">
      <g class="cls-3">
        <path class="cls-2" d="M431.12,384.26c.01-.05.03-.1.05-.15.01-.06.02-.11.04-.16-.03.1-.06.2-.09.31"/>
        <path class="cls-2" d="M451.82,152.66s-.02.02-.03.03c.01-.01.02-.02.03-.03"/>
        <path class="cls-2" d="M454.17,140.32s-.02.05-.03.07c-.01.04-.01.08-.02.11.01-.06.03-.12.05-.18"/>
        <path class="cls-2" d="M451.76,137.98s.01-.03.02-.05c.01-.04.02-.09.03-.13-.02.06-.03.12-.05.18"/>
        <path class="cls-2" d="M394.97,174.94h0s-.04-.07-.06-.11c.02.04.04.07.06.11"/>
        <path class="cls-2" d="M454.89,78.08v.05s-.01.08-.01.12c.01-.06.01-.11.01-.17"/>
        <path class="cls-2" d="M420.28,132.55h0v.11-.11"/>
        <path class="cls-2" d="M469.19,53.23c-.25,1.07.44,2.23,1.53,2.46,1.08.23,2.2-.43,2.46-1.53.25-1.06-.44-2.23-1.53-2.46-1.08-.23-2.2.43-2.46,1.53"/>
        <path class="cls-2" d="M448.38,38.73c1.94.41,3.93-.76,4.38-2.73.45-1.9-.78-3.97-2.73-4.38-1.94-.41-3.92.76-4.38,2.73-.44,1.9.78,3.97,2.73,4.38"/>
        <line class="cls-2" x1="358.56" y1="381.35" x2="358.56" y2="381.35"/>
        <line class="cls-2" x1="498.83" y1="395.97" x2="498.83" y2="395.97"/>
        <path d="M519.82,467.44c-.1.3-.2.6-.29.9-.42,1.4-.75,2.78-1.05,4.31-.12.63-.26,1.27-.41,1.94-.15.68-.32,1.4-.51,2.17-.3,1.22-.64,2.45-.99,3.66-.11.29-.23.59-.35.89-.35.88-.73,1.74-1.12,2.61l-.1.24c-.81,1.78-1.64,3.56-2.49,5.33-.63,1.35-1.27,2.71-1.89,4.07-.73,1.59-1.47,3.17-2.26,4.73-.32.66-.68,1.33-1.07,2.04-.4.71-.84,1.46-1.33,2.29-.38.57-.76,1.14-1.16,1.7-.39.54-.8,1.06-1.21,1.59-.91,1.08-1.85,2.14-2.8,3.21-.67.75-1.34,1.51-2,2.28-1.55,1.78-3.08,3.68-4.53,5.64-1.52,2.05-2.86,3.99-4.07,5.92-1.21,1.92-2.44,3.96-3.74,6.23l-.69,1.18c-.96,1.66-1.96,3.38-2.87,5.12-.59,1.16-1.15,2.33-1.67,3.47-.47,1.02-.89,2.09-1.3,3.14l-.07.2c-.88,2.24-1.65,4.55-2.35,6.73-.75,2.35-1.33,4.81-1.83,6.99-.59,2.52-1.13,4.7-1.67,6.69-.49,1.77-1.01,3.54-1.54,5.3l-.41,1.38v.02s-.07.21-.07.21l-.05.12c-.03.09-.06.18-.08.27l-.02.06h.01c-.02.07-.04.14-.06.2h0c-1.2,3.93-2.6,7.72-4.15,11.27-.39.84-.79,1.67-1.23,2.51-.38.72-.79,1.43-1.22,2.13l-.37.57c-.55.83-1.09,1.66-1.66,2.49-.8,1.15-1.61,2.27-2.45,3.39-.22.27-.45.54-.67.8l-.22.27c-.14.18-.28.35-.44.51l-.76.8-.77.81-.26.25c-.73.68-1.45,1.37-2.22,2.02l-.26.23c-.3.26-.6.51-.92.76-.43.33-.87.67-1.31,1l-1.41.95c-.29.2-.58.36-.88.53l-.43.25-.26.13c-.42.23-.85.45-1.29.65-.52.24-1.04.47-1.57.68-1.09.41-2.12.76-3.13,1.06-.49.14-.99.28-1.49.41-.38.09-.75.19-1.13.29h0s-.01.01-.01,0-.01-.01-.01-.01c.43-1.05.85-2.11,1.26-3.18.74-1.88,1.59-3.92,2.68-6.39l.47-.99c.62-1.3,1.26-2.66,1.97-3.94.89-1.6,1.78-3.19,2.72-4.76,1.97-3.31,3.89-6.55,5.68-9.83.54-.99,1.08-1.99,1.62-3,.62-1.15,1.24-2.31,1.87-3.46.57-1.05,1.16-2.09,1.75-3.15.59-1.04,1.18-2.09,1.76-3.15,1.06-1.94,2.08-4.02,3.03-6.17.49-1.12.97-2.27,1.45-3.4,1.95-3.42,3.88-6.92,5.87-10.7,1.07-2.03,2.13-4.09,3.19-6.15.36-.72.72-1.44,1.08-2.17.15-.26.31-.53.46-.8l.26-.46c.57-.99,1.09-2.01,1.6-3.04l.13-.24c.17-.33.32-.68.46-1.03l.23-.53.24-.53c.13-.3.27-.6.39-.9.5-1.19,1-2.4,1.45-3.61.7-1.83,1.38-3.87,2.14-6.38,0,0,.03-.11.05-.16h-.01.01s.01-.03.01-.03c.33-1.11.7-2.34,1.06-3.62.36-1.27.72-2.61,1.03-3.94.49-2.03.87-4.12,1.24-6.14.01-.02.01-.04.01-.06v-.02s.09-.44.09-.44c.19-1.01.39-2.1.58-3.24.21-1.19.42-2.44.6-3.67.14-.89.27-1.79.4-2.7.19-1.3.37-2.61.58-3.9v.08c.02-.1.04-.21.05-.31l.1-.65v.13s-.01-.04,0-.06v-.15c.02-.06.03-.13.04-.19.17-1.04.35-2.08.48-3.14.16-1.23.28-2.47.39-3.71l.05-.52c.08-.8.15-1.61.21-2.43.09-.96.15-1.8.19-2.59.04-.78.06-1.48.05-2.16,0-.98-.76-1.88-1.77-2.1-.07-.01-.15-.03-.23-.03-1.08-.11-2.13.64-2.38,1.7-.09.4-.12.82-.15,1.23l-.03.45c-.04.39-.07.76-.1,1.15-.05.61-.09,1.22-.12,1.83l-.04.62c-.04.65-.09,1.29-.13,1.94-.2,1.65-.43,3.3-.66,4.94l-.18,1.35c-.59,4.27-1.25,8.67-1.96,13.06-.74,4.15-1.5,7.93-2.35,11.55l-.22.93c-.35,1.53-.7,3.07-1.08,4.59-.28,1.1-.57,2.21-.87,3.3-.17.63-.35,1.25-.54,1.87l-.21.69v-.09s0,.06-.01.09c.01-.03.02-.06.03-.1v-.02c-.1.31-.21.62-.31.92-.42,1.31-.88,2.61-1.34,3.9-.47,1.27-1.02,2.55-1.54,3.77l-.21.47c-.96,2.03-1.94,4.05-2.95,6.06-.26.52-.52,1.05-.78,1.57-.63,1.02-1.25,2.05-1.87,3.08-.85,1.41-1.66,3-2.54,4.99-.28.63-.55,1.26-.82,1.89-.01,0-.09.16-.09.16-1.04,1.89-2.16,3.8-3.16,5.47-.92,1.5-1.98,3.21-3.1,4.85l-1.05,1.51c-.71,1.04-1.43,2.08-2.13,3.15-1.09,1.65-2.15,3.33-3.21,5.01-.9,1.45-1.77,2.93-2.66,4.4l-.1.18c-2.46,4.13-5,8.41-7.14,12.81-.81,1.66-1.58,3.36-2.35,5.13-.76,1.76-1.5,3.61-2.24,5.54,0-.02.01-.03.01-.05h-.01c.03-.34.04-.69.06-1.04.07-1.41.17-2.81.27-4.21l.06-.82c.17-2.25.34-4.48.47-6.74.07-1.12.14-2.3.19-3.53.06-1.23.11-2.52.16-3.89.15-4.62.23-9.32.31-13.87v-.45l.02-.47c.05-1.6.11-3.27.25-4.89.1-1.02.21-2.03.33-3.04.08-.63.17-1.26.28-1.9l.07-.53c.23-1.25.47-2.5.72-3.74.24-1.11.55-2.24.85-3.31l.05-.18s.01.02.01.03h0s0,.01-.01.02c.03-.09.06-.19.09-.28.25-.83.53-1.64.83-2.47.33-.88.68-1.73,1.04-2.61l.05-.08s.02-.04.03-.06h0s.03-.06.04-.09c.05-.13.11-.26.16-.39l.13-.28.06-.14s.03-.07.04-.07c0,.01.01,0,.01,0,0-.02.01-.03.01-.04h0s.03-.04.04-.08c.03-.11.09-.24.15-.36l.08-.17.12-.27h-.01c1.01-2.22,2.16-4.43,3.27-6.58l.14-.25.65-1.27c.93-1.78,1.85-3.56,2.76-5.35.34-.68.68-1.36,1.01-2.04.69-1.4,1.39-2.8,2.11-4.18.83-1.57,1.7-3.13,2.59-4.67l1-1.77c1.25-2.27,2.33-4.58,3.11-6.34.74-1.62,1.42-3.35,2.08-5.02l.36-.9c.79-1.96,1.59-3.91,2.42-5.85.36-.87.74-1.73,1.11-2.61.52-1.21,1.04-2.44,1.54-3.66.91-2.2,1.8-4.4,2.7-6.6.8-1.96,1.62-3.91,2.45-5.85,1.03-2.44,2.1-4.96,3.11-7.46l1.09-2.72c1.45-3.59,2.96-7.3,4.19-11.04.81-2.46,1.48-4.76,2.05-7.05l.29-1.16c.19-.77.38-1.54.58-2.31.31-1.16.63-2.32.97-3.47v.03h0c.05-.13.09-.27.14-.41.35-1.12.73-2.27,1.14-3.37l.62-1.68c.3-.79.59-1.58.88-2.38l.08-.22c.44-1.21.89-2.46,1.31-3.71.43-1.25.82-2.52,1.15-3.79.62-2.37,1.13-4.73,1.59-6.94l.56-2.62c.31-1.46.63-2.92.92-4.38.39-1.9.68-3.86.97-5.73l.12-.86c.37-2.44.75-4.87,1.15-7.3-.01.02-.02.12-.03.14t.01-.02s0-.04.01-.06c-.01.02-.01.03-.01.05.19-1.08.38-2.13.68-3.17.02-.07.04-.14.07-.21,0,0,.01,0,.01.01h0s.03.02.06.04c.11.09.22.19.32.3l-.06-.06c.09.1.18.2.27.29.49.54.93,1.12,1.34,1.66l-.09-.13.16.23c.89,1.22,1.82,2.5,2.66,3.78.39.61.79,1.24,1.2,1.94.42.7.85,1.47,1.34,2.35.99,1.86,1.96,3.69,2.83,5.58.92,2.01,1.78,4.04,2.56,6.01v-.02l.06.15s-.04-.09-.06-.13c.68,1.77,1.24,3.45,1.73,5.09.45,1.51.83,3.08,1.2,4.59l.06.24c.45,1.83.87,3.68,1.27,5.53l.14.62c.35,1.59.69,3.19.99,4.79.63,3.41,1.16,7.11,1.62,11.3.14,1.51.27,2.91.39,4.22.11,1.31.21,2.55.3,3.75l.04.49c.1,1.25.19,2.5.25,3.75.03.56.05,1.14.06,1.76.01.63.01,1.31,0,2.07v.21c-.04.78-.07,1.59-.16,2.39-.07.66-.15,1.32-.24,1.98-.01.02-.02.05-.03.08M508.62,505.9c-.6,2.05-1.21,4.12-1.82,6.18-1.89,6.06-3.84,12.35-6.48,18.42-.66,1.39-1.31,2.79-2,4.16-.68,1.35-1.37,2.71-2.02,4.07-.36.74-.7,1.48-1.02,2.22-.97,2.22-1.79,4.36-2.44,6.09l-.43,1.15c-.46,1.25-.92,2.5-1.41,3.74-.62,1.57-1.25,3.14-1.89,4.7-1.31,3.2-2.68,6.51-4.09,9.81-1.03,2.25-1.85,3.95-2.69,5.52-1.05,2.01-2.08,3.99-3.22,5.85l-.55.91-.27.44s-.05.07-.05.06h-.01s-.01.03-.02.05c0-.01.01-.02.02-.04l-.02.02s-.02.02-.02.04c-.07.12-.19.3-.3.49-.22.33-.43.66-.66.98l-.38.52c-.21.3-.43.6-.65.89-.76.94-1.59,1.94-2.51,2.91-.58.61-1.16,1.21-1.74,1.81l-.87.9-1.53,1.62c-1.29,1.35-2.64,2.77-4,4.11-2.61,2.48-4.79,4.45-6.88,6.18t-.01,0s0-.01,0-.02l.77-.72.57-.53c.82-.77,1.59-1.56,2.29-2.37l.34-.38c.32-.36.64-.73.94-1.11l.51-.67.77-.99c.61-.79,1.18-1.61,1.75-2.43l.38-.54.11-.15c.61-.87,1.24-1.76,1.77-2.7.69-1.21,1.22-2.25,1.69-3.25,1.08-2.29,1.97-4.62,2.79-6.82.73-1.95,1.44-4.1,2.25-6.77.65-2.15,1.32-4.39,1.91-6.63.56-2.09,1.07-4.27,1.57-6.64.54-2.56,1.09-4.82,1.68-6.93,1.04-3.31,2.23-6.52,3.54-9.56l-.03.11s.03-.07.05-.1c-.02.03-.03.07-.05.1v.02c.44-.97.91-1.94,1.4-2.9.42-.83.89-1.66,1.34-2.5.32-.58.63-1.18.96-1.77,1.06-1.89,2.17-3.8,3.37-5.8,1.43-2.32,2.6-4.08,3.75-5.71,1.08-1.51,2.27-3.08,3.74-4.9l.35-.42.35-.42c1.45-1.75,3.02-3.45,4.53-5.09l.36-.38c1.34-1.46,2.9-3.21,4.25-5.1v.03s.01-.02.01-.02c-.01.03-.02.07-.03.1l-.02.11ZM439.65,609.04c.05-.13.09-.26.13-.39.01-.05.03-.1.04-.15.01,0,.02.01.03.01.1.03.2.06.3.08.31.07.62,0,.94-.04-.48.17-.96.33-1.44.49M402.17,612.55l-1.62,1.04c-2.08,1.32-4.25,2.69-6.31,4.12-1.24.85-2.66,1.82-3.99,2.87-1.45,1.13-2.75,2.2-3.98,3.26-2,1.69-3.92,3.57-5.76,5.38l-1.37,1.33.09-.08h-.01.01l-.27.25.1-.09-.24.24-.19.17-.96.93-.28.26c-1.24,1.17-2.51,2.29-3.47,3.13-.69.6-1.41,1.17-2.13,1.73-.46.36-.92.72-1.37,1.1-1.22,1-2.53,2.09-3.73,3.29-1.12,1.11-2.23,2.33-3.3,3.61-.47.58-.95,1.15-1.43,1.73l-.14.16c-.83.98-1.67,1.99-2.62,2.9-.32.29-.67.59-1.03.86-.1.07-.21.13-.31.19l-.21.09-.12.04c-.15.04-.25.07-.34.07-.05,0-.1,0-.15.01h-.09s-.09-.05-.09-.05l-.08-.06h-.04l-.1-.1-.11-.11c-.06-.08-.11-.16-.16-.24-.14-.28-.25-.56-.37-.85-.24-.68-.44-1.35-.63-2.05-.24-1.01-.41-1.91-.54-2.78-.14-.9-.24-1.81-.33-2.73-.12-1.39-.21-2.72-.26-4.06-.03-1.02-.02-2.04,0-3.07v-.75s.02-.01.02-.02,0-.02-.01-.03h.01c0-.14.01-.27.01-.41v-.54s.04-.97.04-.97c.02-.81.05-1.73.1-2.65.14-3.34.37-6.78.67-10.23.26-2.82.65-5.87,1.22-9.36.37-1.95.75-3.98,1.24-5.92.1-.36.18-.71.26-1.06.16-.65.33-1.31.51-1.96l.27-.93c.22-.74.44-1.48.64-2.23.34-1.03.66-1.99.97-2.96.2-.59.42-1.18.65-1.76l.18-.48c.64-1.71,1.34-3.38,2-4.92,1.02-2.11,2.08-4.22,3.15-6.32.28-.56.57-1.11.86-1.67l.53-1.01.49-.93.49-.94.35-.67c.29-.55.58-1.11.89-1.66.17-.28.37-.56.57-.82.31-.35.64-.67.97-1,.19-.19.39-.38.59-.58l.5-.52.5-.52.38-.4,1-1.03.81-.83c1.17-1.21,2.4-2.48,3.64-3.67.68-.66,1.49-1.42,2.33-2.13.83-.7,1.68-1.35,2.49-1.96,1.15-.83,2.37-1.71,3.6-2.58.5-.12.99-.21,1.49-.31.61-.12,1.21-.24,1.81-.39.81-.19,1.56-.5,2.2-.77.48-.19.96-.39,1.44-.6l.79-.33c.59-.23,1.17-.47,1.75-.7.54-.17,1.08-.33,1.63-.47,1.02-.24,2.02-.41,3.06-.54.44-.03.87-.05,1.29-.06h-.01s-.15.13-.15.13l-.22.17c-.53.37-1.04.76-1.56,1.16-1.01.76-2.01,1.56-3.18,2.55-.94.78-1.86,1.62-2.82,2.57l-.12.12c-.39.39-.77.77-1.14,1.16l-.73.78-.27.29-.13.14c-.12.12-.23.24-.33.37l-.49.6-.52.64-.23.28c-.2.23-.4.47-.58.71l-.52.73-.52.72-.21.28c-.19.25-.38.51-.55.78l-.43.67c-.54.83-1.08,1.66-1.59,2.52-.73,1.22-1.46,2.47-2.18,3.71l-.65,1.14c-1.06,1.83-2.15,3.73-3.28,5.57l-.59.94c-.36.57-.72,1.15-1.08,1.73l.09-.15-.28.44c-.43.69-.87,1.37-1.29,2.07-.69,1.13-1.32,2.15-1.9,3.22l-.29.52c-.22.4-.45.81-.66,1.22-.35.69-.69,1.38-1.04,2.06-.22.47-.43.92-.62,1.39l-.28.63-.27.64-.1.22c-.07.16-.14.31-.19.46l-.28.72c-.33.87-.66,1.75-.94,2.65l-.45,1.43-.08.23c-.05.16-.1.32-.15.49-.19.68-.38,1.37-.57,2.05l-.03.13c-.3,1.05-.58,2.22-.88,3.56-.29,1.29-.59,2.64-.82,3.96-.12.69-.24,1.37-.34,2.05-.11.64-.18,1.28-.26,1.92l-.07.58c.21-1.07.42-2.02.64-2.93.13-.51.27-1.01.41-1.52l.14-.51c.3-.94.6-1.9.93-2.87.36-1.05.74-2.09,1.12-3.14.71-1.91,1.51-3.8,2.22-5.39l.43-.88c.22-.46.44-.92.67-1.38.2-.42.42-.83.64-1.24l.25-.47.1-.19c.26-.48.51-.96.8-1.42l.61-1.04.62-1.04,1.44-2.36.08-.12c1-1.56,2-3.13,2.98-4.71v.03s.01-.02.01-.03c0,.01-.01.02-.02.03h0c.16-.24.31-.49.47-.74.52-.86,1.05-1.72,1.57-2.6.73-1.22,1.44-2.46,2.14-3.7.68-1.21,1.36-2.42,2.04-3.64l.8-1.39.28-.48c.22-.4.45-.8.69-1.2l-.03.07c.08-.13.16-.26.24-.39.45-.74.91-1.48,1.36-2.22l.93-1.34.76-1.11c.17-.24.35-.47.52-.7l.29-.37.28-.36.56-.72.61-.73.96-1.11c.33-.4.68-.78,1.03-1.16l.52-.57c.33-.37.69-.73,1.04-1.09l.5-.51c.39-.4.79-.79,1.18-1.19l.29-.27.32-.31c.62-.58,1.24-1.17,1.88-1.74.82-.74,1.64-1.43,2.46-2.04l.13-.1c.58.06,1.13.13,1.7.2l.42.09c.43.1.85.19,1.27.29.61.2,1.18.41,1.75.65.33.18.66.35.98.54.42.27.83.56,1.22.86.79.66,1.54,1.36,2.32,2.16h0s0-.01,0,0l-.09-.09c.21.23.42.45.63.68s.41.45.61.68c.14.15.27.29.4.44.42.48.81.94,1.15,1.33.88,1.03,1.87,2.21,2.81,3.41.71.99,1.35,2,1.98,3.09.81,1.54,1.59,3.1,2.38,4.65l.61,1.22c1.14,2.25,2.02,4.15,2.79,6,.21.56.43,1.13.62,1.72.16.47.29.94.43,1.41l.07.24c.15.68.28,1.35.39,2.04.05.58.08,1.16.1,1.74-.04.99-.13,1.94-.27,2.9-.08.42-.17.83-.28,1.24-.11.31-.22.61-.34.91-.15.28-.29.54-.44.8-.34.52-.71,1.03-1.09,1.52-.32.36-.63.71-.97,1.04-.61.55-1.25,1.08-1.9,1.59-1.46,1.06-3.01,2.05-4.51,3.02-.76.49-1.53.98-2.29,1.48-1.53,1.01-3.06,2.1-4.54,3.16-.81.58-1.62,1.16-2.45,1.73-2.74,1.9-5.59,3.74-8.05,5.29M369.22,435.78h-.01c-.82-.74-1.63-1.49-2.44-2.28-.81-.86-1.6-1.74-2.4-2.62l-1.04-1.15c-.67-.74-1.36-1.45-2.06-2.16-.25-.26-.55-.55-.87-.85-.32-.3-.68-.61-1.04-.89l-.5-.39c-.5-.39-1.01-.8-1.54-1.15-.83-.56-1.65-1.09-2.51-1.6-.97-.58-1.94-1.16-2.92-1.74l-1.55-.92c-1.73-1.11-3.3-2.11-4.83-3.23l-.47-.34c-1.6-1.16-3.21-2.32-4.83-3.43-1.02-.7-2.05-1.39-3.09-2.08-.76-.51-1.52-1.02-2.29-1.53-1.51-1.03-2.92-2.1-4.59-3.4-.84-.69-1.59-1.31-2.32-1.97-1.51-1.37-3.01-2.83-4.44-4.23l-1.55-1.51c-2.13-2.06-4.38-4.11-6.68-6.06l-1.84-1.56c-1.6-1.36-3.22-2.72-4.8-4.1-1.96-1.69-3.83-3.55-5.63-5.33l-.29-.3-.76-.8c-1-1.06-2.02-2.14-2.99-3.28-1.18-1.4-2.44-2.96-3.96-4.88l.08.11c-.24-.34-.49-.68-.75-1.02-.48-.66-.96-1.32-1.41-2l-.26-.38c-.66-1-1.31-1.99-1.96-3-1.86-2.93-3.45-5.29-4.97-7.46-.71-1.01-1.44-2-2.16-3-.85-1.17-1.7-2.34-2.54-3.52-1.72-2.47-3.46-4.92-5.22-7.36-.94-1.29-1.9-2.59-2.88-3.87-.61-.81-1.22-1.63-1.83-2.46l-.95-1.46-.96-1.45-1.1-2.04-.52-.94c-.32-.59-.59-1.21-.85-1.81l-.25-.55c-.78-1.74-1.48-3.49-2.17-5.27-.01,0-.02-.05-.03-.07,0-.02-.01-.04-.02-.06.01.01.02.03.02.04-.06-.19-.13-.37-.19-.56-.38-1.03-.75-2.11-1.13-3.21-.8-2.31-1.6-4.62-2.44-6.93-.99-2.71-2.11-5.4-3.21-8.02l-.82-1.96-.05-.14c-.5-1.4-1.02-2.86-1.4-4.33h.01s-.01-.04-.01-.06c.09.02.17.03.26.04h.05l.31.05c.33.06.66.12.98.19.36.07.71.16,1.07.25.53.18,1.04.37,1.55.58.58.29,1.15.58,1.7.89.89.56,1.81,1.22,2.92,2.09l1.33,1.09c1.65,1.35,3.36,2.75,5.15,3.98,1.08.74,2.2,1.44,3.31,2.14l.3.19c1.29.82,2.57,1.61,3.86,2.24l.38.18c1.18.58,2.42,1.17,3.67,1.63,1.51.55,2.77.97,3.94,1.33.43.14.86.26,1.29.39.94.27,1.89.55,2.82.87,1.25.44,2.56.94,3.96,1.51l.37.16.36.16-.07-.02s.01.01.02.01c.06.02.12.05.18.08l.16.08h.01s.33.14.33.14c1.64.85,3.15,1.63,4.56,2.4,1.41.75,2.74,1.47,4.01,2.19l.61.37.76.46c.99.7,1.95,1.4,2.92,2.14.04.04.09.08.13.11,1.16,1,2.31,2.04,3.44,3.08.96.88,1.92,1.77,2.92,2.64.8.71,1.6,1.4,2.42,2.1,1.23,1.06,2.46,2.12,3.67,3.21,4.42,3.98,8.4,7.6,12.19,11.5.94.99,1.87,1.99,2.79,3.02.78.87,1.51,1.82,2.22,2.74l.16.2c2.46,3.42,4.52,6.54,6.3,9.59.6,1.1,1.18,2.22,1.75,3.34,1,1.93,2.04,3.95,3.2,5.83.58.95,1.19,1.88,1.79,2.83.33.5.66,1.01.99,1.52.94,1.48,1.83,2.98,2.74,4.56.89,1.74,1.75,3.5,2.63,5.25l1.1,2.24c.55,1.12,1.13,2.23,1.72,3.34.65,1.24,1.31,2.49,1.92,3.75.55,1.12,1.08,2.26,1.61,3.38.63,1.33,1.26,2.66,1.9,3.97l.21.43c1.06,2.18,2.15,4.44,3.12,6.72.46,1.22.9,2.44,1.32,3.67.33.96.62,1.96.88,2.94l.28.96c.58,1.99,1.12,4,1.66,6l.52,1.91s0-.05-.01-.08l.04.17-.03-.09c.05.17.08.35.1.53l.07.75.07.91s-.01-.01-.02-.02c.01.02.01.04.01.06-.05-.08-.09-.17-.14-.25-.18-.24-.34-.48-.51-.73l-.9-1.32-.91-1.32c-.56-.82-1.07-1.69-1.57-2.54-.59-1.08-1.15-2.17-1.71-3.28l-.53-1.03c-.95-1.86-1.88-3.56-2.85-5.2-1.24-2.13-2.68-4.2-4.06-6.19-.52-.74-1.03-1.48-1.54-2.23l-1.37-2.04c-.83-1.21-1.65-2.44-2.49-3.65-1.39-2.03-2.86-3.99-3.98-5.47-1.44-1.91-2.93-3.77-4.06-5.17-1.18-1.46-2.44-3.08-3.83-4.94l-.14-.18-.06-.11c-.11-.15-.22-.3-.33-.45l-.27-.34c-1.06-1.47-2.17-3-3.39-4.39-1.46-1.69-3.02-3.39-4.75-5.18l.12.11s-.08-.08-.12-.12c.04.05.09.09.13.13l.02.02c-.08-.08-.15-.16-.23-.24l-.38-.38-.69-.73c-1.33-1.39-2.73-2.99-4.36-4.99-.51-.63-1.02-1.27-1.52-1.9-.8-1.01-1.6-2.01-2.45-3-1.4-1.64-3-3.35-4.87-5.21-.65-.63-1.31-1.25-1.97-1.85l-.52-.49c-.54-.49-1.05-1-1.57-1.5l-.64-.63-.96-1.04-.35-.37c-.22-.23-.45-.46-.65-.71l-.7-.85-1.4-1.7c-.66-.92-1.32-1.84-1.97-2.77l-.29-.41c-.18-.25-.34-.51-.5-.77-.18-.29-.36-.58-.56-.85-.21-.28-.43-.53-.69-.75-.16-.14-.34-.27-.51-.39-.14-.1-.27-.2-.4-.31l-.65-.51h.01c-.11-.09-.21-.18-.31-.26-.62-.51-1.22-1.03-1.82-1.55-.94-.82-1.88-1.63-2.86-2.42-.88-.73-1.69-1.57-2.48-2.39l-.6-.62c-.68-.72-1.34-1.42-2-2.12l-.2-.21c-.22-.24-.44-.48-.67-.7-.07-.07-.15-.14-.22-.22-.18-.17-.35-.35-.56-.48-.19-.11-.36-.2-.56-.27-.35,0-.4.32-.43.53-.07.57.43,1.03.83,1.4.09.08.17.16.24.23,1.24,1.38,2.48,2.8,3.7,4.21.17.19.32.38.49.58.26.32.53.65.82.95.29.29.58.58.88.86.22.21.44.41.65.63l.65.65c.49.48.97.96,1.45,1.45.43.45.9.94,1.36,1.42l.24.26c.37.4.77.82,1.11,1.26l.22.34.23.43c.23.43.46.87.72,1.29l.53.83.53.83.29.44c.37.59.74,1.18,1.14,1.75l.51.73c.41.6.83,1.2,1.27,1.78.21.27.41.54.61.81.39.52.78,1.05,1.2,1.55l.58.7c.41.5.83,1,1.27,1.49l.64.71c.45.49.89.98,1.32,1.49l.62.73c.42.49.84.98,1.24,1.48.19.25.4.5.61.75.38.47.77.94,1.13,1.42,1.11,1.52,2.26,3.13,3.39,4.73l.52.74c.55.77,1.14,1.6,1.78,2.46.63.85,1.31,1.71,2.02,2.56.77.92,1.57,1.82,2.37,2.73.25.27.51.55.76.82.36.39.71.77,1.06,1.17.76.87,1.51,1.74,2.25,2.64.62.76,1.21,1.54,1.79,2.33.64.9,1.27,1.81,1.89,2.73.7,1.01,1.39,2.02,2.1,3.03,1.03,1.47,2.11,2.93,3.19,4.38l.83,1.11.13.17.51.71.59.82c1.37,1.91,2.67,3.76,3.89,5.55,1.23,1.79,2.41,3.55,3.53,5.28.77,1.19,1.56,2.39,2.35,3.57l1.41,2.13c1.05,1.6,2.09,3.32,3.21,5.25.61,1.13,1.18,2.29,1.77,3.43.94,1.84,1.91,3.75,2.96,5.58.77,1.36,1.68,2.69,2.57,3.95l.12.17c.7,1.02,1.4,2.07,2.04,3.13.01.01,0,.01,0,.02h-.01M399.56,380.05h0c-.31-.29-.63-.56-.95-.82-.82-.65-1.59-1.15-2.35-1.52-.64-.31-1.27-.61-1.92-.88-.98-.4-1.99-.74-2.98-1.08l-.75-.25c-.74-.26-1.52-.53-2.33-.83-.79-.3-1.6-.62-2.4-.98.02.01.03.02.05.02-.03-.01-.05-.02-.05-.02h.01c-.83-.38-1.63-.8-2.41-1.26-.7-.43-1.39-.92-2.06-1.46l.07.04s-.04-.03-.06-.05c.02.02.05.04.07.06h.01c-.13-.11-.26-.22-.39-.33-.1-.08-.16-.15-.25-.24-.47-.41-.9-.82-1.24-1.18.01.01.01.02.02.02l-.11-.11s.06.06.09.09c-.38-.39-.74-.8-1.09-1.21l-.45-.52c-.77-.86-1.44-1.69-2.07-2.54l-.57-.77c-.12-.18-.25-.36-.36-.54t.02.01h-.01c.19.05.38.12.56.2.75.27,1.48.58,2.18.88.92.43,1.83.88,2.74,1.34.94.48,1.87,1,2.8,1.52,1.54.87,2.96,1.73,4.37,2.59l.9.55.11.07c.89.55,1.78,1.1,2.68,1.65.56.35,1.04.68,1.51,1,.34.23.67.46.99.68.25.16.49.34.72.52l.38.29.31.23c.28.2.56.4.83.62.72.58,1.44,1.17,2.14,1.8l.7.64v.02s.55,1.74.55,1.74c0,0,0,.01-.01.01t-.01,0M395.83,355.69l-.03-.28-.04-.28c-.2-1.4-.35-2.82-.51-4.24l-.06-.54c-.23-2.29-.48-4.86-.65-7.45-.16-2.3-.16-4.58-.15-6.92.06-1.08.13-2.38.31-3.72-.01.05-.02.09-.03.13l.03-.16v.03c.07-.41.14-.83.25-1.25,0,.01.01.01.01.02h0s.04.02.06.04c.02.02.03.04.05.06.11.11.19.2.26.29.12.17.23.34.33.52.17.32.33.64.47.98l-.04-.06c.04.1.07.19.11.29.21.56.39,1.16.55,1.82.24,1.04.38,1.87.46,2.68l.07.69.08.7.02.56.03.56.02.38c.02.22.03.43.03.64l-.02,1.02-.02,1.03c-.11,1.41-.24,2.84-.4,4.24-.09.85-.2,1.7-.3,2.56l-.17,1.32c-.25,2.04-.42,3.86-.52,5.54,0,0-.01.01-.01,0h-.01s-.01,0-.01,0c-.07-.41-.12-.81-.17-1.22M382.03,330.63c-.18-.86-.36-1.72-.53-2.6-.11-.53-.19-1.08-.28-1.62l-.12-.79c-.25-1.47-.43-2.99-.59-4.4l-.06-.59c-.11-1.11-.22-2.23-.29-3.34l-.05-.66c-.03-.43-.07-.87-.08-1.31l-.02-.79c-.01-.48-.02-.96-.03-1.44l.02-.83.02-.69c.04-.9.13-1.83.27-2.78.11-.64.26-1.27.44-1.9-.01.03-.03.06-.04.09l.04-.12v.03c.11-.35.23-.69.37-1.02.12-.25.24-.48.37-.71.13-.19.26-.37.4-.54.12-.14.24-.27.37-.4.14-.11.27-.23.41-.33.1-.07.21-.14.32-.2h-.01l-.04.04c.09-.07.19-.12.3-.16l.13-.04c.12-.04.18-.05.24-.06h.13s.1.04.1.04c.03.01.05.02.07.03v-.02l.08.06s-.02-.02-.02-.02c-.01-.02-.03-.03-.04-.04.01.01.03.02.04.03-.01-.01-.03-.04-.03-.04.08.06.15.12.21.19l.11.14h.01s.03.05.04.07l.07.08c.08.16.16.33.23.5.08.23.15.45.21.67.11.48.2.99.27,1.58.08.91.13,1.88.12,2.98-.03.98-.08,1.95-.16,2.93-.1,1.06-.2,2.12-.32,3.2-.19,1.65-.44,3.34-.67,4.95l-.13.92.03-.16-.11.61c-.18,1.05-.36,2.11-.56,3.16-.22,1.19-.44,2.37-.63,3.55-.2,1.27-.25,2.55-.15,3.78,0,.01-.01.01-.01.01h-.01s0,0,0,0l-.05-.19c-.14-.61-.27-1.21-.39-1.82M374.64,325.88h-.01c-.34-.33-.68-.64-1.05-.92-.84-.64-1.7-1.16-2.59-1.55-.51-.23-1.03-.41-1.55-.6-1.04-.38-2.13-.69-3.19-.99l-.99-.29c-1.1-.34-2.26-.7-3.36-1.18-.65-.3-1.29-.63-1.96-1.03-.8-.49-1.56-1.02-2.31-1.61-.6-.48-1.07-.91-1.49-1.34-.27-.29-.53-.58-.77-.9-.16-.23-.32-.47-.46-.72-.12-.22-.22-.44-.31-.66-.04-.12-.08-.24-.11-.37-.02-.04-.05-.18-.06-.33v-.16s-.01-.12-.01-.12l.03-.15s.01-.01.02,0t.01-.02s.01,0,.02-.01h.01s.08.01.12.01c.12,0,.21.01.31.03.81.19,1.61.42,2.43.65l.24.07c1.8.55,3.82,1.22,5.82,2.1,1.13.51,2.15,1.05,3.14,1.63-.02-.01-.05-.03-.07-.05l.14.09s-.05-.02-.07-.04c.88.55,1.74,1.15,2.57,1.81-.02-.02-.03-.03-.05-.04l.14.1s-.06-.04-.09-.06c.95.79,1.82,1.64,2.78,2.59l.42.44.29.3.5.54c.19.21.41.38.71.56v.03c.25.74.53,1.46.82,2.18,0,.01-.01.01-.01.02M384.48,350.9c-.43-.15-.86-.28-1.31-.4l-1.68-.43c-.94-.24-1.88-.48-2.83-.73l-.51-.17c-.36-.11-.73-.22-1.07-.37-.55-.22-1.1-.44-1.64-.67-1.5-.72-2.76-1.32-3.98-2.07-.7-.43-1.38-.9-2.01-1.39-.01,0-.06-.05-.05-.06-.02-.01-.03-.02-.04-.03.01.01.02.01.02.01-.05-.04-.1-.08-.15-.13-.23-.18-.46-.39-.67-.61-.19-.21-.38-.42-.54-.63-.12-.15-.21-.31-.31-.47-.05-.09-.1-.19-.14-.29-.04-.11-.08-.22-.11-.34-.02-.07-.03-.14-.04-.21v-.13s.01-.13.02-.13c.22.05.38.09.53.14h.02c.67.22,1.28.43,1.84.65.56.21,1.07.42,1.56.64l.45.2.12.06.26.12-.11-.06.31.14.3.14-.06-.02s.06.03.09.05c.21.09.41.19.6.29l.35.19.31.15c.24.11.47.23.7.36.7.39,1.4.8,2.1,1.2,1.34.83,2.65,1.66,3.95,2.5.82.54,1.64,1.09,2.47,1.64l1.23.82s.02.02.02.03h0v.02M373.48,294.11h-.01s-.01,0-.01-.01l.03-2.14.03-2.15h.01v.07s.01.01.01.01c.01-.4.03-.8.05-1.19,0-.13.01-.26.02-.39.04-1.26.1-2.58.2-3.91v-.03c.13-1.54.32-3.21.61-5.23.21-1.26.49-2.81.93-4.33.13-.39.27-.77.44-1.16.03-.06.06-.11.09-.17l.08-.12h.01s.03-.03.04-.05h.01s.04.04.07.06h.02l.13.12c.09.1.17.2.25.3.16.22.3.45.44.69.2.39.37.78.55,1.19.21.59.39,1.17.56,1.78.11.51.2,1.03.28,1.55.07,1.01.1,2,.08,3.04-.07.98-.16,1.82-.28,2.63-.12.57-.26,1.13-.41,1.69-.27.84-.6,1.69-.98,2.6-.05.12-.13.24-.19.37-.28.57-.56,1.17-.91,1.75h0s0,0,0,0v-.02l-.28.46c-.54.82-1.15,1.67-1.87,2.6M367.96,302.55h-.02c-.31-.25-.62-.49-.95-.71-1.14-.76-2.37-1.38-3.41-1.89-.89-.44-1.84-.82-2.76-1.19-1.02-.42-1.94-.82-2.87-1.23h.04s-.03-.01-.05-.02c.02.01.04.01.05.02h.02c-.23-.1-.45-.21-.68-.33-.81-.41-1.57-.86-2.3-1.3-.72-.46-1.42-.97-2.09-1.5-.31-.27-.6-.54-.89-.83-.19-.21-.37-.42-.54-.65-.12-.17-.23-.35-.33-.53-.13-.24-.24-.48-.34-.73-.11-.32-.21-.64-.3-.97-.06-.29-.11-.58-.15-.87-.05-.54-.07-1.1-.07-1.71.03-.67.08-1.23.15-1.74.04-.19.08-.36.13-.54.05-.16.11-.32.18-.47,0,0,.02-.04.04-.07.02-.05.06-.1.06-.1l.09-.13s.08-.1.08-.1l.11-.05h.24c.33.07.65.16.97.25.57.19,1.13.39,1.69.63.41.21.82.43,1.21.65.57.35,1.11.74,1.63,1.14.74.6,1.47,1.28,2.26,2.09,1.27,1.32,2.44,2.78,3.56,4.19l.21.28c.59.8,1.17,1.6,1.73,2.44l.22.34c.22.34.45.67.65,1.02l.44.75.44.75c.56,1.06.97,1.88,1.33,2.67l.2.45v.02M365.67,276.29h-.02c-.19-.4-.4-.79-.64-1.17-.9-1.46-1.7-2.6-2.53-3.57-.95-1.13-1.92-2.14-2.96-3.1-1.03-.96-2.06-1.92-3.07-2.92l-.09-.1c-.47-.51-.95-1.05-1.39-1.61.02.02.04.06.06.08l-.07-.1s.01.01.01.02c-.23-.32-.45-.65-.65-1-.13-.23-.24-.46-.35-.71-.11-.29-.21-.57-.28-.87-.05-.24-.1-.49-.13-.74-.04-.37-.06-.75-.05-1.15.02-.34.05-.67.09-1,.07-.39.15-.74.25-1.09.07-.2.15-.41.24-.62.02-.05.08-.17.15-.28.06-.1.13-.2.21-.3.01-.03.1-.12.19-.21l.13-.11c.06-.05.12-.09.18-.13l.15-.05s-.06.02-.08.03c.03-.02.07-.03.1-.04.03-.03.11-.05.18-.07.05-.01.09-.01.13-.02h.16s.19.02.19.02c-.02-.01-.05-.01-.08-.02.07.01.14.02.21.04.05,0,.08.01.11.01.02.01.04.01.06.02l.19.06c.18.09.35.19.52.29.33.21.65.44.96.68.22.18.49.43.75.69.21.21.39.44.57.68.41.58.76,1.18,1.01,1.64.33.6.65,1.2.96,1.81.26.52.49,1.04.73,1.56l.13.29c.72,1.98,1.3,3.98,1.94,6.2.6,2.06,1.14,4.17,1.61,6.02.06.26.13.54.19.82.01,0,0,.01,0,.01M429.65,120.2c-.06-.69-.07-1.38-.1-2.07.19-.11.32-.31.28-.54-.07-.32-.13-.64-.21-.96-.04-.18-.08-.36-.13-.53-.02-.06-.04-.13-.06-.19v-.05c-.06-1.51-.14-3.03-.2-4.53-.06-1.27-.1-2.55-.1-3.81-.01-1.38-.03-2.76-.09-4.13-.05-.85-.14-1.71-.22-2.58.96-.18,1.86-.59,2.66-1.15-.08.23-.17.44-.23.67-.58,2.52.59,5.17,2.7,6.51-.27.71-.57,1.41-.83,2.13-.86,2.48-1.57,5-2.25,7.52-.17.63-.34,1.25-.5,1.87-.12.43-.23.86-.34,1.29-.07.26-.14.51-.2.78-.02.13-.05.27-.07.41-.03-.22-.07-.44-.1-.65M452.53,57s.01.09.01.13c-.09-.88-.17-1.77-.25-2.66-.08-.84-.21-1.67-.35-2.5-.27-1.68-.51-3.38-.69-5.07h0c-.01-.17-.02-.35-.02-.54.44,1.82,1.64,3.39,3.25,4.34-.22.63-.44,1.26-.64,1.9-.18.57-.35,1.14-.5,1.72-.1.34-.2.69-.28,1.03-.09.37-.17.75-.25,1.12-.07.32-.11.64-.16.96-.01.09-.03.17-.04.26-.02-.24-.05-.48-.07-.71M443.06,164.54c-.09.05-.17.11-.26.16.01-.01.03-.01.04-.02-.31.17-.61.34-.92.5-.15.08-.3.15-.45.23.53-.29,1.06-.58,1.59-.87M435.95,384.81c.23-.91.48-1.81.72-2.71.45-1.52,1.01-3.35,1.63-5.17.57-1.68,1.18-3.35,1.8-5.01,2.84-7.63,5.55-15.64,8.07-23.79l.16-.5c1.2-3.88,2.44-7.9,3.85-11.78.86-2.35,1.69-4.53,2.54-6.69.57-1.46,1.19-2.9,1.8-4.33l.49-1.17.39-.82c.69-1.47,1.4-3.01,2.17-4.48l.43-.82c.32-.63.65-1.26,1.01-1.87.55-.96,1.11-1.93,1.68-2.9,1.97-3.18,4.11-6.31,6.18-9.35l.56-.83.71-1.03c.95-1.4,1.92-2.81,2.86-4.24,1.3-1.98,2.59-3.99,3.85-6.01,1.03-1.65,2.04-3.39,3.02-5.05l.07-.12c.88-1.52,1.78-3.04,2.68-4.56l.67-1.14,1.19-1.91c.73-1.17,1.47-2.35,2.22-3.53,1-1.57,2.04-3.14,3.08-4.7l.28-.42c1.21-1.82,2.31-3.48,3.37-5.2,1.04-1.71,2.24-3.65,3.26-5.6l.59-1.12c.83-1.56,1.68-3.17,2.43-4.79.94-2.05,1.82-4.1,2.7-6.24.81-1.97,1.55-3.98,2.27-5.91.7-1.91,1.4-3.83,2.06-5.75,1.27-3.79,2.77-7.64,4.56-11.8v.03s.01-.02.01-.03c.01.23.01.45.02.67l.04.81v.37c.08,2.06.16,4.08.35,6.08.25,2.47.49,4.45.74,6.24.15,1.06.32,2.11.49,3.18.17,1.05.35,2.1.49,3.17l-.02-.12s.01.07.01.1l.05.29c.04.29.08.58.1.87.42,3.71.9,8.1,1.18,12.56.09,1.34.13,2.7.18,4.04.02.68.04,1.36.07,2.03.05,1.12.09,2.25.12,3.37.04,1.03.03,2.07.03,3.12v-.11s-.01.07-.01.11v-.14s-.01.07-.01.1c0,.17-.01.35-.02.52-.02.47-.04.94-.1,1.4l-.09.66-.17,1.37c-.27,1.49-.6,3.23-1.02,4.9-.4,1.56-.81,3.13-1.24,4.68l-.23.74c-.43,1.37-.86,2.79-1.38,4.14-.65,1.65-1.32,3.3-2.01,4.93l-.11.24c-.73,1.63-1.49,3.32-2.34,4.93-1.03,1.94-1.98,3.7-2.92,5.34-2.03,3.58-4.09,7.17-6.14,10.73l-.08.12-.2.33-.11.18-.52.87-.07.1-.02.03s-.05.07-.07.11l-.04.08-.07.12-.23.39-.09.15-.11.15h.01s-.02.04-.03.06t-.01.02c-.51.84-1,1.63-1.49,2.43-.73,1.19-1.47,2.39-2.2,3.6-1.31,2.23-2.62,4.48-3.9,6.73-2.15,3.75-4.14,7.28-6.07,10.78l-.87,1.6c-.7,1.28-1.4,2.57-2.12,3.84-1.09,1.9-2.21,3.8-3.33,5.67-.01,0-.06.08-.07.08-.01.02-.02.04-.03.06,0-.01.01-.03.02-.04-.13.21-.26.41-.39.62l-.74,1.2c-.67,1.06-1.34,2.12-2,3.2-2.28,3.69-4.63,7.5-7.08,11.17-2.4,3.59-5.08,7.08-7.41,10.05l-.75.91c-.63.78-1.27,1.55-1.94,2.3l-.56.61c-.86.97-1.73,1.94-2.65,2.88-1.96,2.03-4.07,4.15-6.62,6.65l-.46.44c-1.74,1.67-3.56,3.4-5.51,4.9l-.18.14c-.68.49-1.43.97-2.27,1.46-.94.51-1.81.93-2.67,1.3-.42.16-.86.32-1.29.46h0s-.01,0-.01,0h-.01s.01-.02.01-.02c1.28-1.92,2.56-3.85,3.84-5.78,1.47-2.22,2.96-4.44,4.45-6.64l1.1-1.62c1.12-1.64,2.24-3.29,3.33-4.95,1.5-2.32,2.86-4.69,3.99-6.71,1.23-2.21,2.51-4.6,4.02-7.56l1.07-2.11c.79-1.56,1.58-3.13,2.41-4.67.67-1.27,1.33-2.5,1.99-3.67.65-1.17,1.31-2.3,1.97-3.4l.08-.13.07-.11s.05-.07.07-.11l.02-.02s-.01.01-.01.01t.01-.02l.03-.06.08-.11h0v-.02h-.01c.99-1.62,2.05-3.23,3.09-4.79.52-.79,1.05-1.59,1.57-2.4.82-1.28,1.65-2.6,2.5-3.95.83-1.35,1.67-2.75,2.52-4.15,1.55-2.61,2.93-4.98,4.19-7.23,1.25-2.25,2.39-4.35,3.44-6.4,2.22-4.31,4.41-8.99,6.74-14.33,1.73-3.95,3.45-7.98,5.1-11.98,1.06-2.53,2.11-5.07,3.14-7.63.9-2.27,1.72-4.69,2.46-7.2,1.81-6.25,3.23-11.03,4.57-15.49.68-2.28,1.42-4.76,2.17-7.35.37-1.29.75-2.62,1.12-3.95.37-1.34.74-2.7,1.1-4.04.5-1.9.96-3.83,1.39-5.75.43-1.92.84-3.85,1.24-5.73.26-1.26.53-2.53.81-3.8l.26-1.16c.17-.78.34-1.56.51-2.35.16-.73.34-1.5-.29-1.92-.06-.04-.13-.07-.2-.08-.21-.05-.43.04-.62.2-.18.15-.33.35-.41.54-.13.32-.19.69-.25,1.05-.02.14-.05.27-.07.41l-.12.57c-.08.38-.15.77-.23,1.15-.5,2.4-1.02,4.89-1.6,7.43-.57,2.53-1.2,5.11-1.9,7.68l.04-.12-.22.75-.22.78-.15.48c-.81,2.79-1.65,5.67-2.55,8.48-.63,1.99-1.27,3.98-1.92,5.96l-.96,2.99c-.86,2.68-1.69,5.35-2.53,8.05l-.32,1.05c-.65,2.15-1.33,4.38-2.05,6.54-.78,2.29-1.74,4.54-2.67,6.73l-.23.55c-.64,1.5-1.29,3.02-1.94,4.52l-1.09,2.54s.02-.06.02-.06h0s0,0,0,0l-.46,1.04-.57,1.32c-4.92,11.27-9.46,20.22-14.26,28.17l-.26.43-.73,1.2.04-.09s-.03.06-.05.09c.02-.04.04-.07.06-.1v-.02c-.47.78-.95,1.56-1.44,2.34-.06.1-.11.18-.17.28-.94,1.5-1.86,2.93-2.77,4.29-.18.28-.36.55-.55.82-.91,1.37-1.81,2.71-2.71,3.95-.87,1.23-1.75,2.46-2.65,3.68-.68.94-1.37,1.89-2.05,2.85-1.44,2.01-2.92,4.23-4.52,6.78-1.67,2.68-3.26,5.46-4.8,8.16-1.04,1.83-2.08,3.66-3.17,5.46l-.55.9c-1.14,1.87-2.33,3.81-3.55,5.66-1.38,2.1-2.86,4.2-4.14,6-.66.93-1.32,1.86-1.97,2.81v-.04h0c.06-.2.1-.41.16-.62M523.08,472.3c.44-2.35.72-4.73.79-7.12.01-.27.02-.55.03-.82.07-2.13-.12-4.26-.34-6.38-.23-2.24-.53-4.46-.82-6.69-.62-4.73-1.28-9.46-2.18-14.15-.45-2.3-.97-4.58-1.5-6.87-.52-2.29-1.05-4.58-1.6-6.86-.57-2.33-1.13-4.66-1.91-6.93-.76-2.26-1.61-4.48-2.59-6.66-1.96-4.39-4.15-8.7-6.71-12.78-.63-.99-1.31-1.95-1.97-2.93-.79-1.15-1.59-2.35-2.57-3.36-.67-.7-1.58-1.4-2.61-1.36-.84.03-1.5.59-1.84,1.32-.46,1.04-.62,2.22-.74,3.34-.12,1.15-.2,2.32-.3,3.47-.1,1.17-.21,2.34-.32,3.5-.21,2.23-.4,4.46-.74,6.69.01-.02.01-.04.01-.05,0,.03,0,.07-.01.1h0c-.44,2.58-1,5.12-1.55,7.67-.29,1.31-.58,2.63-.88,3.94-.3,1.26-.63,2.52-.98,3.76t-.01.02v.03s-.01.02-.01.03c-.7,2.22-1.47,4.4-2.33,6.56-.84,2.18-1.71,4.36-2.53,6.55-.78,2.1-1.4,4.26-1.97,6.43-.57,2.2-1.15,4.39-1.78,6.57-.33,1.07-.68,2.13-1.04,3.2-.75,2.23-1.6,4.41-2.49,6.58-.95,2.35-1.9,4.68-2.86,7.03-1.82,4.47-3.87,8.85-5.77,13.28-.95,2.18-1.88,4.37-2.83,6.55-.91,2.08-1.85,4.16-2.75,6.25-1.88,4.42-3.55,8.93-5.45,13.35-.55,1.17-1.1,2.34-1.68,3.49-.53,1.08-1.13,2.13-1.72,3.19-1.13,2.07-2.26,4.16-3.3,6.28-1.09,2.22-2.17,4.43-3.3,6.63-1.11,2.17-2.25,4.35-3.34,6.52-1.09,2.16-2.11,4.36-3.11,6.56-.32.69-.62,1.41-.89,2.13-.25.68-.53,1.35-.75,2.04-.27.84-.53,1.67-.77,2.52-.23.82-.43,1.63-.63,2.47-.34,1.42-.62,2.87-.85,4.31-.26,1.64-.5,3.28-.66,4.94-.25,2.44-.35,4.89-.4,7.34-.06,2.51-.11,5.01-.15,7.52-.08,4.67-.08,9.34-.22,14-.06,1.74-.11,3.49-.19,5.23-.06,1.59-.12,3.19-.1,4.78.04,1.58.02,3.16.03,4.74v1.42c0,.14.02.28.03.42-.59,1.68-1.18,3.37-1.75,5.05-.75,2.21-1.51,4.42-2.22,6.65-1.48,4.83-2.87,9.69-4.33,14.52.02-.08.05-.17.08-.26-.16.53-.32,1.05-.48,1.57-.72,2.33-1.48,4.63-2.21,6.96-.74,2.35-1.36,4.72-1.96,7.11-.84,3.31-1.54,6.65-2.26,9.98-.19-2.03-.4-4.06-.59-6.09-.5-5.17-1.17-10.32-1.83-15.47-.27-2.16-.54-4.32-.81-6.48,0,.05.01.09.01.13-.74-6.01-1.56-12.02-2.56-18,.45-.31.91-.61,1.36-.91,1.33-.9,2.69-1.77,4.04-2.65,1.32-.86,2.66-1.71,3.94-2.65.69-.5,1.36-1.04,2-1.61.61-.55,1.16-1.14,1.68-1.77,0-.01.01-.02.02-.03.02-.03.05-.06.07-.09h0c.49-.61.94-1.26,1.34-1.94.9-1.49,1.47-3.12,1.74-4.84.25-1.65.38-3.33.24-5-.29-3.41-1.43-6.7-2.75-9.83-1.25-2.99-2.57-5.96-3.99-8.87-.72-1.49-1.56-2.95-2.54-4.29-.97-1.33-2.02-2.58-3.13-3.79-2.25-2.47-4.58-4.86-7.47-6.59-.65-.39-1.36-.74-2.08-1.01-.79-.3-1.59-.59-2.43-.76-.12-.02-.23-.03-.34-.05-.09-.72-.18-1.43-.27-2.15.02.15.04.29.05.43-.01-.08-.02-.16-.03-.24-.4-3.27-.64-6.56-.89-9.84-.31-3.94-.62-7.87-.92-11.81-.46-5.94-.93-11.88-1.31-17.82-.38-5.82-.61-11.66-.9-17.48-.27-5.53-.64-11.07-.78-16.6-.07-2.9-.2-5.79-.2-8.69v-9.51c.02-1.28.05-2.57.07-3.84.12-.44.22-.88.35-1.32.65-2.29,1.33-4.57,2.15-6.81.82-2.23,1.7-4.43,2.65-6.6,1.97-4.45,4.28-8.7,6.8-12.87,1.1-1.8,2.29-3.56,3.47-5.32.88-1.32,1.73-2.66,2.64-3.96,1.04-1.49,2.05-3.01,3.13-4.47.99-1.35,1.98-2.7,3-4.03.87-1.16,1.68-2.36,2.53-3.53.03.01.05.03.07.05.2.12.41.22.63.31.29.14.58.27.9.33.1.02.2.04.31.05,1.1.08,2.18-.3,3.21-.7,2.06-.8,4.08-1.85,5.88-3.16,1.2-.87,2.35-1.82,3.43-2.84,2.55-2.37,4.95-4.86,7.35-7.39,1.37-1.46,2.79-2.91,4.09-4.44.78-.93,1.58-1.87,2.38-2.81.76-.9,1.46-1.87,2.2-2.81,1.2-1.53,2.34-3.14,3.46-4.74,1.2-1.73,2.43-3.47,3.55-5.26,1.25-2,2.49-4.01,3.7-6.03,1.04-1.74,2.05-3.52,3.08-5.27,2.13-3.68,4.36-7.31,6.41-11.03,2.01-3.67,3.91-7.39,5.96-11.04,2.1-3.74,4.25-7.45,6.44-11.13,1.65-2.72,3.38-5.39,5.06-8.1,1.73-2.79,3.43-5.6,5.09-8.44,2.16-3.7,4.43-7.36,6.34-11.2,1.01-2.01,1.93-4.06,2.82-6.12.43-1,.82-2.02,1.21-3.04.35-.88.67-1.79.96-2.71.64-2.06,1.24-4.14,1.77-6.24.28-1.1.53-2.22.78-3.33.23-1,.43-2.02.56-3.04.14-1.02.28-2.04.35-3.07.08-1.12.1-2.23.11-3.35.01-1-.04-2.01-.06-3.03-.04-1.18-.06-2.37-.09-3.55-.04-1.97-.04-3.96-.15-5.93-.12-2.13-.26-4.26-.42-6.38-.15-1.99-.3-4.01-.54-6-.26-2.15-.62-4.29-.9-6.44.01.08.02.16.04.24-.33-2.81-.63-5.62-.74-8.44-.05-1.41-.08-2.83-.11-4.24-.01-.71-.03-1.42-.04-2.14-.01-.93-.45-1.88-1.3-2.34-.34-.17-.71-.21-1.06-.14-.07-.34-.28-.66-.57-.87-.63-.44-1.61-.31-2.03.36-.19.29-.37.58-.54.87-.17.26-.34.51-.5.77-.35.56-.63,1.15-.92,1.74-.29.6-.57,1.19-.86,1.78-.45.93-.91,1.85-1.38,2.77-.51.99-.93,2.01-1.36,3.05-.47,1.11-.94,2.24-1.42,3.35.03-.07.06-.15.1-.23-1.13,2.56-2.15,5.15-3.23,7.73t.01-.02s-.01.02-.01.03c-.01.02-.02.04-.03.06.01-.01.01-.02.02-.03-.01.02-.02.04-.03.06-.02.05-.04.09-.06.14.01-.03.03-.06.04-.09-.27.63-.55,1.26-.83,1.89.01-.02.02-.04.03-.05-1.24,2.83-2.53,5.66-3.94,8.43-.82,1.63-1.66,3.25-2.53,4.86-.69,1.3-1.44,2.57-2.17,3.84-1.3,2.09-2.61,4.18-3.97,6.23-1.23,1.84-2.48,3.69-3.65,5.57-1.21,1.92-2.42,3.87-3.6,5.82-2.16,3.58-4.16,7.26-6.29,10.84-.29.47-.57.94-.86,1.41-2.23,3.59-4.59,7.09-7.02,10.53-2.5,3.56-5.02,7.09-7.21,10.84-.52.88-1.07,1.76-1.54,2.68-.59,1.12-1.17,2.25-1.76,3.36-.5.96-.91,1.97-1.37,2.96-.38.81-.74,1.62-1.09,2.46-.48,1.16-.98,2.32-1.45,3.48-.44,1.05-.83,2.13-1.24,3.2-.74,1.93-1.45,3.89-2.14,5.84-1.39,3.91-2.57,7.9-3.82,11.86-1.33,4.23-2.71,8.46-4.15,12.66-1.39,4.06-2.89,8.07-4.42,12.07-1.52,3.98-2.81,8.03-3.97,12.13-.75,2.64-1.45,5.3-1.99,8-.26,1.25-.43,2.54-.57,3.82-1.53,2.3-3.07,4.58-4.61,6.86-1.38,2.05-2.81,4.1-4.1,6.21-1.41,2.29-2.83,4.57-4.19,6.89-.97,1.64-1.95,3.29-2.93,4.93-1.19,2.01-2.27,4.09-3.32,6.17-1.76,3.52-3.36,7.11-4.69,10.8-.33.9-.62,1.82-.92,2.74.03-.99.04-1.98.1-2.98.14-2.38.29-4.74.44-7.12.51-8.23,1.25-16.47,1.99-24.68,1.06-11.76,2.15-23.49,3.04-35.26.9-12.01,1.78-24.02,2.59-36.04.4-5.97.84-11.94,1.28-17.9.41-5.6.84-11.19,1.41-16.77.67-6.51,1.4-13.02,2.15-19.52.57-4.92,1.09-9.85,1.65-14.77.05,0,.1.01.15,0,.55-.09.95-.6.94-1.15-.01-.06-.01-.13-.01-.19.04-.44.1-.87.16-1.31.4-1.86.81-3.73,1.25-5.59.2-.84.4-1.69.61-2.55.16-.64.32-1.28.47-1.91.18-.71.34-1.42.54-2.12.12-.33.25-.66.39-.98.18-.41.37-.82.56-1.23.53-1.11,1.09-2.21,1.68-3.29.35-.64.69-1.3,1.03-1.95.68-.62,1.36-1.26,2.07-1.85.98-.8,1.96-1.6,2.96-2.39.1-.07.18-.15.27-.23.16-.15.32-.31.49-.46.19-.17.36-.34.54-.52.48-.47.97-.94,1.45-1.41.9-.89,1.8-1.78,2.71-2.68-.02.03-.05.05-.07.08.81-.76,1.63-1.51,2.53-2.18h.01s.04-.04.07-.06c-.02.02-.04.03-.06.05.32-.22.64-.43.98-.63,1.03-.55,2.14-.93,3.21-1.44.85-.41,1.71-.83,2.57-1.24,1.01-.49,2.03-.95,3.03-1.49,1.56-.85,3.13-1.69,4.69-2.55,1.12-.6,2.22-1.25,3.32-1.88.26-.15.52-.31.77-.45l.09-.06c.74,1.76,2.26,3.19,4.21,3.6,3.27.7,6.59-1.27,7.35-4.56.55-2.36-.42-4.84-2.28-6.27.05-.04.1-.07.14-.11.02-.01,0-.04-.02-.03-.05.04-.11.07-.16.1-.65-.49-1.41-.86-2.26-1.04-3.26-.69-6.58,1.28-7.35,4.57-.17.74-.18,1.5-.07,2.24-.14.09-.28.17-.42.26-1.1.59-2.2,1.21-3.29,1.82-.01.01-.02.01-.03.02-.02.01-.03.02-.05.03t.02-.02c-1.35.71-2.7,1.43-4.04,2.14-.57.31-1.15.61-1.72.92-.34.17-.68.32-1.02.48-1.51.72-3.03,1.44-4.54,2.15-.49.23-1,.43-1.51.63-.77.32-1.51.68-2.22,1.13-.52.35-1,.74-1.47,1.14-.21.18-.42.36-.63.55,0,0,.01,0,.01-.01-.02.02-.04.04-.06.06l-.02.02c-.27.26-.55.53-.83.79h.01c-.89.85-1.72,1.77-2.59,2.67-.89.93-1.79,1.83-2.7,2.74-.56.51-1.12,1.02-1.68,1.53-.23.2-.46.41-.7.62.84-1.64,1.67-3.29,2.57-4.89,1.4-2.54,2.83-5.05,4.2-7.61.73-1.36,1.46-2.74,2.22-4.1.04-.07.09-.14.13-.22.19-.01.38.01.54-.08.25-.15.46-.31.6-.57.08-.16.11-.33.16-.5.18-.15.37-.3.55-.46.14-.11.29-.24.42-.37.15-.12.29-.24.43-.37.61-.58,1.22-1.16,1.8-1.76.62-.65,1.24-1.28,1.87-1.92-.01.01-.02.02-.03.03.19-.18.38-.36.57-.54.17-.16.33-.33.5-.48.21-.17.41-.34.61-.52.18-.15.35-.3.52-.44.39-.31.77-.62,1.17-.92.41-.31.83-.62,1.24-.94,2.14-1.56,4.32-3.09,6.47-4.63,1.03-.74,2.08-1.48,3.12-2.23.54-.39,1.08-.79,1.62-1.18.57-.41,1.16-.79,1.74-1.18.35.31.74.57,1.22.67,1.53.33,3.09-.59,3.44-2.13.35-1.49-.61-3.12-2.13-3.44-1.53-.32-3.08.59-3.44,2.13-.18.76-.01,1.55.39,2.19-.84.52-1.66,1.07-2.48,1.62-1.63,1.1-3.26,2.21-4.89,3.3-1.06.71-2.13,1.41-3.19,2.12-1.18.8-2.35,1.61-3.51,2.45-.53.39-1.05.8-1.57,1.2-.28.21-.54.45-.8.67-.18.16-.37.31-.54.47-.54.5-1.07,1-1.59,1.52-.44.43-.88.87-1.32,1.31t.01-.01s-.01.02-.02.03c-.01.01-.03.02-.04.03.01,0,.01-.01.02-.01-.42.39-.83.78-1.25,1.15.6-.98,1.19-1.98,1.85-2.93.4-.57.77-1.16,1.19-1.7.41-.52.81-1.05,1.22-1.58.88-1.08,1.78-2.15,2.67-3.24.98-1.2,1.97-2.4,2.91-3.64.67-.91,1.34-1.82,2.02-2.75.03.04.02.11.07.13h.01c.16.03.32-.07.36-.23.06-.25.13-.51.19-.76.51-.69,1.03-1.35,1.54-2.04.01-.01.03,0,.04-.01.85-1.08,1.72-2.16,2.59-3.25,0,.01-.01.01-.01.01.01-.01.03-.03.04-.05.29-.33.57-.67.87-1,.31-.33.63-.66.96-.98-.01.01-.03.02-.04.04.93-.88,1.93-1.69,2.96-2.46,0,0-.01,0-.01.01.77-.57,1.57-1.11,2.36-1.66.55-.38,1.12-.73,1.68-1.09.56-.35,1.11-.7,1.67-1.03.85-.5,1.69-1.01,2.56-1.49-.01.01-.03.02-.04.03.63-.35,1.28-.68,1.96-.97.09-.03.18-.06.28-.09.01,0,.03-.01.04-.01.07.07.16.11.26.13.32.02.6-.33.44-.62-.25-.48-.97-.27-1.34-.11-.47.2-.93.39-1.38.61-.41.2-.82.42-1.23.63-.22.12-.45.24-.68.36-.62.33-1.26.64-1.88.99-.67.38-1.33.75-2.01,1.13-.19.11-.38.21-.56.33-.28.17-.55.35-.83.52-.4.25-.8.51-1.2.76-.19.12-.38.26-.56.39.83-1.01,1.66-2.02,2.44-3.08.47-.65.92-1.3,1.36-1.96.42-.64.8-1.29,1.19-1.94.37-.64.72-1.3,1.07-1.95.16-.3.31-.61.47-.91.04.01.06.04.1.04,2.3.49,4.63-.9,5.17-3.21.52-2.26-.92-4.69-3.22-5.17-2.29-.49-4.63.9-5.17,3.21-.33,1.43.19,2.9,1.17,3.93-.51.98-1.02,1.97-1.58,2.94-.43.69-.86,1.38-1.33,2.05-.45.65-.93,1.26-1.42,1.88-.82,1-1.65,1.99-2.51,2.98-.95,1.1-1.91,2.2-2.85,3.32-.4.49-.79.99-1.19,1.48.07-.21.15-.41.22-.62.13-.4.27-.8.41-1.2.07-.19.14-.39.2-.59.18-.57.37-1.14.55-1.71.14-.43.29-.87.41-1.32.19-.71.39-1.42.58-2.14.13-.45.24-.9.35-1.36.09-.36.18-.73.27-1.09.05-.19.11-.39.16-.58.3-.07.48-.42.34-.71-.04-.08-.1-.16-.16-.23,0,.01.01.01.01.02-.04-.06-.09-.11-.15-.15-.11-.08-.26-.09-.38-.03-.11.05-.18.14-.21.26-.34,1.15-.68,2.31-1.02,3.46.01-.02.01-.03.02-.05-.01.01-.01.02-.01.02-.25.77-.5,1.54-.74,2.32-.19.57-.4,1.13-.6,1.68-.47,1.32-.94,2.64-1.4,3.96-.07.2-.13.41-.19.62-.13.43-.27.87-.41,1.3-.05.18-.1.35-.14.52-.9,1.14-1.76,2.32-2.66,3.47-.88,1.16-1.78,2.32-2.69,3.46.03-.05.07-.1.11-.15-1.13,1.36-2.27,2.72-3.44,4.05-.65.73-1.29,1.48-1.94,2.23-.01.02-.01.03-.02.04,1.11-4.01,2.19-8.02,3.23-12.04.04-.07.08-.14.12-.21-.01.01-.02.03-.03.04.29-.48.59-.95.89-1.42.08-.13.15-.26.24-.38.12-.18.25-.35.37-.52.32-.45.65-.91.97-1.37.09-.12.19-.25.28-.37.21-.28.42-.56.64-.84.23-.32.47-.63.7-.95.19-.27.39-.55.59-.82.08-.12.17-.23.25-.36.16-.23.31-.47.47-.71.12-.19.25-.38.37-.56.27-.45.56-.88.8-1.35v.02s.04-.06.06-.09c.1-.03.18-.1.22-.2,0-.01,0-.02.01-.03.05-.15.01-.3-.12-.39-.11-.08-.25-.08-.37-.01-.22.13-.34.34-.47.55.01-.01.02-.02.03-.04-.19.3-.4.58-.6.86-.1.15-.21.3-.31.45-.25.34-.5.69-.75,1.04-.14.21-.3.41-.45.61-.4.52-.8,1.05-1.2,1.57-.27.35-.54.7-.82,1.05-.12.16-.24.33-.35.5-.28.39-.56.79-.84,1.18h0c.59-2.41,1.17-4.81,1.74-7.23.33-1.42.66-2.85.98-4.28.08-.37.17-.74.25-1.12,1.27.18,2.54-.59,2.84-1.88.3-1.31-.54-2.73-1.87-3.02-1.34-.28-2.71.53-3.02,1.88-.28,1.18.41,2.41,1.51,2.85-.12.35-.25.69-.37,1.03-.58,1.6-1.15,3.21-1.71,4.82-.83,2.37-1.67,4.73-2.45,7.13-.89,2.78-1.82,5.55-2.62,8.35v-.02c-.09.32-.18.64-.27.97-.49,1.73-.99,3.47-1.48,5.2-.34,1.22-.71,2.46-1.03,3.68-.19.7-.39,1.39-.59,2.09-.77,1.22-1.53,2.45-2.26,3.69-.82,1.41-1.6,2.85-2.4,4.28.01-.01.01-.02.01-.03.33-1.25.66-2.51.96-3.77.14-.6.29-1.19.4-1.79.06-.34.14-.68.19-1.02s.11-.68.16-1.02c.09-.57.15-1.15.22-1.72.08-.73.15-1.46.22-2.19.11-1.26.18-2.54.23-3.82.06-1.38.09-2.78.12-4.16.01-.77.02-1.53.04-2.3,1.92.3,3.84-.86,4.3-2.81.45-1.96-.81-4.08-2.81-4.51-2-.42-4.04.79-4.51,2.81-.42,1.81.66,3.71,2.4,4.33v.18-.04c-.03.59-.05,1.17-.08,1.76-.02.52-.07,1.04-.1,1.56-.08,1.03-.17,2.05-.27,3.08-.21,2.07-.48,4.14-.8,6.2v-.03c-.05.31-.1.63-.16.94-.44,2.56-1.19,5.04-1.76,7.57-.3,1.29-.56,2.61-.83,3.91-.02.09-.04.19-.06.29-.13.22-.28.44-.39.67-.16.34-.31.67-.45,1.02-.04.1-.01.2,0,.3-1.06,1.92-2.14,3.84-3.11,5.82-1.34,2.74-2.67,5.49-3.93,8.27-.61,1.33-1.12,2.72-1.62,4.09-.19.52-.38,1.04-.53,1.57-.15.51-.24,1.03-.34,1.54.14-.96.27-1.92.41-2.89-.01.02-.01.05-.02.07.01-.06.02-.12.03-.18.01-.04.01-.07.02-.11,0,.01-.01.03-.01.04,1.37-9.28,2.86-18.54,4.3-27.81.44-2.87.89-5.74,1.34-8.62.15-.68.32-1.35.45-2.03.29-1.48.55-2.96.78-4.44.19-1.2.33-2.41.46-3.61.1-.85.19-1.7.28-2.56.17-1.09.35-2.19.51-3.28.18-1.26.37-2.54.56-3.8.28-1.45.55-2.92.84-4.36.15-.72.26-1.44.39-2.16.15-.78.29-1.56.42-2.35.15-.83.31-1.66.45-2.5.07-.43.17-.86.25-1.29.25-.47.5-.93.77-1.38,1.87-3,3.84-5.95,5.8-8.89.53-.81,1.1-1.58,1.65-2.39.02.02.05.03.08.04h.05c.17.01.32-.1.34-.27,0-.09-.03-.17-.09-.24.2-.13.4-.26.6-.38h.01c-.19.14-.16.46.09.52,0,.01.01.01.01.01.16.03.34.01.5,0,.23,0,.46-.01.69-.02.17-.01.3-.15.3-.32-.01-.11-.07-.2-.16-.25.36-.2.71-.4,1.07-.58,1.22-.6,2.44-1.21,3.66-1.8,1.19-.58,2.42-1.11,3.63-1.67.57-.26,1.15-.54,1.69-.86.53-.3,1.06-.6,1.55-.97.54-.4,1.07-.83,1.6-1.26.68.94,1.63,1.68,2.83,1.94,2.67.56,5.39-1.05,6.02-3.75.61-2.63-1.07-5.46-3.75-6.02-2.67-.57-5.39,1.04-6.02,3.75-.25,1.06-.04,2.13.39,3.11-.48.37-.96.74-1.45,1.11-.04.03-.09.06-.13.09-.1.05-.2.09-.3.13-.55.24-1.09.48-1.64.71-.3.14-.62.27-.93.4-.31.14-.63.27-.95.41-.34.15-.67.31-1.01.46-.26.12-.52.25-.78.38s-.52.26-.77.41c-.31.16-.61.32-.91.48-.54.29-1.07.61-1.61.91-.61.34-1.22.68-1.83,1.02.01-.01.02-.02.03-.03-.45.25-.91.5-1.37.75-.09.05-.19.1-.28.15.63-.9,1.23-1.83,1.89-2.73.29-.35.57-.7.86-1.06t-.01.02c.46-.52.92-1.04,1.39-1.54.51-.54,1.03-1.05,1.55-1.57,0,.01-.01.02-.02.03.62-.59,1.21-1.19,1.82-1.78.01-.02.02-.03.04-.05.26-.26.53-.51.79-.77.86-.88,1.66-1.83,2.45-2.8.02-.02.03-.03.04-.05-.01.01-.01.02-.02.02.02-.02.03-.04.05-.06.03-.03.05-.06.07-.09,0,.01-.01.02-.02.03.46-.57.92-1.14,1.36-1.72,1.26-1.61,2.42-3.31,3.58-5,0,0,.01,0,.01-.01.18-.11.35-.24.54-.35.48-.29.96-.57,1.44-.86,0,.01-.01.01-.01.01.01-.01.02-.01.03-.02,0,0,.01,0,.01-.01t-.01.01c.55-.29,1.1-.59,1.64-.88.16-.09.33-.16.5-.24.34-.18.69-.35,1.04-.51.16-.08.32-.17.49-.24.28-.13.57-.26.85-.38.45-.2.91-.41,1.37-.6,2.14-.89,4.28-1.78,6.43-2.66.15.14.28.31.49.36.65.14,1.32-.26,1.48-.92.15-.64-.27-1.34-.92-1.48-.66-.14-1.32.26-1.48.92-.05.21.04.4.1.6-.17.06-.34.13-.51.2-.16.06-.31.13-.48.19-.46.19-.93.39-1.39.58h.01c-.71.26-1.42.53-2.12.8h.01c-.72.28-1.44.56-2.15.84.02-.01.03-.01.04-.02-.13.05-.25.11-.37.16-.27.12-.54.24-.81.36-.23.1-.46.19-.68.29-.08.04-.16.07-.24.11-.28.14-.56.27-.84.41-.35.18-.69.35-1.04.52-.09.04-.18.1-.26.14-.19.1-.38.21-.56.31-.31.17-.62.33-.92.5-.22.13-.44.27-.66.4.26-.37.51-.75.78-1.12,1.84-2.53,3.72-5.03,5.33-7.71.65-1.1,1.26-2.24,1.86-3.36.04-.05.06-.09.08-.14.1-.19.21-.37.31-.55.13-.26.27-.53.4-.79.62-.74,1.22-1.48,1.85-2.21.33-.39.66-.79,1-1.18.25-.29.5-.59.76-.87,1.85-1.95,3.74-3.86,5.42-5.96.83-1.03,1.57-2.12,2.31-3.24.03-.04.06-.09.1-.14.53.52,1.15.96,1.92,1.12,2.26.48,4.55-.88,5.08-3.16.39-1.68-.34-3.46-1.7-4.43.09-.07.16-.15.25-.22.01-.02,0-.04-.02-.03-.11.07-.21.14-.33.21-.41-.28-.85-.51-1.36-.61-2.26-.48-4.55.88-5.08,3.16-.18.78-.05,1.56.2,2.31-.5.53-1.02,1.06-1.49,1.62-.7.82-1.38,1.66-2.06,2.51.01-.01.02-.03.04-.04-.02.02-.04.05-.06.07-.01.01-.02.03-.04.04.01,0,.01-.01.02-.02-.69.83-1.38,1.65-2.08,2.47-.75.87-1.52,1.72-2.27,2.61-.11.14-.22.3-.33.45.18-.68.38-1.34.55-2.02.32-1.28.68-2.57,1.06-3.84.7-2.25,1.6-4.43,2.5-6.61.24-.58.48-1.16.72-1.73.14-.34.26-.68.38-1.02.7-.25,1.29-.79,1.47-1.56.2-.85-.16-1.74-.81-2.28v-.1s-.02-.02-.03-.01c-.01.02-.02.03-.04.04-.23-.17-.5-.3-.8-.36-1.2-.26-2.43.47-2.71,1.68-.19.82.14,1.67.75,2.22-.1.21-.24.42-.34.64-.67,1.39-1.32,2.79-1.97,4.19-.62,1.34-1.27,2.68-1.81,4.06-.52,1.3-1.02,2.62-1.42,3.96-.41,1.33-.86,2.65-1.41,3.93-.51,1.03-1.09,2.01-1.68,3.01-.56.94-1.12,1.88-1.69,2.82-.01.02-.02.04-.03.05-.01.02-.02.04-.03.05t.01-.01s-.01.02-.02.03h0c-.03.06-.07.12-.1.18,0-.01.01-.02.01-.03-.04.07-.08.14-.12.21.01-.02.01-.03.02-.05-.05.09-.1.17-.16.26-.04.07-.08.13-.12.2-.78,1.23-1.58,2.46-2.43,3.66-1.74,2.51-3.57,4.95-5.26,7.5-.29.42-.58.85-.87,1.28.62-1.68,1.25-3.36,1.77-5.07.8-2.69,1.43-5.42,1.74-8.22v-.05c.66-.16,1.28-.42,1.81-.86.9-.76,1.36-1.77,1.54-2.93.12-.8.15-1.6.17-2.42.02-2.04-1.77-3.79-3.74-3.98-1.94-.19-3.52.96-4.29,2.67-.34.75-.58,1.5-.8,2.3-.63,2.26.94,4.51,3.07,5.16-.64,1.94-1.27,3.9-1.87,5.86-.48,1.6-.96,3.2-1.37,4.81-.39,1.56-.8,3.12-1.26,4.65.01-.04.03-.09.04-.14-.13.45-.27.9-.41,1.36.02-.05.03-.1.05-.15-.09.29-.18.57-.26.86.01-.02.01-.04.02-.07-.24.79-.48,1.58-.74,2.37-.02.06-.05.12-.07.19-1.94,2.33-4.05,4.51-5.82,6.97-.89,1.23-1.67,2.55-2.42,3.88-.69,1.22-1.39,2.43-2.12,3.62h.01c-.03.05-.07.09-.1.14-.03.06-.07.12-.1.17,0,0,0-.01.01-.01-.05.07-.09.14-.13.21-.2.32-.4.64-.6.97.03-.04.05-.08.07-.12-.08.13-.16.27-.24.4,0-.01.01-.02.02-.03-1.01,1.63-2.02,3.26-3.05,4.89-.21.34-.43.68-.65,1.03.01-.04.02-.08.03-.12.51-2.26,1.11-4.49,1.68-6.72.36-1.41.7-2.83,1.03-4.24.37-1.4.76-2.8,1.17-4.19-.03.08-.05.16-.08.24.14-.46.29-.93.43-1.39-.01.02-.02.04-.02.06.17-.56.34-1.12.51-1.68-.02.09-.05.17-.07.26.16-.55.34-1.11.5-1.67.33-1.18.65-2.38.92-3.58.26-1.23.53-2.47.78-3.7.53-2.58,1.1-5.13,1.75-7.68.62-2.41,1.25-4.82,1.82-7.25.59-2.49,1.09-5,1.7-7.5.35-1.48.75-2.97,1.14-4.44.22-.4.4-.82.64-1.21.64-1.02,1.33-1.99,2.07-2.95h-.01s.01-.01.02-.01c.01-.02.02-.03.03-.04-.01,0-.01.01-.01.02.73-.88,1.45-1.76,2.21-2.64.52-.61,1.04-1.22,1.57-1.83.82-.96,1.6-1.94,2.5-2.84.13-.12.26-.23.4-.33.1,0,.2-.03.29-.09.16-.1.25-.28.25-.48-.01-.19-.12-.37-.29-.46-.16-.08-.33-.08-.49-.01-.03.01-.06.03-.09.05l-.12.06c-.06.04-.12.08-.17.13-.15.12-.29.24-.43.37-.25.24-.49.5-.73.75-.61.66-1.19,1.35-1.78,2.03-.49.56-.99,1.11-1.49,1.66-.36.4-.71.8-1.07,1.21-.33.38-.66.76-.99,1.13-.2.23-.4.46-.59.7-.25.3-.46.62-.7.94.63-2.29,1.27-4.57,1.93-6.85.42-1.47.81-2.95,1.21-4.42.01-.01.01-.03.02-.05t-.01.02c1.29-2.04,2.58-4.08,3.88-6.11l2.2-3.4c.2-.31.44-.58.66-.88.01.03,0,.06.01.09.02.23.17.49.4.56h.02c.22.05.43-.14.42-.36,0-.14-.1-.27-.23-.32,0-.01.01-.02.01-.04.02-.02.04-.04.05-.06.02-.01.04-.02.06-.03.06-.04.13-.07.2-.1.04-.02.09-.03.13-.05.15-.03.29-.05.44-.07.17-.01.34-.01.51-.01-.26,2.14,1.09,4.34,3.27,4.8,2.32.49,4.69-.91,5.23-3.26.53-2.28-.93-4.74-3.26-5.23-1.96-.42-3.89.57-4.79,2.3-.32.08-.65.13-.96.26-.21.09-.41.21-.61.33.19-.24.37-.49.55-.73-.01.01-.02.02-.03.03.02-.02.04-.04.05-.06t.02-.02s-.01.01-.01.02c.62-.74,1.24-1.47,1.9-2.19.28-.31.55-.62.85-.91.37-.37.73-.74,1.1-1.1.11-.1.21-.2.32-.3.95-.87,1.91-1.73,2.89-2.59,1.03-.9,2.07-1.79,3.1-2.72.5-.45,1-.91,1.49-1.37.51-.49,1.02-.99,1.53-1.49.93-.92,1.86-1.84,2.81-2.76-.01.01-.02.02-.03.02,1.42-1.35,2.81-2.76,4.19-4.14.1,1.12.86,2.15,2,2.4,1.42.3,2.86-.55,3.2-1.98.32-1.38-.57-2.89-1.98-3.19h-.01s.02-.02.03-.02c.02-.01,0-.04-.01-.03-.04.01-.07.03-.1.05-1.14-.2-2.24.34-2.79,1.3-.83.48-1.62,1.01-2.4,1.57-.84.59-1.65,1.23-2.44,1.91-.82.71-1.6,1.48-2.38,2.26-.71.7-1.42,1.4-2.13,2.1.02-.03.05-.05.08-.08-.77.72-1.53,1.45-2.34,2.15-.91.8-1.81,1.59-2.73,2.39-.12.1-.23.2-.34.3.06-.17.13-.34.19-.51.47-.91.95-1.8,1.46-2.69.55-.96,1.07-1.92,1.58-2.91.61-1.16,1.19-2.36,1.77-3.53.36-.72.65-1.46.97-2.2.25.11.46.27.73.33,2.3.48,4.62-.9,5.16-3.21.52-2.24-.92-4.67-3.21-5.15-.25-.05-.48,0-.73-.01.02-.28.08-.56.08-.84t.01.01v-.25.02c.01-.26.01-.52.01-.79,0-.02-.02-.02-.03,0-.11.42-.23.83-.35,1.24h0c-.07.19-.14.39-.21.6-1.83.13-3.49,1.33-3.93,3.22-.31,1.32.12,2.66.94,3.67-.17.35-.34.7-.5,1.05.02-.03.04-.07.05-.11-.49,1.1-.94,2.22-1.39,3.34-.43,1.09-.87,2.17-1.29,3.27-.45,1.16-.87,2.34-1.32,3.5-.19.52-.39,1.05-.59,1.57-.16.42-.32.85-.42,1.28-.49.44-.98.86-1.45,1.31-.26.25-.53.48-.78.74-.22.23-.44.46-.66.68-.22.23-.46.46-.67.7-.23.27-.46.53-.7.8-.44.51-.86,1.02-1.28,1.55-.2.25-.41.49-.6.75-.22.29-.44.59-.66.89-.4.54-.78,1.1-1.16,1.66-.18.27-.34.56-.5.84-.17.27-.34.55-.51.83.02-.02.03-.05.05-.08-.05.07-.09.15-.13.21,0-.01.01-.02.02-.03-.05.08-.09.15-.14.23,0-.01.01-.02.01-.02-.03.06-.07.11-.11.17.02-.02.04-.05.05-.08-.12.2-.24.4-.36.6,0-.01.01-.02.01-.02-.06.1-.13.21-.19.31,0,0,0-.01.01-.01-.17.28-.35.56-.52.84.02-.03.03-.06.05-.08-.04.06-.08.11-.11.18.01-.02.02-.04.03-.06-.02.04-.04.08-.06.11h-.01s.02-.02.03-.04c-.48.76-.94,1.51-1.42,2.28.51-1.84,1.01-3.7,1.55-5.53.77-2.44,1.59-4.84,2.45-7.25.8-2.27,1.5-4.57,2.12-6.9.66-2.5,1.3-4.98,1.96-7.47.04-.15.09-.29.13-.44.07-.17.14-.34.22-.51-.01.01-.02.03-.03.04.25-.52.47-1.04.72-1.55.27-.55.54-1.1.83-1.64.27-.5.53-1.01.81-1.52.35-.61.7-1.22,1.05-1.83t-.01.01c.24-.37.47-.75.7-1.13.25-.4.51-.81.76-1.22.24-.37.48-.73.73-1.1.25-.39.5-.78.76-1.16.71-1.03,1.4-2.07,2.18-3.06h0s.02-.03.03-.04h-.01c.34-.41.69-.8,1.08-1.18.23-.22.47-.42.72-.62.03-.03.07-.05.11-.08.01-.01.03-.01.04-.02.07.09.18.15.3.15.23-.01.4-.22.36-.44-.03-.15-.09-.31-.25-.37-.12-.05-.23-.07-.36-.05-.22.03-.43.13-.6.26-.12.09-.23.17-.34.26-.16.12-.31.23-.46.36-.27.23-.53.47-.78.72-.32.32-.63.66-.92,1-.17.21-.35.4-.51.61-.45.61-.9,1.21-1.36,1.82-.1.13-.18.27-.28.41-.25.37-.5.75-.76,1.12-.19.28-.38.56-.56.84-.13.18-.23.37-.34.55-.26.43-.52.86-.78,1.29-.13.2-.26.4-.37.61-.38.69-.76,1.37-1.13,2.06.1-.35.19-.7.3-1.05,0,0,0,.01-.01.02.06-.17.11-.34.16-.51-.01,0-.01.01-.01.02.41-1.35.81-2.71,1.18-4.07.27-.99.51-1.99.78-3h0s.02-.06.03-.09c.05-.14.09-.28.1-.43.03-.29-.16-.51-.4-.64.11-.46.19-.93.32-1.38v-.02s.01-.03.02-.04c0,0-.01.01-.01.02.18-.55.35-1.09.53-1.64.17-.52.35-1.05.48-1.59.29-1.14.51-2.3.7-3.47v.02c.17-1.01.34-2.01.51-3.03.16-.99.35-1.97.54-2.97.34-1.86.67-3.74,1.21-5.55.04-.11.07-.21.11-.32.46.21.94.37,1.45.48,4.17.88,8.42-1.63,9.4-5.84.95-4.09-1.68-8.52-5.84-9.4-4.17-.88-8.42,1.63-9.4,5.84-.74,3.21.72,6.59,3.39,8.34-.01.01-.02.03-.02.04-.21.57-.36,1.15-.51,1.73-.15.58-.29,1.16-.41,1.76-.52,2.47-1.01,4.94-1.42,7.43h0c-.03.18-.05.36-.08.54h0c-.08.46-.16.92-.23,1.39h0c-.2,1.19-.43,2.4-.74,3.58-.29,1.09-.66,2.17-.91,3.28-.25,1.19-.51,2.39-.77,3.58-.01.04-.02.08-.03.13-.14.48-.28.96-.43,1.44-.68,2.17-1.44,4.33-2.16,6.5-.75,2.27-1.46,4.54-2.17,6.83-.7,2.29-1.39,4.58-2.21,6.83.13-1.42.25-2.86.3-4.29v-.35s.01-.08.01-.11c0-.16.01-.31.01-.46v.17c.04-1.24-.03-2.5-.14-3.74.15-.06.3-.13.42-.27.46-.5.39-1.22-.07-1.69l-.43-.43c-.08-.09-.17-.16-.25-.25-.08-.5-.12-1.01-.21-1.52-.22-1.3-.44-2.61-.63-3.91-.1-.72-.19-1.43-.29-2.15,0-.07-.01-.14,0-.22h0c0-.12.01-.24.01-.37v.07c.02-.53.06-1.06.09-1.58.03-.33.04-.66.08-.99.03-.4.05-.8.11-1.2.05-.35.1-.7.15-1.05.06-.35.14-.69.21-1.04.06-.29.15-.57.22-.86.16-.59.34-1.18.52-1.77-.01.03-.02.05-.03.08.34-1.06.67-2.12.97-3.2.3.11.6.22.91.29.52.11,1.06.16,1.61.14,3.86-.14,6.66-3.38,6.66-7.14,0-.37-.01-.74-.01-1.11-.01-3.35-2.86-6.2-6.11-6.52-3.35-.33-6.53,1.93-7.29,5.22-.15.64-.27,1.31-.35,1.97-.07.56-.04,1.1.04,1.63-.48,2.08-.7,4.24-.67,6.38.02,1.06.08,2.12.11,3.19.02,1.08.05,2.16.1,3.24.05,1.29.14,2.58.22,3.87.1,1.33.18,2.67.3,4.01.05.55.13,1.1.2,1.65-.81-.75-1.63-1.5-2.47-2.24-.93-.8-1.87-1.6-2.8-2.42,1.68-1.02,2.97-2.68,3.46-4.75.93-4-1.64-8.33-5.72-9.2-4.09-.86-8.24,1.6-9.2,5.72-.94,4.01,1.64,8.34,5.72,9.2,1.34.29,2.69.18,3.93-.2.32.38.66.74,1,1.1.46.47.92.93,1.39,1.39,1.67,1.68,3.41,3.32,5.11,4.97.12.86.24,1.72.34,2.6.17,1.77.25,3.56.29,5.34.02,1,.04,1.99.06,2.99.01.84-.01,1.68-.03,2.53-.01.48-.05.94-.12,1.41,0-.01.01-.02.01-.03,0,.01-.01.02-.01.04s-.01.04-.01.06c0-.02,0-.03.01-.05-.11.54-.23,1.07-.36,1.61-.06.18-.12.35-.19.53-.01.02-.03.04-.04.07-.14.22-.13.47-.04.69-.95,2.21-1.85,4.44-2.62,6.73-.8,2.41-1.57,4.81-2.36,7.21v-.04c-.03-.48-.09-.97-.13-1.46-.18-1.71-.42-3.43-.63-5.13-.31-2.63-.6-5.25-1.04-7.87-.11-.65-.21-1.31-.33-1.96-.12-.67-.25-1.35-.38-2.02-.08-.44-.16-.88-.24-1.33-.04-.21-.09-.42-.11-.63-.01-.08-.02-.15-.03-.22.24-.15.47-.33.64-.56.17-.24.26-.54.33-.83v-.03c.07-.09.12-.19.17-.28.09-.18.15-.32.21-.52.04-.14.06-.28.08-.42.05-.32-.03-.66-.15-.96-.11-.29-.3-.51-.53-.71-.36-.32-.94-.43-1.4-.31-.61.15-1.13.57-1.46,1.1-.35.57-.64,1.21-.62,1.89,0,.33.06.63.19.93.08.14.17.29.27.41.11.12.23.21.35.31.12.09.28.14.42.2.05.03.11.04.16.05.09.02.19.03.28.04.15.01.29-.06.44-.09.01.08.02.17.03.25,0-.02-.01-.03-.01-.05.05.64.1,1.28.15,1.92.05.66.13,1.31.19,1.96.11,1.1.2,2.19.3,3.3.1,1.2.2,2.41.31,3.61.1,1.25.19,2.5.33,3.75v-.02c.17,1.69.37,3.38.6,5.06.11.75.23,1.49.33,2.26.05.4.1.81.16,1.21.02.12.04.24.06.36-1.3,3.83-2.66,7.65-3.87,11.51-.8,2.56-1.55,5.12-2.19,7.72-.64,2.57-1.25,5.13-1.89,7.7-.6,2.44-1.19,4.88-1.71,7.34-.54,2.53-.92,5.1-1.34,7.66.01-.1.03-.19.04-.29-.18,1.08-.41,2.15-.61,3.23,0-.01-.01-.01-.01-.02-.06-1.27-.1-2.55-.17-3.82-.09-1.41-.18-2.82-.32-4.22-.12-1.3-.27-2.6-.42-3.88-.02-.2-.06-.4-.09-.6.14-1.06.28-2.12.39-3.2.13-1.24.27-2.49.43-3.72.33-2.66.64-5.3,1.05-7.94,0-.01.01-.01.01-.02h-.01s.01-.03.01-.05c.03-.19-.1-.37-.27-.43-.18-.07-.37-.01-.49.15-.05.07-.09.13-.13.22-.04.09-.04.18-.01.27-.29,1.26-.59,2.53-.85,3.8-.13.61-.27,1.22-.38,1.83-.12.66-.24,1.33-.36,1.99-.11.62-.18,1.24-.27,1.85-.13-.65-.26-1.3-.41-1.95-.29-1.28-.59-2.57-.86-3.85-.19-.92-.36-1.84-.53-2.77.05-.58.1-1.15.16-1.72.03-.32.07-.64.11-.96.05-.41.09-.83.15-1.24.1-.52.26-1.02.4-1.52.11-.39.22-.78.34-1.18.16-.57.34-1.14.51-1.7-.01.02-.02.05-.03.07.37-1.15.72-2.32,1.09-3.47.37-1.21.77-2.41,1.17-3.61.25-.78.49-1.56.73-2.35.25.09.49.19.75.24,3.24.69,6.53-1.26,7.3-4.53.74-3.18-1.3-6.62-4.54-7.3-1.67-.36-3.36,0-4.7.88.12-.3.24-.6.32-.93.82-3.54-1.45-7.37-5.06-8.14-3.61-.76-7.29,1.42-8.13,5.06-.83,3.54,1.45,7.37,5.05,8.13.45.1.9.15,1.35.15-.16,1.64-.32,3.28-.38,4.92,0-.01.01-.01.01-.02-.04,1.31-.03,2.63-.01,3.95.01.49.03.98.05,1.47-.16-.23-.32-.46-.49-.69-.46-.65-.95-1.3-1.44-1.94,0,.01.01.02.02.03.01.01.02.02.02.03-.02-.03-.04-.06-.07-.09.02.01.03.03.04.05-.03-.05-.07-.09-.1-.14.02.02.03.04.05.06-.27-.36-.54-.72-.81-1.09.02.02.03.04.04.06-.05-.07-.09-.13-.14-.2-.02-.03-.05-.06-.07-.09-.01-.02-.02-.03-.03-.05v.02s0-.02-.01-.02c-.01-.01-.02-.02-.02-.04,0,.01.01.02.01.02-.23-.33-.46-.68-.68-1.03-.23-.36-.44-.72-.65-1.09.01.01.02.03.03.05-.1-.18-.18-.35-.26-.54-.01-.04-.02-.08-.04-.12.05-.08.08-.18.06-.29-.06-.34-.49-.46-.72-.21-.22.24-.13.6-.04.87.08.21.16.43.27.63.09.19.19.37.29.56.19.4.4.79.62,1.18.41.73.83,1.46,1.28,2.16.4.66.81,1.3,1.21,1.96.18.29.37.59.54.89.21.36.41.72.62,1.07.18.35.36.7.54,1.05.03,1.06.04,2.12.05,3.19.01,1.24.03,2.49.12,3.73.1,1.34.22,2.69.36,4.02v-.04c.01.07.01.14.02.2,0-.02-.01-.04-.01-.07,0,.03.01.06.01.09s.01.07.01.1v-.04c.02.19.04.39.06.59.26,2.56.69,5.09,1.1,7.63.2,1.19.38,2.4.6,3.59.24,1.33.5,2.67.75,3.99.48,2.59.95,5.16,1.53,7.73.3,1.33.63,2.69,1.02,4,.19.64.39,1.29.61,1.92.01.02.01.04.02.06-.08.38-.15.76-.24,1.14-.18.07-.32.27-.17.47.01.02.05.02.07.04-.2.95-.42,1.9-.59,2.86-.56,3.08-1.07,6.16-1.57,9.25-.07.18-.13.37-.2.55-.45,1.3-.91,2.61-1.31,3.92-.24.81-.46,1.64-.68,2.47-.45-1.64-.91-3.29-1.34-4.94-.65-2.57-1.29-5.14-2.05-7.68-.41-1.39-.83-2.79-1.28-4.17-.38-1.19-.79-2.4-1.21-3.58-.93-2.57-1.88-5.13-2.93-7.66,0-.01-.01-.02-.02-.04,0-.37-.01-.75-.01-1.12.01-1,.04-2,.06-3v.06c.01-.5.03-1,.05-1.5v.09c.03-.87.07-1.73.1-2.6,0,.03-.01.06-.01.09.03-.73.06-1.46.08-2.19h0c.05-1.17.1-2.36.13-3.55v.03c.01-.06.01-.12.01-.18v.06-.1h0s0,0,0,0c0-.12.01-.24.01-.36v.03-.11h0s.01-.1.01-.16c0-.19.01-.39.02-.58.02-1.09.03-2.17-.03-3.26-.07-1.1-.17-2.19-.29-3.29,1.25-.06,2.4-.87,2.7-2.15.35-1.5-.61-3.13-2.14-3.45-.38-.08-.77-.08-1.13-.02-.01-.01-.01-.03-.01-.05,0-.01-.03-.02-.03,0s0,.05-.01.07c-1.07.21-1.99,1-2.27,2.14-.31,1.33.45,2.72,1.69,3.24-.03.38-.07.75-.09,1.13-.1,2.26-.09,4.51-.08,6.77,0,1.26,0,2.53-.01,3.79-.01,1.36-.03,2.73-.01,4.08.02,1.09.03,2.17.03,3.27-.11-.23-.2-.47-.31-.7-.57-1.21-1.17-2.44-1.78-3.64-.59-1.18-1.19-2.37-1.78-3.55-.59-1.19-1.11-2.43-1.62-3.65-.24-.64-.48-1.28-.71-1.93-.22-.64-.41-1.31-.6-1.96-.35-1.27-.67-2.56-.99-3.84-.3-1.21-.61-2.44-.92-3.66-.32-1.26-.73-2.52-1.12-3.76-.11-.38-.2-.76-.31-1.14,1.03-.41,1.88-1.23,2.15-2.41.43-1.84-.76-3.86-2.66-4.26-1.88-.4-3.81.74-4.25,2.66-.43,1.84.76,3.86,2.65,4.26.41.08.81.07,1.2.02.01.19-.01.39.02.58.15,1.31.42,2.61.77,3.88.34,1.27.73,2.54,1.09,3.8.7,2.49,1.34,5,2.27,7.41.49,1.25,1.01,2.5,1.57,3.72.52,1.16,1.08,2.3,1.63,3.45.56,1.16,1.13,2.33,1.66,3.52-.2-.19-.38-.39-.58-.57-.25-.22-.5-.45-.76-.66-.24-.19-.49-.38-.75-.57-.52-.38-1.06-.74-1.59-1.08-.53-.35-1.06-.68-1.59-1.02-.56-.36-1.12-.71-1.68-1.07-1.13-.7-2.25-1.42-3.37-2.13-.32-.2-.65-.39-.97-.58-.24-.15-.49-.29-.73-.43-.58-.34-1.16-.68-1.74-1.02.01,0,.02,0,.02.01-.69-.43-1.38-.87-2.07-1.3-.02-.01-.05-.03-.07-.04.37-.45.66-.97.81-1.58.48-2.08-.86-4.35-3-4.81-2.13-.45-4.31.84-4.82,3-.48,2.09.86,4.36,3,4.81,1.31.28,2.6-.15,3.54-.98.01.01.03.02.05.02-.01,0-.02-.01-.03-.01.95.59,1.88,1.18,2.84,1.75.52.31,1.05.62,1.57.93.44.24.86.51,1.28.76.75.47,1.48.95,2.23,1.41.77.49,1.54.97,2.32,1.46.78.49,1.56.99,2.35,1.5.37.24.73.49,1.1.74.33.24.65.49.98.74h-.01c.21.18.42.35.62.54.2.19.4.37.6.56.34.33.68.66,1.01,1,0,0-.01,0-.01-.01.06.07.11.13.17.19.07.18.16.36.23.54.25.57.47,1.15.71,1.73.14.36.27.72.41,1.08,0,.29.01.58,0,.88-.01.22.15.42.33.53.01,0,.03.01.04.02.04.03.09.04.14.05,0,0,.01-.01.02,0,.76,2.1,1.53,4.22,2.25,6.34.46,1.4.91,2.8,1.36,4.21.17.54.33,1.1.49,1.64.18.59.36,1.16.52,1.74.18.63.35,1.26.53,1.89-.5-.62-.99-1.24-1.54-1.8-.48-.5-.98-.97-1.48-1.43-.44-.4-.9-.77-1.34-1.15-.49-.42-.97-.85-1.46-1.26-.3-.25-.59-.51-.9-.75-.27-.21-.55-.42-.83-.63-.24-.19-.49-.35-.74-.52-.22-.15-.44-.31-.66-.45-.64-.39-1.27-.79-1.91-1.18-.55-.35-1.1-.7-1.64-1.06-.3-.2-.6-.39-.9-.59-.34-.21-.67-.42-1.01-.62.3-.41.53-.88.65-1.41.49-2.11-.86-4.4-3.02-4.85-2.15-.46-4.35.84-4.85,3.01-.5,2.12.86,4.4,3.02,4.86,1.19.25,2.38-.08,3.3-.76.05.06.1.11.16.16.11.12.32.1.43-.02.11-.13.1-.31-.02-.43-.01-.01-.01-.02-.02-.02.21.15.42.32.63.48-.01-.01-.03-.02-.04-.03.9.78,1.81,1.55,2.75,2.29.53.43,1.07.84,1.62,1.26.4.31.79.63,1.2.94.48.41.96.82,1.44,1.24.46.41.91.83,1.36,1.24.48.42.95.84,1.42,1.26.44.39.85.8,1.26,1.22,1,1.05,1.95,2.14,2.84,3.3.47.63.92,1.27,1.31,1.96,0-.01-.01-.02-.01-.02,0,0,.01.01.01.02.01.02.02.04.03.06,0-.01-.01-.03-.02-.04.1.19.2.39.31.58.13.51.27,1.02.41,1.53.34,1.24.75,2.49,1.14,3.72.27.88.52,1.77.77,2.67-.45,1.87-.88,3.76-1.32,5.63-.6,2.49-1.25,4.96-1.82,7.47-.25,1.07-.48,2.15-.69,3.24-.24,1.35-.51,2.7-.7,4.06-.17,1.21-.32,2.42-.47,3.63-.16,1.29-.34,2.58-.52,3.86-.63,3.77-1.35,7.52-2.01,11.28-.68,3.84-1.47,7.68-2.06,11.54-.42,2.72-.8,5.43-1.19,8.15-.31,2.22-.66,4.42-.99,6.63-.01-.1-.02-.21-.03-.31v.06c-.16-1.49-.39-3-.64-4.48-.28-1.68-.57-3.36-.88-5.04-.57-3.09-1.25-6.13-1.99-9.19.02-.02.05,0,.06-.03.05-.11.11-.22.1-.35,0-.1-.03-.21-.05-.31-.02-.24-.05-.47-.08-.7h0c-.01-.11-.01-.23-.03-.35.01-1.56.02-3.12.06-4.67v.11c0-.13.01-.26.01-.39.08-1.66.17-3.32.29-4.98.12-1.69.22-3.4.4-5.08.36-3.32.84-6.61,1.36-9.89.55-2.97,1.36-5.87,2.06-8.81.68-2.84,1.27-5.7,1.91-8.55.36-1.63.77-3.25,1.04-4.9.31-1.86.41-4.26-1.18-5.6-.78-.66-1.88-.82-2.85-.49-.86.3-1.51.97-1.89,1.77-.61,1.26-.66,2.66-.65,4.03.01.82.07,1.66.21,2.48.12.72.25,1.45.44,2.16-.13.53-.24,1.07-.34,1.61-.25,1.34-.45,2.7-.58,4.06-.09.89-.14,1.78-.2,2.69-.1.58-.24,1.17-.34,1.76.01-.01.01-.03.01-.04-.01.07-.02.13-.03.2.01-.04.01-.09.02-.14-.37,2.25-.59,4.51-.77,6.78-.09,1.05-.15,2.12-.21,3.19-.07,1.07-.13,2.14-.15,3.22v-.14c0,.06-.01.12-.01.17-.02.18-.02.36-.01.53-.01.22-.02.44-.02.65v-.07c-.01.22,0,.43,0,.65-.11,1.49-.2,2.98-.23,4.47-.05,2.46-.03,4.92-.02,7.38-.11-.53-.24-1.05-.35-1.59-.69-3.55-1.4-7.1-2.44-10.56-.35-1.17-.74-2.35-1.12-3.52-.03-.19-.06-.38-.09-.57-.18-1.12-.42-2.24-.62-3.35-.2-1.19-.4-2.39-.58-3.58-.12-.75-.27-1.5-.41-2.26.04-.01.09,0,.13-.02.3-.19.36-.58.19-.88-.21-.36-.44-.71-.65-1.07-.01-.02-.02-.03-.03-.04-.19-1.02-.37-2.04-.52-3.07-.37-2.45-.72-4.89-1.02-7.34.01.02.01.03.01.05,0-.02-.01-.04-.01-.07,0-.04-.01-.08-.01-.12,0,.02,0,.05.01.08-.15-1.51-.23-3.03-.34-4.54-.05-.62-.09-1.24-.14-1.86.08-.26.1-.53.16-.79,1.41.09,2.77-.77,3.1-2.2.36-1.53-.63-3.19-2.18-3.52-1.56-.33-3.15.61-3.52,2.19-.1.42-.08.85.01,1.26-.04.04-.09.07-.13.11-.33.43-.32.96-.29,1.47.06,1,.08,2,.13,3,.06,1.11.12,2.24.19,3.34.09,1.29.23,2.58.39,3.85-.44-.93-.87-1.87-1.33-2.81-.55-1.08-1.17-2.13-1.76-3.21.02.04.03.07.06.11-.14-.23-.26-.46-.39-.69.02.03.04.07.06.1-.1-.17-.19-.33-.28-.5.02.04.04.07.06.11-.37-.69-.75-1.37-1.07-2.08-.33-.71-.64-1.41-.94-2.13-.72-1.86-1.36-3.76-1.87-5.69-.07-.33-.18-.65-.26-.98,2.1-.27,3.95-1.73,4.46-3.93.64-2.73-1.11-5.67-3.9-6.26-2.78-.59-5.6,1.09-6.26,3.9-.63,2.73,1.12,5.67,3.9,6.26.05.01.09,0,.13,0,.13,1.12.35,2.24.66,3.31.19.66.38,1.31.59,1.95.23.68.47,1.35.72,2.02.23.6.48,1.19.75,1.78s.55,1.18.86,1.75c.61,1.1,1.24,2.2,1.89,3.26.67,1.1,1.32,2.21,1.95,3.32-.02-.03-.04-.06-.05-.09.49.92.98,1.85,1.46,2.79.21.4.42.81.63,1.21.19.37.41.73.62,1.09.16.94.31,1.89.5,2.84.25,1.26.57,2.51.87,3.76.37,1.59.69,3.19,1.09,4.77.35,1.39.73,2.77,1.08,4.16.14,1.6.3,3.21.55,4.81.27,1.72.66,3.42.95,5.14.3,1.75.55,3.52.78,5.28.43,3.39.92,6.77,1.5,10.13-.47-.88-.96-1.76-1.39-2.66-.11-.23-.2-.46-.31-.69-.26-.62-.49-1.25-.76-1.87-.32-.72-.67-1.43-1.01-2.15-.36-.86-.71-1.73-1.06-2.61-.47-1.18-.93-2.39-1.45-3.56-.55-1.26-1.14-2.52-1.79-3.74-.23-.44-.48-.87-.72-1.3-.35-.77-.71-1.53-1.02-2.32,0,.02.01.04.02.06-.01-.03-.02-.05-.03-.07-.01-.03-.02-.05-.03-.07.01.02.02.04.03.06-.58-1.55-1.04-3.14-1.52-4.71-.42-1.39-.86-2.79-1.36-4.15-.53-1.43-1.12-2.84-1.74-4.23-.55-1.27-1.1-2.55-1.63-3.82-.55-1.32-1.2-2.6-1.89-3.85.04.08.09.17.14.26-.63-1.14-1.22-2.31-1.72-3.51-.1-.3-.2-.6-.28-.91-.05-.26-.1-.52-.14-.79-.09-1.06-.11-2.12-.21-3.19-.12-1.27-.22-2.6-.63-3.82-.3-.92-.75-1.78-1.29-2.59.52-.56.74-1.37.39-2.12-.08-.16-.18-.32-.27-.48-.29-.45-.77-.73-1.22-1.01-.45-.3-.94-.47-1.43-.69-1.09-.47-2.41.21-2.81,1.27-.27.73-.09,1.47.34,2.04-.19.46-.22.98-.17,1.48.03.33.07.66.15.99.3,1.35.77,2.66,1.24,3.95.23.65.47,1.3.68,1.95.16.51.33,1.02.51,1.53-.01.18-.02.36-.02.54-.02,1.42.4,2.85,1,4.13.56,1.17,1.22,2.31,1.94,3.39.69,1.01,1.33,2.05,1.94,3.12-.05-.07-.09-.16-.13-.23.1.19.21.38.31.57.01.02.02.04.04.07-.01-.02-.02-.04-.03-.05.01.02.03.05.04.07.09.23.14.47.23.7-.02-.06-.05-.12-.07-.17.05.12.09.24.14.35,0-.01-.01-.02-.01-.03.01.04.03.08.04.12.01.01.02.03.02.05v-.02c.01.05.03.09.05.14.03.08.06.15.09.23.16.4.32.81.47,1.21h.01s.01.05.02.07c0-.01-.01-.02-.01-.03.01.02.01.04.02.06.01.02.02.04.03.06-.01-.01-.01-.02-.02-.04.01.02.01.03.02.04-.01-.01-.01-.02-.02-.04.01.02.02.04.02.06.01.02.02.05.03.07-.01-.02-.01-.03-.02-.05.17.42.33.85.5,1.27-.02-.05-.04-.11-.07-.17.04.1.08.21.12.31.01.01.01.02.01.03.01,0,.01.01.01.01.01.03.02.05.03.08-.01-.03-.02-.05-.03-.07.01.02.02.05.03.08-.01-.03-.02-.06-.03-.08.25.64.51,1.29.76,1.94,0-.01-.01-.02-.01-.02.49,1.26,1.01,2.52,1.54,3.77.5,1.21,1.08,2.39,1.63,3.57.25.53.54,1.05.82,1.57.38.68.76,1.37,1.16,2.05.62,1.08,1.26,2.15,1.88,3.25.72,1.33,1.4,2.7,2,4.1.2.45.4.89.59,1.33-.21-.22-.41-.45-.62-.67-.73-.78-1.46-1.55-2.16-2.37-.39-.44-.76-.9-1.14-1.35-.24-.29-.47-.59-.72-.86-.23-.26-.46-.52-.69-.77-.2-.22-.41-.44-.62-.65-.2-.21-.4-.43-.62-.63-.29-.26-.57-.54-.87-.8-.28-.24-.55-.48-.83-.72-.98-.86-1.98-1.69-3-2.53-1-.8-2.02-1.58-3.04-2.38h-.01c-.28-.24-.56-.47-.84-.7-.06-.04-.11-.09-.16-.13.53-.24.96-.68,1.1-1.29.23-1.01-.42-2.11-1.45-2.34-1.04-.22-2.09.41-2.34,1.45-.23.98.37,2.01,1.34,2.29.03.07.03.14.09.19.47.45.97.88,1.46,1.31.44.39.88.79,1.33,1.19.88.79,1.72,1.61,2.6,2.41.52.48,1.04.94,1.57,1.4.4.35.82.69,1.22,1.04.3.25.6.5.89.75.23.2.45.41.67.6.41.37.8.77,1.19,1.15,0,0-.01-.01-.01-.02.01.02.02.03.03.04.01.01.02.02.03.03-.01-.01-.02-.02-.02-.02.58.62,1.16,1.23,1.74,1.84.56.6,1.14,1.17,1.73,1.74.53.52,1.08,1.02,1.62,1.53.34.33.67.65,1.01.97.16.15.31.31.46.46.55,1.28,1.1,2.57,1.68,3.84.52,1.13,1.07,2.26,1.67,3.36.64,1.18,1.31,2.35,1.97,3.52.57,1.03,1.12,2.08,1.62,3.16.25.54.47,1.09.7,1.64.16.96.3,1.91.47,2.88.66,3.58,1.36,7.15,2.03,10.71.33,1.78.59,3.58.86,5.37.14.9.23,1.81.35,2.73.05.45.12.89.17,1.33.06.54.11,1.09.23,1.61-.05.19-.08.37-.14.55-.31,1.03-.65,2.07-.84,3.14-.08.48-.17.97-.26,1.45-.19,1.09-.37,2.2-.59,3.3-1.13,5.87-1.77,11.84-2.54,17.76-.71,5.56-1.41,11.13-2.02,16.7-1.32,12.1-2.14,24.23-2.79,36.38-.6,11.44-1.26,22.87-2.03,34.3-.05.78-.13,1.57-.18,2.36-.08-.16-.17-.32-.25-.49-.35-.72-.66-1.46-.96-2.22-.32-.86-.61-1.73-.89-2.62-.26-.78-.47-1.57-.69-2.37,0,.01.01.02,0,.03-.13-.59-.28-1.18-.42-1.77-.12-.49-.2-.99-.29-1.48-.09-.44-.17-.88-.23-1.32-.06-.49-.12-.99-.18-1.49-.04-.58-.11-1.16-.1-1.73,0-.53.01-1.06.01-1.59.12-2.42.3-4.83.58-7.23.14-1.13.29-2.27.41-3.4.14-1.31.26-2.62.35-3.94.06-.79.06-1.58.07-2.39,0-.79-.05-1.57-.11-2.37-.05-.82-.17-1.63-.28-2.46-.1-.74-.26-1.47-.45-2.19-.23-.91-.51-1.81-.88-2.68-.4-.92-.89-1.78-1.56-2.55-.5-.56-1.18-1.07-1.94-1.19-.7-.11-1.44.11-1.87.71-.37.5-.57,1.1-.71,1.7-.39,1.56-.5,3.18-.6,4.78-.1,1.54-.08,3.12-.08,4.67-.01,1.53.06,3.08.12,4.61.05,1.57.18,3.15.28,4.73.02.29.04.59.06.88-.36-.82-.72-1.66-1.08-2.5-.42-.93-.87-1.86-1.38-2.75-.51-.87-1.03-1.73-1.54-2.61-.29-.54-.56-1.09-.83-1.64-.25-.52-.46-1.04-.68-1.57-.16-.46-.34-.91-.48-1.37-.14-.49-.29-.99-.43-1.48-.31-1.29-.61-2.58-.76-3.91-.05-.54-.07-1.08-.06-1.63.03-.56.1-1.12.17-1.68.15-.82.31-1.64.48-2.48.33-1.54.63-3.09.92-4.64.3-1.59.49-3.22.7-4.82.18-1.49.31-2.99.4-4.49.05-.8.06-1.59.08-2.41.02-1.61-.04-3.28-.39-4.86-.36-1.64-.95-3.45-2.66-4.11-1.63-.64-3.34.63-4.33,1.8-.61.71-1.03,1.59-1.32,2.48-.3.92-.52,1.85-.67,2.81-.12.81-.22,1.63-.26,2.45-.01.5-.04,1.01-.06,1.51-.06,1.51.02,3.03.09,4.54.03.68.06,1.36.11,2.04.06.82.1,1.64.19,2.46-.01-.03-.01-.06-.02-.09l.21,2.1c.06.51.09,1.02.16,1.53.01.06.01.12.02.18-.17-.42-.34-.84-.51-1.27-.36-1-.73-2.01-1.06-3.03-.33-1.02-.62-2.04-.9-3.08-.19-.78-.37-1.57-.54-2.37-.29-1.4-.56-2.81-.81-4.22-.25-1.43-.48-2.89-.77-4.32-.22-1.1-.46-2.2-.7-3.29-.02-.57-.04-1.14-.04-1.71-.01-.53-.01-1.05-.01-1.58.46-.69.97-1.35,1.49-2-.05.06-.1.13-.16.19,1.55-1.91,3.12-3.84,4.3-6,1.48-2.73,2.61-5.69,2.9-8.81.14-1.58.15-3.2-.06-4.79-.11-.82-.29-1.62-.55-2.43-.24-.73-.56-1.44-.89-2.13-.45-.94-1.04-1.86-1.72-2.65-.54-.6-1.3-1.22-2.12-1.35-.67-.12-1.42-.09-2.01.31-.58.42-.99.93-1.29,1.58-.17.37-.31.76-.43,1.15-.2.67-.38,1.34-.52,2.02-.31,1.52-.57,3.08-.71,4.63-.16,1.7-.21,3.41-.25,5.11-.05,2.9-.09,5.8-.13,8.71,0,.1,0,.21-.01.31-.44-1.87-.89-3.76-1.29-5.64-.25-1.21-.47-2.44-.72-3.65-.27-1.36-.58-2.73-.9-4.08v.04c-.15-.63-.31-1.25-.47-1.87.01.02.01.04.02.06-.16-.68-.34-1.36-.51-2.04-.16-.69-.33-1.38-.5-2.07-.68-2.79-1.51-5.55-2.35-8.3-.24-.77-.49-1.54-.73-2.33-.2-.59-.4-1.2-.66-1.77-.33-.73-.67-1.44-1.04-2.16-.37-.73-.77-1.45-1.18-2.16-.46-.78-.98-1.54-1.65-2.17-.56-.52-1.16-1.02-1.82-1.41-.64-.38-1.35-.68-2.12-.59-.67.07-1.23.36-1.72.82-.57.55-.92,1.29-1.18,2.04-.27.78-.41,1.65-.46,2.49-.04.91-.01,1.83.24,2.73.22.82.57,1.6,1.01,2.34.9,1.51,2.09,2.85,3.26,4.17.92,1.04,1.85,2.07,2.73,3.17.85,1.18,1.64,2.39,2.36,3.66.38.72.72,1.46,1.05,2.23.45,1.21.83,2.45,1.19,3.69.37,1.26.74,2.53,1.09,3.8.35,1.27.71,2.55,1.08,3.81.17.59.33,1.19.5,1.79.13.48.3.94.42,1.41.05.22.09.45.14.68.08.35.2.7.31,1.04.19.61.41,1.2.62,1.79.36,1,.7,2,1.05,3.01-.21-.39-.4-.79-.63-1.18-.77-1.33-1.58-2.65-2.5-3.89-.48-.65-.94-1.31-1.45-1.93-.49-.61-.96-1.23-1.48-1.81-.59-.64-1.15-1.31-1.77-1.93-1.45-1.47-3.03-2.84-4.83-3.85-.8-.45-1.63-.84-2.5-1.14-.56-.2-1.12-.41-1.69-.55-.79-.19-1.63-.2-2.36.23-.68.41-1.18,1.08-1.48,1.82-.38.97-.53,2-.59,3.06-.06.93-.09,1.89.04,2.82.14,1,.39,2.03.84,2.95.43.87.97,1.63,1.65,2.33,1.14,1.17,2.51,2.11,3.89,2.98.34.21.67.44,1.01.63.41.21.81.43,1.21.64,1.34.73,2.76,1.33,4.15,1.96,1.33.61,2.61,1.3,3.85,2.06.45.29.89.6,1.31.94.41.34.79.69,1.16,1.06.6.64,1.13,1.31,1.65,2,.41.61.8,1.21,1.18,1.82.17.31.36.62.5.95.17.37.33.74.5,1.11.21.56.41,1.11.59,1.68.17.53.32,1.07.46,1.61.06.24.1.48.16.72.14.78.28,1.56.45,2.35-1.87-1.64-4.03-3.06-6.28-4.11-2.33-1.07-4.75-1.88-7.22-2.52-.68-.18-1.35-.34-2.02-.48-.59-.12-1.21-.3-1.8-.33-.36-.01-.71-.03-1.05.08-.34.1-.63.28-.88.52-.52.48-.7,1.29-.62,1.97.09.83.41,1.64.85,2.36,1.06,1.69,2.63,3.04,4.24,4.19,1.73,1.21,3.58,2.26,5.57,2.98.71.26,1.42.51,2.13.76,1.41.48,2.82.98,4.19,1.57.4.19.78.4,1.16.62.33.21.65.44.95.68.5.41.96.87,1.42,1.33.41.48.8.97,1.19,1.47.97,1.39,1.85,2.85,2.79,4.26.9,1.35,1.87,2.67,2.86,3.96.32.44.68.92,1.13,1.23.05.09.1.18.14.27,1.29,2.54,2.56,5.08,4.02,7.52.64,1.08,1.3,2.15,1.97,3.22-.19-.11-.37-.21-.55-.32-2.26-1.44-4.5-2.95-6.81-4.32-.67-.39-1.33-.81-2.01-1.18-.68-.38-1.36-.79-2.07-1.13-1.44-.69-2.87-1.38-4.36-1.96-.71-.27-1.43-.54-2.15-.79-.64-.22-1.26-.43-1.95-.44-.56,0-1.12.38-1.41.84-.87,1.44,0,3.25.97,4.4,1.11,1.31,2.5,2.39,3.95,3.28.6.37,1.18.73,1.78,1.09-.04-.02-.09-.05-.13-.08.84.53,1.73,1,2.63,1.44.46.23.93.48,1.41.69.48.2.97.44,1.46.62,1.03.37,2.07.72,3.11,1.07.52.17,1.04.33,1.54.53.47.19.95.38,1.42.57.93.43,1.84.87,2.74,1.39.59.37,1.16.77,1.71,1.2.54.47,1.05.96,1.56,1.46.7.74,1.36,1.5,2,2.3.13.17.26.35.39.53,0-.01-.01-.01-.01-.02.46.66.91,1.32,1.31,2.02,0-.01-.01-.03-.02-.04.14.24.27.47.47.67.04.05.11.07.16.12.01.02.02.03.02.05.39.99.78,1.96,1.17,2.95.28.77.52,1.55.78,2.33.41,1.18.75,2.39,1.12,3.59.18.62.37,1.24.56,1.86-.22-.17-.43-.34-.65-.5-.77-.55-1.52-1.11-2.32-1.63-.84-.55-1.66-1.13-2.53-1.65-.92-.56-1.84-1.12-2.77-1.69.02.01.04.02.05.03-1.17-.71-2.36-1.39-3.53-2.09-1.27-.75-2.53-1.52-3.83-2.21-1.3-.69-2.61-1.38-3.96-1.97-.76-.34-1.52-.66-2.31-.98-.31-.12-.61-.26-.93-.36-.31-.09-.63-.22-.95-.21-.31.01-.62.07-.89.24-.24.15-.4.31-.57.53-.21.27-.24.66-.21.99.03.34.15.66.29.98.36.84.89,1.58,1.41,2.33.77,1.08,1.59,2.11,2.44,3.14.79.96,1.57,1.92,2.46,2.81,1.46,1.45,3.16,2.66,4.97,3.66,1.78.98,3.67,1.76,5.55,2.5,1.35.53,2.7,1.06,4.02,1.64.55.28,1.11.56,1.65.88.39.25.77.52,1.14.8.32.27.62.54.91.84.63.68,1.24,1.37,1.8,2.1-.01,0-.02-.01-.02-.02.01.02.02.03.04.05,0,.01.01.01.01.02h0c.87,1.18,1.63,2.46,2.46,3.68.06.57.1,1.14.1,1.72-.01.13-.01.26-.01.39-.07.85-.12,1.71-.19,2.57-.45,5.31-.97,10.61-1.47,15.92-.58,6.14-1.16,12.3-1.77,18.44-.59,6.05-1.01,12.12-1.42,18.19-.36,5.55-.54,11.12-.72,16.67-.17,5.6-.33,11.23-.21,16.83.05,2.41.12,4.81.17,7.23-.28-.66-.54-1.33-.81-1.98-.73-1.75-1.44-3.51-2.13-5.26-.47-1.45-.93-2.92-1.43-4.37-.52-1.51-1.03-3.05-1.66-4.53-1.23-2.92-2.83-5.64-4.04-8.57-1.03-2.7-1.94-5.44-2.82-8.21.44.63.9,1.25,1.3,1.89h.01s.03,0,.02-.01c-.84-2.86-1.8-5.73-3.34-8.28-1.28-4.09-2.63-8.16-4.46-12.05-.16-.34-.39-.64-.56-.97,0-.27.02-.53.02-.8-.05-1.51-.07-3.03-.07-4.55.01-.31.03-.63-.01-.94-.05-.4-.13-.79-.22-1.18-.06-.32-.13-.63-.2-.94-.13-.64-.26-1.27-.4-1.91-.28-1.36-.55-2.74-.85-4.1-.33-1.49-.69-3-1.05-4.48-.32-1.3-.76-2.58-1.18-3.84-.86-2.61-2.12-5.07-3.27-7.57-1.14-2.49-2.17-5.02-3.32-7.5-1.13-2.48-2.35-4.92-3.48-7.4-1.15-2.51-2.26-5.04-3.58-7.47,0-.02-.01-.03-.02-.04.01.01.01.02.01.02-.01-.03-.03-.06-.05-.09-.02-.05-.05-.09-.07-.13h0c-.89-1.61-1.79-3.22-2.81-4.75-.98-1.49-1.95-2.99-2.91-4.5-1.82-2.91-3.32-6-5.22-8.86-1.52-2.31-3.18-4.53-4.85-6.75-1.72-2.27-3.52-4.44-5.46-6.52-3.73-3.99-7.65-7.8-11.46-11.72-1.75-1.84-3.49-3.7-5.18-5.59-1.58-1.76-3.02-3.66-4.44-5.56-.68-.94-1.36-1.87-2.06-2.81-.81-1.09-1.67-2.11-2.59-3.13-1.01-1.11-2.16-2.08-3.31-3.06-1.16-.97-2.43-1.84-3.65-2.74-1.07-.77-2.14-1.54-3.27-2.24-1.41-.88-2.83-1.76-4.36-2.42-1.46-.61-2.93-1.22-4.46-1.62-2.61-.68-5.22-1.29-7.81-2.03-1.16-.41-2.31-.82-3.45-1.27-2.14-.99-4.22-2.08-6.31-3.17-2.17-1.12-4.39-2.16-6.47-3.44-.04-.03-.08-.05-.11-.07.01.01.02.02.03.02-1.85-1.14-3.67-2.31-5.64-3.22-1.29-.6-2.66-1.1-4.04-1.41-1.34-.29-2.71-.49-4.07-.68-.57-.08-1.14-.18-1.71-.22-.74-.06-1.32.18-1.96.53-.6.33-.92.96-1.17,1.57-.29.7-.26,1.61-.12,2.34.15.77.35,1.51.62,2.26.38,1.06.82,2.1,1.33,3.12,1.26,2.59,2.63,5.12,3.91,7.69,1.24,2.47,2.42,4.97,3.5,7.52,2.3,5.39,4.51,10.86,7.53,15.91.36.6.69,1.25,1.09,1.82.45.65.91,1.29,1.36,1.93.82,1.17,1.71,2.29,2.59,3.41,1.66,2.12,3.31,4.26,4.92,6.42-.01-.02-.03-.04-.04-.06,1.51,2.11,3.01,4.25,4.5,6.38,1.64,2.34,3.37,4.64,4.9,7.06,1.48,2.33,2.9,4.69,4.37,7.03.82,1.32,1.66,2.62,2.55,3.91.83,1.22,1.72,2.41,2.62,3.59,1.7,2.29,3.63,4.39,5.53,6.51.94,1.05,1.95,2.03,2.94,3.05.9.93,1.83,1.84,2.79,2.72,1.99,1.82,4.01,3.61,6.03,5.4,2.21,1.96,4.41,3.95,6.48,6.05,1.98,2,3.91,4.06,5.95,6.01,2.07,1.97,4.26,3.79,6.59,5.49,2.33,1.7,4.74,3.3,7.12,4.95,2.31,1.6,4.54,3.31,6.86,4.91,2.26,1.55,4.64,2.95,7,4.34.52.33,1.06.65,1.58.97,1.1.69,2.13,1.48,3.18,2.28.95.85,1.9,1.71,2.83,2.61.36.38.71.75,1.07,1.12-.01-.01-.02-.03-.03-.04,1.81,1.89,3.57,3.83,5.57,5.52,1.77,1.52,3.64,2.93,5.5,4.34.09.22.2.44.29.67.97,2.6,1.83,5.22,2.84,7.81-.01-.03-.02-.05-.03-.08,1.29,3.33,2.69,6.62,4.07,9.9.65,1.52,1.25,3.09,2,4.58.81,1.63,1.72,3.21,2.62,4.81.79,1.5,1.48,3.05,2.12,4.63.53,1.43,1.06,2.86,1.54,4.3.26.79.49,1.59.8,2.37.34.84.69,1.68,1.03,2.53,1.22,2.99,2.49,5.97,3.73,8.95,1.15,3,2.3,6.01,3.19,9.1.14,5.02.29,10.04.49,15.06.23,5.66.54,11.33.82,17,.13,2.79.23,5.57.41,8.35.18,2.72.28,5.45.54,8.16.03.35.07.7.11,1.05-.55.12-1.11.16-1.63.32-.63.2-1.28.39-1.89.67-.6.28-1.23.53-1.81.84-1.22.66-2.51,1.26-3.57,2.15-.05.03-.1.06-.14.09-.72.45-1.46.88-2.15,1.36-.78.52-1.55,1.06-2.34,1.59-.69.47-1.36.98-2.04,1.47-1.36.97-2.7,1.99-3.94,3.13-1.94,1.75-3.77,3.64-5.6,5.51-1.1,1.13-2.17,2.29-3.31,3.39-.33.32-.68.63-.98.98-.31.36-.58.72-.83,1.12-.43.7-.79,1.45-1.18,2.18-.4.76-.8,1.51-1.21,2.28-.73,1.4-1.46,2.8-2.2,4.2-.77,1.49-1.52,2.99-2.27,4.49-.3.6-.55,1.21-.81,1.82-.27.63-.57,1.25-.81,1.88-.38.97-.76,1.94-1.13,2.92-.25.63-.46,1.28-.67,1.93-.24.71-.5,1.42-.71,2.14-.29.97-.58,1.95-.86,2.93-.42,1.41-.76,2.85-1.09,4.28-.37,1.59-.74,3.21-1.01,4.83h0s-.01.05-.01.08h-.01c-.01.08-.02.15-.03.22h0c-.13.78-.26,1.56-.39,2.36h0c0,.05-.01.1-.02.16,0-.01.01-.03.01-.05-.17,1.01-.28,2.04-.41,3.07-.13,1.02-.22,2.04-.33,3.07-.22,2.02-.33,4.06-.46,6.09-.11,1.66-.17,3.34-.23,5-.05,1.54-.1,3.09-.11,4.63,0,1.66,0,3.33.14,4.98.15,1.57.3,3.14.56,4.69.25,1.61.6,3.18,1.07,4.74.24.77.54,1.57.91,2.29.28.51.73,1,1.31,1.14.02,0,.03.01.05.01.54.12,1.2-.06,1.67-.32.8-.46,1.49-1.12,2.14-1.78.47-.49.93-1,1.38-1.52.56-.65,1.12-1.31,1.68-1.97.57-.67,1.15-1.32,1.73-1.98.5-.56,1.03-1.09,1.55-1.62.69-.66,1.39-1.3,2.11-1.9.75-.63,1.53-1.22,2.31-1.81h-.01c.58-.42,1.16-.84,1.74-1.27-.02.02-.05.04-.08.06.06-.04.1-.07.16-.11-.03.02-.06.04-.09.05.59-.42,1.17-.85,1.75-1.28-.03.02-.06.04-.09.06,1.32-.96,2.58-2.03,3.84-3.08,1.19-1,2.37-2.03,3.55-3.05,1.19-1.02,2.4-2.03,3.6-3.04,1.17-.96,2.38-1.86,3.58-2.79,2.48-1.79,5-3.52,7.6-5.13,2.76-1.71,5.57-3.32,8.42-4.89,0,0-.01.01-.02.01.67-.37,1.34-.74,2.01-1.12.34,2.33.68,4.64,1,6.97.49,4.26.98,8.53,1.46,12.79.5,4.43,1.06,8.86,1.4,13.3.7,8.96,1.21,17.93,2.18,26.86.33,3.02.79,6.03,1.21,9.04.4,2.88.76,5.75,1.13,8.64.75,5.77,1.82,11.58,3.4,17.19.79,2.82,1.7,5.59,2.85,8.29,1.06,2.5,2.3,4.89,3.61,7.27,1.18,2.15,2.28,4.35,3.43,6.51.7,1.3,1.42,2.59,2.18,3.84.48.8.98,1.56,1.55,2.32.84,1.11,2.2,1.69,3.53,1.97.05.01.09.02.14.03,1.23.24,2.52.11,3.66-.44.91-.44,1.59-1.09,2.22-1.88,2.04-2.6,1.34-6.24.12-9.03-.57-1.31-1.24-2.57-2.16-3.67-.43-.51-.87-1-1.34-1.47-.57-1.43-1.17-2.85-1.82-4.24-1.51-3.18-3.08-6.29-4.43-9.54-1.02-2.78-1.87-5.59-2.65-8.46-.73-3.12-1.36-6.22-1.88-9.38-.52-3.2-1.01-6.41-1.54-9.61-.47-2.93-1.08-5.83-1.53-8.76-.15-.97-.28-1.95-.42-2.93.41-1.96.89-3.91,1.36-5.85.52-2.17.92-4.37,1.3-6.57.42-2.41.83-4.81,1.29-7.21.43-2.33.91-4.65,1.49-6.94.59-2.34,1.22-4.66,1.9-6.98.66-2.24,1.31-4.47,1.92-6.73,1.28-4.68,2.55-9.38,3.94-14.04.38-1.24.77-2.48,1.17-3.72.02.01.04.03.06.03.09.03.18.06.26.07.21.05.4.06.61-.02.14-.05.28-.1.42-.16.55-.2,1.09-.4,1.63-.6.73-.27,1.45-.54,2.18-.81,1.59-.61,3.19-1.2,4.79-1.78,1.54-.56,3.05-1.24,4.54-1.94.73-.35,1.49-.69,2.2-1.11.41-.25.81-.49,1.22-.74.34-.21.67-.46,1-.69,1.38-.94,2.68-2.02,3.96-3.08,1.31-1.08,2.63-2.16,3.91-3.28,1.31-1.13,2.6-2.29,3.85-3.5,1.25-1.21,2.5-2.44,3.76-3.65-.02.02-.03.03-.05.04.53-.5,1.06-1,1.59-1.51-.05.05-.1.1-.15.14.17-.15.33-.32.5-.47-.02.02-.05.04-.07.06.87-.83,1.7-1.69,2.54-2.58.84-.89,1.57-1.88,2.32-2.86.7-.9,1.3-1.89,1.91-2.86.58-.9,1.13-1.83,1.66-2.78,1.72-2.99,3.34-6.04,4.83-9.16.78-1.63,1.49-3.32,2.21-4.99.69-1.6,1.34-3.23,1.99-4.85,1.29-3.2,2.47-6.43,3.61-9.69.56-1.61,1.16-3.22,1.78-4.81.57-1.48,1.22-2.92,1.86-4.36.02-.04.03-.07.05-.11.02-.03.03-.06.04-.09,0,.02-.01.03-.01.04.19-.42.38-.85.56-1.28.01-.01.02-.03.03-.05.01-.02.02-.03.02-.05h0c.19-.41.38-.84.57-1.27-.01.01-.01.02-.02.03.49-1.08.96-2.17,1.41-3.29.47-1.16.96-2.33,1.38-3.52.86-2.51,1.71-5.02,2.49-7.56-.02.05-.04.11-.05.16.45-1.47.9-2.96,1.33-4.43,2-6.78,3.89-13.58,5.89-20.35.17-.55.36-1.1.53-1.64.53-1.1,1.05-2.22,1.58-3.31,1.07-2.2,2.13-4.39,3.16-6.62,1.01-2.2,1.93-4.44,2.59-6.79.31-1.12.65-2.26.9-3.41.27-1.17.51-2.34.73-3.52"/>
        <line class="cls-2" x1="385.89" y1="373.67" x2="385.89" y2="373.67"/>
        <path d="M516.03,739.5h1.5c.26-.67.58-1.2.95-1.6.36-.4,1.05-.6,2.05-.6,1.13,0,2.47.27,4.01.8,1.53.53,2.97,1,4.31,1.4,1.13.33,2.16.58,3.11.75.93.17,1.86.32,2.81.45.93.13,1.93.22,3.01.25,1.06.03,2.31.05,3.71.05,3.94,0,7.48-.65,10.62-1.95,3.14-1.3,5.81-3.04,8.02-5.21,2.21-2.17,3.89-4.68,5.06-7.52,1.16-2.84,1.75-5.83,1.75-8.97,0-3.41-.65-6.21-1.95-8.42-1.3-2.21-2.88-3.98-4.71-5.31-1.84-1.33-3.73-2.34-5.66-3.01-1.94-.67-3.55-1.2-4.81-1.6l-12.13-3.81c-1.74-.53-3.46-1.15-5.16-1.85s-3.25-1.57-4.61-2.61c-1.37-1.03-2.5-2.31-3.36-3.81-.87-1.5-1.3-3.33-1.3-5.46,0-2.68.55-4.88,1.65-6.62,1.1-1.73,2.49-3.14,4.16-4.21,1.66-1.07,3.47-1.82,5.41-2.26,1.93-.43,3.71-.65,5.31-.65,2.87,0,5.39.52,7.57,1.55,2.16,1.03,4.02,2.41,5.56,4.11,1.53,1.7,2.79,3.68,3.76,5.91.96,2.24,1.65,4.56,2.05,6.97h1.2v-18.14h-1.4c-.54.93-.95,1.52-1.25,1.75-.3.23-.89.35-1.75.35-.94,0-1.85-.2-2.76-.6-.9-.4-1.92-.85-3.06-1.35-1.14-.5-2.5-.95-4.06-1.35-1.57-.4-3.53-.6-5.86-.6-3.21,0-6.16.53-8.87,1.6-2.71,1.07-5.03,2.54-6.97,4.41-1.94,1.87-3.45,4.09-4.51,6.67-1.07,2.58-1.6,5.36-1.6,8.37,0,4.61,1.38,8.29,4.16,11.03,2.77,2.74,6.87,4.94,12.28,6.62l11.53,3.51c1.4.4,2.89.97,4.46,1.7,1.56.73,3.02,1.68,4.36,2.86,1.33,1.17,2.44,2.59,3.31,4.26.86,1.67,1.3,3.68,1.3,6.01,0,1.6-.27,3.36-.8,5.26-.54,1.9-1.47,3.68-2.81,5.31-1.34,1.63-3.15,2.99-5.41,4.06-2.28,1.07-5.18,1.6-8.72,1.6-1.27,0-2.63-.03-4.06-.1-1.44-.07-2.95-.3-4.51-.7-1.57-.4-3.13-1.03-4.66-1.9-1.54-.87-3.01-2.1-4.41-3.71-1.4-1.6-2.7-3.64-3.86-6.11-1.17-2.48-2.12-5.51-2.86-9.12h-1.1v21.55ZM252.46,739.5h32.27v-1.4h-11.13v-34.68h8.12c2.41,0,4.36.42,5.86,1.25,1.5.83,2.71,1.95,3.61,3.36.9,1.4,1.6,3.01,2.1,4.81.5,1.8.98,3.68,1.45,5.61h1.1v-31.17h-1.1c-.73,3.01-1.48,5.46-2.26,7.37s-1.7,3.41-2.81,4.51c-1.1,1.1-2.43,1.85-3.96,2.26-1.53.4-3.41.6-5.61.6h-6.51v-32.47h16.64c2.74,0,5.08.33,7.02,1,1.93.67,3.61,1.68,5.01,3.06,1.4,1.37,2.61,3.04,3.61,5.01s1.93,4.26,2.81,6.87h1.1v-17.34h-57.33v1.4h11.13v68.56h-11.13v1.4Z"/>
      </g>
    </g>
  </g>
</svg>